<svg viewBox="0 0 538.283468412 81.817801889" width="538.283468412pt" height="81.817801889pt" xmlns="http://www.w3.org/2000/svg" xmlns:xlink="http://www.w3.org/1999/xlink" xmlns:h5="http://www.w3.org/1999/xhtml"><path fill="#ffffff" fill-rule="nonzero" d="M 0 0v 81.817801889h 538.283468412v -81.817801889Z "/><g transform="translate(14.173228346 14.173228346)"><path fill="none" transform="translate(0 1.219238281)" d="M 0 0m 0 0h 52.98046875v 8.513183594h -52.98046875v -8.513183594Z "/><g transform="translate(-9.7e-8 1.219238267)"><g transform="matrix(1 0 0 -1 0 8.357421875)"><use xlink:href="#g421E0A5ADBCD098867DA851B84E834" x="0" y="0" fill="#737373" fill-rule="nonzero"/><use xlink:href="#g421E0A5ADBCD098867DA851B84E834" x="6.622558594" y="0" fill="#737373" fill-rule="nonzero"/><use xlink:href="#g421E0A5ADBCD098867DA851B84E834" x="13.245117188" y="0" fill="#737373" fill-rule="nonzero"/><use xlink:href="#g421E0A5ADBCD098867DA851B84E834" x="19.867675781" y="0" fill="#737373" fill-rule="nonzero"/><use xlink:href="#g421E0A5ADBCD098867DA851B84E834" x="26.490234375" y="0" fill="#737373" fill-rule="nonzero"/><use xlink:href="#g421E0A5ADBCD098867DA851B84E834" x="33.112792969" y="0" fill="#737373" fill-rule="nonzero"/><use xlink:href="#g421E0A5ADBCD098867DA851B84E834" x="39.735351563" y="0" fill="#737373" fill-rule="nonzero"/><use xlink:href="#g421E0A5ADBCD098867DA851B84E834" x="46.357910156" y="0" fill="#737373" fill-rule="nonzero"/></g></g><path fill="none" transform="translate(66.225585938 1.219238281)" d="M 0 0m 0 0h 317.8828125v 8.513183594h -317.8828125v -8.513183594Z "/><g transform="translate(66.22558592 1.219238267)"><g transform="matrix(1 0 0 -1 0 8.357421875)"><use xlink:href="#g6ED849282110A660B7843606B84CF9D9" x="0" y="0" fill="#000000" fill-rule="nonzero"/><use xlink:href="#g743CE0ADF55C34EA4D2D3E581972D07E" x="6.622558594" y="0" fill="#000000" fill-rule="nonzero"/><use xlink:href="#g5B0566EB683A7AF8C1D13910CECB217A" x="19.867675781" y="0" fill="#000000" fill-rule="nonzero"/><use xlink:href="#gDD031D65CFEF931E7F776B85663CB2DF" x="26.490234375" y="0" fill="#000000" fill-rule="nonzero"/><use xlink:href="#gE9FF0365C6FE23E82CA3D1D6C002494D" x="39.735351563" y="0" fill="#000000" fill-rule="nonzero"/><use xlink:href="#g421E0A5ADBCD098867DA851B84E834" x="46.357910156" y="0" fill="#000000" fill-rule="nonzero"/><use xlink:href="#g421E0A5ADBCD098867DA851B84E834" x="59.603027344" y="0" fill="#000000" fill-rule="nonzero"/><use xlink:href="#g421E0A5ADBCD098867DA851B84E834" x="66.225585938" y="0" fill="#000000" fill-rule="nonzero"/><use xlink:href="#g421E0A5ADBCD098867DA851B84E834" x="79.470703125" y="0" fill="#000000" fill-rule="nonzero"/><use xlink:href="#g5A9BA6F313E5E5834AC142DE8ADA00FB" x="86.093261719" y="0" fill="#000000" fill-rule="nonzero"/><use xlink:href="#g421E0A5ADBCD098867DA851B84E834" x="99.338378906" y="0" fill="#000000" fill-rule="nonzero"/><use xlink:href="#g421E0A5ADBCD098867DA851B84E834" x="105.9609375" y="0" fill="#000000" fill-rule="nonzero"/><use xlink:href="#g421E0A5ADBCD098867DA851B84E834" x="119.206054688" y="0" fill="#000000" fill-rule="nonzero"/><use xlink:href="#g421E0A5ADBCD098867DA851B84E834" x="125.828613281" y="0" fill="#000000" fill-rule="nonzero"/><use xlink:href="#g421E0A5ADBCD098867DA851B84E834" x="139.073730469" y="0" fill="#000000" fill-rule="nonzero"/><use xlink:href="#g421E0A5ADBCD098867DA851B84E834" x="145.696289063" y="0" fill="#000000" fill-rule="nonzero"/><use xlink:href="#g421E0A5ADBCD098867DA851B84E834" x="165.563964844" y="0" fill="#000000" fill-rule="nonzero"/><use xlink:href="#g6ED849282110A660B7843606B84CF9D9" x="172.186523438" y="0" fill="#000000" fill-rule="nonzero"/><use xlink:href="#g421E0A5ADBCD098867DA851B84E834" x="185.431640625" y="0" fill="#000000" fill-rule="nonzero"/><use xlink:href="#g421E0A5ADBCD098867DA851B84E834" x="192.054199219" y="0" fill="#000000" fill-rule="nonzero"/><use xlink:href="#g421E0A5ADBCD098867DA851B84E834" x="205.299316406" y="0" fill="#000000" fill-rule="nonzero"/><use xlink:href="#g421E0A5ADBCD098867DA851B84E834" x="211.921875" y="0" fill="#000000" fill-rule="nonzero"/><use xlink:href="#g421E0A5ADBCD098867DA851B84E834" x="225.166992188" y="0" fill="#000000" fill-rule="nonzero"/><use xlink:href="#g421E0A5ADBCD098867DA851B84E834" x="231.789550781" y="0" fill="#000000" fill-rule="nonzero"/><use xlink:href="#g976997E6FF52821E2A324136FEF06B0E" x="245.034667969" y="0" fill="#000000" fill-rule="nonzero"/><use xlink:href="#g976997E6FF52821E2A324136FEF06B0E" x="251.657226563" y="0" fill="#000000" fill-rule="nonzero"/><use xlink:href="#g976997E6FF52821E2A324136FEF06B0E" x="264.90234375" y="0" fill="#000000" fill-rule="nonzero"/><use xlink:href="#g976997E6FF52821E2A324136FEF06B0E" x="271.524902344" y="0" fill="#000000" fill-rule="nonzero"/><use xlink:href="#g421E0A5ADBCD098867DA851B84E834" x="284.770019531" y="0" fill="#000000" fill-rule="nonzero"/><use xlink:href="#g421E0A5ADBCD098867DA851B84E834" x="291.392578125" y="0" fill="#000000" fill-rule="nonzero"/><use xlink:href="#g421E0A5ADBCD098867DA851B84E834" x="304.637695313" y="0" fill="#000000" fill-rule="nonzero"/><use xlink:href="#g421E0A5ADBCD098867DA851B84E834" x="311.260253906" y="0" fill="#000000" fill-rule="nonzero"/></g></g><path fill="none" transform="translate(390.730957031)" d="M 0 0m 0 0h 119.206054687v 10.951660156h -119.206054687v -10.951660156Z "/><g transform="translate(390.730956989 -9.5e-8)"><g transform="matrix(1 0 0 -1 0 8.357421875)"><use xlink:href="#gDBE42591D9E1BCA79454487872914D01" x="0" y="0" fill="#000000" fill-rule="nonzero"/><use xlink:href="#g99DC383FB54FDEFEE1A91040878DCF25" x="6.622558594" y="0" fill="#000000" fill-rule="nonzero"/><use xlink:href="#g36AF1DF1E7404F442B6EFD9CBDEC35A" x="13.245117188" y="0" fill="#000000" fill-rule="nonzero"/><use xlink:href="#g8A2D6BC07E98AE390D7977EF9FD34E6E" x="19.867675781" y="0" fill="#000000" fill-rule="nonzero"/><use xlink:href="#g8A2D6BC07E98AE390D7977EF9FD34E6E" x="26.490234375" y="0" fill="#000000" fill-rule="nonzero"/><use xlink:href="#g8A2D6BC07E98AE390D7977EF9FD34E6E" x="33.112792969" y="0" fill="#000000" fill-rule="nonzero"/><use xlink:href="#g8A2D6BC07E98AE390D7977EF9FD34E6E" x="39.735351563" y="0" fill="#000000" fill-rule="nonzero"/><use xlink:href="#g8A2D6BC07E98AE390D7977EF9FD34E6E" x="46.357910156" y="0" fill="#000000" fill-rule="nonzero"/><use xlink:href="#g8A2D6BC07E98AE390D7977EF9FD34E6E" x="52.98046875" y="0" fill="#000000" fill-rule="nonzero"/><use xlink:href="#g8A2D6BC07E98AE390D7977EF9FD34E6E" x="59.603027344" y="0" fill="#000000" fill-rule="nonzero"/><use xlink:href="#g8A2D6BC07E98AE390D7977EF9FD34E6E" x="66.225585938" y="0" fill="#000000" fill-rule="nonzero"/><use xlink:href="#g8A2D6BC07E98AE390D7977EF9FD34E6E" x="72.848144531" y="0" fill="#000000" fill-rule="nonzero"/><use xlink:href="#g8A2D6BC07E98AE390D7977EF9FD34E6E" x="79.470703125" y="0" fill="#000000" fill-rule="nonzero"/><use xlink:href="#g8A2D6BC07E98AE390D7977EF9FD34E6E" x="86.093261719" y="0" fill="#000000" fill-rule="nonzero"/><use xlink:href="#g8A2D6BC07E98AE390D7977EF9FD34E6E" x="92.715820313" y="0" fill="#000000" fill-rule="nonzero"/><use xlink:href="#g8A2D6BC07E98AE390D7977EF9FD34E6E" x="99.338378906" y="0" fill="#000000" fill-rule="nonzero"/><use xlink:href="#g8A2D6BC07E98AE390D7977EF9FD34E6E" x="105.9609375" y="0" fill="#000000" fill-rule="nonzero"/><use xlink:href="#gDBE42591D9E1BCA79454487872914D01" x="112.583496094" y="0" fill="#000000" fill-rule="nonzero"/></g></g><path fill="none" transform="translate(0 15.392466628)" d="M 0 0m 0 0h 52.98046875v 8.513183594h -52.98046875v -8.513183594Z "/><g transform="translate(-9.7e-8 15.392466614)"><g transform="matrix(1 0 0 -1 0 8.357421875)"><use xlink:href="#g421E0A5ADBCD098867DA851B84E834" x="0" y="0" fill="#737373" fill-rule="nonzero"/><use xlink:href="#g421E0A5ADBCD098867DA851B84E834" x="6.622558594" y="0" fill="#737373" fill-rule="nonzero"/><use xlink:href="#g421E0A5ADBCD098867DA851B84E834" x="13.245117188" y="0" fill="#737373" fill-rule="nonzero"/><use xlink:href="#g421E0A5ADBCD098867DA851B84E834" x="19.867675781" y="0" fill="#737373" fill-rule="nonzero"/><use xlink:href="#g421E0A5ADBCD098867DA851B84E834" x="26.490234375" y="0" fill="#737373" fill-rule="nonzero"/><use xlink:href="#g421E0A5ADBCD098867DA851B84E834" x="33.112792969" y="0" fill="#737373" fill-rule="nonzero"/><use xlink:href="#gF161780E27A0444EF11E7889E4C09D8C" x="39.735351563" y="0" fill="#737373" fill-rule="nonzero"/><use xlink:href="#g421E0A5ADBCD098867DA851B84E834" x="46.357910156" y="0" fill="#737373" fill-rule="nonzero"/></g></g><path fill="none" transform="translate(66.225585938 15.392466628)" d="M 0 0m 0 0h 317.8828125v 8.513183594h -317.8828125v -8.513183594Z "/><g transform="translate(66.22558592 15.392466614)"><g transform="matrix(1 0 0 -1 0 8.357421875)"><use xlink:href="#g1A892A96C342815D1F47F594569B2B9" x="0" y="0" fill="#000000" fill-rule="nonzero"/><use xlink:href="#g5BD1592FFDAF366D0A6AA2DE0EFAB0E1" x="6.622558594" y="0" fill="#000000" fill-rule="nonzero"/><use xlink:href="#g421E0A5ADBCD098867DA851B84E834" x="19.867675781" y="0" fill="#000000" fill-rule="nonzero"/><use xlink:href="#g421E0A5ADBCD098867DA851B84E834" x="26.490234375" y="0" fill="#000000" fill-rule="nonzero"/><use xlink:href="#g421E0A5ADBCD098867DA851B84E834" x="39.735351563" y="0" fill="#000000" fill-rule="nonzero"/><use xlink:href="#g421E0A5ADBCD098867DA851B84E834" x="46.357910156" y="0" fill="#000000" fill-rule="nonzero"/><use xlink:href="#g421E0A5ADBCD098867DA851B84E834" x="59.603027344" y="0" fill="#000000" fill-rule="nonzero"/><use xlink:href="#g421E0A5ADBCD098867DA851B84E834" x="66.225585938" y="0" fill="#000000" fill-rule="nonzero"/><use xlink:href="#g421E0A5ADBCD098867DA851B84E834" x="79.470703125" y="0" fill="#000000" fill-rule="nonzero"/><use xlink:href="#g421E0A5ADBCD098867DA851B84E834" x="86.093261719" y="0" fill="#000000" fill-rule="nonzero"/><use xlink:href="#g421E0A5ADBCD098867DA851B84E834" x="99.338378906" y="0" fill="#000000" fill-rule="nonzero"/><use xlink:href="#g421E0A5ADBCD098867DA851B84E834" x="105.9609375" y="0" fill="#000000" fill-rule="nonzero"/><use xlink:href="#g421E0A5ADBCD098867DA851B84E834" x="119.206054688" y="0" fill="#000000" fill-rule="nonzero"/><use xlink:href="#g421E0A5ADBCD098867DA851B84E834" x="125.828613281" y="0" fill="#000000" fill-rule="nonzero"/><use xlink:href="#g421E0A5ADBCD098867DA851B84E834" x="139.073730469" y="0" fill="#000000" fill-rule="nonzero"/><use xlink:href="#g421E0A5ADBCD098867DA851B84E834" x="145.696289063" y="0" fill="#000000" fill-rule="nonzero"/><use xlink:href="#g6ED849282110A660B7843606B84CF9D9" x="165.563964844" y="0" fill="#000000" fill-rule="nonzero"/><use xlink:href="#g421E0A5ADBCD098867DA851B84E834" x="172.186523438" y="0" fill="#000000" fill-rule="nonzero"/><use xlink:href="#g421E0A5ADBCD098867DA851B84E834" x="185.431640625" y="0" fill="#000000" fill-rule="nonzero"/><use xlink:href="#g421E0A5ADBCD098867DA851B84E834" x="192.054199219" y="0" fill="#000000" fill-rule="nonzero"/><use xlink:href="#g421E0A5ADBCD098867DA851B84E834" x="205.299316406" y="0" fill="#000000" fill-rule="nonzero"/><use xlink:href="#g421E0A5ADBCD098867DA851B84E834" x="211.921875" y="0" fill="#000000" fill-rule="nonzero"/><use xlink:href="#g421E0A5ADBCD098867DA851B84E834" x="225.166992188" y="0" fill="#000000" fill-rule="nonzero"/><use xlink:href="#g421E0A5ADBCD098867DA851B84E834" x="231.789550781" y="0" fill="#000000" fill-rule="nonzero"/><use xlink:href="#g421E0A5ADBCD098867DA851B84E834" x="245.034667969" y="0" fill="#000000" fill-rule="nonzero"/><use xlink:href="#g421E0A5ADBCD098867DA851B84E834" x="251.657226563" y="0" fill="#000000" fill-rule="nonzero"/><use xlink:href="#g421E0A5ADBCD098867DA851B84E834" x="264.90234375" y="0" fill="#000000" fill-rule="nonzero"/><use xlink:href="#g421E0A5ADBCD098867DA851B84E834" x="271.524902344" y="0" fill="#000000" fill-rule="nonzero"/><use xlink:href="#g421E0A5ADBCD098867DA851B84E834" x="284.770019531" y="0" fill="#000000" fill-rule="nonzero"/><use xlink:href="#g421E0A5ADBCD098867DA851B84E834" x="291.392578125" y="0" fill="#000000" fill-rule="nonzero"/><use xlink:href="#g421E0A5ADBCD098867DA851B84E834" x="304.637695313" y="0" fill="#000000" fill-rule="nonzero"/><use xlink:href="#g421E0A5ADBCD098867DA851B84E834" x="311.260253906" y="0" fill="#000000" fill-rule="nonzero"/></g></g><path fill="none" transform="translate(390.730957031 14.173228346)" d="M 0 0m 0 0h 119.206054687v 10.951660156h -119.206054687v -10.951660156Z "/><g transform="translate(390.730956989 14.173228251)"><g transform="matrix(1 0 0 -1 0 8.357421875)"><use xlink:href="#gDBE42591D9E1BCA79454487872914D01" x="0" y="0" fill="#000000" fill-rule="nonzero"/><use xlink:href="#g8A2D6BC07E98AE390D7977EF9FD34E6E" x="6.622558594" y="0" fill="#000000" fill-rule="nonzero"/><use xlink:href="#g8A2D6BC07E98AE390D7977EF9FD34E6E" x="13.245117188" y="0" fill="#000000" fill-rule="nonzero"/><use xlink:href="#g8A2D6BC07E98AE390D7977EF9FD34E6E" x="19.867675781" y="0" fill="#000000" fill-rule="nonzero"/><use xlink:href="#g8A2D6BC07E98AE390D7977EF9FD34E6E" x="26.490234375" y="0" fill="#000000" fill-rule="nonzero"/><use xlink:href="#g8A2D6BC07E98AE390D7977EF9FD34E6E" x="33.112792969" y="0" fill="#000000" fill-rule="nonzero"/><use xlink:href="#g8A2D6BC07E98AE390D7977EF9FD34E6E" x="39.735351563" y="0" fill="#000000" fill-rule="nonzero"/><use xlink:href="#g8A2D6BC07E98AE390D7977EF9FD34E6E" x="46.357910156" y="0" fill="#000000" fill-rule="nonzero"/><use xlink:href="#g8A2D6BC07E98AE390D7977EF9FD34E6E" x="52.98046875" y="0" fill="#000000" fill-rule="nonzero"/><use xlink:href="#gF1D559A8812F23DF334C1B3BF3593159" x="59.603027344" y="0" fill="#000000" fill-rule="nonzero"/><use xlink:href="#g8A2D6BC07E98AE390D7977EF9FD34E6E" x="66.225585938" y="0" fill="#000000" fill-rule="nonzero"/><use xlink:href="#g8A2D6BC07E98AE390D7977EF9FD34E6E" x="72.848144531" y="0" fill="#000000" fill-rule="nonzero"/><use xlink:href="#g8A2D6BC07E98AE390D7977EF9FD34E6E" x="79.470703125" y="0" fill="#000000" fill-rule="nonzero"/><use xlink:href="#g8A2D6BC07E98AE390D7977EF9FD34E6E" x="86.093261719" y="0" fill="#000000" fill-rule="nonzero"/><use xlink:href="#g8A2D6BC07E98AE390D7977EF9FD34E6E" x="92.715820313" y="0" fill="#000000" fill-rule="nonzero"/><use xlink:href="#g8A2D6BC07E98AE390D7977EF9FD34E6E" x="99.338378906" y="0" fill="#000000" fill-rule="nonzero"/><use xlink:href="#g8A2D6BC07E98AE390D7977EF9FD34E6E" x="105.9609375" y="0" fill="#000000" fill-rule="nonzero"/><use xlink:href="#gDBE42591D9E1BCA79454487872914D01" x="112.583496094" y="0" fill="#000000" fill-rule="nonzero"/></g></g><path fill="none" transform="translate(0 29.565694974)" d="M 0 0m 0 0h 52.98046875v 8.513183594h -52.98046875v -8.513183594Z "/><g transform="translate(-9.7e-8 29.56569496)"><g transform="matrix(1 0 0 -1 0 8.357421875)"><use xlink:href="#g421E0A5ADBCD098867DA851B84E834" x="0" y="0" fill="#737373" fill-rule="nonzero"/><use xlink:href="#g421E0A5ADBCD098867DA851B84E834" x="6.622558594" y="0" fill="#737373" fill-rule="nonzero"/><use xlink:href="#g421E0A5ADBCD098867DA851B84E834" x="13.245117188" y="0" fill="#737373" fill-rule="nonzero"/><use xlink:href="#g421E0A5ADBCD098867DA851B84E834" x="19.867675781" y="0" fill="#737373" fill-rule="nonzero"/><use xlink:href="#g421E0A5ADBCD098867DA851B84E834" x="26.490234375" y="0" fill="#737373" fill-rule="nonzero"/><use xlink:href="#g421E0A5ADBCD098867DA851B84E834" x="33.112792969" y="0" fill="#737373" fill-rule="nonzero"/><use xlink:href="#g9EF032262EADC7E7D18BAD6EE644609D" x="39.735351563" y="0" fill="#737373" fill-rule="nonzero"/><use xlink:href="#g421E0A5ADBCD098867DA851B84E834" x="46.357910156" y="0" fill="#737373" fill-rule="nonzero"/></g></g><path fill="none" transform="translate(66.225585938 29.565694974)" d="M 0 0m 0 0h 317.8828125v 8.513183594h -317.8828125v -8.513183594Z "/><g transform="translate(66.22558592 29.56569496)"><g transform="matrix(1 0 0 -1 0 8.357421875)"><use xlink:href="#g421E0A5ADBCD098867DA851B84E834" x="0" y="0" fill="#000000" fill-rule="nonzero"/><use xlink:href="#g421E0A5ADBCD098867DA851B84E834" x="6.622558594" y="0" fill="#000000" fill-rule="nonzero"/><use xlink:href="#g421E0A5ADBCD098867DA851B84E834" x="19.867675781" y="0" fill="#000000" fill-rule="nonzero"/><use xlink:href="#g421E0A5ADBCD098867DA851B84E834" x="26.490234375" y="0" fill="#000000" fill-rule="nonzero"/><use xlink:href="#g421E0A5ADBCD098867DA851B84E834" x="39.735351563" y="0" fill="#000000" fill-rule="nonzero"/><use xlink:href="#g421E0A5ADBCD098867DA851B84E834" x="46.357910156" y="0" fill="#000000" fill-rule="nonzero"/><use xlink:href="#g421E0A5ADBCD098867DA851B84E834" x="59.603027344" y="0" fill="#000000" fill-rule="nonzero"/><use xlink:href="#g421E0A5ADBCD098867DA851B84E834" x="66.225585938" y="0" fill="#000000" fill-rule="nonzero"/><use xlink:href="#g421E0A5ADBCD098867DA851B84E834" x="79.470703125" y="0" fill="#000000" fill-rule="nonzero"/><use xlink:href="#g421E0A5ADBCD098867DA851B84E834" x="86.093261719" y="0" fill="#000000" fill-rule="nonzero"/><use xlink:href="#g421E0A5ADBCD098867DA851B84E834" x="99.338378906" y="0" fill="#000000" fill-rule="nonzero"/><use xlink:href="#g421E0A5ADBCD098867DA851B84E834" x="105.9609375" y="0" fill="#000000" fill-rule="nonzero"/><use xlink:href="#g421E0A5ADBCD098867DA851B84E834" x="119.206054688" y="0" fill="#000000" fill-rule="nonzero"/><use xlink:href="#g421E0A5ADBCD098867DA851B84E834" x="125.828613281" y="0" fill="#000000" fill-rule="nonzero"/><use xlink:href="#g421E0A5ADBCD098867DA851B84E834" x="139.073730469" y="0" fill="#000000" fill-rule="nonzero"/><use xlink:href="#g421E0A5ADBCD098867DA851B84E834" x="145.696289063" y="0" fill="#000000" fill-rule="nonzero"/><use xlink:href="#g421E0A5ADBCD098867DA851B84E834" x="165.563964844" y="0" fill="#000000" fill-rule="nonzero"/><use xlink:href="#g421E0A5ADBCD098867DA851B84E834" x="172.186523438" y="0" fill="#000000" fill-rule="nonzero"/><use xlink:href="#g421E0A5ADBCD098867DA851B84E834" x="185.431640625" y="0" fill="#000000" fill-rule="nonzero"/><use xlink:href="#g421E0A5ADBCD098867DA851B84E834" x="192.054199219" y="0" fill="#000000" fill-rule="nonzero"/><use xlink:href="#g421E0A5ADBCD098867DA851B84E834" x="205.299316406" y="0" fill="#000000" fill-rule="nonzero"/><use xlink:href="#g421E0A5ADBCD098867DA851B84E834" x="211.921875" y="0" fill="#000000" fill-rule="nonzero"/><use xlink:href="#g421E0A5ADBCD098867DA851B84E834" x="225.166992188" y="0" fill="#000000" fill-rule="nonzero"/><use xlink:href="#g421E0A5ADBCD098867DA851B84E834" x="231.789550781" y="0" fill="#000000" fill-rule="nonzero"/><use xlink:href="#g421E0A5ADBCD098867DA851B84E834" x="245.034667969" y="0" fill="#000000" fill-rule="nonzero"/><use xlink:href="#g421E0A5ADBCD098867DA851B84E834" x="251.657226563" y="0" fill="#000000" fill-rule="nonzero"/><use xlink:href="#g421E0A5ADBCD098867DA851B84E834" x="264.90234375" y="0" fill="#000000" fill-rule="nonzero"/><use xlink:href="#g421E0A5ADBCD098867DA851B84E834" x="271.524902344" y="0" fill="#000000" fill-rule="nonzero"/><use xlink:href="#g421E0A5ADBCD098867DA851B84E834" x="284.770019531" y="0" fill="#000000" fill-rule="nonzero"/><use xlink:href="#g421E0A5ADBCD098867DA851B84E834" x="291.392578125" y="0" fill="#000000" fill-rule="nonzero"/><use xlink:href="#g421E0A5ADBCD098867DA851B84E834" x="304.637695313" y="0" fill="#000000" fill-rule="nonzero"/><use xlink:href="#g421E0A5ADBCD098867DA851B84E834" x="311.260253906" y="0" fill="#000000" fill-rule="nonzero"/></g></g><path fill="none" transform="translate(390.730957031 28.346456693)" d="M 0 0m 0 0h 119.206054687v 10.951660156h -119.206054687v -10.951660156Z "/><g transform="translate(390.730956989 28.346456598)"><g transform="matrix(1 0 0 -1 0 8.357421875)"><use xlink:href="#gDBE42591D9E1BCA79454487872914D01" x="0" y="0" fill="#000000" fill-rule="nonzero"/><use xlink:href="#g8A2D6BC07E98AE390D7977EF9FD34E6E" x="6.622558594" y="0" fill="#000000" fill-rule="nonzero"/><use xlink:href="#g8A2D6BC07E98AE390D7977EF9FD34E6E" x="13.245117188" y="0" fill="#000000" fill-rule="nonzero"/><use xlink:href="#g8A2D6BC07E98AE390D7977EF9FD34E6E" x="19.867675781" y="0" fill="#000000" fill-rule="nonzero"/><use xlink:href="#g8A2D6BC07E98AE390D7977EF9FD34E6E" x="26.490234375" y="0" fill="#000000" fill-rule="nonzero"/><use xlink:href="#g8A2D6BC07E98AE390D7977EF9FD34E6E" x="33.112792969" y="0" fill="#000000" fill-rule="nonzero"/><use xlink:href="#g8A2D6BC07E98AE390D7977EF9FD34E6E" x="39.735351563" y="0" fill="#000000" fill-rule="nonzero"/><use xlink:href="#g8A2D6BC07E98AE390D7977EF9FD34E6E" x="46.357910156" y="0" fill="#000000" fill-rule="nonzero"/><use xlink:href="#g8A2D6BC07E98AE390D7977EF9FD34E6E" x="52.98046875" y="0" fill="#000000" fill-rule="nonzero"/><use xlink:href="#g8A2D6BC07E98AE390D7977EF9FD34E6E" x="59.603027344" y="0" fill="#000000" fill-rule="nonzero"/><use xlink:href="#g8A2D6BC07E98AE390D7977EF9FD34E6E" x="66.225585938" y="0" fill="#000000" fill-rule="nonzero"/><use xlink:href="#g8A2D6BC07E98AE390D7977EF9FD34E6E" x="72.848144531" y="0" fill="#000000" fill-rule="nonzero"/><use xlink:href="#g8A2D6BC07E98AE390D7977EF9FD34E6E" x="79.470703125" y="0" fill="#000000" fill-rule="nonzero"/><use xlink:href="#g8A2D6BC07E98AE390D7977EF9FD34E6E" x="86.093261719" y="0" fill="#000000" fill-rule="nonzero"/><use xlink:href="#g8A2D6BC07E98AE390D7977EF9FD34E6E" x="92.715820313" y="0" fill="#000000" fill-rule="nonzero"/><use xlink:href="#g8A2D6BC07E98AE390D7977EF9FD34E6E" x="99.338378906" y="0" fill="#000000" fill-rule="nonzero"/><use xlink:href="#g8A2D6BC07E98AE390D7977EF9FD34E6E" x="105.9609375" y="0" fill="#000000" fill-rule="nonzero"/><use xlink:href="#gDBE42591D9E1BCA79454487872914D01" x="112.583496094" y="0" fill="#000000" fill-rule="nonzero"/></g></g><path fill="none" transform="translate(0 43.738923321)" d="M 0 0m 0 0h 52.98046875v 8.513183594h -52.98046875v -8.513183594Z "/><g transform="translate(-9.7e-8 43.738923306)"><g transform="matrix(1 0 0 -1 0 8.357421875)"><use xlink:href="#g421E0A5ADBCD098867DA851B84E834" x="0" y="0" fill="#737373" fill-rule="nonzero"/><use xlink:href="#g421E0A5ADBCD098867DA851B84E834" x="6.622558594" y="0" fill="#737373" fill-rule="nonzero"/><use xlink:href="#g421E0A5ADBCD098867DA851B84E834" x="13.245117188" y="0" fill="#737373" fill-rule="nonzero"/><use xlink:href="#g421E0A5ADBCD098867DA851B84E834" x="19.867675781" y="0" fill="#737373" fill-rule="nonzero"/><use xlink:href="#g421E0A5ADBCD098867DA851B84E834" x="26.490234375" y="0" fill="#737373" fill-rule="nonzero"/><use xlink:href="#g421E0A5ADBCD098867DA851B84E834" x="33.112792969" y="0" fill="#737373" fill-rule="nonzero"/><use xlink:href="#g5A9BA6F313E5E5834AC142DE8ADA00FB" x="39.735351563" y="0" fill="#737373" fill-rule="nonzero"/><use xlink:href="#g421E0A5ADBCD098867DA851B84E834" x="46.357910156" y="0" fill="#737373" fill-rule="nonzero"/></g></g><path fill="none" transform="translate(66.225585938 43.738923321)" d="M 0 0m 0 0h 317.8828125v 8.513183594h -317.8828125v -8.513183594Z "/><g transform="translate(66.22558592 43.738923306)"><g transform="matrix(1 0 0 -1 0 8.357421875)"><use xlink:href="#g421E0A5ADBCD098867DA851B84E834" x="0" y="0" fill="#000000" fill-rule="nonzero"/><use xlink:href="#g421E0A5ADBCD098867DA851B84E834" x="6.622558594" y="0" fill="#000000" fill-rule="nonzero"/><use xlink:href="#g421E0A5ADBCD098867DA851B84E834" x="19.867675781" y="0" fill="#000000" fill-rule="nonzero"/><use xlink:href="#g421E0A5ADBCD098867DA851B84E834" x="26.490234375" y="0" fill="#000000" fill-rule="nonzero"/><use xlink:href="#g421E0A5ADBCD098867DA851B84E834" x="39.735351563" y="0" fill="#000000" fill-rule="nonzero"/><use xlink:href="#g421E0A5ADBCD098867DA851B84E834" x="46.357910156" y="0" fill="#000000" fill-rule="nonzero"/><use xlink:href="#g421E0A5ADBCD098867DA851B84E834" x="59.603027344" y="0" fill="#000000" fill-rule="nonzero"/><use xlink:href="#g421E0A5ADBCD098867DA851B84E834" x="66.225585938" y="0" fill="#000000" fill-rule="nonzero"/><use xlink:href="#g421E0A5ADBCD098867DA851B84E834" x="79.470703125" y="0" fill="#000000" fill-rule="nonzero"/><use xlink:href="#g421E0A5ADBCD098867DA851B84E834" x="86.093261719" y="0" fill="#000000" fill-rule="nonzero"/><use xlink:href="#g421E0A5ADBCD098867DA851B84E834" x="99.338378906" y="0" fill="#000000" fill-rule="nonzero"/><use xlink:href="#g421E0A5ADBCD098867DA851B84E834" x="105.9609375" y="0" fill="#000000" fill-rule="nonzero"/><use xlink:href="#g421E0A5ADBCD098867DA851B84E834" x="119.206054688" y="0" fill="#000000" fill-rule="nonzero"/><use xlink:href="#g421E0A5ADBCD098867DA851B84E834" x="125.828613281" y="0" fill="#000000" fill-rule="nonzero"/><use xlink:href="#g421E0A5ADBCD098867DA851B84E834" x="139.073730469" y="0" fill="#000000" fill-rule="nonzero"/><use xlink:href="#g421E0A5ADBCD098867DA851B84E834" x="145.696289063" y="0" fill="#000000" fill-rule="nonzero"/><use xlink:href="#g421E0A5ADBCD098867DA851B84E834" x="165.563964844" y="0" fill="#000000" fill-rule="nonzero"/><use xlink:href="#g421E0A5ADBCD098867DA851B84E834" x="172.186523438" y="0" fill="#000000" fill-rule="nonzero"/><use xlink:href="#g421E0A5ADBCD098867DA851B84E834" x="185.431640625" y="0" fill="#000000" fill-rule="nonzero"/><use xlink:href="#g421E0A5ADBCD098867DA851B84E834" x="192.054199219" y="0" fill="#000000" fill-rule="nonzero"/><use xlink:href="#g421E0A5ADBCD098867DA851B84E834" x="205.299316406" y="0" fill="#000000" fill-rule="nonzero"/><use xlink:href="#g421E0A5ADBCD098867DA851B84E834" x="211.921875" y="0" fill="#000000" fill-rule="nonzero"/><use xlink:href="#g421E0A5ADBCD098867DA851B84E834" x="225.166992188" y="0" fill="#000000" fill-rule="nonzero"/><use xlink:href="#g421E0A5ADBCD098867DA851B84E834" x="231.789550781" y="0" fill="#000000" fill-rule="nonzero"/><use xlink:href="#g5BD1592FFDAF366D0A6AA2DE0EFAB0E1" x="245.034667969" y="0" fill="#000000" fill-rule="nonzero"/><use xlink:href="#g421E0A5ADBCD098867DA851B84E834" x="251.657226563" y="0" fill="#000000" fill-rule="nonzero"/><use xlink:href="#g421E0A5ADBCD098867DA851B84E834" x="264.90234375" y="0" fill="#000000" fill-rule="nonzero"/><use xlink:href="#g421E0A5ADBCD098867DA851B84E834" x="271.524902344" y="0" fill="#000000" fill-rule="nonzero"/><use xlink:href="#g421E0A5ADBCD098867DA851B84E834" x="284.770019531" y="0" fill="#000000" fill-rule="nonzero"/><use xlink:href="#g421E0A5ADBCD098867DA851B84E834" x="291.392578125" y="0" fill="#000000" fill-rule="nonzero"/><use xlink:href="#g421E0A5ADBCD098867DA851B84E834" x="304.637695313" y="0" fill="#000000" fill-rule="nonzero"/><use xlink:href="#g421E0A5ADBCD098867DA851B84E834" x="311.260253906" y="0" fill="#000000" fill-rule="nonzero"/></g></g><path fill="none" transform="translate(390.730957031 42.519685039)" d="M 0 0m 0 0h 119.206054687v 10.951660156h -119.206054687v -10.951660156Z "/><g transform="translate(390.730956989 42.519684944)"><g transform="matrix(1 0 0 -1 0 8.357421875)"><use xlink:href="#gDBE42591D9E1BCA79454487872914D01" x="0" y="0" fill="#000000" fill-rule="nonzero"/><use xlink:href="#g8A2D6BC07E98AE390D7977EF9FD34E6E" x="6.622558594" y="0" fill="#000000" fill-rule="nonzero"/><use xlink:href="#g8A2D6BC07E98AE390D7977EF9FD34E6E" x="13.245117188" y="0" fill="#000000" fill-rule="nonzero"/><use xlink:href="#g8A2D6BC07E98AE390D7977EF9FD34E6E" x="19.867675781" y="0" fill="#000000" fill-rule="nonzero"/><use xlink:href="#g8A2D6BC07E98AE390D7977EF9FD34E6E" x="26.490234375" y="0" fill="#000000" fill-rule="nonzero"/><use xlink:href="#g8A2D6BC07E98AE390D7977EF9FD34E6E" x="33.112792969" y="0" fill="#000000" fill-rule="nonzero"/><use xlink:href="#g8A2D6BC07E98AE390D7977EF9FD34E6E" x="39.735351563" y="0" fill="#000000" fill-rule="nonzero"/><use xlink:href="#g8A2D6BC07E98AE390D7977EF9FD34E6E" x="46.357910156" y="0" fill="#000000" fill-rule="nonzero"/><use xlink:href="#g8A2D6BC07E98AE390D7977EF9FD34E6E" x="52.98046875" y="0" fill="#000000" fill-rule="nonzero"/><use xlink:href="#g8A2D6BC07E98AE390D7977EF9FD34E6E" x="59.603027344" y="0" fill="#000000" fill-rule="nonzero"/><use xlink:href="#g8A2D6BC07E98AE390D7977EF9FD34E6E" x="66.225585938" y="0" fill="#000000" fill-rule="nonzero"/><use xlink:href="#g8A2D6BC07E98AE390D7977EF9FD34E6E" x="72.848144531" y="0" fill="#000000" fill-rule="nonzero"/><use xlink:href="#g8A2D6BC07E98AE390D7977EF9FD34E6E" x="79.470703125" y="0" fill="#000000" fill-rule="nonzero"/><use xlink:href="#g8A2D6BC07E98AE390D7977EF9FD34E6E" x="86.093261719" y="0" fill="#000000" fill-rule="nonzero"/><use xlink:href="#g8A2D6BC07E98AE390D7977EF9FD34E6E" x="92.715820313" y="0" fill="#000000" fill-rule="nonzero"/><use xlink:href="#g8A2D6BC07E98AE390D7977EF9FD34E6E" x="99.338378906" y="0" fill="#000000" fill-rule="nonzero"/><use xlink:href="#g8A2D6BC07E98AE390D7977EF9FD34E6E" x="105.9609375" y="0" fill="#000000" fill-rule="nonzero"/><use xlink:href="#gDBE42591D9E1BCA79454487872914D01" x="112.583496094" y="0" fill="#000000" fill-rule="nonzero"/></g></g></g><defs><symbol id="g421E0A5ADBCD098867DA851B84E834" overflow="visible"><path d="M 0 0m 2.594238281 4.028320313q 0 0.295410156 0.206787109 0.510253906q 0.206787109 0.21484375 0.496826172 0.21484375q 0.30078125 0 0.515625 -0.21484375q 0.21484375 -0.21484375 0.21484375 -0.510253906q 0 -0.30078125 -0.212158203 -0.510253906q -0.212158203 -0.209472656 -0.518310547 -0.209472656q -0.30078125 0 -0.502197266 0.204101563q -0.201416016 0.204101563 -0.201416016 0.515625Z m 0.714355469 3.276367188q -0.757324219 0 -1.130615234 -0.81640625q -0.373291016 -0.81640625 -0.373291016 -2.486816406q 0 -1.665039063 0.373291016 -2.481445313q 0.373291016 -0.81640625 1.130615234 -0.81640625q 0.762695313 0 1.135986328 0.81640625q 0.373291016 0.81640625 0.373291016 2.481445313q 0 1.670410156 -0.373291016 2.486816406q -0.373291016 0.81640625 -1.135986328 0.81640625Z m 0 0.859375q 1.283691406 0 1.941650391 -1.052734375q 0.657958984 -1.052734375 0.657958984 -3.109863281q 0 -2.051757813 -0.657958984 -3.104492188q -0.657958984 -1.052734375 -1.941650391 -1.052734375q -1.283691406 0 -1.938964844 1.052734375q -0.655273438 1.052734375 -0.655273438 3.104492188q 0 2.057128906 0.655273438 3.109863281q 0.655273438 1.052734375 1.938964844 1.052734375Z "/></symbol><symbol id="g6ED849282110A660B7843606B84CF9D9" overflow="visible"><path d="M 0 0m 3.947753906 7.030761719l -2.529785156 -4.237792969h 2.529785156v 4.237792969Z m -0.177246094 0.98828125h 1.256835938v -5.226074219h 1.068847656v -0.880859375h -1.068847656v -1.912109375h -1.079589844v 1.912109375h -3.399902344v 1.025878906l 3.22265625 5.081054688Z "/></symbol><symbol id="g743CE0ADF55C34EA4D2D3E581972D07E" overflow="visible"><path d="M 0 0m 2.341796875 0.891601563q 1.369628906 0 1.912109375 0.674072266q 0.542480469 0.674072266 0.542480469 2.435791016q 0 1.777832031 -0.539794922 2.451904297q -0.539794922 0.674072266 -1.914794922 0.674072266h -0.515625v -6.235839844h 0.515625Z m 0.021484375 7.127441406q 1.836914063 0 2.70703125 -0.977539063q 0.870117188 -0.977539063 0.870117188 -3.040039063q 0 -2.051757813 -0.870117188 -3.026611328q -0.870117188 -0.974853516 -2.70703125 -0.974853516h -1.627441406v 8.019042969h 1.627441406Z "/></symbol><symbol id="g5B0566EB683A7AF8C1D13910CECB217A" overflow="visible"><path d="M 0 0m 1.111816406 8.019042969h 4.060546875v -0.913085938h -3.072265625v -1.971191406q 0.230957031 0.0859375 0.464599609 0.126220703q 0.233642578 0.040283203 0.469970703 0.040283203q 1.24609375 0 1.9765625 -0.735839844q 0.73046875 -0.735839844 0.73046875 -1.992675781q 0 -1.267578125 -0.765380859 -1.998046875q -0.765380859 -0.73046875 -2.092041016 -0.73046875q -0.639160156 0 -1.168212891 0.0859375q -0.529052734 0.0859375 -0.947998047 0.2578125v 1.101074219q 0.494140625 -0.268554688 0.993652344 -0.400146484q 0.499511719 -0.131591797 1.020507813 -0.131591797q 0.896972656 0 1.383056641 0.47265625q 0.486083984 0.47265625 0.486083984 1.342773438q 0 0.859375 -0.502197266 1.337402344q -0.502197266 0.478027344 -1.399169922 0.478027344q -0.435058594 0 -0.848632813 -0.099365234q -0.413574219 -0.099365234 -0.789550781 -0.298095703v 4.028320313Z "/></symbol><symbol id="gDD031D65CFEF931E7F776B85663CB2DF" overflow="visible"><path d="M 0 0m 3.30859375 7.062988281l -1.144042969 -4.103515625h 2.288085938l -1.144042969 4.103515625Z m -0.655273438 0.956054688h 1.315917969l 2.454589844 -8.019042969h -1.122558594l -0.590820313 2.089355469h -2.809082031l -0.580078125 -2.089355469h -1.122558594l 2.454589844 8.019042969Z "/></symbol><symbol id="gE9FF0365C6FE23E82CA3D1D6C002494D" overflow="visible"><path d="M 0 0m 3.201171875 3.555664063q 0.692871094 0 1.087646484 0.499511719q 0.394775391 0.499511719 0.394775391 1.380371094q 0 0.880859375 -0.394775391 1.380371094q -0.394775391 0.499511719 -1.087646484 0.499511719q -0.719726563 0 -1.084960938 -0.475341797q -0.365234375 -0.475341797 -0.365234375 -1.404541016q 0 -0.934570313 0.362548828 -1.407226563q 0.362548828 -0.47265625 1.087646484 -0.47265625Z m -1.93359375 -3.389160156v 0.999023438q 0.338378906 -0.198730469 0.719726563 -0.303466797q 0.381347656 -0.104736328 0.794921875 -0.104736328q 1.03125 0 1.560302734 0.776123047q 0.529052734 0.776123047 0.529052734 2.285400391q -0.252441406 -0.537109375 -0.708984375 -0.824462891q -0.456542969 -0.287353516 -1.047363281 -0.287353516q -1.16015625 0 -1.796630859 0.714355469q -0.636474609 0.714355469 -0.636474609 2.024902344q 0 1.294433594 0.652587891 2.006103516q 0.652587891 0.711669922 1.844970703 0.711669922q 1.396484375 0 2.046386719 -1.004394531q 0.649902344 -1.004394531 0.649902344 -3.158203125q 0 -2.024902344 -0.781494141 -3.091064453q -0.781494141 -1.066162109 -2.269287109 -1.066162109q -0.392089844 0 -0.789550781 0.083251953q -0.397460938 0.083251953 -0.768066406 0.239013672Z "/></symbol><symbol id="g5A9BA6F313E5E5834AC142DE8ADA00FB" overflow="visible"><path d="M 0 0m 4.16796875 4.291503906q 0.789550781 -0.209472656 1.208496094 -0.743896484q 0.418945313 -0.534423828 0.418945313 -1.334716797q 0 -1.106445313 -0.743896484 -1.737548828q -0.743896484 -0.631103516 -2.059814453 -0.631103516q -0.553222656 0 -1.127929688 0.102050781q -0.574707031 0.102050781 -1.127929688 0.295410156v 1.079589844q 0.547851563 -0.284667969 1.079589844 -0.424316406q 0.531738281 -0.139648438 1.058105469 -0.139648438q 0.891601563 0 1.369628906 0.402832031q 0.478027344 0.402832031 0.478027344 1.16015625q 0 0.698242188 -0.478027344 1.109130859q -0.478027344 0.410888672 -1.294433594 0.410888672h -0.827148438v 0.891601563h 0.827148438q 0.746582031 0 1.165527344 0.327636719q 0.418945313 0.327636719 0.418945313 0.913085938q 0 0.617675781 -0.389404297 0.947998047q -0.389404297 0.330322266 -1.109130859 0.330322266q -0.478027344 0 -0.98828125 -0.107421875q -0.510253906 -0.107421875 -1.068847656 -0.322265625v 0.999023438q 0.649902344 0.171875 1.157470703 0.2578125q 0.507568359 0.0859375 0.899658203 0.0859375q 1.170898438 0 1.871826172 -0.588134766q 0.700927734 -0.588134766 0.700927734 -1.560302734q 0 -0.660644531 -0.367919922 -1.101074219q -0.367919922 -0.440429688 -1.071533203 -0.623046875Z "/></symbol><symbol id="g976997E6FF52821E2A324136FEF06B0E" overflow="visible"><path d="M 0 0m 1.251464844 8.019042969h 4.721191406v -0.913085938h -3.630859375v -2.36328125h 3.292480469v -0.913085938h -3.292480469v -3.829589844h -1.090332031v 8.019042969Z "/></symbol><symbol id="gDBE42591D9E1BCA79454487872914D01" overflow="visible"><path d="M 0 0m 3.770507813 8.405761719v -11h -0.923828125v 11h 0.923828125Z "/></symbol><symbol id="g99DC383FB54FDEFEE1A91040878DCF25" overflow="visible"><path d="M 0 0m 0.461914063 8.019042969h 1.450195313l 1.385742188 -4.08203125l 1.396484375 4.08203125h 1.455566406v -8.019042969h -1.004394531v 7.084472656l -1.428710938 -4.227050781h -0.821777344l -1.434082031 4.227050781v -7.084472656h -0.999023438v 8.019042969Z "/></symbol><symbol id="g36AF1DF1E7404F442B6EFD9CBDEC35A" overflow="visible"><path d="M 0 0m 0.956054688 8.019042969h 5.204589844v -0.827148438l -4.189453125 -6.278808594h 4.307617188v -0.913085938h -5.440917969v 0.827148438l 4.076660156 6.278808594h -3.958496094v 0.913085938Z "/></symbol><symbol id="g8A2D6BC07E98AE390D7977EF9FD34E6E" overflow="visible"><path d="M 0 0m 2.626464844 1.638183594h 1.353515625v -1.638183594h -1.353515625v 1.638183594Z "/></symbol><symbol id="gF161780E27A0444EF11E7889E4C09D8C" overflow="visible"><path d="M 0 0m 1.450195313 0.913085938h 1.686523438v 6.128417969l -1.815429688 -0.408203125v 0.98828125l 1.8046875 0.397460938h 1.084960938v -7.105957031h 1.665039063v -0.913085938h -4.42578125v 0.913085938Z "/></symbol><symbol id="g1A892A96C342815D1F47F594569B2B9" overflow="visible"><path d="M 0 0m 1.981933594 3.829589844v -2.937988281h 1.283691406q 0.9453125 0 1.348144531 0.330322266q 0.402832031 0.330322266 0.402832031 1.087646484q 0 0.784179688 -0.424316406 1.152099609q -0.424316406 0.367919922 -1.326660156 0.367919922h -1.283691406Z m 0 3.297851563v -2.416992188h 1.262207031q 0.784179688 0 1.135986328 0.30078125q 0.351806641 0.30078125 0.351806641 0.972167969q 0 0.606933594 -0.346435547 0.875488281q -0.346435547 0.268554688 -1.141357422 0.268554688h -1.262207031Z m -1.090332031 0.891601563h 2.374023438q 1.229980469 0 1.895996094 -0.531738281q 0.666015625 -0.531738281 0.666015625 -1.50390625q 0 -0.735839844 -0.351806641 -1.16015625q -0.351806641 -0.424316406 -1.055419922 -0.531738281q 0.789550781 -0.118164063 1.238037109 -0.674072266q 0.448486328 -0.555908203 0.448486328 -1.415283203q 0 -1.090332031 -0.714355469 -1.646240234q -0.714355469 -0.555908203 -2.126953125 -0.555908203h -2.374023438v 8.019042969Z "/></symbol><symbol id="g5BD1592FFDAF366D0A6AA2DE0EFAB0E1" overflow="visible"><path d="M 0 0m 3.30859375 3.808105469q -0.725097656 0 -1.119873047 -0.405517578q -0.394775391 -0.405517578 -0.394775391 -1.146728516q 0 -0.741210938 0.400146484 -1.152099609q 0.400146484 -0.410888672 1.114501953 -0.410888672q 0.73046875 0 1.125244141 0.405517578q 0.394775391 0.405517578 0.394775391 1.157470703q 0 0.735839844 -0.400146484 1.144042969q -0.400146484 0.408203125 -1.119873047 0.408203125Z m -0.9453125 0.451171875q -0.692871094 0.177246094 -1.082275391 0.660644531q -0.389404297 0.483398438 -0.389404297 1.165527344q 0 0.956054688 0.649902344 1.517333984q 0.649902344 0.561279297 1.767089844 0.561279297q 1.122558594 0 1.772460938 -0.561279297q 0.649902344 -0.561279297 0.649902344 -1.517333984q 0 -0.682128906 -0.389404297 -1.165527344q -0.389404297 -0.483398438 -1.082275391 -0.660644531q 0.805664063 -0.177246094 1.232666016 -0.714355469q 0.427001953 -0.537109375 0.427001953 -1.391113281q 0 -1.084960938 -0.692871094 -1.697265625q -0.692871094 -0.612304688 -1.917480469 -0.612304688q -1.224609375 0 -1.914794922 0.609619141q -0.690185547 0.609619141 -0.690185547 1.689208984q 0 0.859375 0.427001953 1.399169922q 0.427001953 0.539794922 1.232666016 0.717041016Z m -0.392089844 1.724121094q 0 -0.64453125 0.34375 -0.982910156q 0.34375 -0.338378906 0.993652344 -0.338378906q 0.655273438 0 0.999023438 0.338378906q 0.34375 0.338378906 0.34375 0.982910156q 0 0.655273438 -0.341064453 0.999023438q -0.341064453 0.34375 -1.001708984 0.34375q -0.649902344 0 -0.993652344 -0.346435547q -0.34375 -0.346435547 -0.34375 -0.996337891Z "/></symbol><symbol id="gF1D559A8812F23DF334C1B3BF3593159" overflow="visible"><path d="M 0 0m 5.575195313 2.927246094q 0 0.692871094 -0.34375 1.109130859q -0.34375 0.416259766 -0.918457031 0.416259766q -0.574707031 0 -0.921142578 -0.416259766q -0.346435547 -0.416259766 -0.346435547 -1.109130859q 0 -0.698242188 0.346435547 -1.114501953q 0.346435547 -0.416259766 0.921142578 -0.416259766q 0.574707031 0 0.918457031 0.416259766q 0.34375 0.416259766 0.34375 1.114501953Z m 0.751953125 -2.202148438h -0.7734375v 0.596191406q -0.198730469 -0.338378906 -0.550537109 -0.520996094q -0.351806641 -0.182617188 -0.792236328 -0.182617188q -0.864746094 0 -1.431396484 0.649902344q -0.566650391 0.649902344 -0.566650391 1.659667969q 0 1.009765625 0.566650391 1.659667969q 0.566650391 0.649902344 1.431396484 0.649902344q 0.4296875 0 0.789550781 -0.187988281q 0.359863281 -0.187988281 0.553222656 -0.515625v 0.338378906q 0 0.837890625 -0.47265625 1.348144531q -0.47265625 0.510253906 -1.251464844 0.510253906q -1.321289063 0 -2.102783203 -1.028564453q -0.781494141 -1.028564453 -0.781494141 -2.784912109q 0 -1.767089844 0.886230469 -2.814453125q 0.886230469 -1.047363281 2.357910156 -1.047363281q 0.290039063 0 0.580078125 0.053710938q 0.290039063 0.053710938 0.596191406 0.166503906l 0.2578125 -0.725097656q -0.338378906 -0.134277344 -0.668701172 -0.198730469q -0.330322266 -0.064453125 -0.641845703 -0.064453125q -1.917480469 0 -3.042724609 1.251464844q -1.125244141 1.251464844 -1.125244141 3.378417969q 0 2.094726563 1.009765625 3.335449219q 1.009765625 1.240722656 2.70703125 1.240722656q 1.122558594 0 1.793945313 -0.714355469q 0.671386719 -0.714355469 0.671386719 -1.917480469v -4.135742188Z "/></symbol><symbol id="g9EF032262EADC7E7D18BAD6EE644609D" overflow="visible"><path d="M 0 0m 2.003417969 0.913085938h 3.684570313v -0.913085938h -4.871582031v 0.913085938q 1.004394531 1.058105469 1.756347656 1.869140625q 0.751953125 0.811035156 1.036621094 1.144042969q 0.537109375 0.655273438 0.725097656 1.060791016q 0.187988281 0.405517578 0.187988281 0.829833984q 0 0.671386719 -0.394775391 1.052734375q -0.394775391 0.381347656 -1.082275391 0.381347656q -0.488769531 0 -1.025878906 -0.177246094q -0.537109375 -0.177246094 -1.138671875 -0.537109375v 1.095703125q 0.553222656 0.263183594 1.087646484 0.397460938q 0.534423828 0.134277344 1.055419922 0.134277344q 1.176269531 0 1.893310547 -0.625732422q 0.717041016 -0.625732422 0.717041016 -1.640869141q 0 -0.515625 -0.239013672 -1.03125q -0.239013672 -0.515625 -0.776123047 -1.138671875q -0.30078125 -0.349121094 -0.872802734 -0.966796875q -0.572021484 -0.617675781 -1.742919922 -1.84765625Z "/></symbol></defs></svg>