<svg viewBox="0 0 538.283468412 139.551669291" width="538.283468412pt" height="139.551669291pt" xmlns="http://www.w3.org/2000/svg" xmlns:xlink="http://www.w3.org/1999/xlink" xmlns:h5="http://www.w3.org/1999/xhtml"><path fill="#ffffff" fill-rule="nonzero" d="M 0 0v 139.551669291h 538.283468412v -139.551669291Z "/><g transform="translate(14.173228346 14.173228346)"><path fill="#f1ca73" fill-rule="nonzero" transform="translate(66.225585938)" d="M 0 0v 14.173228346h 92.715820313v -14.173228346h -92.715820313Z "/><path fill="#f1ca73" fill-rule="nonzero" transform="translate(397.353515625)" d="M 0 0v 14.173228346h 33.112792969v -14.173228346h -33.112792969Z "/><path fill="#a2d6f3" fill-rule="nonzero" transform="translate(165.563964844)" d="M 0 0v 14.173228346h 79.470703125v -14.173228346h -79.470703125Z "/><path fill="#a2d6f3" fill-rule="nonzero" transform="translate(430.466308594)" d="M 0 0v 14.173228346h 26.490234375v -14.173228346h -26.490234375Z "/><path fill="#73cab2" fill-rule="nonzero" transform="translate(251.657226563)" d="M 0 0v 14.173228346h 72.848144531v -14.173228346h -72.848144531Z "/><path fill="#73cab2" fill-rule="nonzero" transform="translate(456.956542969)" d="M 0 0v 14.173228346h 26.490234375v -14.173228346h -26.490234375Z "/><path fill="#f7f097" fill-rule="nonzero" transform="translate(331.127929688)" d="M 0 0v 14.173228346h 52.98046875v -14.173228346h -52.98046875Z "/><path fill="#f7f097" fill-rule="nonzero" transform="translate(483.446777344)" d="M 0 0v 14.173228346h 19.867675781v -14.173228346h -19.867675781Z "/><path fill="#f7f097" fill-rule="nonzero" transform="translate(66.225585938 14.173228346)" d="M 0 0v 14.173228346h 317.8828125v -14.173228346h -317.8828125Z "/><path fill="#f7f097" fill-rule="nonzero" transform="translate(397.353515625 14.173228346)" d="M 0 0v 14.173228346h 105.9609375v -14.173228346h -105.9609375Z "/><path fill="#f7f097" fill-rule="nonzero" transform="translate(66.225585938 28.346456693)" d="M 0 0v 14.173228346h 317.8828125v -14.173228346h -317.8828125Z "/><path fill="#f7f097" fill-rule="nonzero" transform="translate(397.353515625 28.346456693)" d="M 0 0v 14.173228346h 105.9609375v -14.173228346h -105.9609375Z "/><path fill="#f7f097" fill-rule="nonzero" transform="translate(66.225585938 42.519685039)" d="M 0 0v 14.173228346h 317.8828125v -14.173228346h -317.8828125Z "/><path fill="#f7f097" fill-rule="nonzero" transform="translate(397.353515625 42.519685039)" d="M 0 0v 14.173228346h 105.9609375v -14.173228346h -105.9609375Z "/><path fill="#f7f097" fill-rule="nonzero" transform="translate(66.225585938 56.692913386)" d="M 0 0v 14.173228346h 112.583496094v -14.173228346h -112.583496094Z "/><path fill="#f7f097" fill-rule="nonzero" transform="translate(397.353515625 56.692913386)" d="M 0 0v 14.173228346h 39.735351562v -14.173228346h -39.735351562Z "/><path fill="none" transform="translate(0 2.830022376)" d="M 0 0h 52.98046875v 8.513183594h -52.98046875v -8.513183594Z "/><g transform="translate(-9.7e-8 2.830022362)"><g transform="matrix(1 0 0 -1 0 8.357421875)"><use xlink:href="#g421E0A5ADBCD098867DA851B84E834" x="0" y="0" fill="#737373" fill-rule="nonzero"/><use xlink:href="#g421E0A5ADBCD098867DA851B84E834" x="6.622558594" y="0" fill="#737373" fill-rule="nonzero"/><use xlink:href="#g421E0A5ADBCD098867DA851B84E834" x="13.245117188" y="0" fill="#737373" fill-rule="nonzero"/><use xlink:href="#g421E0A5ADBCD098867DA851B84E834" x="19.867675781" y="0" fill="#737373" fill-rule="nonzero"/><use xlink:href="#g421E0A5ADBCD098867DA851B84E834" x="26.490234375" y="0" fill="#737373" fill-rule="nonzero"/><use xlink:href="#g421E0A5ADBCD098867DA851B84E834" x="33.112792969" y="0" fill="#737373" fill-rule="nonzero"/><use xlink:href="#g421E0A5ADBCD098867DA851B84E834" x="39.735351563" y="0" fill="#737373" fill-rule="nonzero"/><use xlink:href="#g421E0A5ADBCD098867DA851B84E834" x="46.357910156" y="0" fill="#737373" fill-rule="nonzero"/></g></g><path fill="none" transform="translate(66.225585938 2.830022376)" d="M 0 0h 317.8828125v 8.513183594h -317.8828125v -8.513183594Z "/><g transform="translate(66.22558592 2.830022362)"><g transform="matrix(1 0 0 -1 0 8.357421875)"><use xlink:href="#g6ED849282110A660B7843606B84CF9D9" x="0" y="0" fill="#000000" fill-rule="nonzero"/><use xlink:href="#gB6CBDFB21EF63DACD0D4EF42A63EF319" x="6.622558594" y="0" fill="#000000" fill-rule="nonzero"/><use xlink:href="#gAADD827615A87718B253F62B6667E88B" x="19.867675781" y="0" fill="#000000" fill-rule="nonzero"/><use xlink:href="#g5BD1592FFDAF366D0A6AA2DE0EFAB0E1" x="26.490234375" y="0" fill="#000000" fill-rule="nonzero"/><use xlink:href="#g5A9BA6F313E5E5834AC142DE8ADA00FB" x="39.735351563" y="0" fill="#000000" fill-rule="nonzero"/><use xlink:href="#g421E0A5ADBCD098867DA851B84E834" x="46.357910156" y="0" fill="#000000" fill-rule="nonzero"/><use xlink:href="#gB6CBDFB21EF63DACD0D4EF42A63EF319" x="59.603027344" y="0" fill="#000000" fill-rule="nonzero"/><use xlink:href="#g5A9BA6F313E5E5834AC142DE8ADA00FB" x="66.225585938" y="0" fill="#000000" fill-rule="nonzero"/><use xlink:href="#gB6CBDFB21EF63DACD0D4EF42A63EF319" x="79.470703125" y="0" fill="#000000" fill-rule="nonzero"/><use xlink:href="#g6ED849282110A660B7843606B84CF9D9" x="86.093261719" y="0" fill="#000000" fill-rule="nonzero"/><use xlink:href="#g6ED849282110A660B7843606B84CF9D9" x="99.338378906" y="0" fill="#000000" fill-rule="nonzero"/><use xlink:href="#gAADD827615A87718B253F62B6667E88B" x="105.9609375" y="0" fill="#000000" fill-rule="nonzero"/><use xlink:href="#g421E0A5ADBCD098867DA851B84E834" x="119.206054688" y="0" fill="#000000" fill-rule="nonzero"/><use xlink:href="#g421E0A5ADBCD098867DA851B84E834" x="125.828613281" y="0" fill="#000000" fill-rule="nonzero"/><use xlink:href="#g421E0A5ADBCD098867DA851B84E834" x="139.073730469" y="0" fill="#000000" fill-rule="nonzero"/><use xlink:href="#g421E0A5ADBCD098867DA851B84E834" x="145.696289063" y="0" fill="#000000" fill-rule="nonzero"/><use xlink:href="#g421E0A5ADBCD098867DA851B84E834" x="165.563964844" y="0" fill="#000000" fill-rule="nonzero"/><use xlink:href="#g421E0A5ADBCD098867DA851B84E834" x="172.186523438" y="0" fill="#000000" fill-rule="nonzero"/><use xlink:href="#gAADD827615A87718B253F62B6667E88B" x="185.431640625" y="0" fill="#000000" fill-rule="nonzero"/><use xlink:href="#g6ED849282110A660B7843606B84CF9D9" x="192.054199219" y="0" fill="#000000" fill-rule="nonzero"/><use xlink:href="#g421E0A5ADBCD098867DA851B84E834" x="205.299316406" y="0" fill="#000000" fill-rule="nonzero"/><use xlink:href="#g421E0A5ADBCD098867DA851B84E834" x="211.921875" y="0" fill="#000000" fill-rule="nonzero"/><use xlink:href="#g421E0A5ADBCD098867DA851B84E834" x="225.166992188" y="0" fill="#000000" fill-rule="nonzero"/><use xlink:href="#g421E0A5ADBCD098867DA851B84E834" x="231.789550781" y="0" fill="#000000" fill-rule="nonzero"/><use xlink:href="#g421E0A5ADBCD098867DA851B84E834" x="245.034667969" y="0" fill="#000000" fill-rule="nonzero"/><use xlink:href="#g421E0A5ADBCD098867DA851B84E834" x="251.657226563" y="0" fill="#000000" fill-rule="nonzero"/><use xlink:href="#gB6CBDFB21EF63DACD0D4EF42A63EF319" x="264.90234375" y="0" fill="#000000" fill-rule="nonzero"/><use xlink:href="#g5BD1592FFDAF366D0A6AA2DE0EFAB0E1" x="271.524902344" y="0" fill="#000000" fill-rule="nonzero"/><use xlink:href="#gE9FF0365C6FE23E82CA3D1D6C002494D" x="284.770019531" y="0" fill="#000000" fill-rule="nonzero"/><use xlink:href="#gF4B7923054E61831FA2928FF88D480B9" x="291.392578125" y="0" fill="#000000" fill-rule="nonzero"/><use xlink:href="#gB6CBDFB21EF63DACD0D4EF42A63EF319" x="304.637695313" y="0" fill="#000000" fill-rule="nonzero"/><use xlink:href="#g5A9BA6F313E5E5834AC142DE8ADA00FB" x="311.260253906" y="0" fill="#000000" fill-rule="nonzero"/></g></g><path fill="none" transform="translate(390.730957031 1.610784095)" d="M 0 0h 119.206054687v 10.951660156h -119.206054687v -10.951660156Z "/><g transform="translate(390.730956989 1.610784)"><g transform="matrix(1 0 0 -1 0 8.357421875)"><use xlink:href="#gDBE42591D9E1BCA79454487872914D01" x="0" y="0" fill="#000000" fill-rule="nonzero"/><use xlink:href="#g2F410028E6171340332B4BB96ED7795C" x="6.622558594" y="0" fill="#000000" fill-rule="nonzero"/><use xlink:href="#g22210169E8F5245EDBE0C4EB2A9AD6BD" x="13.245117188" y="0" fill="#000000" fill-rule="nonzero"/><use xlink:href="#g421E0A5ADBCD098867DA851B84E834" x="19.867675781" y="0" fill="#000000" fill-rule="nonzero"/><use xlink:href="#gBB9A646D67A87CC54D8197FA4DB31E5B" x="26.490234375" y="0" fill="#000000" fill-rule="nonzero"/><use xlink:href="#g9760916047877577D052BF842E4D05BD" x="33.112792969" y="0" fill="#000000" fill-rule="nonzero"/><use xlink:href="#g976997E6FF52821E2A324136FEF06B0E" x="39.735351563" y="0" fill="#000000" fill-rule="nonzero"/><use xlink:href="#g8A2D6BC07E98AE390D7977EF9FD34E6E" x="46.357910156" y="0" fill="#000000" fill-rule="nonzero"/><use xlink:href="#g8A2D6BC07E98AE390D7977EF9FD34E6E" x="52.98046875" y="0" fill="#000000" fill-rule="nonzero"/><use xlink:href="#g8A2D6BC07E98AE390D7977EF9FD34E6E" x="59.603027344" y="0" fill="#000000" fill-rule="nonzero"/><use xlink:href="#g808D1C1235543B1FFFDAA69954FC0904" x="66.225585938" y="0" fill="#000000" fill-rule="nonzero"/><use xlink:href="#g8A2D6BC07E98AE390D7977EF9FD34E6E" x="72.848144531" y="0" fill="#000000" fill-rule="nonzero"/><use xlink:href="#g8A2D6BC07E98AE390D7977EF9FD34E6E" x="79.470703125" y="0" fill="#000000" fill-rule="nonzero"/><use xlink:href="#g8A2D6BC07E98AE390D7977EF9FD34E6E" x="86.093261719" y="0" fill="#000000" fill-rule="nonzero"/><use xlink:href="#g6D4DFDD4F715F0478A22BD43EF52FB29" x="92.715820313" y="0" fill="#000000" fill-rule="nonzero"/><use xlink:href="#g8A2D6BC07E98AE390D7977EF9FD34E6E" x="99.338378906" y="0" fill="#000000" fill-rule="nonzero"/><use xlink:href="#gBB9A646D67A87CC54D8197FA4DB31E5B" x="105.9609375" y="0" fill="#000000" fill-rule="nonzero"/><use xlink:href="#gDBE42591D9E1BCA79454487872914D01" x="112.583496094" y="0" fill="#000000" fill-rule="nonzero"/></g></g><path fill="none" transform="translate(0 17.003250723)" d="M 0 0h 52.98046875v 8.513183594h -52.98046875v -8.513183594Z "/><g transform="translate(-9.7e-8 17.003250709)"><g transform="matrix(1 0 0 -1 0 8.357421875)"><use xlink:href="#g421E0A5ADBCD098867DA851B84E834" x="0" y="0" fill="#737373" fill-rule="nonzero"/><use xlink:href="#g421E0A5ADBCD098867DA851B84E834" x="6.622558594" y="0" fill="#737373" fill-rule="nonzero"/><use xlink:href="#g421E0A5ADBCD098867DA851B84E834" x="13.245117188" y="0" fill="#737373" fill-rule="nonzero"/><use xlink:href="#g421E0A5ADBCD098867DA851B84E834" x="19.867675781" y="0" fill="#737373" fill-rule="nonzero"/><use xlink:href="#g421E0A5ADBCD098867DA851B84E834" x="26.490234375" y="0" fill="#737373" fill-rule="nonzero"/><use xlink:href="#g421E0A5ADBCD098867DA851B84E834" x="33.112792969" y="0" fill="#737373" fill-rule="nonzero"/><use xlink:href="#gF161780E27A0444EF11E7889E4C09D8C" x="39.735351563" y="0" fill="#737373" fill-rule="nonzero"/><use xlink:href="#g421E0A5ADBCD098867DA851B84E834" x="46.357910156" y="0" fill="#737373" fill-rule="nonzero"/></g></g><path fill="none" transform="translate(66.225585938 17.003250723)" d="M 0 0h 317.8828125v 8.513183594h -317.8828125v -8.513183594Z "/><g transform="translate(66.22558592 17.003250709)"><g transform="matrix(1 0 0 -1 0 8.357421875)"><use xlink:href="#g976997E6FF52821E2A324136FEF06B0E" x="0" y="0" fill="#000000" fill-rule="nonzero"/><use xlink:href="#g6ED849282110A660B7843606B84CF9D9" x="6.622558594" y="0" fill="#000000" fill-rule="nonzero"/><use xlink:href="#gB6CBDFB21EF63DACD0D4EF42A63EF319" x="19.867675781" y="0" fill="#000000" fill-rule="nonzero"/><use xlink:href="#g5A9BA6F313E5E5834AC142DE8ADA00FB" x="26.490234375" y="0" fill="#000000" fill-rule="nonzero"/><use xlink:href="#g976997E6FF52821E2A324136FEF06B0E" x="39.735351563" y="0" fill="#000000" fill-rule="nonzero"/><use xlink:href="#g6ED849282110A660B7843606B84CF9D9" x="46.357910156" y="0" fill="#000000" fill-rule="nonzero"/><use xlink:href="#g5BD1592FFDAF366D0A6AA2DE0EFAB0E1" x="59.603027344" y="0" fill="#000000" fill-rule="nonzero"/><use xlink:href="#gE9FF0365C6FE23E82CA3D1D6C002494D" x="66.225585938" y="0" fill="#000000" fill-rule="nonzero"/><use xlink:href="#g421E0A5ADBCD098867DA851B84E834" x="79.470703125" y="0" fill="#000000" fill-rule="nonzero"/><use xlink:href="#gF4B7923054E61831FA2928FF88D480B9" x="86.093261719" y="0" fill="#000000" fill-rule="nonzero"/><use xlink:href="#g421E0A5ADBCD098867DA851B84E834" x="99.338378906" y="0" fill="#000000" fill-rule="nonzero"/><use xlink:href="#gB95F74852F9C0DBD44AC85D9025DFC08" x="105.9609375" y="0" fill="#000000" fill-rule="nonzero"/><use xlink:href="#g743CE0ADF55C34EA4D2D3E581972D07E" x="119.206054688" y="0" fill="#000000" fill-rule="nonzero"/><use xlink:href="#gF161780E27A0444EF11E7889E4C09D8C" x="125.828613281" y="0" fill="#000000" fill-rule="nonzero"/><use xlink:href="#g976997E6FF52821E2A324136FEF06B0E" x="139.073730469" y="0" fill="#000000" fill-rule="nonzero"/><use xlink:href="#g5B0566EB683A7AF8C1D13910CECB217A" x="145.696289063" y="0" fill="#000000" fill-rule="nonzero"/><use xlink:href="#gB6CBDFB21EF63DACD0D4EF42A63EF319" x="165.563964844" y="0" fill="#000000" fill-rule="nonzero"/><use xlink:href="#gF161780E27A0444EF11E7889E4C09D8C" x="172.186523438" y="0" fill="#000000" fill-rule="nonzero"/><use xlink:href="#gB6CBDFB21EF63DACD0D4EF42A63EF319" x="185.431640625" y="0" fill="#000000" fill-rule="nonzero"/><use xlink:href="#g6ED849282110A660B7843606B84CF9D9" x="192.054199219" y="0" fill="#000000" fill-rule="nonzero"/><use xlink:href="#g743CE0ADF55C34EA4D2D3E581972D07E" x="205.299316406" y="0" fill="#000000" fill-rule="nonzero"/><use xlink:href="#g9EF032262EADC7E7D18BAD6EE644609D" x="211.921875" y="0" fill="#000000" fill-rule="nonzero"/><use xlink:href="#g5A9BA6F313E5E5834AC142DE8ADA00FB" x="225.166992188" y="0" fill="#000000" fill-rule="nonzero"/><use xlink:href="#g5B0566EB683A7AF8C1D13910CECB217A" x="231.789550781" y="0" fill="#000000" fill-rule="nonzero"/><use xlink:href="#g5A9BA6F313E5E5834AC142DE8ADA00FB" x="245.034667969" y="0" fill="#000000" fill-rule="nonzero"/><use xlink:href="#g421E0A5ADBCD098867DA851B84E834" x="251.657226563" y="0" fill="#000000" fill-rule="nonzero"/><use xlink:href="#gAADD827615A87718B253F62B6667E88B" x="264.90234375" y="0" fill="#000000" fill-rule="nonzero"/><use xlink:href="#g6ED849282110A660B7843606B84CF9D9" x="271.524902344" y="0" fill="#000000" fill-rule="nonzero"/><use xlink:href="#gF4B7923054E61831FA2928FF88D480B9" x="284.770019531" y="0" fill="#000000" fill-rule="nonzero"/><use xlink:href="#g421E0A5ADBCD098867DA851B84E834" x="291.392578125" y="0" fill="#000000" fill-rule="nonzero"/><use xlink:href="#g421E0A5ADBCD098867DA851B84E834" x="304.637695313" y="0" fill="#000000" fill-rule="nonzero"/><use xlink:href="#gE9FF0365C6FE23E82CA3D1D6C002494D" x="311.260253906" y="0" fill="#000000" fill-rule="nonzero"/></g></g><path fill="none" transform="translate(390.730957031 15.784012442)" d="M 0 0h 119.206054687v 10.951660156h -119.206054687v -10.951660156Z "/><g transform="translate(390.730956989 15.784012346)"><g transform="matrix(1 0 0 -1 0 8.357421875)"><use xlink:href="#gDBE42591D9E1BCA79454487872914D01" x="0" y="0" fill="#000000" fill-rule="nonzero"/><use xlink:href="#g8A2D6BC07E98AE390D7977EF9FD34E6E" x="6.622558594" y="0" fill="#000000" fill-rule="nonzero"/><use xlink:href="#gBB9A646D67A87CC54D8197FA4DB31E5B" x="13.245117188" y="0" fill="#000000" fill-rule="nonzero"/><use xlink:href="#g8A2D6BC07E98AE390D7977EF9FD34E6E" x="19.867675781" y="0" fill="#000000" fill-rule="nonzero"/><use xlink:href="#g8A2D6BC07E98AE390D7977EF9FD34E6E" x="26.490234375" y="0" fill="#000000" fill-rule="nonzero"/><use xlink:href="#g8A2D6BC07E98AE390D7977EF9FD34E6E" x="33.112792969" y="0" fill="#000000" fill-rule="nonzero"/><use xlink:href="#g8A2D6BC07E98AE390D7977EF9FD34E6E" x="39.735351563" y="0" fill="#000000" fill-rule="nonzero"/><use xlink:href="#g8A2D6BC07E98AE390D7977EF9FD34E6E" x="46.357910156" y="0" fill="#000000" fill-rule="nonzero"/><use xlink:href="#g8A2D6BC07E98AE390D7977EF9FD34E6E" x="52.98046875" y="0" fill="#000000" fill-rule="nonzero"/><use xlink:href="#gDD40387126C357E718D83402F9575189" x="59.603027344" y="0" fill="#000000" fill-rule="nonzero"/><use xlink:href="#g9760916047877577D052BF842E4D05BD" x="66.225585938" y="0" fill="#000000" fill-rule="nonzero"/><use xlink:href="#g8A2D6BC07E98AE390D7977EF9FD34E6E" x="72.848144531" y="0" fill="#000000" fill-rule="nonzero"/><use xlink:href="#g5B0566EB683A7AF8C1D13910CECB217A" x="79.470703125" y="0" fill="#000000" fill-rule="nonzero"/><use xlink:href="#g421E0A5ADBCD098867DA851B84E834" x="86.093261719" y="0" fill="#000000" fill-rule="nonzero"/><use xlink:href="#g808D1C1235543B1FFFDAA69954FC0904" x="92.715820313" y="0" fill="#000000" fill-rule="nonzero"/><use xlink:href="#g8A2D6BC07E98AE390D7977EF9FD34E6E" x="99.338378906" y="0" fill="#000000" fill-rule="nonzero"/><use xlink:href="#g8A2D6BC07E98AE390D7977EF9FD34E6E" x="105.9609375" y="0" fill="#000000" fill-rule="nonzero"/><use xlink:href="#gDBE42591D9E1BCA79454487872914D01" x="112.583496094" y="0" fill="#000000" fill-rule="nonzero"/></g></g><path fill="none" transform="translate(0 31.176479069)" d="M 0 0h 52.98046875v 8.513183594h -52.98046875v -8.513183594Z "/><g transform="translate(-9.7e-8 31.176479055)"><g transform="matrix(1 0 0 -1 0 8.357421875)"><use xlink:href="#g421E0A5ADBCD098867DA851B84E834" x="0" y="0" fill="#737373" fill-rule="nonzero"/><use xlink:href="#g421E0A5ADBCD098867DA851B84E834" x="6.622558594" y="0" fill="#737373" fill-rule="nonzero"/><use xlink:href="#g421E0A5ADBCD098867DA851B84E834" x="13.245117188" y="0" fill="#737373" fill-rule="nonzero"/><use xlink:href="#g421E0A5ADBCD098867DA851B84E834" x="19.867675781" y="0" fill="#737373" fill-rule="nonzero"/><use xlink:href="#g421E0A5ADBCD098867DA851B84E834" x="26.490234375" y="0" fill="#737373" fill-rule="nonzero"/><use xlink:href="#g421E0A5ADBCD098867DA851B84E834" x="33.112792969" y="0" fill="#737373" fill-rule="nonzero"/><use xlink:href="#g9EF032262EADC7E7D18BAD6EE644609D" x="39.735351563" y="0" fill="#737373" fill-rule="nonzero"/><use xlink:href="#g421E0A5ADBCD098867DA851B84E834" x="46.357910156" y="0" fill="#737373" fill-rule="nonzero"/></g></g><path fill="none" transform="translate(66.225585938 31.176479069)" d="M 0 0h 317.8828125v 8.513183594h -317.8828125v -8.513183594Z "/><g transform="translate(66.22558592 31.176479055)"><g transform="matrix(1 0 0 -1 0 8.357421875)"><use xlink:href="#g5B0566EB683A7AF8C1D13910CECB217A" x="0" y="0" fill="#000000" fill-rule="nonzero"/><use xlink:href="#g9EF032262EADC7E7D18BAD6EE644609D" x="6.622558594" y="0" fill="#000000" fill-rule="nonzero"/><use xlink:href="#g5B0566EB683A7AF8C1D13910CECB217A" x="19.867675781" y="0" fill="#000000" fill-rule="nonzero"/><use xlink:href="#g9EF032262EADC7E7D18BAD6EE644609D" x="26.490234375" y="0" fill="#000000" fill-rule="nonzero"/><use xlink:href="#g743CE0ADF55C34EA4D2D3E581972D07E" x="39.735351563" y="0" fill="#000000" fill-rule="nonzero"/><use xlink:href="#g5A9BA6F313E5E5834AC142DE8ADA00FB" x="46.357910156" y="0" fill="#000000" fill-rule="nonzero"/><use xlink:href="#g5B0566EB683A7AF8C1D13910CECB217A" x="59.603027344" y="0" fill="#000000" fill-rule="nonzero"/><use xlink:href="#g9EF032262EADC7E7D18BAD6EE644609D" x="66.225585938" y="0" fill="#000000" fill-rule="nonzero"/><use xlink:href="#g976997E6FF52821E2A324136FEF06B0E" x="79.470703125" y="0" fill="#000000" fill-rule="nonzero"/><use xlink:href="#g5A9BA6F313E5E5834AC142DE8ADA00FB" x="86.093261719" y="0" fill="#000000" fill-rule="nonzero"/><use xlink:href="#g5B0566EB683A7AF8C1D13910CECB217A" x="99.338378906" y="0" fill="#000000" fill-rule="nonzero"/><use xlink:href="#g9EF032262EADC7E7D18BAD6EE644609D" x="105.9609375" y="0" fill="#000000" fill-rule="nonzero"/><use xlink:href="#g5B0566EB683A7AF8C1D13910CECB217A" x="119.206054688" y="0" fill="#000000" fill-rule="nonzero"/><use xlink:href="#g9EF032262EADC7E7D18BAD6EE644609D" x="125.828613281" y="0" fill="#000000" fill-rule="nonzero"/><use xlink:href="#g5BD1592FFDAF366D0A6AA2DE0EFAB0E1" x="139.073730469" y="0" fill="#000000" fill-rule="nonzero"/><use xlink:href="#g1A892A96C342815D1F47F594569B2B9" x="145.696289063" y="0" fill="#000000" fill-rule="nonzero"/><use xlink:href="#gE9FF0365C6FE23E82CA3D1D6C002494D" x="165.563964844" y="0" fill="#000000" fill-rule="nonzero"/><use xlink:href="#g421E0A5ADBCD098867DA851B84E834" x="172.186523438" y="0" fill="#000000" fill-rule="nonzero"/><use xlink:href="#gF4B7923054E61831FA2928FF88D480B9" x="185.431640625" y="0" fill="#000000" fill-rule="nonzero"/><use xlink:href="#g5B0566EB683A7AF8C1D13910CECB217A" x="192.054199219" y="0" fill="#000000" fill-rule="nonzero"/><use xlink:href="#gF4B7923054E61831FA2928FF88D480B9" x="205.299316406" y="0" fill="#000000" fill-rule="nonzero"/><use xlink:href="#g9EF032262EADC7E7D18BAD6EE644609D" x="211.921875" y="0" fill="#000000" fill-rule="nonzero"/><use xlink:href="#g5A9BA6F313E5E5834AC142DE8ADA00FB" x="225.166992188" y="0" fill="#000000" fill-rule="nonzero"/><use xlink:href="#g5A9BA6F313E5E5834AC142DE8ADA00FB" x="231.789550781" y="0" fill="#000000" fill-rule="nonzero"/><use xlink:href="#g976997E6FF52821E2A324136FEF06B0E" x="245.034667969" y="0" fill="#000000" fill-rule="nonzero"/><use xlink:href="#g5A9BA6F313E5E5834AC142DE8ADA00FB" x="251.657226563" y="0" fill="#000000" fill-rule="nonzero"/><use xlink:href="#g5B0566EB683A7AF8C1D13910CECB217A" x="264.90234375" y="0" fill="#000000" fill-rule="nonzero"/><use xlink:href="#g9EF032262EADC7E7D18BAD6EE644609D" x="271.524902344" y="0" fill="#000000" fill-rule="nonzero"/><use xlink:href="#g976997E6FF52821E2A324136FEF06B0E" x="284.770019531" y="0" fill="#000000" fill-rule="nonzero"/><use xlink:href="#g9EF032262EADC7E7D18BAD6EE644609D" x="291.392578125" y="0" fill="#000000" fill-rule="nonzero"/><use xlink:href="#gF4B7923054E61831FA2928FF88D480B9" x="304.637695313" y="0" fill="#000000" fill-rule="nonzero"/><use xlink:href="#g1A892A96C342815D1F47F594569B2B9" x="311.260253906" y="0" fill="#000000" fill-rule="nonzero"/></g></g><path fill="none" transform="translate(390.730957031 29.957240788)" d="M 0 0h 119.206054687v 10.951660156h -119.206054687v -10.951660156Z "/><g transform="translate(390.730956989 29.957240693)"><g transform="matrix(1 0 0 -1 0 8.357421875)"><use xlink:href="#gDBE42591D9E1BCA79454487872914D01" x="0" y="0" fill="#000000" fill-rule="nonzero"/><use xlink:href="#gFD433016E15B38DD718FE7CB9E0A5955" x="6.622558594" y="0" fill="#000000" fill-rule="nonzero"/><use xlink:href="#gFD433016E15B38DD718FE7CB9E0A5955" x="13.245117188" y="0" fill="#000000" fill-rule="nonzero"/><use xlink:href="#g8A2D6BC07E98AE390D7977EF9FD34E6E" x="19.867675781" y="0" fill="#000000" fill-rule="nonzero"/><use xlink:href="#gFD433016E15B38DD718FE7CB9E0A5955" x="26.490234375" y="0" fill="#000000" fill-rule="nonzero"/><use xlink:href="#g8A2D6BC07E98AE390D7977EF9FD34E6E" x="33.112792969" y="0" fill="#000000" fill-rule="nonzero"/><use xlink:href="#gFD433016E15B38DD718FE7CB9E0A5955" x="39.735351563" y="0" fill="#000000" fill-rule="nonzero"/><use xlink:href="#gFD433016E15B38DD718FE7CB9E0A5955" x="46.357910156" y="0" fill="#000000" fill-rule="nonzero"/><use xlink:href="#g8A2D6BC07E98AE390D7977EF9FD34E6E" x="52.98046875" y="0" fill="#000000" fill-rule="nonzero"/><use xlink:href="#g8A2D6BC07E98AE390D7977EF9FD34E6E" x="59.603027344" y="0" fill="#000000" fill-rule="nonzero"/><use xlink:href="#g8A2D6BC07E98AE390D7977EF9FD34E6E" x="66.225585938" y="0" fill="#000000" fill-rule="nonzero"/><use xlink:href="#g8A2D6BC07E98AE390D7977EF9FD34E6E" x="72.848144531" y="0" fill="#000000" fill-rule="nonzero"/><use xlink:href="#g5A9BA6F313E5E5834AC142DE8ADA00FB" x="79.470703125" y="0" fill="#000000" fill-rule="nonzero"/><use xlink:href="#g8A2D6BC07E98AE390D7977EF9FD34E6E" x="86.093261719" y="0" fill="#000000" fill-rule="nonzero"/><use xlink:href="#gFD433016E15B38DD718FE7CB9E0A5955" x="92.715820313" y="0" fill="#000000" fill-rule="nonzero"/><use xlink:href="#g8A2D6BC07E98AE390D7977EF9FD34E6E" x="99.338378906" y="0" fill="#000000" fill-rule="nonzero"/><use xlink:href="#g8A2D6BC07E98AE390D7977EF9FD34E6E" x="105.9609375" y="0" fill="#000000" fill-rule="nonzero"/><use xlink:href="#gDBE42591D9E1BCA79454487872914D01" x="112.583496094" y="0" fill="#000000" fill-rule="nonzero"/></g></g><path fill="none" transform="translate(0 45.349707416)" d="M 0 0h 52.98046875v 8.513183594h -52.98046875v -8.513183594Z "/><g transform="translate(-9.7e-8 45.349707402)"><g transform="matrix(1 0 0 -1 0 8.357421875)"><use xlink:href="#g421E0A5ADBCD098867DA851B84E834" x="0" y="0" fill="#737373" fill-rule="nonzero"/><use xlink:href="#g421E0A5ADBCD098867DA851B84E834" x="6.622558594" y="0" fill="#737373" fill-rule="nonzero"/><use xlink:href="#g421E0A5ADBCD098867DA851B84E834" x="13.245117188" y="0" fill="#737373" fill-rule="nonzero"/><use xlink:href="#g421E0A5ADBCD098867DA851B84E834" x="19.867675781" y="0" fill="#737373" fill-rule="nonzero"/><use xlink:href="#g421E0A5ADBCD098867DA851B84E834" x="26.490234375" y="0" fill="#737373" fill-rule="nonzero"/><use xlink:href="#g421E0A5ADBCD098867DA851B84E834" x="33.112792969" y="0" fill="#737373" fill-rule="nonzero"/><use xlink:href="#g5A9BA6F313E5E5834AC142DE8ADA00FB" x="39.735351563" y="0" fill="#737373" fill-rule="nonzero"/><use xlink:href="#g421E0A5ADBCD098867DA851B84E834" x="46.357910156" y="0" fill="#737373" fill-rule="nonzero"/></g></g><path fill="none" transform="translate(66.225585938 45.349707416)" d="M 0 0h 317.8828125v 8.513183594h -317.8828125v -8.513183594Z "/><g transform="translate(66.22558592 45.349707402)"><g transform="matrix(1 0 0 -1 0 8.357421875)"><use xlink:href="#g5BD1592FFDAF366D0A6AA2DE0EFAB0E1" x="0" y="0" fill="#000000" fill-rule="nonzero"/><use xlink:href="#g1A892A96C342815D1F47F594569B2B9" x="6.622558594" y="0" fill="#000000" fill-rule="nonzero"/><use xlink:href="#gF161780E27A0444EF11E7889E4C09D8C" x="19.867675781" y="0" fill="#000000" fill-rule="nonzero"/><use xlink:href="#g5B0566EB683A7AF8C1D13910CECB217A" x="26.490234375" y="0" fill="#000000" fill-rule="nonzero"/><use xlink:href="#g421E0A5ADBCD098867DA851B84E834" x="39.735351563" y="0" fill="#000000" fill-rule="nonzero"/><use xlink:href="#gF4B7923054E61831FA2928FF88D480B9" x="46.357910156" y="0" fill="#000000" fill-rule="nonzero"/><use xlink:href="#g421E0A5ADBCD098867DA851B84E834" x="59.603027344" y="0" fill="#000000" fill-rule="nonzero"/><use xlink:href="#g743CE0ADF55C34EA4D2D3E581972D07E" x="66.225585938" y="0" fill="#000000" fill-rule="nonzero"/><use xlink:href="#gF161780E27A0444EF11E7889E4C09D8C" x="79.470703125" y="0" fill="#000000" fill-rule="nonzero"/><use xlink:href="#g6ED849282110A660B7843606B84CF9D9" x="86.093261719" y="0" fill="#000000" fill-rule="nonzero"/><use xlink:href="#g421E0A5ADBCD098867DA851B84E834" x="99.338378906" y="0" fill="#000000" fill-rule="nonzero"/><use xlink:href="#g9EF032262EADC7E7D18BAD6EE644609D" x="105.9609375" y="0" fill="#000000" fill-rule="nonzero"/><use xlink:href="#g5BD1592FFDAF366D0A6AA2DE0EFAB0E1" x="119.206054688" y="0" fill="#000000" fill-rule="nonzero"/><use xlink:href="#gDD031D65CFEF931E7F776B85663CB2DF" x="125.828613281" y="0" fill="#000000" fill-rule="nonzero"/><use xlink:href="#g976997E6FF52821E2A324136FEF06B0E" x="139.073730469" y="0" fill="#000000" fill-rule="nonzero"/><use xlink:href="#g9EF032262EADC7E7D18BAD6EE644609D" x="145.696289063" y="0" fill="#000000" fill-rule="nonzero"/><use xlink:href="#gF161780E27A0444EF11E7889E4C09D8C" x="165.563964844" y="0" fill="#000000" fill-rule="nonzero"/><use xlink:href="#g5B0566EB683A7AF8C1D13910CECB217A" x="172.186523438" y="0" fill="#000000" fill-rule="nonzero"/><use xlink:href="#g421E0A5ADBCD098867DA851B84E834" x="185.431640625" y="0" fill="#000000" fill-rule="nonzero"/><use xlink:href="#gF4B7923054E61831FA2928FF88D480B9" x="192.054199219" y="0" fill="#000000" fill-rule="nonzero"/><use xlink:href="#g9EF032262EADC7E7D18BAD6EE644609D" x="205.299316406" y="0" fill="#000000" fill-rule="nonzero"/><use xlink:href="#g743CE0ADF55C34EA4D2D3E581972D07E" x="211.921875" y="0" fill="#000000" fill-rule="nonzero"/><use xlink:href="#g421E0A5ADBCD098867DA851B84E834" x="225.166992188" y="0" fill="#000000" fill-rule="nonzero"/><use xlink:href="#g743CE0ADF55C34EA4D2D3E581972D07E" x="231.789550781" y="0" fill="#000000" fill-rule="nonzero"/><use xlink:href="#g6ED849282110A660B7843606B84CF9D9" x="245.034667969" y="0" fill="#000000" fill-rule="nonzero"/><use xlink:href="#gF4B7923054E61831FA2928FF88D480B9" x="251.657226563" y="0" fill="#000000" fill-rule="nonzero"/><use xlink:href="#g6ED849282110A660B7843606B84CF9D9" x="264.90234375" y="0" fill="#000000" fill-rule="nonzero"/><use xlink:href="#gF4B7923054E61831FA2928FF88D480B9" x="271.524902344" y="0" fill="#000000" fill-rule="nonzero"/><use xlink:href="#g1A892A96C342815D1F47F594569B2B9" x="284.770019531" y="0" fill="#000000" fill-rule="nonzero"/><use xlink:href="#gF161780E27A0444EF11E7889E4C09D8C" x="291.392578125" y="0" fill="#000000" fill-rule="nonzero"/><use xlink:href="#gB95F74852F9C0DBD44AC85D9025DFC08" x="304.637695313" y="0" fill="#000000" fill-rule="nonzero"/><use xlink:href="#gE9FF0365C6FE23E82CA3D1D6C002494D" x="311.260253906" y="0" fill="#000000" fill-rule="nonzero"/></g></g><path fill="none" transform="translate(390.730957031 44.130469134)" d="M 0 0h 119.206054687v 10.951660156h -119.206054687v -10.951660156Z "/><g transform="translate(390.730956989 44.130469039)"><g transform="matrix(1 0 0 -1 0 8.357421875)"><use xlink:href="#gDBE42591D9E1BCA79454487872914D01" x="0" y="0" fill="#000000" fill-rule="nonzero"/><use xlink:href="#g8A2D6BC07E98AE390D7977EF9FD34E6E" x="6.622558594" y="0" fill="#000000" fill-rule="nonzero"/><use xlink:href="#g8A2D6BC07E98AE390D7977EF9FD34E6E" x="13.245117188" y="0" fill="#000000" fill-rule="nonzero"/><use xlink:href="#g8A2D6BC07E98AE390D7977EF9FD34E6E" x="19.867675781" y="0" fill="#000000" fill-rule="nonzero"/><use xlink:href="#g8A2D6BC07E98AE390D7977EF9FD34E6E" x="26.490234375" y="0" fill="#000000" fill-rule="nonzero"/><use xlink:href="#g8A2D6BC07E98AE390D7977EF9FD34E6E" x="33.112792969" y="0" fill="#000000" fill-rule="nonzero"/><use xlink:href="#g8A2D6BC07E98AE390D7977EF9FD34E6E" x="39.735351563" y="0" fill="#000000" fill-rule="nonzero"/><use xlink:href="#g8A2D6BC07E98AE390D7977EF9FD34E6E" x="46.357910156" y="0" fill="#000000" fill-rule="nonzero"/><use xlink:href="#g8A2D6BC07E98AE390D7977EF9FD34E6E" x="52.98046875" y="0" fill="#000000" fill-rule="nonzero"/><use xlink:href="#g8A2D6BC07E98AE390D7977EF9FD34E6E" x="59.603027344" y="0" fill="#000000" fill-rule="nonzero"/><use xlink:href="#g8A2D6BC07E98AE390D7977EF9FD34E6E" x="66.225585938" y="0" fill="#000000" fill-rule="nonzero"/><use xlink:href="#gE833CDE53E66F61B0C8CB9F5648A5F1D" x="72.848144531" y="0" fill="#000000" fill-rule="nonzero"/><use xlink:href="#g8A2D6BC07E98AE390D7977EF9FD34E6E" x="79.470703125" y="0" fill="#000000" fill-rule="nonzero"/><use xlink:href="#g6D93EEDA56278469B6F4E93E9DFD73CF" x="86.093261719" y="0" fill="#000000" fill-rule="nonzero"/><use xlink:href="#g6D93EEDA56278469B6F4E93E9DFD73CF" x="92.715820313" y="0" fill="#000000" fill-rule="nonzero"/><use xlink:href="#g8A2D6BC07E98AE390D7977EF9FD34E6E" x="99.338378906" y="0" fill="#000000" fill-rule="nonzero"/><use xlink:href="#g8A2D6BC07E98AE390D7977EF9FD34E6E" x="105.9609375" y="0" fill="#000000" fill-rule="nonzero"/><use xlink:href="#gDBE42591D9E1BCA79454487872914D01" x="112.583496094" y="0" fill="#000000" fill-rule="nonzero"/></g></g><path fill="none" transform="translate(0 59.522935762)" d="M 0 0h 52.98046875v 8.513183594h -52.98046875v -8.513183594Z "/><g transform="translate(-9.7e-8 59.522935748)"><g transform="matrix(1 0 0 -1 0 8.357421875)"><use xlink:href="#g421E0A5ADBCD098867DA851B84E834" x="0" y="0" fill="#737373" fill-rule="nonzero"/><use xlink:href="#g421E0A5ADBCD098867DA851B84E834" x="6.622558594" y="0" fill="#737373" fill-rule="nonzero"/><use xlink:href="#g421E0A5ADBCD098867DA851B84E834" x="13.245117188" y="0" fill="#737373" fill-rule="nonzero"/><use xlink:href="#g421E0A5ADBCD098867DA851B84E834" x="19.867675781" y="0" fill="#737373" fill-rule="nonzero"/><use xlink:href="#g421E0A5ADBCD098867DA851B84E834" x="26.490234375" y="0" fill="#737373" fill-rule="nonzero"/><use xlink:href="#g421E0A5ADBCD098867DA851B84E834" x="33.112792969" y="0" fill="#737373" fill-rule="nonzero"/><use xlink:href="#g6ED849282110A660B7843606B84CF9D9" x="39.735351563" y="0" fill="#737373" fill-rule="nonzero"/><use xlink:href="#g421E0A5ADBCD098867DA851B84E834" x="46.357910156" y="0" fill="#737373" fill-rule="nonzero"/></g></g><path fill="none" transform="translate(66.225585938 59.522935762)" d="M 0 0h 317.8828125v 8.513183594h -317.8828125v -8.513183594Z "/><g transform="translate(66.22558592 59.522935748)"><g transform="matrix(1 0 0 -1 0 8.357421875)"><use xlink:href="#g421E0A5ADBCD098867DA851B84E834" x="0" y="0" fill="#000000" fill-rule="nonzero"/><use xlink:href="#g5B0566EB683A7AF8C1D13910CECB217A" x="6.622558594" y="0" fill="#000000" fill-rule="nonzero"/><use xlink:href="#g421E0A5ADBCD098867DA851B84E834" x="19.867675781" y="0" fill="#000000" fill-rule="nonzero"/><use xlink:href="#g421E0A5ADBCD098867DA851B84E834" x="26.490234375" y="0" fill="#000000" fill-rule="nonzero"/><use xlink:href="#gF4B7923054E61831FA2928FF88D480B9" x="39.735351563" y="0" fill="#000000" fill-rule="nonzero"/><use xlink:href="#gE9FF0365C6FE23E82CA3D1D6C002494D" x="46.357910156" y="0" fill="#000000" fill-rule="nonzero"/><use xlink:href="#gAADD827615A87718B253F62B6667E88B" x="59.603027344" y="0" fill="#000000" fill-rule="nonzero"/><use xlink:href="#g421E0A5ADBCD098867DA851B84E834" x="66.225585938" y="0" fill="#000000" fill-rule="nonzero"/><use xlink:href="#g421E0A5ADBCD098867DA851B84E834" x="79.470703125" y="0" fill="#000000" fill-rule="nonzero"/><use xlink:href="#gF4B7923054E61831FA2928FF88D480B9" x="86.093261719" y="0" fill="#000000" fill-rule="nonzero"/><use xlink:href="#gF4B7923054E61831FA2928FF88D480B9" x="99.338378906" y="0" fill="#000000" fill-rule="nonzero"/><use xlink:href="#g6ED849282110A660B7843606B84CF9D9" x="105.9609375" y="0" fill="#000000" fill-rule="nonzero"/></g></g><path fill="none" transform="translate(390.730957031 58.303697481)" d="M 0 0h 52.98046875v 10.951660156h -52.98046875v -10.951660156Z "/><g transform="translate(390.730956934 58.303697386)"><g transform="matrix(1 0 0 -1 0 8.357421875)"><use xlink:href="#gDBE42591D9E1BCA79454487872914D01" x="0" y="0" fill="#000000" fill-rule="nonzero"/><use xlink:href="#g8A2D6BC07E98AE390D7977EF9FD34E6E" x="6.622558594" y="0" fill="#000000" fill-rule="nonzero"/><use xlink:href="#g8A2D6BC07E98AE390D7977EF9FD34E6E" x="13.245117188" y="0" fill="#000000" fill-rule="nonzero"/><use xlink:href="#g8A2D6BC07E98AE390D7977EF9FD34E6E" x="19.867675781" y="0" fill="#000000" fill-rule="nonzero"/><use xlink:href="#gED9C8EEFD17D2A032C023644A48CB0F2" x="26.490234375" y="0" fill="#000000" fill-rule="nonzero"/><use xlink:href="#g8A2D6BC07E98AE390D7977EF9FD34E6E" x="33.112792969" y="0" fill="#000000" fill-rule="nonzero"/><use xlink:href="#g8A2D6BC07E98AE390D7977EF9FD34E6E" x="39.735351563" y="0" fill="#000000" fill-rule="nonzero"/><use xlink:href="#gDBE42591D9E1BCA79454487872914D01" x="46.357910156" y="0" fill="#000000" fill-rule="nonzero"/></g></g><path fill="#f1ca73" fill-rule="nonzero" transform="translate(0 87.874015748)" d="M 0 0v 8.503937008h 8.503937008v -8.503937008h -8.503937008Z "/><path fill="none" transform="translate(11.905511811 87.869392455)" d="M 0 0h 59.603027344v 8.513183594h -59.603027344v -8.513183594Z "/><g transform="translate(11.905511719 87.869392441)"><g transform="matrix(1 0 0 -1 0 8.357421875)"><use xlink:href="#g421E0A5ADBCD098867DA851B84E834" x="0" y="0" fill="#737373" fill-rule="nonzero"/><use xlink:href="#g6D4DFDD4F715F0478A22BD43EF52FB29" x="6.622558594" y="0" fill="#737373" fill-rule="nonzero"/><use xlink:href="#g421E0A5ADBCD098867DA851B84E834" x="13.245117188" y="0" fill="#737373" fill-rule="nonzero"/><use xlink:href="#g421E0A5ADBCD098867DA851B84E834" x="19.867675781" y="0" fill="#737373" fill-rule="nonzero"/><use xlink:href="#g24C5EF3E97413E96462F170081C64B0D" x="26.490234375" y="0" fill="#737373" fill-rule="nonzero"/><use xlink:href="#g421E0A5ADBCD098867DA851B84E834" x="33.112792969" y="0" fill="#737373" fill-rule="nonzero"/><use xlink:href="#g6D4DFDD4F715F0478A22BD43EF52FB29" x="39.735351563" y="0" fill="#737373" fill-rule="nonzero"/><use xlink:href="#g421E0A5ADBCD098867DA851B84E834" x="46.357910156" y="0" fill="#737373" fill-rule="nonzero"/><use xlink:href="#g6ED849282110A660B7843606B84CF9D9" x="52.98046875" y="0" fill="#737373" fill-rule="nonzero"/></g></g><path fill="none" transform="translate(74.910113958 87.197984252)" d="M 0 0h 67.375v 9.856h -67.375v -9.856Z "/><g transform="translate(74.910113926 87.19798422)"><g transform="matrix(1 0 0 -1 0 7.238)"><use xlink:href="#g5A92E01899F34F07E07504597D398CD0" x="0" y="0" fill="#000000" fill-rule="nonzero"/><use xlink:href="#g9787446D80B11CDE2529516BF2D1ACCA" x="9.229" y="0" fill="#000000" fill-rule="nonzero"/><use xlink:href="#gEEC20B8710F33D8A6862F31BD530D033" x="14.256" y="0" fill="#000000" fill-rule="nonzero"/><use xlink:href="#gDD50B131DFBA2C7EA73123CA4C98C33" x="19.756" y="0" fill="#000000" fill-rule="nonzero"/><use xlink:href="#g3CE57ED74C3DBA63F54F2735C0855367" x="22.737" y="0" fill="#000000" fill-rule="nonzero"/><use xlink:href="#g44004E68E94B5A5A0D86AA9F437EC7DB" x="27.445" y="0" fill="#000000" fill-rule="nonzero"/><use xlink:href="#g9FF0FAFA5F7DCA465A4F7B863F431F9F" x="32.791" y="0" fill="#000000" fill-rule="nonzero"/><use xlink:href="#g3F667FFDD1C97879AF7AE760B32EDBEE" x="36.916" y="0" fill="#000000" fill-rule="nonzero"/><use xlink:href="#g525D29E90AD4E5DCC336104F62B1760B" x="44.451" y="0" fill="#000000" fill-rule="nonzero"/><use xlink:href="#g8E3C9955A16891CC95B0D7826587A8C6" x="50.369" y="0" fill="#000000" fill-rule="nonzero"/><use xlink:href="#g4E5D026409004C23B788CF76C0C2AF69" x="55.484" y="0" fill="#000000" fill-rule="nonzero"/><use xlink:href="#gB38329E71763B8BD4CF776D24C5AFFE1" x="59.774" y="0" fill="#000000" fill-rule="nonzero"/><use xlink:href="#g2C1E63F791E5567545B2BBD158EF010A" x="63.25" y="0" fill="#000000" fill-rule="nonzero"/></g></g><path fill="#a2d6f3" fill-rule="nonzero" transform="translate(0 102.047244094)" d="M 0 0v 8.503937008h 8.503937008v -8.503937008h -8.503937008Z "/><path fill="none" transform="translate(11.905511811 102.042620802)" d="M 0 0h 59.603027344v 8.513183594h -59.603027344v -8.513183594Z "/><g transform="translate(11.905511719 102.042620787)"><g transform="matrix(1 0 0 -1 0 8.357421875)"><use xlink:href="#g421E0A5ADBCD098867DA851B84E834" x="0" y="0" fill="#737373" fill-rule="nonzero"/><use xlink:href="#g6D4DFDD4F715F0478A22BD43EF52FB29" x="6.622558594" y="0" fill="#737373" fill-rule="nonzero"/><use xlink:href="#g421E0A5ADBCD098867DA851B84E834" x="13.245117188" y="0" fill="#737373" fill-rule="nonzero"/><use xlink:href="#g5B0566EB683A7AF8C1D13910CECB217A" x="19.867675781" y="0" fill="#737373" fill-rule="nonzero"/><use xlink:href="#g24C5EF3E97413E96462F170081C64B0D" x="26.490234375" y="0" fill="#737373" fill-rule="nonzero"/><use xlink:href="#g421E0A5ADBCD098867DA851B84E834" x="33.112792969" y="0" fill="#737373" fill-rule="nonzero"/><use xlink:href="#g6D4DFDD4F715F0478A22BD43EF52FB29" x="39.735351563" y="0" fill="#737373" fill-rule="nonzero"/><use xlink:href="#g421E0A5ADBCD098867DA851B84E834" x="46.357910156" y="0" fill="#737373" fill-rule="nonzero"/><use xlink:href="#g5BD1592FFDAF366D0A6AA2DE0EFAB0E1" x="52.98046875" y="0" fill="#737373" fill-rule="nonzero"/></g></g><path fill="none" transform="translate(74.910113958 101.558212598)" d="M 0 0h 63.668v 9.482h -63.668v -9.482Z "/><g transform="translate(74.910113895 101.558212583)"><g transform="matrix(1 0 0 -1 0 7.238)"><use xlink:href="#g6553513FE64203BDE37F7BF6C55D1886" x="0" y="0" fill="#000000" fill-rule="nonzero"/><use xlink:href="#g5E76F8DBE7C3C7A9A461E8EC1D70F6FB" x="5.874" y="0" fill="#000000" fill-rule="nonzero"/><use xlink:href="#gB38329E71763B8BD4CF776D24C5AFFE1" x="11.418" y="0" fill="#000000" fill-rule="nonzero"/><use xlink:href="#g9787446D80B11CDE2529516BF2D1ACCA" x="14.894" y="0" fill="#000000" fill-rule="nonzero"/><use xlink:href="#g36F90904A4043C6A677E73471A30013F" x="19.921" y="0" fill="#000000" fill-rule="nonzero"/><use xlink:href="#g4E5D026409004C23B788CF76C0C2AF69" x="25.575" y="0" fill="#000000" fill-rule="nonzero"/><use xlink:href="#gDD50B131DFBA2C7EA73123CA4C98C33" x="29.865" y="0" fill="#000000" fill-rule="nonzero"/><use xlink:href="#g655E0F63922F0B22A8EACB89CAA205FD" x="32.846" y="0" fill="#000000" fill-rule="nonzero"/><use xlink:href="#gBFE09989B12480F1B7796D69E0D7287C" x="37.51" y="0" fill="#000000" fill-rule="nonzero"/><use xlink:href="#gA583550D4A9AF5E4B050D091A0D6D555" x="45.177" y="0" fill="#000000" fill-rule="nonzero"/><use xlink:href="#gDAEF01F2D8957876B63D52895EE853E4" x="48.455" y="0" fill="#000000" fill-rule="nonzero"/><use xlink:href="#g14CB754CE297B694D18D364D9C1BAD84" x="54.263" y="0" fill="#000000" fill-rule="nonzero"/><use xlink:href="#gEC09E6B8EA933E4C3BF631014D088804" x="60.39" y="0" fill="#000000" fill-rule="nonzero"/></g></g><path fill="#73cab2" fill-rule="nonzero" transform="translate(201.540633643 87.874015748)" d="M 0 0v 8.503937008h 8.503937008v -8.503937008h -8.503937008Z "/><path fill="none" transform="translate(213.446145454 87.869392455)" d="M 0 0h 59.603027344v 8.513183594h -59.603027344v -8.513183594Z "/><g transform="translate(213.446145362 87.869392441)"><g transform="matrix(1 0 0 -1 0 8.357421875)"><use xlink:href="#g421E0A5ADBCD098867DA851B84E834" x="0" y="0" fill="#737373" fill-rule="nonzero"/><use xlink:href="#g6D4DFDD4F715F0478A22BD43EF52FB29" x="6.622558594" y="0" fill="#737373" fill-rule="nonzero"/><use xlink:href="#g421E0A5ADBCD098867DA851B84E834" x="13.245117188" y="0" fill="#737373" fill-rule="nonzero"/><use xlink:href="#gE9FF0365C6FE23E82CA3D1D6C002494D" x="19.867675781" y="0" fill="#737373" fill-rule="nonzero"/><use xlink:href="#g24C5EF3E97413E96462F170081C64B0D" x="26.490234375" y="0" fill="#737373" fill-rule="nonzero"/><use xlink:href="#g421E0A5ADBCD098867DA851B84E834" x="33.112792969" y="0" fill="#737373" fill-rule="nonzero"/><use xlink:href="#g6D4DFDD4F715F0478A22BD43EF52FB29" x="39.735351563" y="0" fill="#737373" fill-rule="nonzero"/><use xlink:href="#g421E0A5ADBCD098867DA851B84E834" x="46.357910156" y="0" fill="#737373" fill-rule="nonzero"/><use xlink:href="#gF4B7923054E61831FA2928FF88D480B9" x="52.98046875" y="0" fill="#737373" fill-rule="nonzero"/></g></g><path fill="none" transform="translate(276.450747601 87.219984252)" d="M 0 0h 106.788v 9.812h -106.788v -9.812Z "/><g transform="translate(276.450747506 87.219984189)"><g transform="matrix(1 0 0 -1 0 7.238)"><use xlink:href="#g31F7C94EB04815C2108183C45B49E8BA" x="0" y="0" fill="#000000" fill-rule="nonzero"/><use xlink:href="#gEB245AFE22C398BE296AC5F7AF6ADF12" x="7.271" y="0" fill="#000000" fill-rule="nonzero"/><use xlink:href="#g3CE57ED74C3DBA63F54F2735C0855367" x="13.233" y="0" fill="#000000" fill-rule="nonzero"/><use xlink:href="#g5E76F8DBE7C3C7A9A461E8EC1D70F6FB" x="17.941" y="0" fill="#000000" fill-rule="nonzero"/><use xlink:href="#gF9510C9866DCA99AFC3FC8A8DB318BDC" x="23.485" y="0" fill="#000000" fill-rule="nonzero"/><use xlink:href="#gF9560AC257AD9BBCF737B0F29E336B2F" x="32.175" y="0" fill="#000000" fill-rule="nonzero"/><use xlink:href="#gD91D82170ED5F219BEA1B53E81DC19AF" x="37.884" y="0" fill="#000000" fill-rule="nonzero"/><use xlink:href="#gBFE09989B12480F1B7796D69E0D7287C" x="41.888" y="0" fill="#000000" fill-rule="nonzero"/><use xlink:href="#g4E5D026409004C23B788CF76C0C2AF69" x="46.805" y="0" fill="#000000" fill-rule="nonzero"/><use xlink:href="#g4E5D026409004C23B788CF76C0C2AF69" x="51.095" y="0" fill="#000000" fill-rule="nonzero"/><use xlink:href="#gBFE09989B12480F1B7796D69E0D7287C" x="55.385" y="0" fill="#000000" fill-rule="nonzero"/><use xlink:href="#g7FF42B92D9D80783DC2C1CC317042C56" x="60.379" y="0" fill="#000000" fill-rule="nonzero"/><use xlink:href="#g4E5D026409004C23B788CF76C0C2AF69" x="68.695" y="0" fill="#000000" fill-rule="nonzero"/><use xlink:href="#gDD50B131DFBA2C7EA73123CA4C98C33" x="72.985" y="0" fill="#000000" fill-rule="nonzero"/><use xlink:href="#g655E0F63922F0B22A8EACB89CAA205FD" x="75.966" y="0" fill="#000000" fill-rule="nonzero"/><use xlink:href="#gBFE09989B12480F1B7796D69E0D7287C" x="80.63" y="0" fill="#000000" fill-rule="nonzero"/><use xlink:href="#gA583550D4A9AF5E4B050D091A0D6D555" x="88.297" y="0" fill="#000000" fill-rule="nonzero"/><use xlink:href="#gDAEF01F2D8957876B63D52895EE853E4" x="91.575" y="0" fill="#000000" fill-rule="nonzero"/><use xlink:href="#g14CB754CE297B694D18D364D9C1BAD84" x="97.383" y="0" fill="#000000" fill-rule="nonzero"/><use xlink:href="#gEC09E6B8EA933E4C3BF631014D088804" x="103.51" y="0" fill="#000000" fill-rule="nonzero"/></g></g><path fill="#f7f097" fill-rule="nonzero" transform="translate(201.540633643 102.047244094)" d="M 0 0v 8.503937008h 8.503937008v -8.503937008h -8.503937008Z "/><path fill="none" transform="translate(213.446145454 102.042620802)" d="M 0 0h 59.603027344v 8.513183594h -59.603027344v -8.513183594Z "/><g transform="translate(213.446145362 102.042620787)"><g transform="matrix(1 0 0 -1 0 8.357421875)"><use xlink:href="#g421E0A5ADBCD098867DA851B84E834" x="0" y="0" fill="#737373" fill-rule="nonzero"/><use xlink:href="#g6D4DFDD4F715F0478A22BD43EF52FB29" x="6.622558594" y="0" fill="#737373" fill-rule="nonzero"/><use xlink:href="#g421E0A5ADBCD098867DA851B84E834" x="13.245117188" y="0" fill="#737373" fill-rule="nonzero"/><use xlink:href="#g743CE0ADF55C34EA4D2D3E581972D07E" x="19.867675781" y="0" fill="#737373" fill-rule="nonzero"/><use xlink:href="#g24C5EF3E97413E96462F170081C64B0D" x="26.490234375" y="0" fill="#737373" fill-rule="nonzero"/><use xlink:href="#g421E0A5ADBCD098867DA851B84E834" x="33.112792969" y="0" fill="#737373" fill-rule="nonzero"/><use xlink:href="#g6D4DFDD4F715F0478A22BD43EF52FB29" x="39.735351563" y="0" fill="#737373" fill-rule="nonzero"/><use xlink:href="#g6ED849282110A660B7843606B84CF9D9" x="46.357910156" y="0" fill="#737373" fill-rule="nonzero"/><use xlink:href="#g5B0566EB683A7AF8C1D13910CECB217A" x="52.98046875" y="0" fill="#737373" fill-rule="nonzero"/></g></g><path fill="none" transform="translate(276.450747601 101.393212598)" d="M 0 0h 99.176v 9.812h -99.176v -9.812Z "/><g transform="translate(276.450747585 101.393212535)"><g transform="matrix(1 0 0 -1 0 7.238)"><use xlink:href="#g655E0F63922F0B22A8EACB89CAA205FD" x="0" y="0" fill="#000000" fill-rule="nonzero"/><use xlink:href="#g36F90904A4043C6A677E73471A30013F" x="4.664" y="0" fill="#000000" fill-rule="nonzero"/><use xlink:href="#gDD50B131DFBA2C7EA73123CA4C98C33" x="7.568" y="0" fill="#000000" fill-rule="nonzero"/><use xlink:href="#g2E78C0ACEE1FBDF39EC1D5F9B4AD747D" x="10.549" y="0" fill="#000000" fill-rule="nonzero"/><use xlink:href="#gF9560AC257AD9BBCF737B0F29E336B2F" x="18.722" y="0" fill="#000000" fill-rule="nonzero"/><use xlink:href="#g9787446D80B11CDE2529516BF2D1ACCA" x="24.431" y="0" fill="#000000" fill-rule="nonzero"/><use xlink:href="#gB7E01F34AB4FF1C26BADF7D662D6A5FF" x="29.458" y="0" fill="#000000" fill-rule="nonzero"/><use xlink:href="#g36F90904A4043C6A677E73471A30013F" x="35.123" y="0" fill="#000000" fill-rule="nonzero"/><use xlink:href="#g5E76F8DBE7C3C7A9A461E8EC1D70F6FB" x="38.027" y="0" fill="#000000" fill-rule="nonzero"/><use xlink:href="#g9787446D80B11CDE2529516BF2D1ACCA" x="43.571" y="0" fill="#000000" fill-rule="nonzero"/><use xlink:href="#g7FF42B92D9D80783DC2C1CC317042C56" x="48.598" y="0" fill="#000000" fill-rule="nonzero"/><use xlink:href="#gA583550D4A9AF5E4B050D091A0D6D555" x="56.914" y="0" fill="#000000" fill-rule="nonzero"/><use xlink:href="#g8E3C9955A16891CC95B0D7826587A8C6" x="60.192" y="0" fill="#000000" fill-rule="nonzero"/><use xlink:href="#g4FC526A993AC97C2A7055B69F4E908C9" x="65.307" y="0" fill="#000000" fill-rule="nonzero"/><use xlink:href="#gA178006150E0068874D333D04DEC7ECA" x="70.697" y="0" fill="#000000" fill-rule="nonzero"/><use xlink:href="#g21F992EDFDCF3117BFC401CE348E97A9" x="75.812" y="0" fill="#000000" fill-rule="nonzero"/><use xlink:href="#g782435CA22B9C6782DE731C6871EEFAD" x="83.677" y="0" fill="#000000" fill-rule="nonzero"/><use xlink:href="#g56988988A1B18AD1D268C4FF00F68428" x="88.792" y="0" fill="#000000" fill-rule="nonzero"/><use xlink:href="#gEC09E6B8EA933E4C3BF631014D088804" x="95.898" y="0" fill="#000000" fill-rule="nonzero"/></g></g></g><defs><symbol id="g421E0A5ADBCD098867DA851B84E834" overflow="visible"><path d="M 0 0m 2.594238281 4.028320313q 0 0.295410156 0.206787109 0.510253906q 0.206787109 0.21484375 0.496826172 0.21484375q 0.30078125 0 0.515625 -0.21484375q 0.21484375 -0.21484375 0.21484375 -0.510253906q 0 -0.30078125 -0.212158203 -0.510253906q -0.212158203 -0.209472656 -0.518310547 -0.209472656q -0.30078125 0 -0.502197266 0.204101563q -0.201416016 0.204101563 -0.201416016 0.515625Z m 0.714355469 3.276367188q -0.757324219 0 -1.130615234 -0.81640625q -0.373291016 -0.81640625 -0.373291016 -2.486816406q 0 -1.665039063 0.373291016 -2.481445313q 0.373291016 -0.81640625 1.130615234 -0.81640625q 0.762695313 0 1.135986328 0.81640625q 0.373291016 0.81640625 0.373291016 2.481445313q 0 1.670410156 -0.373291016 2.486816406q -0.373291016 0.81640625 -1.135986328 0.81640625Z m 0 0.859375q 1.283691406 0 1.941650391 -1.052734375q 0.657958984 -1.052734375 0.657958984 -3.109863281q 0 -2.051757813 -0.657958984 -3.104492188q -0.657958984 -1.052734375 -1.941650391 -1.052734375q -1.283691406 0 -1.938964844 1.052734375q -0.655273438 1.052734375 -0.655273438 3.104492188q 0 2.057128906 0.655273438 3.109863281q 0.655273438 1.052734375 1.938964844 1.052734375Z "/></symbol><symbol id="g6ED849282110A660B7843606B84CF9D9" overflow="visible"><path d="M 0 0m 3.947753906 7.030761719l -2.529785156 -4.237792969h 2.529785156v 4.237792969Z m -0.177246094 0.98828125h 1.256835938v -5.226074219h 1.068847656v -0.880859375h -1.068847656v -1.912109375h -1.079589844v 1.912109375h -3.399902344v 1.025878906l 3.22265625 5.081054688Z "/></symbol><symbol id="gB6CBDFB21EF63DACD0D4EF42A63EF319" overflow="visible"><path d="M 0 0m 0.746582031 8.019042969h 5.048828125v -0.461914063l -2.868164063 -7.557128906h -1.133300781l 2.79296875 7.105957031h -3.840332031v 0.913085938Z "/></symbol><symbol id="gAADD827615A87718B253F62B6667E88B" overflow="visible"><path d="M 0 0m 5.322753906 7.841796875v -0.999023438q -0.338378906 0.198730469 -0.719726563 0.303466797q -0.381347656 0.104736328 -0.794921875 0.104736328q -1.03125 0 -1.562988281 -0.776123047q -0.531738281 -0.776123047 -0.531738281 -2.285400391q 0.2578125 0.537109375 0.714355469 0.824462891q 0.456542969 0.287353516 1.047363281 0.287353516q 1.16015625 0 1.796630859 -0.711669922q 0.636474609 -0.711669922 0.636474609 -2.016845703q 0 -1.299804688 -0.655273438 -2.014160156q -0.655273438 -0.714355469 -1.842285156 -0.714355469q -1.396484375 0 -2.046386719 1.001708984q -0.649902344 1.001708984 -0.649902344 3.155517578q 0 2.030273438 0.781494141 3.096435547q 0.781494141 1.066162109 2.263916016 1.066162109q 0.397460938 0 0.794921875 -0.083251953q 0.397460938 -0.083251953 0.768066406 -0.239013672Z m -1.93359375 -3.389160156q -0.692871094 0 -1.090332031 -0.499511719q -0.397460938 -0.499511719 -0.397460938 -1.380371094q 0 -0.880859375 0.397460938 -1.380371094q 0.397460938 -0.499511719 1.090332031 -0.499511719q 0.719726563 0 1.084960938 0.475341797q 0.365234375 0.475341797 0.365234375 1.404541016q 0 0.934570313 -0.365234375 1.407226563q -0.365234375 0.47265625 -1.084960938 0.47265625Z "/></symbol><symbol id="g5BD1592FFDAF366D0A6AA2DE0EFAB0E1" overflow="visible"><path d="M 0 0m 3.30859375 3.808105469q -0.725097656 0 -1.119873047 -0.405517578q -0.394775391 -0.405517578 -0.394775391 -1.146728516q 0 -0.741210938 0.400146484 -1.152099609q 0.400146484 -0.410888672 1.114501953 -0.410888672q 0.73046875 0 1.125244141 0.405517578q 0.394775391 0.405517578 0.394775391 1.157470703q 0 0.735839844 -0.400146484 1.144042969q -0.400146484 0.408203125 -1.119873047 0.408203125Z m -0.9453125 0.451171875q -0.692871094 0.177246094 -1.082275391 0.660644531q -0.389404297 0.483398438 -0.389404297 1.165527344q 0 0.956054688 0.649902344 1.517333984q 0.649902344 0.561279297 1.767089844 0.561279297q 1.122558594 0 1.772460938 -0.561279297q 0.649902344 -0.561279297 0.649902344 -1.517333984q 0 -0.682128906 -0.389404297 -1.165527344q -0.389404297 -0.483398438 -1.082275391 -0.660644531q 0.805664063 -0.177246094 1.232666016 -0.714355469q 0.427001953 -0.537109375 0.427001953 -1.391113281q 0 -1.084960938 -0.692871094 -1.697265625q -0.692871094 -0.612304688 -1.917480469 -0.612304688q -1.224609375 0 -1.914794922 0.609619141q -0.690185547 0.609619141 -0.690185547 1.689208984q 0 0.859375 0.427001953 1.399169922q 0.427001953 0.539794922 1.232666016 0.717041016Z m -0.392089844 1.724121094q 0 -0.64453125 0.34375 -0.982910156q 0.34375 -0.338378906 0.993652344 -0.338378906q 0.655273438 0 0.999023438 0.338378906q 0.34375 0.338378906 0.34375 0.982910156q 0 0.655273438 -0.341064453 0.999023438q -0.341064453 0.34375 -1.001708984 0.34375q -0.649902344 0 -0.993652344 -0.346435547q -0.34375 -0.346435547 -0.34375 -0.996337891Z "/></symbol><symbol id="g5A9BA6F313E5E5834AC142DE8ADA00FB" overflow="visible"><path d="M 0 0m 4.16796875 4.291503906q 0.789550781 -0.209472656 1.208496094 -0.743896484q 0.418945313 -0.534423828 0.418945313 -1.334716797q 0 -1.106445313 -0.743896484 -1.737548828q -0.743896484 -0.631103516 -2.059814453 -0.631103516q -0.553222656 0 -1.127929688 0.102050781q -0.574707031 0.102050781 -1.127929688 0.295410156v 1.079589844q 0.547851563 -0.284667969 1.079589844 -0.424316406q 0.531738281 -0.139648438 1.058105469 -0.139648438q 0.891601563 0 1.369628906 0.402832031q 0.478027344 0.402832031 0.478027344 1.16015625q 0 0.698242188 -0.478027344 1.109130859q -0.478027344 0.410888672 -1.294433594 0.410888672h -0.827148438v 0.891601563h 0.827148438q 0.746582031 0 1.165527344 0.327636719q 0.418945313 0.327636719 0.418945313 0.913085938q 0 0.617675781 -0.389404297 0.947998047q -0.389404297 0.330322266 -1.109130859 0.330322266q -0.478027344 0 -0.98828125 -0.107421875q -0.510253906 -0.107421875 -1.068847656 -0.322265625v 0.999023438q 0.649902344 0.171875 1.157470703 0.2578125q 0.507568359 0.0859375 0.899658203 0.0859375q 1.170898438 0 1.871826172 -0.588134766q 0.700927734 -0.588134766 0.700927734 -1.560302734q 0 -0.660644531 -0.367919922 -1.101074219q -0.367919922 -0.440429688 -1.071533203 -0.623046875Z "/></symbol><symbol id="gE9FF0365C6FE23E82CA3D1D6C002494D" overflow="visible"><path d="M 0 0m 3.201171875 3.555664063q 0.692871094 0 1.087646484 0.499511719q 0.394775391 0.499511719 0.394775391 1.380371094q 0 0.880859375 -0.394775391 1.380371094q -0.394775391 0.499511719 -1.087646484 0.499511719q -0.719726563 0 -1.084960938 -0.475341797q -0.365234375 -0.475341797 -0.365234375 -1.404541016q 0 -0.934570313 0.362548828 -1.407226563q 0.362548828 -0.47265625 1.087646484 -0.47265625Z m -1.93359375 -3.389160156v 0.999023438q 0.338378906 -0.198730469 0.719726563 -0.303466797q 0.381347656 -0.104736328 0.794921875 -0.104736328q 1.03125 0 1.560302734 0.776123047q 0.529052734 0.776123047 0.529052734 2.285400391q -0.252441406 -0.537109375 -0.708984375 -0.824462891q -0.456542969 -0.287353516 -1.047363281 -0.287353516q -1.16015625 0 -1.796630859 0.714355469q -0.636474609 0.714355469 -0.636474609 2.024902344q 0 1.294433594 0.652587891 2.006103516q 0.652587891 0.711669922 1.844970703 0.711669922q 1.396484375 0 2.046386719 -1.004394531q 0.649902344 -1.004394531 0.649902344 -3.158203125q 0 -2.024902344 -0.781494141 -3.091064453q -0.781494141 -1.066162109 -2.269287109 -1.066162109q -0.392089844 0 -0.789550781 0.083251953q -0.397460938 0.083251953 -0.768066406 0.239013672Z "/></symbol><symbol id="gF4B7923054E61831FA2928FF88D480B9" overflow="visible"><path d="M 0 0m 5.763183594 0.284667969q -0.413574219 -0.220214844 -0.848632813 -0.330322266q -0.435058594 -0.110107422 -0.923828125 -0.110107422q -1.541503906 0 -2.392822266 1.090332031q -0.851318359 1.090332031 -0.851318359 3.066894531q 0 1.965820313 0.856689453 3.064208984q 0.856689453 1.098388672 2.387451172 1.098388672q 0.488769531 0 0.923828125 -0.110107422q 0.435058594 -0.110107422 0.848632813 -0.330322266v -1.111816406q -0.397460938 0.327636719 -0.854003906 0.499511719q -0.456542969 0.171875 -0.918457031 0.171875q -1.058105469 0 -1.584472656 -0.81640625q -0.526367188 -0.81640625 -0.526367188 -2.465332031q 0 -1.643554688 0.526367188 -2.459960938q 0.526367188 -0.81640625 1.584472656 -0.81640625q 0.47265625 0 0.926513672 0.171875q 0.453857422 0.171875 0.845947266 0.499511719v -1.111816406Z "/></symbol><symbol id="gDBE42591D9E1BCA79454487872914D01" overflow="visible"><path d="M 0 0m 3.770507813 8.405761719v -11h -0.923828125v 11h 0.923828125Z "/></symbol><symbol id="g2F410028E6171340332B4BB96ED7795C" overflow="visible"><path d="M 0 0m 5.9296875 0.660644531q -0.435058594 -0.402832031 -0.980224609 -0.609619141q -0.545166016 -0.206787109 -1.178955078 -0.206787109q -1.525390625 0 -2.374023438 1.093017578q -0.848632813 1.093017578 -0.848632813 3.064208984q 0 1.965820313 0.859375 3.064208984q 0.859375 1.098388672 2.390136719 1.098388672q 0.504882813 0 0.966796875 -0.142333984q 0.461914063 -0.142333984 0.891601563 -0.432373047v -1.111816406q -0.435058594 0.413574219 -0.891601563 0.609619141q -0.456542969 0.196044922 -0.966796875 0.196044922q -1.058105469 0 -1.587158203 -0.819091797q -0.529052734 -0.819091797 -0.529052734 -2.462646484q 0 -1.670410156 0.512939453 -2.473388672q 0.512939453 -0.802978516 1.576416016 -0.802978516q 0.359863281 0 0.631103516 0.083251953q 0.271240234 0.083251953 0.491455078 0.260498047v 2.153808594h -1.165527344v 0.891601563h 2.202148438v -3.453613281Z "/></symbol><symbol id="g22210169E8F5245EDBE0C4EB2A9AD6BD" overflow="visible"><path d="M 0 0m 5.645019531 3.727539063v -3.727539063h -0.993652344v 3.727539063q 0 0.811035156 -0.284667969 1.192382813q -0.284667969 0.381347656 -0.891601563 0.381347656q -0.692871094 0 -1.066162109 -0.491455078q -0.373291016 -0.491455078 -0.373291016 -1.409912109v -3.399902344h -0.98828125v 8.357421875h 0.98828125v -3.244140625q 0.263183594 0.515625 0.714355469 0.781494141q 0.451171875 0.265869141 1.068847656 0.265869141q 0.918457031 0 1.372314453 -0.604248047q 0.453857422 -0.604248047 0.453857422 -1.828857422Z "/></symbol><symbol id="gBB9A646D67A87CC54D8197FA4DB31E5B" overflow="visible"><path d="M 0 0m 5.226074219 5.806152344v -0.966796875q -0.424316406 0.247070313 -0.854003906 0.370605469q -0.4296875 0.123535156 -0.875488281 0.123535156q -0.671386719 0 -1.001708984 -0.217529297q -0.330322266 -0.217529297 -0.330322266 -0.663330078q 0 -0.402832031 0.247070313 -0.6015625q 0.247070313 -0.198730469 1.229980469 -0.38671875l 0.397460938 -0.075195313q 0.735839844 -0.139648438 1.114501953 -0.55859375q 0.378662109 -0.418945313 0.378662109 -1.090332031q 0 -0.891601563 -0.633789063 -1.393798828q -0.633789063 -0.502197266 -1.76171875 -0.502197266q -0.445800781 0 -0.934570313 0.093994141q -0.488769531 0.093994141 -1.058105469 0.281982422v 1.020507813q 0.553222656 -0.284667969 1.058105469 -0.427001953q 0.504882813 -0.142333984 0.956054688 -0.142333984q 0.655273438 0 1.015136719 0.265869141q 0.359863281 0.265869141 0.359863281 0.743896484q 0 0.6875 -1.315917969 0.950683594l -0.04296875 0.010742188l -0.370605469 0.075195313q -0.854003906 0.166503906 -1.24609375 0.561279297q -0.392089844 0.394775391 -0.392089844 1.076904297q 0 0.864746094 0.585449219 1.334716797q 0.585449219 0.469970703 1.670410156 0.469970703q 0.483398438 0 0.929199219 -0.088623047q 0.445800781 -0.088623047 0.875488281 -0.265869141Z "/></symbol><symbol id="g9760916047877577D052BF842E4D05BD" overflow="visible"><path d="M 0 0m 3.297851563 7.723632813v -1.708007813h 2.245117188v -0.768066406h -2.245117188v -3.265625q 0 -0.666015625 0.252441406 -0.929199219q 0.252441406 -0.263183594 0.880859375 -0.263183594h 1.111816406v -0.789550781h -1.208496094q -1.111816406 0 -1.568359375 0.445800781q -0.456542969 0.445800781 -0.456542969 1.536132813v 3.265625h -1.605957031v 0.768066406h 1.605957031v 1.708007813h 0.98828125Z "/></symbol><symbol id="g976997E6FF52821E2A324136FEF06B0E" overflow="visible"><path d="M 0 0m 1.251464844 8.019042969h 4.721191406v -0.913085938h -3.630859375v -2.36328125h 3.292480469v -0.913085938h -3.292480469v -3.829589844h -1.090332031v 8.019042969Z "/></symbol><symbol id="g8A2D6BC07E98AE390D7977EF9FD34E6E" overflow="visible"><path d="M 0 0m 2.626464844 1.638183594h 1.353515625v -1.638183594h -1.353515625v 1.638183594Z "/></symbol><symbol id="g808D1C1235543B1FFFDAA69954FC0904" overflow="visible"><path d="M 0 0m 4.608398438 5.247558594v 3.109863281h 0.98828125v -8.357421875h -0.98828125v 0.757324219q -0.247070313 -0.445800781 -0.657958984 -0.679443359q -0.410888672 -0.233642578 -0.947998047 -0.233642578q -1.090332031 0 -1.716064453 0.845947266q -0.625732422 0.845947266 -0.625732422 2.333740234q 0 1.466308594 0.628417969 2.301513672q 0.628417969 0.835205078 1.713378906 0.835205078q 0.542480469 0 0.956054688 -0.233642578q 0.413574219 -0.233642578 0.649902344 -0.679443359Z m -2.905761719 -2.245117188q 0 -1.149414063 0.365234375 -1.734863281q 0.365234375 -0.585449219 1.079589844 -0.585449219q 0.714355469 0 1.087646484 0.590820313q 0.373291016 0.590820313 0.373291016 1.729492188q 0 1.144042969 -0.373291016 1.732177734q -0.373291016 0.588134766 -1.087646484 0.588134766q -0.714355469 0 -1.079589844 -0.585449219q -0.365234375 -0.585449219 -0.365234375 -1.734863281Z "/></symbol><symbol id="g6D4DFDD4F715F0478A22BD43EF52FB29" overflow="visible"><path d="M 0 0m 6.004882813 6.015625l -2.153808594 -2.87890625l 2.36328125 -3.13671875h -1.144042969l -1.76171875 2.411621094l -1.756347656 -2.411621094h -1.144042969l 2.36328125 3.13671875l -2.153808594 2.87890625h 1.095703125l 1.595214844 -2.175292969l 1.584472656 2.175292969h 1.111816406Z "/></symbol><symbol id="gF161780E27A0444EF11E7889E4C09D8C" overflow="visible"><path d="M 0 0m 1.450195313 0.913085938h 1.686523438v 6.128417969l -1.815429688 -0.408203125v 0.98828125l 1.8046875 0.397460938h 1.084960938v -7.105957031h 1.665039063v -0.913085938h -4.42578125v 0.913085938Z "/></symbol><symbol id="gB95F74852F9C0DBD44AC85D9025DFC08" overflow="visible"><path d="M 0 0m 1.058105469 8.019042969h 4.758789063v -0.913085938h -3.673828125v -2.374023438h 3.512695313v -0.913085938h -3.512695313v -2.905761719h 3.775878906v -0.913085938h -4.860839844v 8.019042969Z "/></symbol><symbol id="g743CE0ADF55C34EA4D2D3E581972D07E" overflow="visible"><path d="M 0 0m 2.341796875 0.891601563q 1.369628906 0 1.912109375 0.674072266q 0.542480469 0.674072266 0.542480469 2.435791016q 0 1.777832031 -0.539794922 2.451904297q -0.539794922 0.674072266 -1.914794922 0.674072266h -0.515625v -6.235839844h 0.515625Z m 0.021484375 7.127441406q 1.836914063 0 2.70703125 -0.977539063q 0.870117188 -0.977539063 0.870117188 -3.040039063q 0 -2.051757813 -0.870117188 -3.026611328q -0.870117188 -0.974853516 -2.70703125 -0.974853516h -1.627441406v 8.019042969h 1.627441406Z "/></symbol><symbol id="g5B0566EB683A7AF8C1D13910CECB217A" overflow="visible"><path d="M 0 0m 1.111816406 8.019042969h 4.060546875v -0.913085938h -3.072265625v -1.971191406q 0.230957031 0.0859375 0.464599609 0.126220703q 0.233642578 0.040283203 0.469970703 0.040283203q 1.24609375 0 1.9765625 -0.735839844q 0.73046875 -0.735839844 0.73046875 -1.992675781q 0 -1.267578125 -0.765380859 -1.998046875q -0.765380859 -0.73046875 -2.092041016 -0.73046875q -0.639160156 0 -1.168212891 0.0859375q -0.529052734 0.0859375 -0.947998047 0.2578125v 1.101074219q 0.494140625 -0.268554688 0.993652344 -0.400146484q 0.499511719 -0.131591797 1.020507813 -0.131591797q 0.896972656 0 1.383056641 0.47265625q 0.486083984 0.47265625 0.486083984 1.342773438q 0 0.859375 -0.502197266 1.337402344q -0.502197266 0.478027344 -1.399169922 0.478027344q -0.435058594 0 -0.848632813 -0.099365234q -0.413574219 -0.099365234 -0.789550781 -0.298095703v 4.028320313Z "/></symbol><symbol id="g9EF032262EADC7E7D18BAD6EE644609D" overflow="visible"><path d="M 0 0m 2.003417969 0.913085938h 3.684570313v -0.913085938h -4.871582031v 0.913085938q 1.004394531 1.058105469 1.756347656 1.869140625q 0.751953125 0.811035156 1.036621094 1.144042969q 0.537109375 0.655273438 0.725097656 1.060791016q 0.187988281 0.405517578 0.187988281 0.829833984q 0 0.671386719 -0.394775391 1.052734375q -0.394775391 0.381347656 -1.082275391 0.381347656q -0.488769531 0 -1.025878906 -0.177246094q -0.537109375 -0.177246094 -1.138671875 -0.537109375v 1.095703125q 0.553222656 0.263183594 1.087646484 0.397460938q 0.534423828 0.134277344 1.055419922 0.134277344q 1.176269531 0 1.893310547 -0.625732422q 0.717041016 -0.625732422 0.717041016 -1.640869141q 0 -0.515625 -0.239013672 -1.03125q -0.239013672 -0.515625 -0.776123047 -1.138671875q -0.30078125 -0.349121094 -0.872802734 -0.966796875q -0.572021484 -0.617675781 -1.742919922 -1.84765625Z "/></symbol><symbol id="gDD40387126C357E718D83402F9575189" overflow="visible"><path d="M 0 0m 1.783203125 2.980957031q 0 -1.149414063 0.362548828 -1.734863281q 0.362548828 -0.585449219 1.076904297 -0.585449219q 0.714355469 0 1.082275391 0.588134766q 0.367919922 0.588134766 0.367919922 1.732177734q 0 1.144042969 -0.367919922 1.732177734q -0.367919922 0.588134766 -1.082275391 0.588134766q -0.714355469 0 -1.076904297 -0.585449219q -0.362548828 -0.585449219 -0.362548828 -1.734863281Z m 2.889648438 -2.234375q -0.241699219 -0.445800781 -0.652587891 -0.684814453q -0.410888672 -0.239013672 -0.953369141 -0.239013672q -1.079589844 0 -1.705322266 0.835205078q -0.625732422 0.835205078 -0.625732422 2.301513672q 0 1.493164063 0.623046875 2.336425781q 0.623046875 0.843261719 1.708007813 0.843261719q 0.537109375 0 0.947998047 -0.233642578q 0.410888672 -0.233642578 0.657958984 -0.679443359v 0.768066406h 0.993652344v -8.303710938h -0.993652344v 3.056152344Z "/></symbol><symbol id="g1A892A96C342815D1F47F594569B2B9" overflow="visible"><path d="M 0 0m 1.981933594 3.829589844v -2.937988281h 1.283691406q 0.9453125 0 1.348144531 0.330322266q 0.402832031 0.330322266 0.402832031 1.087646484q 0 0.784179688 -0.424316406 1.152099609q -0.424316406 0.367919922 -1.326660156 0.367919922h -1.283691406Z m 0 3.297851563v -2.416992188h 1.262207031q 0.784179688 0 1.135986328 0.30078125q 0.351806641 0.30078125 0.351806641 0.972167969q 0 0.606933594 -0.346435547 0.875488281q -0.346435547 0.268554688 -1.141357422 0.268554688h -1.262207031Z m -1.090332031 0.891601563h 2.374023438q 1.229980469 0 1.895996094 -0.531738281q 0.666015625 -0.531738281 0.666015625 -1.50390625q 0 -0.735839844 -0.351806641 -1.16015625q -0.351806641 -0.424316406 -1.055419922 -0.531738281q 0.789550781 -0.118164063 1.238037109 -0.674072266q 0.448486328 -0.555908203 0.448486328 -1.415283203q 0 -1.090332031 -0.714355469 -1.646240234q -0.714355469 -0.555908203 -2.126953125 -0.555908203h -2.374023438v 8.019042969Z "/></symbol><symbol id="gFD433016E15B38DD718FE7CB9E0A5955" overflow="visible"><path d="M 0 0m 4.08203125 3.786621094q 0.418945313 -0.107421875 0.714355469 -0.405517578q 0.295410156 -0.298095703 0.735839844 -1.189697266l 1.090332031 -2.19140625h -1.165527344l -0.956054688 2.024902344q -0.413574219 0.864746094 -0.743896484 1.114501953q -0.330322266 0.249755859 -0.862060547 0.249755859h -1.036621094v -3.389160156h -1.090332031v 8.019042969h 2.234375q 1.321289063 0 2.024902344 -0.596191406q 0.703613281 -0.596191406 0.703613281 -1.724121094q 0 -0.794921875 -0.432373047 -1.297119141q -0.432373047 -0.502197266 -1.216552734 -0.614990234Z m -2.223632813 3.340820313v -2.846679688h 1.187011719q 0.778808594 0 1.16015625 0.349121094q 0.381347656 0.349121094 0.381347656 1.068847656q 0 0.692871094 -0.405517578 1.060791016q -0.405517578 0.367919922 -1.178955078 0.367919922h -1.144042969Z "/></symbol><symbol id="gDD031D65CFEF931E7F776B85663CB2DF" overflow="visible"><path d="M 0 0m 3.30859375 7.062988281l -1.144042969 -4.103515625h 2.288085938l -1.144042969 4.103515625Z m -0.655273438 0.956054688h 1.315917969l 2.454589844 -8.019042969h -1.122558594l -0.590820313 2.089355469h -2.809082031l -0.580078125 -2.089355469h -1.122558594l 2.454589844 8.019042969Z "/></symbol><symbol id="gE833CDE53E66F61B0C8CB9F5648A5F1D" overflow="visible"><path d="M 0 0m 1.912109375 3.453613281h 2.798339844v -0.880859375h -2.798339844v 0.880859375Z "/></symbol><symbol id="g6D93EEDA56278469B6F4E93E9DFD73CF" overflow="visible"><path d="M 0 0m 1.154785156 8.019042969h 1.090332031v -7.105957031h 3.872558594v -0.913085938h -4.962890625v 8.019042969Z "/></symbol><symbol id="gED9C8EEFD17D2A032C023644A48CB0F2" overflow="visible"><path d="M 0 0m 2.562011719 8.797851563l 1.509277344 -2.01953125h -0.827148438l -1.745605469 2.01953125h 1.063476563Z "/></symbol><symbol id="g24C5EF3E97413E96462F170081C64B0D" overflow="visible"><path d="M 0 0m 0 3.399902344h 6.622558594v -0.757324219h -6.622558594v 0.757324219Z "/></symbol><symbol id="g5A92E01899F34F07E07504597D398CD0" overflow="visible"><path d="M 0 0m 7.293 1.276c 0.055 -0.891 0.011 -0.902 -0.704 -0.935c -0.066 -0.066 -0.066 -0.297 0 -0.363c 0.407 0.011 0.847 0.022 1.177 0.022c 0.33 0 0.836 -0.011 1.199 -0.022c 0.066 0.066 0.066 0.297 0 0.363c -0.748 0.033 -0.781 0.077 -0.847 0.99l -0.33 4.631c -0.044 0.594 0.011 0.748 0.759 0.792c 0.066 0.066 0.066 0.297 0 0.363l -1.441 -0.022l -2.332 -5.577c -0.044 -0.11 -0.077 -0.154 -0.099 -0.154c -0.022 0 -0.055 0.055 -0.088 0.143l -2.255 5.588l -1.595 0.022c -0.066 -0.066 -0.066 -0.297 0 -0.363c 0.759 -0.044 0.825 -0.066 0.748 -0.891l -0.44 -4.532c -0.066 -0.66 -0.198 -0.935 -0.825 -0.99c -0.066 -0.066 -0.066 -0.297 0 -0.363c 0.33 0.011 0.682 0.022 0.946 0.022c 0.264 0 0.704 -0.011 1.034 -0.022c 0.066 0.066 0.066 0.297 0 0.363c -0.726 0.055 -0.781 0.396 -0.726 1.012l 0.418 4.411h 0.022l 2.277 -5.709c 0.033 -0.077 0.099 -0.165 0.165 -0.165c 0.066 0 0.11 0.077 0.154 0.165l 2.475 5.819h 0.022Z "/></symbol><symbol id="g9787446D80B11CDE2529516BF2D1ACCA" overflow="visible"><path d="M 0 0m 3.223 0.528c 0.066 -0.341 0.187 -0.638 0.737 -0.638c 0.418 0 0.814 0.187 1.045 0.407c -0.022 0.132 -0.066 0.231 -0.187 0.297c -0.077 -0.066 -0.264 -0.176 -0.407 -0.176c -0.319 0 -0.33 0.429 -0.33 0.935v 1.617c 0 1.562 -0.858 1.859 -1.661 1.859c -0.902 0 -1.815 -0.594 -1.815 -1.221c 0 -0.264 0.132 -0.396 0.385 -0.396c 0.319 0 0.517 0.231 0.517 0.374c 0 0.077 -0.011 0.154 -0.033 0.198c -0.011 0.033 -0.022 0.099 -0.022 0.22c 0 0.341 0.462 0.462 0.88 0.462c 0.374 0 0.891 -0.187 0.891 -1.43c 0 -0.077 -0.033 -0.121 -0.066 -0.132l -0.946 -0.231c -1.056 -0.264 -1.815 -0.847 -1.815 -1.595c 0 -0.902 0.616 -1.188 1.386 -1.188c 0.385 0 0.715 0.088 1.199 0.462l 0.22 0.176Z m 0 2.035v -1.452c 0 -0.143 -0.066 -0.22 -0.154 -0.286c -0.286 -0.231 -0.66 -0.484 -0.968 -0.484c -0.55 0 -0.792 0.44 -0.792 0.781c 0 0.495 0.231 1.001 1.045 1.21Z "/></symbol><symbol id="gEEC20B8710F33D8A6862F31BD530D033" overflow="visible"><path d="M 0 0m 4.884 4.257c 0.209 0 0.407 0.198 0.407 0.418c 0 0.231 -0.209 0.407 -0.506 0.407c -0.286 0 -0.814 -0.187 -1.1 -0.561c -0.132 0.088 -0.495 0.308 -1.144 0.308c -0.979 0 -1.881 -0.66 -1.881 -1.672c 0 -0.594 0.264 -0.935 0.572 -1.232c -0.308 -0.264 -0.484 -0.737 -0.484 -1.111c 0 -0.396 0.22 -0.704 0.506 -0.847c -0.594 -0.352 -0.902 -0.858 -0.902 -1.331c 0 -0.957 0.902 -1.254 1.749 -1.254c 1.485 0 3.091 0.715 3.091 1.903c 0 0.352 -0.165 0.627 -0.484 0.891c -0.429 0.352 -1.199 0.363 -1.606 0.363c -0.198 0 -0.473 -0.022 -0.737 -0.055c -0.165 -0.011 -0.275 -0.022 -0.33 -0.022c -0.319 0 -0.704 0.154 -0.704 0.627c 0 0.22 0.066 0.451 0.198 0.638c 0.264 -0.154 0.572 -0.231 1.001 -0.231c 0.968 0 1.859 0.605 1.859 1.683c 0 0.517 -0.154 0.814 -0.473 1.144c 0.077 0.11 0.297 0.264 0.44 0.264c 0.077 0 0.154 -0.033 0.22 -0.132c 0.044 -0.088 0.187 -0.198 0.308 -0.198Z m -3.432 -4.367c 0.121 -0.033 0.297 -0.055 0.44 -0.055c 0.341 0 0.649 0.033 0.803 0.033c 0.55 0 1.012 -0.011 1.331 -0.187c 0.429 -0.242 0.561 -0.396 0.561 -0.682c 0 -0.792 -1.166 -1.21 -2.156 -1.21c -0.396 0 -1.32 0.319 -1.32 1.067c 0 0.374 0.022 0.649 0.341 1.034Z m 2.057 3.179c 0 -1.023 -0.517 -1.232 -0.924 -1.232c -0.924 0 -1.023 0.781 -1.023 1.485c 0 0.77 0.275 1.166 0.88 1.166c 0.693 0 1.067 -0.506 1.067 -1.419Z "/></symbol><symbol id="gDD50B131DFBA2C7EA73123CA4C98C33" overflow="visible"><path d="M 0 0m 1.991 1.342v 2.189c 0 0.55 0.044 1.254 0.044 1.254c 0 0.044 -0.055 0.077 -0.143 0.077c -0.308 -0.121 -0.748 -0.22 -1.507 -0.319c -0.022 -0.066 0 -0.242 0.022 -0.308c 0.605 -0.055 0.715 -0.121 0.715 -0.748v -2.145c 0 -0.913 -0.121 -0.946 -0.792 -1.001c -0.066 -0.066 -0.066 -0.297 0 -0.363c 0.363 0.011 0.792 0.022 1.232 0.022c 0.44 0 0.858 -0.011 1.221 -0.022c 0.066 0.066 0.066 0.297 0 0.363c -0.671 0.044 -0.792 0.088 -0.792 1.001Z m -1.001 5.247c 0 -0.286 0.264 -0.572 0.528 -0.572c 0.308 0 0.572 0.297 0.572 0.528c 0 0.264 -0.231 0.572 -0.528 0.572c -0.264 0 -0.572 -0.264 -0.572 -0.528Z "/></symbol><symbol id="g3CE57ED74C3DBA63F54F2735C0855367" overflow="visible"><path d="M 0 0m 4.378 1.001c -0.044 0.099 -0.132 0.143 -0.231 0.154c -0.374 -0.484 -0.847 -0.726 -1.32 -0.726c -0.803 0 -1.474 0.814 -1.474 2.101c 0 1.21 0.528 1.936 1.254 1.936c 0.649 0 0.737 -0.385 0.781 -0.77c 0.033 -0.297 0.187 -0.396 0.418 -0.396c 0.231 0 0.539 0.143 0.539 0.484c 0 0.605 -0.627 1.045 -1.683 1.045c -1.089 0 -2.255 -0.979 -2.255 -2.541c 0 -1.419 0.792 -2.398 2.178 -2.398c 0.66 0 1.243 0.209 1.793 1.111Z "/></symbol><symbol id="g44004E68E94B5A5A0D86AA9F437EC7DB" overflow="visible"><path d="M 0 0m 0.77 0.66c 0 -0.319 0.264 -0.583 0.583 -0.583c 0.319 0 0.583 0.264 0.583 0.583c 0 0.319 -0.264 0.583 -0.583 0.583c -0.319 0 -0.583 -0.264 -0.583 -0.583Z m 0 3.278c 0 -0.319 0.264 -0.583 0.583 -0.583c 0.319 0 0.583 0.264 0.583 0.583c 0 0.319 -0.264 0.583 -0.583 0.583c -0.319 0 -0.583 -0.264 -0.583 -0.583Z "/></symbol><symbol id="g9FF0FAFA5F7DCA465A4F7B863F431F9F" overflow="visible"><path d="M 0 0m 1.254 5.588c 0.341 0 0.583 0.231 0.583 0.539c 0 0.352 -0.286 0.451 -0.484 0.484c -0.209 0.022 -0.396 0.088 -0.396 0.341c 0 0.231 0.396 0.737 0.968 0.88c 0 0.11 -0.022 0.187 -0.099 0.264c -0.66 -0.121 -1.298 -0.649 -1.298 -1.419c 0 -0.66 0.286 -1.089 0.726 -1.089Z m 1.727 0c 0.341 0 0.583 0.231 0.583 0.539c 0 0.352 -0.286 0.451 -0.484 0.484c -0.209 0.022 -0.396 0.088 -0.396 0.341c 0 0.231 0.396 0.737 0.968 0.88c 0 0.11 -0.022 0.187 -0.099 0.264c -0.66 -0.121 -1.298 -0.649 -1.298 -1.419c 0 -0.66 0.286 -1.089 0.726 -1.089Z "/></symbol><symbol id="g3F667FFDD1C97879AF7AE760B32EDBEE" overflow="visible"><path d="M 0 0m 4.147 7.238c -1.837 0 -3.74 -1.441 -3.74 -3.861c 0 -1.98 1.364 -3.487 3.465 -3.487c 1.298 0 2.321 0.275 3.069 0.913c -0.121 0.099 -0.176 0.187 -0.176 0.308v 1.276c 0 0.385 0.187 0.495 0.506 0.528c 0.066 0.066 0.066 0.33 0 0.396c -0.264 -0.011 -0.539 -0.022 -0.979 -0.022c -0.363 0 -0.88 0.011 -1.364 0.022c -0.066 -0.066 -0.066 -0.33 0 -0.396c 0.605 -0.044 0.902 -0.088 0.902 -0.528v -1.683c -0.374 -0.352 -1.111 -0.418 -1.705 -0.418c -1.738 0 -2.662 1.859 -2.662 3.311c 0 1.925 1.254 3.245 2.53 3.245c 1.595 0 2.046 -0.913 2.332 -1.859c 0.121 -0.011 0.242 0.011 0.363 0.066c -0.022 0.462 -0.077 0.902 -0.253 1.694c -0.66 0.11 -1.067 0.495 -2.288 0.495Z "/></symbol><symbol id="g525D29E90AD4E5DCC336104F62B1760B" overflow="visible"><path d="M 0 0m 1.837 3.146c 0 0.231 0.099 0.363 0.187 0.462c 0.418 0.407 0.979 0.649 1.408 0.649c 0.22 0 0.451 -0.143 0.583 -0.396c 0.11 -0.22 0.132 -0.517 0.132 -0.847v -1.672c 0 -0.902 -0.11 -0.946 -0.682 -1.001c -0.055 -0.066 -0.055 -0.297 0 -0.363c 0.308 0.011 0.682 0.022 1.122 0.022c 0.44 0 0.803 -0.011 1.166 -0.022c 0.055 0.066 0.055 0.297 0 0.363c -0.616 0.055 -0.737 0.099 -0.737 1.001v 1.639c 0 0.605 -0.044 1.144 -0.297 1.474c -0.187 0.242 -0.528 0.374 -0.913 0.374c -0.539 0 -1.199 -0.143 -1.87 -0.891c 0 -0.011 -0.011 -0.011 -0.022 -0.022c -0.033 -0.044 -0.088 -0.11 -0.088 0.022l 0.011 2.475c 0 0.715 0.044 1.155 0.044 1.155c 0 0.077 -0.044 0.11 -0.143 0.11c -0.275 -0.11 -1.1 -0.264 -1.54 -0.297c -0.022 -0.088 0 -0.264 0.066 -0.33c 0.033 0 0.066 0 0.099 0c 0.484 -0.033 0.605 -0.033 0.605 -0.902v -4.807c 0 -0.913 -0.132 -0.957 -0.77 -1.001c -0.066 -0.066 -0.066 -0.297 0 -0.363c 0.363 0.011 0.77 0.022 1.21 0.022c 0.418 0 0.781 -0.011 1.089 -0.022c 0.066 0.066 0.066 0.297 0 0.363c -0.561 0.044 -0.66 0.088 -0.66 1.001Z "/></symbol><symbol id="g8E3C9955A16891CC95B0D7826587A8C6" overflow="visible"><path d="M 0 0m 2.508 -0.11c 0.847 0 2.134 0.858 2.134 3.443c 0 1.089 -0.264 2.024 -0.748 2.662c -0.286 0.385 -0.748 0.715 -1.342 0.715c -1.089 0 -2.123 -1.298 -2.123 -3.476c 0 -1.177 0.363 -2.277 0.968 -2.882c 0.308 -0.308 0.682 -0.462 1.111 -0.462Z m 0.044 6.435c 0.187 0 0.363 -0.066 0.495 -0.187c 0.341 -0.286 0.638 -1.122 0.638 -2.596c 0 -1.012 -0.033 -1.705 -0.187 -2.266c -0.242 -0.902 -0.781 -1.001 -0.979 -1.001c -1.023 0 -1.133 1.881 -1.133 2.838c 0 2.706 0.671 3.212 1.166 3.212Z "/></symbol><symbol id="g4E5D026409004C23B788CF76C0C2AF69" overflow="visible"><path d="M 0 0m 0.528 1.518c 0.044 -0.539 0.077 -1.056 0.077 -1.518c 0.11 0.022 0.22 0.033 0.275 0.033c 0.077 0 0.143 0 0.22 -0.022c 0.297 -0.077 0.594 -0.121 1.001 -0.121c 0.616 0 1.749 0.297 1.749 1.386c 0 0.748 -0.539 1.188 -1.287 1.463c -0.66 0.253 -1.1 0.418 -1.1 1.023c 0 0.451 0.396 0.704 0.77 0.704c 0.242 0 0.88 -0.088 1.023 -1.023c 0.066 -0.066 0.286 -0.055 0.352 0.011c 0.033 0.396 0.055 0.803 0.066 1.166c -0.341 0.055 -0.869 0.209 -1.441 0.209c -0.814 0 -1.551 -0.528 -1.551 -1.232c 0 -0.803 0.363 -1.144 1.21 -1.496c 0.913 -0.374 1.122 -0.605 1.122 -1.078c 0 -0.539 -0.528 -0.77 -0.935 -0.77c -0.429 0 -0.671 0.143 -0.781 0.264c -0.242 0.253 -0.363 0.737 -0.429 1.012c -0.066 0.066 -0.275 0.055 -0.341 -0.011Z "/></symbol><symbol id="gB38329E71763B8BD4CF776D24C5AFFE1" overflow="visible"><path d="M 0 0m 0.473 4.719c -0.154 0 -0.198 -0.132 -0.198 -0.22v -0.143c 0 -0.055 0.011 -0.066 0.055 -0.066h 0.649v -3.311c 0 -0.781 0.341 -1.089 0.847 -1.089c 0.506 0 1.056 0.242 1.485 0.726c -0.022 0.11 -0.088 0.176 -0.198 0.187c -0.286 -0.22 -0.616 -0.308 -0.902 -0.308c -0.297 0 -0.363 0.33 -0.363 1.012v 2.783h 1.144c 0.11 0 0.264 0.044 0.264 0.143v 0.22c 0 0.044 -0.033 0.066 -0.088 0.066h -1.32v 0.429c 0 0.715 0.044 1.155 0.044 1.155c 0 0.066 -0.033 0.099 -0.088 0.099c -0.044 0 -0.143 -0.044 -0.242 -0.099c -0.121 -0.066 -0.231 -0.121 -0.374 -0.154c -0.132 -0.044 -0.242 -0.077 -0.242 -0.154c 0 -0.132 0.033 -0.055 0.033 -1.276Z "/></symbol><symbol id="g2C1E63F791E5567545B2BBD158EF010A" overflow="visible"><path d="M 0 0m 1.155 7.678c -0.341 0 -0.583 -0.231 -0.583 -0.539c 0 -0.341 0.286 -0.451 0.484 -0.484c 0.209 -0.022 0.396 -0.088 0.396 -0.341c 0 -0.231 -0.396 -0.737 -0.968 -0.88c 0 -0.11 0.022 -0.187 0.099 -0.264c 0.66 0.121 1.298 0.649 1.298 1.419c 0 0.66 -0.286 1.089 -0.726 1.089Z m 1.727 0c -0.341 0 -0.583 -0.231 -0.583 -0.539c 0 -0.341 0.286 -0.451 0.484 -0.484c 0.209 -0.022 0.396 -0.088 0.396 -0.341c 0 -0.231 -0.396 -0.737 -0.968 -0.88c 0 -0.11 0.022 -0.187 0.099 -0.264c 0.66 0.121 1.298 0.649 1.298 1.419c 0 0.66 -0.286 1.089 -0.726 1.089Z "/></symbol><symbol id="g6553513FE64203BDE37F7BF6C55D1886" overflow="visible"><path d="M 0 0m 3.85 1.342v 4.202c 0 0.704 0.11 1.122 0.506 1.122h 0.242c 0.825 0 1.342 -0.286 1.529 -1.133c 0.121 0 0.275 0.011 0.374 0.055c -0.077 0.506 -0.132 1.067 -0.143 1.562c 0 0.011 -0.022 0.033 -0.033 0.033c -0.374 -0.033 -1.595 -0.088 -2.464 -0.088h -0.946c -0.847 0 -2.145 0.055 -2.563 0.088c -0.022 0 -0.044 -0.022 -0.044 -0.033c -0.044 -0.495 -0.154 -1.067 -0.275 -1.595c 0.11 -0.044 0.242 -0.055 0.374 -0.055c 0.22 0.88 0.726 1.166 1.452 1.166h 0.539c 0.407 0 0.517 -0.418 0.517 -1.089v -4.235c 0 -0.913 -0.187 -0.968 -1.067 -1.001c -0.066 -0.066 -0.066 -0.297 0 -0.363c 0.539 0.011 1.1 0.022 1.54 0.022c 0.418 0 0.979 -0.011 1.529 -0.022c 0.066 0.066 0.066 0.297 0 0.363c -0.88 0.033 -1.067 0.088 -1.067 1.001Z "/></symbol><symbol id="g5E76F8DBE7C3C7A9A461E8EC1D70F6FB" overflow="visible"><path d="M 0 0m 0.451 2.255c 0 -1.122 0.748 -2.365 2.31 -2.365c 0.704 0 1.243 0.253 1.617 0.616c 0.495 0.484 0.715 1.177 0.715 1.848c 0 1.144 -0.627 2.475 -2.31 2.475c -0.726 0 -1.32 -0.297 -1.727 -0.77c -0.396 -0.473 -0.605 -1.111 -0.605 -1.804Z m 2.167 2.189c 0.946 0 1.529 -0.858 1.529 -2.442c 0 -1.386 -0.715 -1.727 -1.232 -1.727c -1.144 0 -1.518 1.386 -1.518 2.233c 0 0.957 0.231 1.936 1.221 1.936Z "/></symbol><symbol id="g36F90904A4043C6A677E73471A30013F" overflow="visible"><path d="M 0 0m 1.045 1.342c 0 -0.913 -0.121 -0.968 -0.792 -1.001c -0.066 -0.066 -0.066 -0.297 0 -0.363c 0.385 0.011 0.792 0.022 1.232 0.022c 0.44 0 0.858 -0.011 1.221 -0.022c 0.066 0.066 0.066 0.297 0 0.363c -0.671 0.033 -0.792 0.088 -0.792 1.001v 5.071c 0 0.715 0.044 1.155 0.044 1.155c 0 0.077 -0.044 0.11 -0.143 0.11c -0.275 -0.11 -1.1 -0.264 -1.54 -0.297c -0.022 -0.088 0 -0.264 0.066 -0.33c 0.638 -0.044 0.704 -0.077 0.704 -0.902Z "/></symbol><symbol id="g655E0F63922F0B22A8EACB89CAA205FD" overflow="visible"><path d="M 0 0m 0.781 4.829c -0.022 0 -0.066 -0.044 -0.066 -0.066c -0.011 -0.495 -0.066 -0.88 -0.165 -1.419c 0.099 -0.044 0.231 -0.066 0.363 -0.033c 0.22 0.803 0.561 0.99 0.891 1.001l 1.408 0.033c -0.748 -1.254 -1.848 -2.838 -2.706 -3.993c -0.099 -0.132 -0.099 -0.165 -0.099 -0.22c 0 -0.077 0.088 -0.132 0.253 -0.132l 3.432 -0.033c 0.132 0.374 0.275 0.946 0.352 1.496c -0.066 0.044 -0.198 0.066 -0.33 0.066l -0.154 -0.319c -0.275 -0.583 -0.506 -0.825 -1.078 -0.836h -1.463c 0.814 1.034 1.958 2.761 2.64 3.883c 0.165 0.275 0.198 0.363 0.198 0.407c 0 0.044 -0.055 0.077 -0.132 0.077c -0.055 0 -0.363 -0.022 -0.682 -0.022h -2.013c -0.352 0 -0.484 0.055 -0.649 0.11Z "/></symbol><symbol id="gBFE09989B12480F1B7796D69E0D7287C" overflow="visible"><path d="M 0 0m 4.246 1.023c -0.407 -0.418 -0.726 -0.594 -1.364 -0.594c -0.396 0 -0.858 0.231 -1.199 0.792c -0.22 0.363 -0.352 0.869 -0.352 1.507l 2.926 -0.022c 0.132 0 0.209 0.066 0.209 0.187c 0 0.924 -0.33 1.914 -1.859 1.914c -0.957 0 -2.2 -0.913 -2.2 -2.585c 0 -0.616 0.154 -1.21 0.517 -1.628c 0.374 -0.44 0.891 -0.704 1.683 -0.704c 0.836 0 1.43 0.385 1.87 0.957c -0.033 0.11 -0.099 0.165 -0.231 0.176Z m -2.882 2.079c 0.209 1.243 0.979 1.342 1.243 1.342c 0.418 0 0.913 -0.231 0.913 -1.155c 0 -0.099 -0.044 -0.154 -0.165 -0.154Z "/></symbol><symbol id="gA583550D4A9AF5E4B050D091A0D6D555" overflow="visible"><path d="M 0 0m 0.484 2.772c 0 -0.495 0.044 -3.036 2.332 -5.016c 0.11 0.022 0.198 0.099 0.231 0.187c -0.363 0.418 -1.65 1.936 -1.65 4.829c 0 2.893 1.298 4.411 1.65 4.807c -0.033 0.11 -0.11 0.187 -0.231 0.198c -1.309 -1.122 -2.332 -2.959 -2.332 -5.005Z "/></symbol><symbol id="gDAEF01F2D8957876B63D52895EE853E4" overflow="visible"><path d="M 0 0m 1.639 0h 2.343c 0.297 0 1.309 -0.022 1.309 -0.022c 0.11 0.55 0.22 1.265 0.286 1.837c -0.11 0.055 -0.231 0.077 -0.363 0.055c -0.22 -0.792 -0.627 -1.441 -1.793 -1.441h -0.693c -0.429 0 -0.627 0.209 -0.627 0.77v 4.554c 0 0.913 0.187 0.968 0.957 1.001c 0.066 0.066 0.066 0.297 0 0.363c -0.495 -0.011 -1.012 -0.022 -1.43 -0.022c -0.396 0 -0.913 0.011 -1.419 0.022c -0.066 -0.066 -0.066 -0.297 0 -0.363c 0.77 -0.033 0.957 -0.088 0.957 -1.001v -4.411c 0 -0.913 -0.187 -0.968 -0.957 -1.001c -0.066 -0.066 -0.066 -0.297 0 -0.363c 0.429 0.011 1.056 0.022 1.43 0.022Z "/></symbol><symbol id="g14CB754CE297B694D18D364D9C1BAD84" overflow="visible"><path d="M 0 0m 3.091 3.971h -1.001v 1.98c 0 0.484 0.132 0.704 0.726 0.704h 0.825c 0.825 0 1.001 -0.44 1.243 -1.199c 0.132 -0.022 0.253 0 0.363 0.055c -0.055 0.451 -0.22 1.507 -0.242 1.595c 0 0.022 -0.011 0.033 -0.044 0.033c -0.187 -0.033 -0.275 -0.044 -0.539 -0.044h -2.805c -0.33 0 -0.979 0.011 -1.419 0.022c -0.066 -0.066 -0.066 -0.297 0 -0.363c 0.77 -0.033 0.957 -0.088 0.957 -1.001v -4.411c 0 -0.913 -0.187 -0.968 -0.957 -1.001c -0.066 -0.066 -0.066 -0.297 0 -0.363c 0.407 0.011 1.067 0.022 1.43 0.022h 2.365c 0.528 0 1.408 -0.022 1.408 -0.022c 0.154 0.55 0.319 1.276 0.407 1.837c -0.11 0.066 -0.242 0.088 -0.385 0.055c -0.22 -0.792 -0.605 -1.441 -1.441 -1.441h -1.276c -0.462 0 -0.616 0.176 -0.616 0.693v 2.431h 1.001c 0.935 0 0.968 -0.253 1.001 -0.748c 0.066 -0.066 0.297 -0.066 0.363 0c -0.011 0.286 -0.022 0.594 -0.022 0.968c 0 0.308 0.011 0.682 0.022 0.946c -0.066 0.066 -0.297 0.066 -0.363 0c -0.033 -0.605 -0.066 -0.748 -1.001 -0.748Z "/></symbol><symbol id="gEC09E6B8EA933E4C3BF631014D088804" overflow="visible"><path d="M 0 0m 2.794 2.772c 0 0.495 -0.044 3.036 -2.332 5.016c -0.11 -0.022 -0.198 -0.099 -0.231 -0.187c 0.363 -0.418 1.65 -1.936 1.65 -4.829c 0 -2.893 -1.298 -4.411 -1.65 -4.807c 0.033 -0.11 0.11 -0.187 0.231 -0.198c 1.309 1.122 2.332 2.959 2.332 5.005Z "/></symbol><symbol id="g31F7C94EB04815C2108183C45B49E8BA" overflow="visible"><path d="M 0 0m 1.892 5.753c 0 0.913 0.165 0.968 1.012 1.001c 0.066 0.066 0.066 0.297 0 0.363c -0.517 -0.011 -1.056 -0.022 -1.485 -0.022c -0.429 0 -0.88 0.011 -1.309 0.022c -0.066 -0.066 -0.066 -0.297 0 -0.363c 0.66 -0.033 0.847 -0.088 0.847 -1.001v -3.19c 0 -2.244 1.452 -2.673 2.574 -2.673c 2.255 0 2.794 1.397 2.794 3.355v 2.508c 0 0.88 0.187 0.924 0.847 1.001c 0.066 0.066 0.066 0.297 0 0.363c -0.418 -0.011 -0.869 -0.022 -1.122 -0.022c -0.231 0 -0.77 0.011 -1.276 0.022c -0.066 -0.066 -0.066 -0.297 0 -0.363c 0.825 -0.077 1.012 -0.11 1.012 -1.001v -2.706c 0 -1.232 -0.165 -2.706 -2.024 -2.706c -0.528 0 -0.979 0.198 -1.309 0.517c -0.539 0.517 -0.561 1.353 -0.561 2.068Z "/></symbol><symbol id="gEB245AFE22C398BE296AC5F7AF6ADF12" overflow="visible"><path d="M 0 0m 2.024 3.938c -0.066 -0.077 -0.132 -0.099 -0.132 0c -0.011 0.297 -0.033 0.726 -0.088 0.836c -0.022 0.055 -0.044 0.088 -0.132 0.088c -0.308 -0.121 -0.594 -0.22 -1.353 -0.319c -0.022 -0.066 0 -0.242 0.022 -0.308c 0.594 -0.055 0.715 -0.11 0.715 -0.748v -2.145c 0 -0.902 -0.11 -0.946 -0.77 -1.001c -0.066 -0.066 -0.066 -0.297 0 -0.363c 0.33 0.011 0.77 0.022 1.21 0.022c 0.44 0 0.77 -0.011 1.1 -0.022c 0.066 0.066 0.066 0.297 0 0.363c -0.561 0.055 -0.671 0.099 -0.671 1.001v 1.804c 0 0.231 0.099 0.363 0.187 0.462c 0.418 0.407 0.913 0.649 1.342 0.649c 0.22 0 0.451 -0.143 0.583 -0.396c 0.11 -0.22 0.132 -0.517 0.132 -0.847v -1.672c 0 -0.902 -0.11 -0.946 -0.682 -1.001c -0.055 -0.066 -0.055 -0.297 0 -0.363c 0.33 0.011 0.682 0.022 1.122 0.022c 0.44 0 0.836 -0.011 1.166 -0.022c 0.055 0.066 0.055 0.297 0 0.363c -0.616 0.055 -0.737 0.099 -0.737 1.001v 1.639c 0 0.605 -0.044 1.133 -0.297 1.474c -0.187 0.242 -0.528 0.374 -0.913 0.374c -0.539 0 -1.155 -0.143 -1.804 -0.891Z "/></symbol><symbol id="gF9510C9866DCA99AFC3FC8A8DB318BDC" overflow="visible"><path d="M 0 0m 1.87 3.938c -0.011 0.33 -0.033 0.726 -0.088 0.836c -0.022 0.055 -0.044 0.088 -0.132 0.088c -0.308 -0.121 -0.594 -0.22 -1.353 -0.319c -0.022 -0.066 0 -0.242 0.022 -0.308c 0.594 -0.055 0.715 -0.11 0.715 -0.748v -2.145c 0 -0.902 -0.143 -0.957 -0.748 -1.001c -0.066 -0.066 -0.066 -0.297 0 -0.363c 0.33 0.011 0.748 0.022 1.188 0.022c 0.44 0 0.781 -0.011 1.111 -0.022c 0.066 0.066 0.066 0.297 0 0.363c -0.561 0.055 -0.682 0.099 -0.682 1.001v 1.804c 0 0.231 0.099 0.363 0.187 0.462c 0.44 0.429 0.847 0.649 1.188 0.649c 0.418 0 0.726 -0.264 0.726 -1.001v -1.914c 0 -0.902 -0.088 -0.957 -0.682 -1.001c -0.055 -0.066 -0.055 -0.297 0 -0.363c 0.275 0.011 0.682 0.022 1.122 0.022c 0.44 0 0.803 -0.011 1.078 -0.022c 0.055 0.066 0.055 0.297 0 0.363c -0.55 0.044 -0.649 0.099 -0.649 1.001v 1.749c 0 0.154 0 0.308 -0.011 0.44c 0.528 0.583 1.023 0.726 1.452 0.726c 0.418 0 0.66 -0.242 0.66 -0.979v -1.936c 0 -0.902 -0.11 -0.957 -0.682 -1.001c -0.055 -0.066 -0.055 -0.297 0 -0.363c 0.275 0.011 0.682 0.022 1.122 0.022c 0.44 0 0.825 -0.011 1.133 -0.022c 0.055 0.066 0.055 0.297 0 0.363c -0.605 0.044 -0.704 0.099 -0.704 1.001v 1.738c 0 0.979 -0.165 1.749 -1.133 1.749c -0.561 0 -1.243 -0.209 -1.815 -0.814c -0.033 -0.033 -0.099 -0.088 -0.121 0.011c -0.099 0.451 -0.528 0.803 -1.1 0.803c -0.638 0 -1.21 -0.374 -1.672 -0.891c -0.055 -0.055 -0.121 -0.132 -0.132 0Z "/></symbol><symbol id="gF9560AC257AD9BBCF737B0F29E336B2F" overflow="visible"><path d="M 0 0m 1.716 4.048c -0.011 0.33 -0.033 0.616 -0.088 0.726c -0.022 0.055 -0.044 0.088 -0.132 0.088c -0.308 -0.121 -0.594 -0.22 -1.353 -0.319c -0.022 -0.066 0 -0.242 0.022 -0.308c 0.594 -0.055 0.715 -0.11 0.715 -0.748v -4.697c 0 -0.913 -0.121 -0.968 -0.792 -1.001c -0.066 -0.066 -0.066 -0.297 0 -0.363c 0.385 0.011 0.792 0.022 1.232 0.022c 0.44 0 0.968 -0.011 1.331 -0.022c 0.066 0.066 0.066 0.297 0 0.363c -0.781 0.044 -0.902 0.088 -0.902 1.001v 1.188c 0 0.143 0.044 0.132 0.154 0.088c 0.275 -0.11 0.605 -0.176 0.957 -0.176c 0.616 0 1.166 0.187 1.617 0.616c 0.517 0.506 0.814 1.188 0.814 2.079c 0 1.166 -0.825 2.244 -1.947 2.244c -0.506 0 -1.067 -0.33 -1.507 -0.825c -0.066 -0.066 -0.11 -0.066 -0.121 0.044Z m 0.209 -0.407c 0.286 0.352 0.792 0.682 1.111 0.682c 0.704 0 1.309 -0.792 1.309 -2.035c 0 -0.902 -0.319 -2.024 -1.551 -2.024c -0.198 0 -0.583 0.055 -0.781 0.231c -0.22 0.198 -0.264 0.264 -0.264 0.66v 2.002c 0 0.231 0.044 0.33 0.176 0.484Z "/></symbol><symbol id="gD91D82170ED5F219BEA1B53E81DC19AF" overflow="visible"><path d="M 0 0m 1.936 3.938c -0.022 0.44 -0.033 0.726 -0.088 0.836c -0.022 0.055 -0.044 0.088 -0.132 0.088c -0.308 -0.121 -0.594 -0.22 -1.353 -0.319c -0.022 -0.066 0 -0.242 0.022 -0.308c 0.594 -0.055 0.715 -0.11 0.715 -0.748v -2.145c 0 -0.913 -0.132 -0.957 -0.814 -1.001c -0.066 -0.066 -0.066 -0.297 0 -0.363c 0.385 0.011 0.814 0.022 1.254 0.022c 0.44 0 0.946 -0.011 1.331 -0.022c 0.066 0.066 0.066 0.297 0 0.363c -0.77 0.055 -0.902 0.088 -0.902 1.001v 1.529c 0 0.286 0.132 0.539 0.264 0.737c 0.121 0.176 0.374 0.539 0.506 0.539c 0.099 0 0.198 -0.022 0.286 -0.143c 0.077 -0.11 0.209 -0.253 0.396 -0.253c 0.264 0 0.517 0.275 0.517 0.55c 0 0.209 -0.198 0.528 -0.66 0.528c -0.517 0 -0.968 -0.484 -1.221 -0.913c -0.066 -0.121 -0.121 -0.033 -0.121 0.022Z "/></symbol><symbol id="g7FF42B92D9D80783DC2C1CC317042C56" overflow="visible"><path d="M 0 0m 3.674 0.55c 0.055 0.044 0.154 0.066 0.165 -0.011c 0.033 -0.264 0.121 -0.649 0.121 -0.649c 0.088 -0.033 0.143 -0.022 0.209 0c 0.242 0.198 0.627 0.363 1.298 0.44c 0.066 0.066 0.066 0.231 0 0.297c -0.704 0.055 -0.803 0.264 -0.803 0.803v 4.983c 0 0.715 0.044 1.155 0.044 1.155c 0 0.077 -0.044 0.11 -0.143 0.11c -0.275 -0.11 -1.1 -0.264 -1.54 -0.297c -0.022 -0.088 0 -0.264 0.066 -0.33c 0.033 0 0.066 0 0.099 0c 0.484 -0.033 0.605 -0.033 0.605 -0.902v -1.408c 0 -0.077 -0.022 -0.099 -0.099 -0.099c -0.044 0 -0.495 0.187 -0.858 0.187c -0.726 0 -1.21 -0.242 -1.65 -0.66c -0.473 -0.473 -0.759 -1.122 -0.759 -1.936c 0 -1.353 0.682 -2.343 1.87 -2.343c 0.429 0 0.836 0.22 1.375 0.66Z m 0.121 0.814c 0 -0.209 -0.022 -0.297 -0.176 -0.429c -0.407 -0.352 -0.759 -0.528 -1.034 -0.528c -0.594 0 -1.21 0.649 -1.21 2.024c 0 0.792 0.154 1.232 0.319 1.463c 0.341 0.517 0.803 0.55 1.023 0.55c 0.396 0 0.671 -0.143 0.891 -0.396c 0.154 -0.176 0.187 -0.253 0.187 -0.594Z "/></symbol><symbol id="g2E78C0ACEE1FBDF39EC1D5F9B4AD747D" overflow="visible"><path d="M 0 0m 1.837 4.334c -0.066 -0.066 -0.11 -0.044 -0.11 0.055v 2.024c 0 0.715 0.044 1.155 0.044 1.155c 0 0.077 -0.044 0.11 -0.143 0.11c -0.275 -0.11 -1.1 -0.264 -1.54 -0.297c -0.022 -0.088 0 -0.264 0.066 -0.33c 0.033 0 0.066 0 0.099 0c 0.484 -0.033 0.605 -0.033 0.605 -0.902v -5.368c 0 -0.429 -0.011 -0.627 -0.044 -0.781c 0.055 -0.088 0.11 -0.132 0.242 -0.132c 0.066 0.066 0.176 0.165 0.264 0.264c 0.11 0.132 0.176 0.132 0.297 0.033c 0.253 -0.209 0.583 -0.275 0.968 -0.275c 1.122 0 2.431 1.023 2.431 2.772c 0 1.342 -0.99 2.167 -1.947 2.167c -0.473 0 -0.891 -0.187 -1.232 -0.495Z m 0.077 -0.341c 0.286 0.253 0.616 0.352 0.935 0.352c 0.671 0 1.221 -0.814 1.221 -1.881c 0 -1.254 -0.506 -2.2 -1.551 -2.2c -0.341 0 -0.572 0.242 -0.792 0.517v 2.75c 0 0.231 0.044 0.341 0.187 0.462Z "/></symbol><symbol id="gB7E01F34AB4FF1C26BADF7D662D6A5FF" overflow="visible"><path d="M 0 0m 2.244 -1.76c 0.176 0.308 0.319 0.616 0.451 0.946c 0.88 2.123 1.375 3.256 1.947 4.488c 0.22 0.462 0.374 0.638 0.891 0.704c 0.066 0.066 0.066 0.297 0 0.363c -0.22 -0.011 -0.473 -0.022 -0.781 -0.022c -0.33 0 -0.671 0.011 -1.001 0.022c -0.066 -0.066 -0.066 -0.297 0 -0.363c 0.352 -0.033 0.704 -0.099 0.528 -0.495l -1.089 -2.519c -0.077 -0.176 -0.176 -0.209 -0.264 0.011l -0.979 2.288c -0.198 0.462 -0.253 0.671 0.363 0.715c 0.066 0.066 0.066 0.297 0 0.363c -0.407 -0.011 -0.847 -0.022 -1.243 -0.022c -0.374 0 -0.671 0.011 -0.891 0.022c -0.066 -0.066 -0.066 -0.297 0 -0.363c 0.44 -0.055 0.583 -0.154 0.869 -0.825l 1.243 -2.893c 0.099 -0.22 0.264 -0.726 0.154 -1.034c -0.132 -0.363 -0.264 -0.671 -0.429 -1.012c -0.121 -0.22 -0.275 -0.319 -0.55 -0.319c -0.154 0 -0.198 0.033 -0.319 0.033c -0.319 0 -0.484 -0.33 -0.484 -0.473c 0 -0.231 0.22 -0.407 0.517 -0.407c 0.231 0 0.671 0.088 1.067 0.792Z "/></symbol><symbol id="g4FC526A993AC97C2A7055B69F4E908C9" overflow="visible"><path d="M 0 0m 2.002 3.938c -0.253 0.374 -0.176 0.385 0.319 0.44c 0.066 0.066 0.066 0.297 0 0.363c -0.297 -0.011 -0.781 -0.022 -1.111 -0.022c -0.33 0 -0.66 0.011 -0.946 0.022c -0.066 -0.066 -0.066 -0.297 0 -0.363c 0.374 -0.033 0.682 -0.22 0.99 -0.671l 0.957 -1.397c 0.055 -0.077 0.055 -0.11 0.011 -0.165l -0.924 -1.188c -0.44 -0.561 -0.682 -0.594 -1.067 -0.616c -0.066 -0.066 -0.066 -0.297 0 -0.363c 0.22 0.011 0.462 0.022 0.792 0.022c 0.33 0 0.638 -0.011 0.924 -0.022c 0.066 0.066 0.066 0.297 0 0.363c -0.396 0.044 -0.484 0.088 -0.242 0.44l 0.693 1.001c 0.088 0.132 0.132 0.121 0.198 0.022l 0.638 -0.88c 0.385 -0.528 0.209 -0.55 -0.143 -0.583c -0.066 -0.066 -0.066 -0.297 0 -0.363c 0.33 0.011 0.693 0.022 1.089 0.022c 0.418 0 0.715 -0.011 0.979 -0.022c 0.066 0.066 0.066 0.297 0 0.363c -0.495 0.033 -0.66 0.066 -1.1 0.693l -0.99 1.397c -0.044 0.066 -0.055 0.099 0 0.165l 0.924 1.177c 0.407 0.517 0.671 0.572 1.067 0.605c 0.066 0.066 0.066 0.297 0 0.363c -0.22 -0.011 -0.473 -0.022 -0.803 -0.022c -0.33 0 -0.638 0.011 -0.924 0.022c -0.066 -0.066 -0.066 -0.297 0 -0.363c 0.407 -0.044 0.528 -0.077 0.264 -0.451l -0.715 -1.001c -0.077 -0.11 -0.121 -0.099 -0.209 0.022Z "/></symbol><symbol id="gA178006150E0068874D333D04DEC7ECA" overflow="visible"><path d="M 0 0m 1.87 5.885h 1.969c -0.858 -2.134 -1.727 -4.279 -2.475 -5.951l 0.088 -0.077l 0.748 0.033c 0.627 1.87 1.232 3.696 2.464 6.699l -0.176 0.132c -0.187 -0.055 -0.429 -0.121 -0.847 -0.121h -2.266c -0.374 0 -0.352 0.11 -0.55 0.154c -0.033 0 -0.044 0 -0.044 -0.033c -0.011 -0.528 -0.132 -1.188 -0.22 -1.76c 0.121 -0.033 0.231 -0.044 0.352 -0.033c 0.242 0.88 0.605 0.957 0.957 0.957Z "/></symbol><symbol id="g21F992EDFDCF3117BFC401CE348E97A9" overflow="visible"><path d="M 0 0m 4.323 5.335c 0 0.792 -0.616 1.375 -1.694 1.375c -1.122 0 -1.848 -0.671 -1.848 -1.518c 0 -0.616 0.297 -1.067 0.968 -1.485l 0.286 -0.176c -0.319 -0.165 -0.616 -0.363 -0.891 -0.605c -0.451 -0.396 -0.638 -0.891 -0.638 -1.32c 0 -1.122 0.792 -1.716 1.958 -1.716c 1.441 0 2.145 1.056 2.145 1.892c 0 0.638 -0.275 1.199 -0.858 1.551l -0.781 0.473c 0.517 0.253 1.353 0.825 1.353 1.529Z m -1.837 -5.06c -0.495 0 -1.243 0.341 -1.243 1.331c 0 0.33 0.143 1.1 1.089 1.727l 0.517 -0.308c 0.682 -0.418 0.957 -0.935 0.957 -1.463c 0 -1.1 -0.825 -1.287 -1.32 -1.287Z m 0.088 6.05c 0.715 0 0.979 -0.473 0.979 -0.979c 0 -0.594 -0.583 -1.089 -0.88 -1.309l -0.341 0.209c -0.693 0.451 -0.77 0.814 -0.77 1.155c 0 0.506 0.352 0.924 1.012 0.924Z "/></symbol><symbol id="g782435CA22B9C6782DE731C6871EEFAD" overflow="visible"><path d="M 0 0m 3.597 2.816c -0.297 -1.001 -1.001 -2.112 -2.464 -2.662c 0 -0.132 0.044 -0.231 0.132 -0.286c 1.111 0.33 1.793 0.792 2.409 1.507c 0.682 0.792 1.023 1.793 1.023 2.662c 0 2.233 -1.265 2.673 -2.112 2.673c -1.441 0 -2.035 -1.397 -2.035 -2.343c 0 -0.946 0.506 -1.793 2.002 -1.793c 0.286 0 0.715 0.088 1.045 0.242Z m 0.099 0.396c -0.363 -0.242 -0.726 -0.253 -0.913 -0.253c -1.078 0 -1.32 1.056 -1.32 1.606c 0 1.21 0.462 1.76 1.001 1.76c 0.693 0 1.32 -0.374 1.32 -2.255c 0 -0.242 -0.022 -0.539 -0.088 -0.858Z "/></symbol><symbol id="g56988988A1B18AD1D268C4FF00F68428" overflow="visible"><path d="M 0 0m 3.927 -0.11c 1.067 0 2.046 0.506 2.794 1.485c -0.055 0.099 -0.132 0.165 -0.253 0.165c -0.781 -0.858 -1.529 -1.199 -2.552 -1.199c -1.485 0 -2.508 1.672 -2.508 3.278c 0 0.946 0.253 1.738 0.649 2.233c 0.55 0.671 1.188 0.979 1.76 0.979c 1.518 0 2.123 -0.902 2.409 -1.848c 0.132 -0.044 0.242 -0.011 0.363 0.055c -0.055 0.572 -0.132 1.1 -0.242 1.705c -0.561 0.055 -1.056 0.495 -2.409 0.495c -0.935 0 -1.716 -0.341 -2.365 -0.935c -0.726 -0.671 -1.166 -1.749 -1.166 -2.893c 0 -1.914 1.155 -3.52 3.52 -3.52Z "/></symbol></defs></svg>