<svg viewBox="0 0 538.283468412 139.573669291" width="538.283468412pt" height="139.573669291pt" xmlns="http://www.w3.org/2000/svg" xmlns:xlink="http://www.w3.org/1999/xlink" xmlns:h5="http://www.w3.org/1999/xhtml"><path fill="#ffffff" fill-rule="nonzero" d="M 0 0v 139.573669291h 538.283468412v -139.573669291Z "/><g transform="translate(14.173228346 14.173228346)"><path fill="#f1ca73" fill-rule="nonzero" transform="translate(66.225585938)" d="M 0 0v 14.173228346h 33.112792969v -14.173228346h -33.112792969Z "/><path fill="#f1ca73" fill-rule="nonzero" transform="translate(397.353515625)" d="M 0 0v 14.173228346h 13.245117187v -14.173228346h -13.245117187Z "/><path fill="#a2d6f3" fill-rule="nonzero" transform="translate(105.9609375)" d="M 0 0v 14.173228346h 33.112792969v -14.173228346h -33.112792969Z "/><path fill="#a2d6f3" fill-rule="nonzero" transform="translate(410.598632813)" d="M 0 0v 14.173228346h 13.245117187v -14.173228346h -13.245117187Z "/><path fill="#73cab2" fill-rule="nonzero" transform="translate(145.696289063)" d="M 0 0v 14.173228346h 33.112792969v -14.173228346h -33.112792969Z "/><path fill="#73cab2" fill-rule="nonzero" transform="translate(423.84375)" d="M 0 0v 14.173228346h 13.245117187v -14.173228346h -13.245117187Z "/><path fill="#f7f097" fill-rule="nonzero" transform="translate(185.431640625)" d="M 0 0v 14.173228346h 33.112792969v -14.173228346h -33.112792969Z "/><path fill="#f7f097" fill-rule="nonzero" transform="translate(437.088867188)" d="M 0 0v 14.173228346h 13.245117188v -14.173228346h -13.245117188Z "/><path fill="#73b1d5" fill-rule="nonzero" transform="translate(231.789550781)" d="M 0 0v 14.173228346h 33.112792969v -14.173228346h -33.112792969Z "/><path fill="#73b1d5" fill-rule="nonzero" transform="translate(450.333984375)" d="M 0 0v 14.173228346h 13.245117187v -14.173228346h -13.245117187Z "/><path fill="#e8a673" fill-rule="nonzero" transform="translate(311.260253906 42.519685039)" d="M 0 0v 14.173228346h 72.848144531v -14.173228346h -72.848144531Z "/><path fill="#e8a673" fill-rule="nonzero" transform="translate(476.82421875 42.519685039)" d="M 0 0v 14.173228346h 26.490234375v -14.173228346h -26.490234375Z "/><path fill="none" transform="translate(0 2.830022376)" d="M 0 0h 52.98046875v 8.513183594h -52.98046875v -8.513183594Z "/><g transform="translate(-9.7e-8 2.830022362)"><g transform="matrix(1 0 0 -1 0 8.357421875)"><use xlink:href="#g421E0A5ADBCD098867DA851B84E834" x="0" y="0" fill="#737373" fill-rule="nonzero"/><use xlink:href="#g421E0A5ADBCD098867DA851B84E834" x="6.622558594" y="0" fill="#737373" fill-rule="nonzero"/><use xlink:href="#g421E0A5ADBCD098867DA851B84E834" x="13.245117188" y="0" fill="#737373" fill-rule="nonzero"/><use xlink:href="#g421E0A5ADBCD098867DA851B84E834" x="19.867675781" y="0" fill="#737373" fill-rule="nonzero"/><use xlink:href="#g421E0A5ADBCD098867DA851B84E834" x="26.490234375" y="0" fill="#737373" fill-rule="nonzero"/><use xlink:href="#g421E0A5ADBCD098867DA851B84E834" x="33.112792969" y="0" fill="#737373" fill-rule="nonzero"/><use xlink:href="#g421E0A5ADBCD098867DA851B84E834" x="39.735351563" y="0" fill="#737373" fill-rule="nonzero"/><use xlink:href="#g421E0A5ADBCD098867DA851B84E834" x="46.357910156" y="0" fill="#737373" fill-rule="nonzero"/></g></g><path fill="none" transform="translate(66.225585938 2.830022376)" d="M 0 0h 317.8828125v 8.513183594h -317.8828125v -8.513183594Z "/><g transform="translate(66.22558592 2.830022362)"><g transform="matrix(1 0 0 -1 0 8.357421875)"><use xlink:href="#g6ED849282110A660B7843606B84CF9D9" x="0" y="0" fill="#000000" fill-rule="nonzero"/><use xlink:href="#g743CE0ADF55C34EA4D2D3E581972D07E" x="6.622558594" y="0" fill="#000000" fill-rule="nonzero"/><use xlink:href="#g5B0566EB683A7AF8C1D13910CECB217A" x="19.867675781" y="0" fill="#000000" fill-rule="nonzero"/><use xlink:href="#gDD031D65CFEF931E7F776B85663CB2DF" x="26.490234375" y="0" fill="#000000" fill-rule="nonzero"/><use xlink:href="#gE9FF0365C6FE23E82CA3D1D6C002494D" x="39.735351563" y="0" fill="#000000" fill-rule="nonzero"/><use xlink:href="#g421E0A5ADBCD098867DA851B84E834" x="46.357910156" y="0" fill="#000000" fill-rule="nonzero"/><use xlink:href="#g421E0A5ADBCD098867DA851B84E834" x="59.603027344" y="0" fill="#000000" fill-rule="nonzero"/><use xlink:href="#g421E0A5ADBCD098867DA851B84E834" x="66.225585938" y="0" fill="#000000" fill-rule="nonzero"/><use xlink:href="#g421E0A5ADBCD098867DA851B84E834" x="79.470703125" y="0" fill="#000000" fill-rule="nonzero"/><use xlink:href="#g5A9BA6F313E5E5834AC142DE8ADA00FB" x="86.093261719" y="0" fill="#000000" fill-rule="nonzero"/><use xlink:href="#g421E0A5ADBCD098867DA851B84E834" x="99.338378906" y="0" fill="#000000" fill-rule="nonzero"/><use xlink:href="#g421E0A5ADBCD098867DA851B84E834" x="105.9609375" y="0" fill="#000000" fill-rule="nonzero"/><use xlink:href="#g421E0A5ADBCD098867DA851B84E834" x="119.206054688" y="0" fill="#000000" fill-rule="nonzero"/><use xlink:href="#g421E0A5ADBCD098867DA851B84E834" x="125.828613281" y="0" fill="#000000" fill-rule="nonzero"/><use xlink:href="#g421E0A5ADBCD098867DA851B84E834" x="139.073730469" y="0" fill="#000000" fill-rule="nonzero"/><use xlink:href="#g421E0A5ADBCD098867DA851B84E834" x="145.696289063" y="0" fill="#000000" fill-rule="nonzero"/><use xlink:href="#g421E0A5ADBCD098867DA851B84E834" x="165.563964844" y="0" fill="#000000" fill-rule="nonzero"/><use xlink:href="#g6ED849282110A660B7843606B84CF9D9" x="172.186523438" y="0" fill="#000000" fill-rule="nonzero"/><use xlink:href="#g421E0A5ADBCD098867DA851B84E834" x="185.431640625" y="0" fill="#000000" fill-rule="nonzero"/><use xlink:href="#g421E0A5ADBCD098867DA851B84E834" x="192.054199219" y="0" fill="#000000" fill-rule="nonzero"/><use xlink:href="#g421E0A5ADBCD098867DA851B84E834" x="205.299316406" y="0" fill="#000000" fill-rule="nonzero"/><use xlink:href="#g421E0A5ADBCD098867DA851B84E834" x="211.921875" y="0" fill="#000000" fill-rule="nonzero"/><use xlink:href="#g421E0A5ADBCD098867DA851B84E834" x="225.166992188" y="0" fill="#000000" fill-rule="nonzero"/><use xlink:href="#g421E0A5ADBCD098867DA851B84E834" x="231.789550781" y="0" fill="#000000" fill-rule="nonzero"/><use xlink:href="#g976997E6FF52821E2A324136FEF06B0E" x="245.034667969" y="0" fill="#000000" fill-rule="nonzero"/><use xlink:href="#g976997E6FF52821E2A324136FEF06B0E" x="251.657226563" y="0" fill="#000000" fill-rule="nonzero"/><use xlink:href="#g976997E6FF52821E2A324136FEF06B0E" x="264.90234375" y="0" fill="#000000" fill-rule="nonzero"/><use xlink:href="#g976997E6FF52821E2A324136FEF06B0E" x="271.524902344" y="0" fill="#000000" fill-rule="nonzero"/><use xlink:href="#g421E0A5ADBCD098867DA851B84E834" x="284.770019531" y="0" fill="#000000" fill-rule="nonzero"/><use xlink:href="#g421E0A5ADBCD098867DA851B84E834" x="291.392578125" y="0" fill="#000000" fill-rule="nonzero"/><use xlink:href="#g421E0A5ADBCD098867DA851B84E834" x="304.637695313" y="0" fill="#000000" fill-rule="nonzero"/><use xlink:href="#g421E0A5ADBCD098867DA851B84E834" x="311.260253906" y="0" fill="#000000" fill-rule="nonzero"/></g></g><path fill="none" transform="translate(390.730957031 1.610784095)" d="M 0 0h 119.206054687v 10.951660156h -119.206054687v -10.951660156Z "/><g transform="translate(390.730956989 1.610784)"><g transform="matrix(1 0 0 -1 0 8.357421875)"><use xlink:href="#gDBE42591D9E1BCA79454487872914D01" x="0" y="0" fill="#000000" fill-rule="nonzero"/><use xlink:href="#g99DC383FB54FDEFEE1A91040878DCF25" x="6.622558594" y="0" fill="#000000" fill-rule="nonzero"/><use xlink:href="#g36AF1DF1E7404F442B6EFD9CBDEC35A" x="13.245117188" y="0" fill="#000000" fill-rule="nonzero"/><use xlink:href="#g8A2D6BC07E98AE390D7977EF9FD34E6E" x="19.867675781" y="0" fill="#000000" fill-rule="nonzero"/><use xlink:href="#g8A2D6BC07E98AE390D7977EF9FD34E6E" x="26.490234375" y="0" fill="#000000" fill-rule="nonzero"/><use xlink:href="#g8A2D6BC07E98AE390D7977EF9FD34E6E" x="33.112792969" y="0" fill="#000000" fill-rule="nonzero"/><use xlink:href="#g8A2D6BC07E98AE390D7977EF9FD34E6E" x="39.735351563" y="0" fill="#000000" fill-rule="nonzero"/><use xlink:href="#g8A2D6BC07E98AE390D7977EF9FD34E6E" x="46.357910156" y="0" fill="#000000" fill-rule="nonzero"/><use xlink:href="#g8A2D6BC07E98AE390D7977EF9FD34E6E" x="52.98046875" y="0" fill="#000000" fill-rule="nonzero"/><use xlink:href="#g8A2D6BC07E98AE390D7977EF9FD34E6E" x="59.603027344" y="0" fill="#000000" fill-rule="nonzero"/><use xlink:href="#g8A2D6BC07E98AE390D7977EF9FD34E6E" x="66.225585938" y="0" fill="#000000" fill-rule="nonzero"/><use xlink:href="#g8A2D6BC07E98AE390D7977EF9FD34E6E" x="72.848144531" y="0" fill="#000000" fill-rule="nonzero"/><use xlink:href="#g8A2D6BC07E98AE390D7977EF9FD34E6E" x="79.470703125" y="0" fill="#000000" fill-rule="nonzero"/><use xlink:href="#g8A2D6BC07E98AE390D7977EF9FD34E6E" x="86.093261719" y="0" fill="#000000" fill-rule="nonzero"/><use xlink:href="#g8A2D6BC07E98AE390D7977EF9FD34E6E" x="92.715820313" y="0" fill="#000000" fill-rule="nonzero"/><use xlink:href="#g8A2D6BC07E98AE390D7977EF9FD34E6E" x="99.338378906" y="0" fill="#000000" fill-rule="nonzero"/><use xlink:href="#g8A2D6BC07E98AE390D7977EF9FD34E6E" x="105.9609375" y="0" fill="#000000" fill-rule="nonzero"/><use xlink:href="#gDBE42591D9E1BCA79454487872914D01" x="112.583496094" y="0" fill="#000000" fill-rule="nonzero"/></g></g><path fill="none" transform="translate(0 17.003250723)" d="M 0 0h 52.98046875v 8.513183594h -52.98046875v -8.513183594Z "/><g transform="translate(-9.7e-8 17.003250709)"><g transform="matrix(1 0 0 -1 0 8.357421875)"><use xlink:href="#g421E0A5ADBCD098867DA851B84E834" x="0" y="0" fill="#737373" fill-rule="nonzero"/><use xlink:href="#g421E0A5ADBCD098867DA851B84E834" x="6.622558594" y="0" fill="#737373" fill-rule="nonzero"/><use xlink:href="#g421E0A5ADBCD098867DA851B84E834" x="13.245117188" y="0" fill="#737373" fill-rule="nonzero"/><use xlink:href="#g421E0A5ADBCD098867DA851B84E834" x="19.867675781" y="0" fill="#737373" fill-rule="nonzero"/><use xlink:href="#g421E0A5ADBCD098867DA851B84E834" x="26.490234375" y="0" fill="#737373" fill-rule="nonzero"/><use xlink:href="#g421E0A5ADBCD098867DA851B84E834" x="33.112792969" y="0" fill="#737373" fill-rule="nonzero"/><use xlink:href="#gF161780E27A0444EF11E7889E4C09D8C" x="39.735351563" y="0" fill="#737373" fill-rule="nonzero"/><use xlink:href="#g421E0A5ADBCD098867DA851B84E834" x="46.357910156" y="0" fill="#737373" fill-rule="nonzero"/></g></g><path fill="none" transform="translate(66.225585938 17.003250723)" d="M 0 0h 317.8828125v 8.513183594h -317.8828125v -8.513183594Z "/><g transform="translate(66.22558592 17.003250709)"><g transform="matrix(1 0 0 -1 0 8.357421875)"><use xlink:href="#g1A892A96C342815D1F47F594569B2B9" x="0" y="0" fill="#000000" fill-rule="nonzero"/><use xlink:href="#g5BD1592FFDAF366D0A6AA2DE0EFAB0E1" x="6.622558594" y="0" fill="#000000" fill-rule="nonzero"/><use xlink:href="#g421E0A5ADBCD098867DA851B84E834" x="19.867675781" y="0" fill="#000000" fill-rule="nonzero"/><use xlink:href="#g421E0A5ADBCD098867DA851B84E834" x="26.490234375" y="0" fill="#000000" fill-rule="nonzero"/><use xlink:href="#g421E0A5ADBCD098867DA851B84E834" x="39.735351563" y="0" fill="#000000" fill-rule="nonzero"/><use xlink:href="#g421E0A5ADBCD098867DA851B84E834" x="46.357910156" y="0" fill="#000000" fill-rule="nonzero"/><use xlink:href="#g421E0A5ADBCD098867DA851B84E834" x="59.603027344" y="0" fill="#000000" fill-rule="nonzero"/><use xlink:href="#g421E0A5ADBCD098867DA851B84E834" x="66.225585938" y="0" fill="#000000" fill-rule="nonzero"/><use xlink:href="#g421E0A5ADBCD098867DA851B84E834" x="79.470703125" y="0" fill="#000000" fill-rule="nonzero"/><use xlink:href="#g421E0A5ADBCD098867DA851B84E834" x="86.093261719" y="0" fill="#000000" fill-rule="nonzero"/><use xlink:href="#g421E0A5ADBCD098867DA851B84E834" x="99.338378906" y="0" fill="#000000" fill-rule="nonzero"/><use xlink:href="#g421E0A5ADBCD098867DA851B84E834" x="105.9609375" y="0" fill="#000000" fill-rule="nonzero"/><use xlink:href="#g421E0A5ADBCD098867DA851B84E834" x="119.206054688" y="0" fill="#000000" fill-rule="nonzero"/><use xlink:href="#g421E0A5ADBCD098867DA851B84E834" x="125.828613281" y="0" fill="#000000" fill-rule="nonzero"/><use xlink:href="#g421E0A5ADBCD098867DA851B84E834" x="139.073730469" y="0" fill="#000000" fill-rule="nonzero"/><use xlink:href="#g421E0A5ADBCD098867DA851B84E834" x="145.696289063" y="0" fill="#000000" fill-rule="nonzero"/><use xlink:href="#g6ED849282110A660B7843606B84CF9D9" x="165.563964844" y="0" fill="#000000" fill-rule="nonzero"/><use xlink:href="#g421E0A5ADBCD098867DA851B84E834" x="172.186523438" y="0" fill="#000000" fill-rule="nonzero"/><use xlink:href="#g421E0A5ADBCD098867DA851B84E834" x="185.431640625" y="0" fill="#000000" fill-rule="nonzero"/><use xlink:href="#g421E0A5ADBCD098867DA851B84E834" x="192.054199219" y="0" fill="#000000" fill-rule="nonzero"/><use xlink:href="#g421E0A5ADBCD098867DA851B84E834" x="205.299316406" y="0" fill="#000000" fill-rule="nonzero"/><use xlink:href="#g421E0A5ADBCD098867DA851B84E834" x="211.921875" y="0" fill="#000000" fill-rule="nonzero"/><use xlink:href="#g421E0A5ADBCD098867DA851B84E834" x="225.166992188" y="0" fill="#000000" fill-rule="nonzero"/><use xlink:href="#g421E0A5ADBCD098867DA851B84E834" x="231.789550781" y="0" fill="#000000" fill-rule="nonzero"/><use xlink:href="#g421E0A5ADBCD098867DA851B84E834" x="245.034667969" y="0" fill="#000000" fill-rule="nonzero"/><use xlink:href="#g421E0A5ADBCD098867DA851B84E834" x="251.657226563" y="0" fill="#000000" fill-rule="nonzero"/><use xlink:href="#g421E0A5ADBCD098867DA851B84E834" x="264.90234375" y="0" fill="#000000" fill-rule="nonzero"/><use xlink:href="#g421E0A5ADBCD098867DA851B84E834" x="271.524902344" y="0" fill="#000000" fill-rule="nonzero"/><use xlink:href="#g421E0A5ADBCD098867DA851B84E834" x="284.770019531" y="0" fill="#000000" fill-rule="nonzero"/><use xlink:href="#g421E0A5ADBCD098867DA851B84E834" x="291.392578125" y="0" fill="#000000" fill-rule="nonzero"/><use xlink:href="#g421E0A5ADBCD098867DA851B84E834" x="304.637695313" y="0" fill="#000000" fill-rule="nonzero"/><use xlink:href="#g421E0A5ADBCD098867DA851B84E834" x="311.260253906" y="0" fill="#000000" fill-rule="nonzero"/></g></g><path fill="none" transform="translate(390.730957031 15.784012442)" d="M 0 0h 119.206054687v 10.951660156h -119.206054687v -10.951660156Z "/><g transform="translate(390.730956989 15.784012346)"><g transform="matrix(1 0 0 -1 0 8.357421875)"><use xlink:href="#gDBE42591D9E1BCA79454487872914D01" x="0" y="0" fill="#000000" fill-rule="nonzero"/><use xlink:href="#g8A2D6BC07E98AE390D7977EF9FD34E6E" x="6.622558594" y="0" fill="#000000" fill-rule="nonzero"/><use xlink:href="#g8A2D6BC07E98AE390D7977EF9FD34E6E" x="13.245117188" y="0" fill="#000000" fill-rule="nonzero"/><use xlink:href="#g8A2D6BC07E98AE390D7977EF9FD34E6E" x="19.867675781" y="0" fill="#000000" fill-rule="nonzero"/><use xlink:href="#g8A2D6BC07E98AE390D7977EF9FD34E6E" x="26.490234375" y="0" fill="#000000" fill-rule="nonzero"/><use xlink:href="#g8A2D6BC07E98AE390D7977EF9FD34E6E" x="33.112792969" y="0" fill="#000000" fill-rule="nonzero"/><use xlink:href="#g8A2D6BC07E98AE390D7977EF9FD34E6E" x="39.735351563" y="0" fill="#000000" fill-rule="nonzero"/><use xlink:href="#g8A2D6BC07E98AE390D7977EF9FD34E6E" x="46.357910156" y="0" fill="#000000" fill-rule="nonzero"/><use xlink:href="#g8A2D6BC07E98AE390D7977EF9FD34E6E" x="52.98046875" y="0" fill="#000000" fill-rule="nonzero"/><use xlink:href="#gF1D559A8812F23DF334C1B3BF3593159" x="59.603027344" y="0" fill="#000000" fill-rule="nonzero"/><use xlink:href="#g8A2D6BC07E98AE390D7977EF9FD34E6E" x="66.225585938" y="0" fill="#000000" fill-rule="nonzero"/><use xlink:href="#g8A2D6BC07E98AE390D7977EF9FD34E6E" x="72.848144531" y="0" fill="#000000" fill-rule="nonzero"/><use xlink:href="#g8A2D6BC07E98AE390D7977EF9FD34E6E" x="79.470703125" y="0" fill="#000000" fill-rule="nonzero"/><use xlink:href="#g8A2D6BC07E98AE390D7977EF9FD34E6E" x="86.093261719" y="0" fill="#000000" fill-rule="nonzero"/><use xlink:href="#g8A2D6BC07E98AE390D7977EF9FD34E6E" x="92.715820313" y="0" fill="#000000" fill-rule="nonzero"/><use xlink:href="#g8A2D6BC07E98AE390D7977EF9FD34E6E" x="99.338378906" y="0" fill="#000000" fill-rule="nonzero"/><use xlink:href="#g8A2D6BC07E98AE390D7977EF9FD34E6E" x="105.9609375" y="0" fill="#000000" fill-rule="nonzero"/><use xlink:href="#gDBE42591D9E1BCA79454487872914D01" x="112.583496094" y="0" fill="#000000" fill-rule="nonzero"/></g></g><path fill="none" transform="translate(0 31.176479069)" d="M 0 0h 52.98046875v 8.513183594h -52.98046875v -8.513183594Z "/><g transform="translate(-9.7e-8 31.176479055)"><g transform="matrix(1 0 0 -1 0 8.357421875)"><use xlink:href="#g421E0A5ADBCD098867DA851B84E834" x="0" y="0" fill="#737373" fill-rule="nonzero"/><use xlink:href="#g421E0A5ADBCD098867DA851B84E834" x="6.622558594" y="0" fill="#737373" fill-rule="nonzero"/><use xlink:href="#g421E0A5ADBCD098867DA851B84E834" x="13.245117188" y="0" fill="#737373" fill-rule="nonzero"/><use xlink:href="#g421E0A5ADBCD098867DA851B84E834" x="19.867675781" y="0" fill="#737373" fill-rule="nonzero"/><use xlink:href="#g421E0A5ADBCD098867DA851B84E834" x="26.490234375" y="0" fill="#737373" fill-rule="nonzero"/><use xlink:href="#g421E0A5ADBCD098867DA851B84E834" x="33.112792969" y="0" fill="#737373" fill-rule="nonzero"/><use xlink:href="#g9EF032262EADC7E7D18BAD6EE644609D" x="39.735351563" y="0" fill="#737373" fill-rule="nonzero"/><use xlink:href="#g421E0A5ADBCD098867DA851B84E834" x="46.357910156" y="0" fill="#737373" fill-rule="nonzero"/></g></g><path fill="none" transform="translate(66.225585938 31.176479069)" d="M 0 0h 317.8828125v 8.513183594h -317.8828125v -8.513183594Z "/><g transform="translate(66.22558592 31.176479055)"><g transform="matrix(1 0 0 -1 0 8.357421875)"><use xlink:href="#g421E0A5ADBCD098867DA851B84E834" x="0" y="0" fill="#000000" fill-rule="nonzero"/><use xlink:href="#g421E0A5ADBCD098867DA851B84E834" x="6.622558594" y="0" fill="#000000" fill-rule="nonzero"/><use xlink:href="#g421E0A5ADBCD098867DA851B84E834" x="19.867675781" y="0" fill="#000000" fill-rule="nonzero"/><use xlink:href="#g421E0A5ADBCD098867DA851B84E834" x="26.490234375" y="0" fill="#000000" fill-rule="nonzero"/><use xlink:href="#g421E0A5ADBCD098867DA851B84E834" x="39.735351563" y="0" fill="#000000" fill-rule="nonzero"/><use xlink:href="#g421E0A5ADBCD098867DA851B84E834" x="46.357910156" y="0" fill="#000000" fill-rule="nonzero"/><use xlink:href="#g421E0A5ADBCD098867DA851B84E834" x="59.603027344" y="0" fill="#000000" fill-rule="nonzero"/><use xlink:href="#g421E0A5ADBCD098867DA851B84E834" x="66.225585938" y="0" fill="#000000" fill-rule="nonzero"/><use xlink:href="#g421E0A5ADBCD098867DA851B84E834" x="79.470703125" y="0" fill="#000000" fill-rule="nonzero"/><use xlink:href="#g421E0A5ADBCD098867DA851B84E834" x="86.093261719" y="0" fill="#000000" fill-rule="nonzero"/><use xlink:href="#g421E0A5ADBCD098867DA851B84E834" x="99.338378906" y="0" fill="#000000" fill-rule="nonzero"/><use xlink:href="#g421E0A5ADBCD098867DA851B84E834" x="105.9609375" y="0" fill="#000000" fill-rule="nonzero"/><use xlink:href="#g421E0A5ADBCD098867DA851B84E834" x="119.206054688" y="0" fill="#000000" fill-rule="nonzero"/><use xlink:href="#g421E0A5ADBCD098867DA851B84E834" x="125.828613281" y="0" fill="#000000" fill-rule="nonzero"/><use xlink:href="#g421E0A5ADBCD098867DA851B84E834" x="139.073730469" y="0" fill="#000000" fill-rule="nonzero"/><use xlink:href="#g421E0A5ADBCD098867DA851B84E834" x="145.696289063" y="0" fill="#000000" fill-rule="nonzero"/><use xlink:href="#g421E0A5ADBCD098867DA851B84E834" x="165.563964844" y="0" fill="#000000" fill-rule="nonzero"/><use xlink:href="#g421E0A5ADBCD098867DA851B84E834" x="172.186523438" y="0" fill="#000000" fill-rule="nonzero"/><use xlink:href="#g421E0A5ADBCD098867DA851B84E834" x="185.431640625" y="0" fill="#000000" fill-rule="nonzero"/><use xlink:href="#g421E0A5ADBCD098867DA851B84E834" x="192.054199219" y="0" fill="#000000" fill-rule="nonzero"/><use xlink:href="#g421E0A5ADBCD098867DA851B84E834" x="205.299316406" y="0" fill="#000000" fill-rule="nonzero"/><use xlink:href="#g421E0A5ADBCD098867DA851B84E834" x="211.921875" y="0" fill="#000000" fill-rule="nonzero"/><use xlink:href="#g421E0A5ADBCD098867DA851B84E834" x="225.166992188" y="0" fill="#000000" fill-rule="nonzero"/><use xlink:href="#g421E0A5ADBCD098867DA851B84E834" x="231.789550781" y="0" fill="#000000" fill-rule="nonzero"/><use xlink:href="#g421E0A5ADBCD098867DA851B84E834" x="245.034667969" y="0" fill="#000000" fill-rule="nonzero"/><use xlink:href="#g421E0A5ADBCD098867DA851B84E834" x="251.657226563" y="0" fill="#000000" fill-rule="nonzero"/><use xlink:href="#g421E0A5ADBCD098867DA851B84E834" x="264.90234375" y="0" fill="#000000" fill-rule="nonzero"/><use xlink:href="#g421E0A5ADBCD098867DA851B84E834" x="271.524902344" y="0" fill="#000000" fill-rule="nonzero"/><use xlink:href="#g421E0A5ADBCD098867DA851B84E834" x="284.770019531" y="0" fill="#000000" fill-rule="nonzero"/><use xlink:href="#g421E0A5ADBCD098867DA851B84E834" x="291.392578125" y="0" fill="#000000" fill-rule="nonzero"/><use xlink:href="#g421E0A5ADBCD098867DA851B84E834" x="304.637695313" y="0" fill="#000000" fill-rule="nonzero"/><use xlink:href="#g421E0A5ADBCD098867DA851B84E834" x="311.260253906" y="0" fill="#000000" fill-rule="nonzero"/></g></g><path fill="none" transform="translate(390.730957031 29.957240788)" d="M 0 0h 119.206054687v 10.951660156h -119.206054687v -10.951660156Z "/><g transform="translate(390.730956989 29.957240693)"><g transform="matrix(1 0 0 -1 0 8.357421875)"><use xlink:href="#gDBE42591D9E1BCA79454487872914D01" x="0" y="0" fill="#000000" fill-rule="nonzero"/><use xlink:href="#g8A2D6BC07E98AE390D7977EF9FD34E6E" x="6.622558594" y="0" fill="#000000" fill-rule="nonzero"/><use xlink:href="#g8A2D6BC07E98AE390D7977EF9FD34E6E" x="13.245117188" y="0" fill="#000000" fill-rule="nonzero"/><use xlink:href="#g8A2D6BC07E98AE390D7977EF9FD34E6E" x="19.867675781" y="0" fill="#000000" fill-rule="nonzero"/><use xlink:href="#g8A2D6BC07E98AE390D7977EF9FD34E6E" x="26.490234375" y="0" fill="#000000" fill-rule="nonzero"/><use xlink:href="#g8A2D6BC07E98AE390D7977EF9FD34E6E" x="33.112792969" y="0" fill="#000000" fill-rule="nonzero"/><use xlink:href="#g8A2D6BC07E98AE390D7977EF9FD34E6E" x="39.735351563" y="0" fill="#000000" fill-rule="nonzero"/><use xlink:href="#g8A2D6BC07E98AE390D7977EF9FD34E6E" x="46.357910156" y="0" fill="#000000" fill-rule="nonzero"/><use xlink:href="#g8A2D6BC07E98AE390D7977EF9FD34E6E" x="52.98046875" y="0" fill="#000000" fill-rule="nonzero"/><use xlink:href="#g8A2D6BC07E98AE390D7977EF9FD34E6E" x="59.603027344" y="0" fill="#000000" fill-rule="nonzero"/><use xlink:href="#g8A2D6BC07E98AE390D7977EF9FD34E6E" x="66.225585938" y="0" fill="#000000" fill-rule="nonzero"/><use xlink:href="#g8A2D6BC07E98AE390D7977EF9FD34E6E" x="72.848144531" y="0" fill="#000000" fill-rule="nonzero"/><use xlink:href="#g8A2D6BC07E98AE390D7977EF9FD34E6E" x="79.470703125" y="0" fill="#000000" fill-rule="nonzero"/><use xlink:href="#g8A2D6BC07E98AE390D7977EF9FD34E6E" x="86.093261719" y="0" fill="#000000" fill-rule="nonzero"/><use xlink:href="#g8A2D6BC07E98AE390D7977EF9FD34E6E" x="92.715820313" y="0" fill="#000000" fill-rule="nonzero"/><use xlink:href="#g8A2D6BC07E98AE390D7977EF9FD34E6E" x="99.338378906" y="0" fill="#000000" fill-rule="nonzero"/><use xlink:href="#g8A2D6BC07E98AE390D7977EF9FD34E6E" x="105.9609375" y="0" fill="#000000" fill-rule="nonzero"/><use xlink:href="#gDBE42591D9E1BCA79454487872914D01" x="112.583496094" y="0" fill="#000000" fill-rule="nonzero"/></g></g><path fill="none" transform="translate(0 45.349707416)" d="M 0 0h 52.98046875v 8.513183594h -52.98046875v -8.513183594Z "/><g transform="translate(-9.7e-8 45.349707402)"><g transform="matrix(1 0 0 -1 0 8.357421875)"><use xlink:href="#g421E0A5ADBCD098867DA851B84E834" x="0" y="0" fill="#737373" fill-rule="nonzero"/><use xlink:href="#g421E0A5ADBCD098867DA851B84E834" x="6.622558594" y="0" fill="#737373" fill-rule="nonzero"/><use xlink:href="#g421E0A5ADBCD098867DA851B84E834" x="13.245117188" y="0" fill="#737373" fill-rule="nonzero"/><use xlink:href="#g421E0A5ADBCD098867DA851B84E834" x="19.867675781" y="0" fill="#737373" fill-rule="nonzero"/><use xlink:href="#g421E0A5ADBCD098867DA851B84E834" x="26.490234375" y="0" fill="#737373" fill-rule="nonzero"/><use xlink:href="#g421E0A5ADBCD098867DA851B84E834" x="33.112792969" y="0" fill="#737373" fill-rule="nonzero"/><use xlink:href="#g5A9BA6F313E5E5834AC142DE8ADA00FB" x="39.735351563" y="0" fill="#737373" fill-rule="nonzero"/><use xlink:href="#g421E0A5ADBCD098867DA851B84E834" x="46.357910156" y="0" fill="#737373" fill-rule="nonzero"/></g></g><path fill="none" transform="translate(66.225585938 45.349707416)" d="M 0 0h 317.8828125v 8.513183594h -317.8828125v -8.513183594Z "/><g transform="translate(66.22558592 45.349707402)"><g transform="matrix(1 0 0 -1 0 8.357421875)"><use xlink:href="#g421E0A5ADBCD098867DA851B84E834" x="0" y="0" fill="#000000" fill-rule="nonzero"/><use xlink:href="#g421E0A5ADBCD098867DA851B84E834" x="6.622558594" y="0" fill="#000000" fill-rule="nonzero"/><use xlink:href="#g421E0A5ADBCD098867DA851B84E834" x="19.867675781" y="0" fill="#000000" fill-rule="nonzero"/><use xlink:href="#g421E0A5ADBCD098867DA851B84E834" x="26.490234375" y="0" fill="#000000" fill-rule="nonzero"/><use xlink:href="#g421E0A5ADBCD098867DA851B84E834" x="39.735351563" y="0" fill="#000000" fill-rule="nonzero"/><use xlink:href="#g421E0A5ADBCD098867DA851B84E834" x="46.357910156" y="0" fill="#000000" fill-rule="nonzero"/><use xlink:href="#g421E0A5ADBCD098867DA851B84E834" x="59.603027344" y="0" fill="#000000" fill-rule="nonzero"/><use xlink:href="#g421E0A5ADBCD098867DA851B84E834" x="66.225585938" y="0" fill="#000000" fill-rule="nonzero"/><use xlink:href="#g421E0A5ADBCD098867DA851B84E834" x="79.470703125" y="0" fill="#000000" fill-rule="nonzero"/><use xlink:href="#g421E0A5ADBCD098867DA851B84E834" x="86.093261719" y="0" fill="#000000" fill-rule="nonzero"/><use xlink:href="#g421E0A5ADBCD098867DA851B84E834" x="99.338378906" y="0" fill="#000000" fill-rule="nonzero"/><use xlink:href="#g421E0A5ADBCD098867DA851B84E834" x="105.9609375" y="0" fill="#000000" fill-rule="nonzero"/><use xlink:href="#g421E0A5ADBCD098867DA851B84E834" x="119.206054688" y="0" fill="#000000" fill-rule="nonzero"/><use xlink:href="#g421E0A5ADBCD098867DA851B84E834" x="125.828613281" y="0" fill="#000000" fill-rule="nonzero"/><use xlink:href="#g421E0A5ADBCD098867DA851B84E834" x="139.073730469" y="0" fill="#000000" fill-rule="nonzero"/><use xlink:href="#g421E0A5ADBCD098867DA851B84E834" x="145.696289063" y="0" fill="#000000" fill-rule="nonzero"/><use xlink:href="#g421E0A5ADBCD098867DA851B84E834" x="165.563964844" y="0" fill="#000000" fill-rule="nonzero"/><use xlink:href="#g421E0A5ADBCD098867DA851B84E834" x="172.186523438" y="0" fill="#000000" fill-rule="nonzero"/><use xlink:href="#g421E0A5ADBCD098867DA851B84E834" x="185.431640625" y="0" fill="#000000" fill-rule="nonzero"/><use xlink:href="#g421E0A5ADBCD098867DA851B84E834" x="192.054199219" y="0" fill="#000000" fill-rule="nonzero"/><use xlink:href="#g421E0A5ADBCD098867DA851B84E834" x="205.299316406" y="0" fill="#000000" fill-rule="nonzero"/><use xlink:href="#g421E0A5ADBCD098867DA851B84E834" x="211.921875" y="0" fill="#000000" fill-rule="nonzero"/><use xlink:href="#g421E0A5ADBCD098867DA851B84E834" x="225.166992188" y="0" fill="#000000" fill-rule="nonzero"/><use xlink:href="#g421E0A5ADBCD098867DA851B84E834" x="231.789550781" y="0" fill="#000000" fill-rule="nonzero"/><use xlink:href="#g5BD1592FFDAF366D0A6AA2DE0EFAB0E1" x="245.034667969" y="0" fill="#000000" fill-rule="nonzero"/><use xlink:href="#g421E0A5ADBCD098867DA851B84E834" x="251.657226563" y="0" fill="#000000" fill-rule="nonzero"/><use xlink:href="#g421E0A5ADBCD098867DA851B84E834" x="264.90234375" y="0" fill="#000000" fill-rule="nonzero"/><use xlink:href="#g421E0A5ADBCD098867DA851B84E834" x="271.524902344" y="0" fill="#000000" fill-rule="nonzero"/><use xlink:href="#g421E0A5ADBCD098867DA851B84E834" x="284.770019531" y="0" fill="#000000" fill-rule="nonzero"/><use xlink:href="#g421E0A5ADBCD098867DA851B84E834" x="291.392578125" y="0" fill="#000000" fill-rule="nonzero"/><use xlink:href="#g421E0A5ADBCD098867DA851B84E834" x="304.637695313" y="0" fill="#000000" fill-rule="nonzero"/><use xlink:href="#g421E0A5ADBCD098867DA851B84E834" x="311.260253906" y="0" fill="#000000" fill-rule="nonzero"/></g></g><path fill="none" transform="translate(390.730957031 44.130469134)" d="M 0 0h 119.206054687v 10.951660156h -119.206054687v -10.951660156Z "/><g transform="translate(390.730956989 44.130469039)"><g transform="matrix(1 0 0 -1 0 8.357421875)"><use xlink:href="#gDBE42591D9E1BCA79454487872914D01" x="0" y="0" fill="#000000" fill-rule="nonzero"/><use xlink:href="#g8A2D6BC07E98AE390D7977EF9FD34E6E" x="6.622558594" y="0" fill="#000000" fill-rule="nonzero"/><use xlink:href="#g8A2D6BC07E98AE390D7977EF9FD34E6E" x="13.245117188" y="0" fill="#000000" fill-rule="nonzero"/><use xlink:href="#g8A2D6BC07E98AE390D7977EF9FD34E6E" x="19.867675781" y="0" fill="#000000" fill-rule="nonzero"/><use xlink:href="#g8A2D6BC07E98AE390D7977EF9FD34E6E" x="26.490234375" y="0" fill="#000000" fill-rule="nonzero"/><use xlink:href="#g8A2D6BC07E98AE390D7977EF9FD34E6E" x="33.112792969" y="0" fill="#000000" fill-rule="nonzero"/><use xlink:href="#g8A2D6BC07E98AE390D7977EF9FD34E6E" x="39.735351563" y="0" fill="#000000" fill-rule="nonzero"/><use xlink:href="#g8A2D6BC07E98AE390D7977EF9FD34E6E" x="46.357910156" y="0" fill="#000000" fill-rule="nonzero"/><use xlink:href="#g8A2D6BC07E98AE390D7977EF9FD34E6E" x="52.98046875" y="0" fill="#000000" fill-rule="nonzero"/><use xlink:href="#g8A2D6BC07E98AE390D7977EF9FD34E6E" x="59.603027344" y="0" fill="#000000" fill-rule="nonzero"/><use xlink:href="#g8A2D6BC07E98AE390D7977EF9FD34E6E" x="66.225585938" y="0" fill="#000000" fill-rule="nonzero"/><use xlink:href="#g8A2D6BC07E98AE390D7977EF9FD34E6E" x="72.848144531" y="0" fill="#000000" fill-rule="nonzero"/><use xlink:href="#g8A2D6BC07E98AE390D7977EF9FD34E6E" x="79.470703125" y="0" fill="#000000" fill-rule="nonzero"/><use xlink:href="#g8A2D6BC07E98AE390D7977EF9FD34E6E" x="86.093261719" y="0" fill="#000000" fill-rule="nonzero"/><use xlink:href="#g8A2D6BC07E98AE390D7977EF9FD34E6E" x="92.715820313" y="0" fill="#000000" fill-rule="nonzero"/><use xlink:href="#g8A2D6BC07E98AE390D7977EF9FD34E6E" x="99.338378906" y="0" fill="#000000" fill-rule="nonzero"/><use xlink:href="#g8A2D6BC07E98AE390D7977EF9FD34E6E" x="105.9609375" y="0" fill="#000000" fill-rule="nonzero"/><use xlink:href="#gDBE42591D9E1BCA79454487872914D01" x="112.583496094" y="0" fill="#000000" fill-rule="nonzero"/></g></g><path fill="#f1ca73" fill-rule="nonzero" transform="translate(0 73.700787402)" d="M 0 0v 8.503937008h 8.503937008v -8.503937008h -8.503937008Z "/><path fill="none" transform="translate(11.905511811 73.696164109)" d="M 0 0h 59.603027344v 8.513183594h -59.603027344v -8.513183594Z "/><g transform="translate(11.905511719 73.696164094)"><g transform="matrix(1 0 0 -1 0 8.357421875)"><use xlink:href="#g421E0A5ADBCD098867DA851B84E834" x="0" y="0" fill="#737373" fill-rule="nonzero"/><use xlink:href="#g6D4DFDD4F715F0478A22BD43EF52FB29" x="6.622558594" y="0" fill="#737373" fill-rule="nonzero"/><use xlink:href="#g421E0A5ADBCD098867DA851B84E834" x="13.245117188" y="0" fill="#737373" fill-rule="nonzero"/><use xlink:href="#g421E0A5ADBCD098867DA851B84E834" x="19.867675781" y="0" fill="#737373" fill-rule="nonzero"/><use xlink:href="#g24C5EF3E97413E96462F170081C64B0D" x="26.490234375" y="0" fill="#737373" fill-rule="nonzero"/><use xlink:href="#g421E0A5ADBCD098867DA851B84E834" x="33.112792969" y="0" fill="#737373" fill-rule="nonzero"/><use xlink:href="#g6D4DFDD4F715F0478A22BD43EF52FB29" x="39.735351563" y="0" fill="#737373" fill-rule="nonzero"/><use xlink:href="#g421E0A5ADBCD098867DA851B84E834" x="46.357910156" y="0" fill="#737373" fill-rule="nonzero"/><use xlink:href="#gF161780E27A0444EF11E7889E4C09D8C" x="52.98046875" y="0" fill="#737373" fill-rule="nonzero"/></g></g><path fill="none" transform="translate(74.910113958 73.024755906)" d="M 0 0h 75.603v 9.856h -75.603v -9.856Z "/><g transform="translate(74.910113863 73.024755874)"><g transform="matrix(1 0 0 -1 0 7.238)"><use xlink:href="#gF697F4206A782C3B42F4E05D5EA9B2A0" x="0" y="0" fill="#000000" fill-rule="nonzero"/><use xlink:href="#g214031308B8AA922748E7B1D12139F87" x="7.711" y="0" fill="#000000" fill-rule="nonzero"/><use xlink:href="#gD355BF4F81D64465081A1B40E1986DB4" x="15.433" y="0" fill="#000000" fill-rule="nonzero"/><use xlink:href="#gF9510C9866DCA99AFC3FC8A8DB318BDC" x="23.518" y="0" fill="#000000" fill-rule="nonzero"/><use xlink:href="#g9787446D80B11CDE2529516BF2D1ACCA" x="32.208" y="0" fill="#000000" fill-rule="nonzero"/><use xlink:href="#gEEC20B8710F33D8A6862F31BD530D033" x="37.235" y="0" fill="#000000" fill-rule="nonzero"/><use xlink:href="#gDD50B131DFBA2C7EA73123CA4C98C33" x="42.735" y="0" fill="#000000" fill-rule="nonzero"/><use xlink:href="#g3CE57ED74C3DBA63F54F2735C0855367" x="45.716" y="0" fill="#000000" fill-rule="nonzero"/><use xlink:href="#gA583550D4A9AF5E4B050D091A0D6D555" x="53.174" y="0" fill="#000000" fill-rule="nonzero"/><use xlink:href="#g5A92E01899F34F07E07504597D398CD0" x="56.452" y="0" fill="#000000" fill-rule="nonzero"/><use xlink:href="#g4DCD7B697146C21B1825FD2877805084" x="65.681" y="0" fill="#000000" fill-rule="nonzero"/><use xlink:href="#gEC09E6B8EA933E4C3BF631014D088804" x="72.325" y="0" fill="#000000" fill-rule="nonzero"/></g></g><path fill="#a2d6f3" fill-rule="nonzero" transform="translate(0 87.874015748)" d="M 0 0v 8.503937008h 8.503937008v -8.503937008h -8.503937008Z "/><path fill="none" transform="translate(11.905511811 87.869392455)" d="M 0 0h 59.603027344v 8.513183594h -59.603027344v -8.513183594Z "/><g transform="translate(11.905511719 87.869392441)"><g transform="matrix(1 0 0 -1 0 8.357421875)"><use xlink:href="#g421E0A5ADBCD098867DA851B84E834" x="0" y="0" fill="#737373" fill-rule="nonzero"/><use xlink:href="#g6D4DFDD4F715F0478A22BD43EF52FB29" x="6.622558594" y="0" fill="#737373" fill-rule="nonzero"/><use xlink:href="#g421E0A5ADBCD098867DA851B84E834" x="13.245117188" y="0" fill="#737373" fill-rule="nonzero"/><use xlink:href="#g9EF032262EADC7E7D18BAD6EE644609D" x="19.867675781" y="0" fill="#737373" fill-rule="nonzero"/><use xlink:href="#g24C5EF3E97413E96462F170081C64B0D" x="26.490234375" y="0" fill="#737373" fill-rule="nonzero"/><use xlink:href="#g421E0A5ADBCD098867DA851B84E834" x="33.112792969" y="0" fill="#737373" fill-rule="nonzero"/><use xlink:href="#g6D4DFDD4F715F0478A22BD43EF52FB29" x="39.735351563" y="0" fill="#737373" fill-rule="nonzero"/><use xlink:href="#g421E0A5ADBCD098867DA851B84E834" x="46.357910156" y="0" fill="#737373" fill-rule="nonzero"/><use xlink:href="#g5A9BA6F313E5E5834AC142DE8ADA00FB" x="52.98046875" y="0" fill="#737373" fill-rule="nonzero"/></g></g><path fill="none" transform="translate(74.910113958 87.197984252)" d="M 0 0h 81.422v 9.856h -81.422v -9.856Z "/><g transform="translate(74.910113848 87.19798422)"><g transform="matrix(1 0 0 -1 0 7.238)"><use xlink:href="#gF110087D0967D51B93062FFC3887FC46" x="0" y="0" fill="#000000" fill-rule="nonzero"/><use xlink:href="#gB7E01F34AB4FF1C26BADF7D662D6A5FF" x="6.468" y="0" fill="#000000" fill-rule="nonzero"/><use xlink:href="#gB38329E71763B8BD4CF776D24C5AFFE1" x="12.133" y="0" fill="#000000" fill-rule="nonzero"/><use xlink:href="#gBFE09989B12480F1B7796D69E0D7287C" x="15.609" y="0" fill="#000000" fill-rule="nonzero"/><use xlink:href="#g4E5D026409004C23B788CF76C0C2AF69" x="20.526" y="0" fill="#000000" fill-rule="nonzero"/><use xlink:href="#g5E76F8DBE7C3C7A9A461E8EC1D70F6FB" x="27.566" y="0" fill="#000000" fill-rule="nonzero"/><use xlink:href="#gEB245AFE22C398BE296AC5F7AF6ADF12" x="33.11" y="0" fill="#000000" fill-rule="nonzero"/><use xlink:href="#g36F90904A4043C6A677E73471A30013F" x="41.822" y="0" fill="#000000" fill-rule="nonzero"/><use xlink:href="#g9787446D80B11CDE2529516BF2D1ACCA" x="44.726" y="0" fill="#000000" fill-rule="nonzero"/><use xlink:href="#g4E5D026409004C23B788CF76C0C2AF69" x="49.753" y="0" fill="#000000" fill-rule="nonzero"/><use xlink:href="#gB38329E71763B8BD4CF776D24C5AFFE1" x="54.043" y="0" fill="#000000" fill-rule="nonzero"/><use xlink:href="#gF9560AC257AD9BBCF737B0F29E336B2F" x="60.269" y="0" fill="#000000" fill-rule="nonzero"/><use xlink:href="#g9787446D80B11CDE2529516BF2D1ACCA" x="65.978" y="0" fill="#000000" fill-rule="nonzero"/><use xlink:href="#gEEC20B8710F33D8A6862F31BD530D033" x="71.005" y="0" fill="#000000" fill-rule="nonzero"/><use xlink:href="#gBFE09989B12480F1B7796D69E0D7287C" x="76.505" y="0" fill="#000000" fill-rule="nonzero"/></g></g><path fill="#73cab2" fill-rule="nonzero" transform="translate(0 102.047244094)" d="M 0 0v 8.503937008h 8.503937008v -8.503937008h -8.503937008Z "/><path fill="none" transform="translate(11.905511811 102.042620802)" d="M 0 0h 59.603027344v 8.513183594h -59.603027344v -8.513183594Z "/><g transform="translate(11.905511719 102.042620787)"><g transform="matrix(1 0 0 -1 0 8.357421875)"><use xlink:href="#g421E0A5ADBCD098867DA851B84E834" x="0" y="0" fill="#737373" fill-rule="nonzero"/><use xlink:href="#g6D4DFDD4F715F0478A22BD43EF52FB29" x="6.622558594" y="0" fill="#737373" fill-rule="nonzero"/><use xlink:href="#g421E0A5ADBCD098867DA851B84E834" x="13.245117188" y="0" fill="#737373" fill-rule="nonzero"/><use xlink:href="#g6ED849282110A660B7843606B84CF9D9" x="19.867675781" y="0" fill="#737373" fill-rule="nonzero"/><use xlink:href="#g24C5EF3E97413E96462F170081C64B0D" x="26.490234375" y="0" fill="#737373" fill-rule="nonzero"/><use xlink:href="#g421E0A5ADBCD098867DA851B84E834" x="33.112792969" y="0" fill="#737373" fill-rule="nonzero"/><use xlink:href="#g6D4DFDD4F715F0478A22BD43EF52FB29" x="39.735351563" y="0" fill="#737373" fill-rule="nonzero"/><use xlink:href="#g421E0A5ADBCD098867DA851B84E834" x="46.357910156" y="0" fill="#737373" fill-rule="nonzero"/><use xlink:href="#g5B0566EB683A7AF8C1D13910CECB217A" x="52.98046875" y="0" fill="#737373" fill-rule="nonzero"/></g></g><path fill="none" transform="translate(74.910113958 101.371212598)" d="M 0 0h 54.109v 9.856h -54.109v -9.856Z "/><g transform="translate(74.910113926 101.371212567)"><g transform="matrix(1 0 0 -1 0 7.238)"><use xlink:href="#g5D279FAE8446F75B298AD3FAD5B8DC82" x="0" y="0" fill="#000000" fill-rule="nonzero"/><use xlink:href="#g9787446D80B11CDE2529516BF2D1ACCA" x="5.951" y="0" fill="#000000" fill-rule="nonzero"/><use xlink:href="#gEEC20B8710F33D8A6862F31BD530D033" x="10.978" y="0" fill="#000000" fill-rule="nonzero"/><use xlink:href="#gBFE09989B12480F1B7796D69E0D7287C" x="16.478" y="0" fill="#000000" fill-rule="nonzero"/><use xlink:href="#g4E5D026409004C23B788CF76C0C2AF69" x="21.395" y="0" fill="#000000" fill-rule="nonzero"/><use xlink:href="#gDD50B131DFBA2C7EA73123CA4C98C33" x="28.435" y="0" fill="#000000" fill-rule="nonzero"/><use xlink:href="#gEB245AFE22C398BE296AC5F7AF6ADF12" x="31.416" y="0" fill="#000000" fill-rule="nonzero"/><use xlink:href="#gDE43A8C462B0904D776B82D943404709" x="40.128" y="0" fill="#000000" fill-rule="nonzero"/><use xlink:href="#g36F90904A4043C6A677E73471A30013F" x="46.288" y="0" fill="#000000" fill-rule="nonzero"/><use xlink:href="#gBFE09989B12480F1B7796D69E0D7287C" x="49.192" y="0" fill="#000000" fill-rule="nonzero"/></g></g><path fill="#f7f097" fill-rule="nonzero" transform="translate(180.442633643 73.700787402)" d="M 0 0v 8.503937008h 8.503937008v -8.503937008h -8.503937008Z "/><path fill="none" transform="translate(192.348145454 73.696164109)" d="M 0 0h 59.603027344v 8.513183594h -59.603027344v -8.513183594Z "/><g transform="translate(192.348145362 73.696164094)"><g transform="matrix(1 0 0 -1 0 8.357421875)"><use xlink:href="#g421E0A5ADBCD098867DA851B84E834" x="0" y="0" fill="#737373" fill-rule="nonzero"/><use xlink:href="#g6D4DFDD4F715F0478A22BD43EF52FB29" x="6.622558594" y="0" fill="#737373" fill-rule="nonzero"/><use xlink:href="#g421E0A5ADBCD098867DA851B84E834" x="13.245117188" y="0" fill="#737373" fill-rule="nonzero"/><use xlink:href="#gAADD827615A87718B253F62B6667E88B" x="19.867675781" y="0" fill="#737373" fill-rule="nonzero"/><use xlink:href="#g24C5EF3E97413E96462F170081C64B0D" x="26.490234375" y="0" fill="#737373" fill-rule="nonzero"/><use xlink:href="#g421E0A5ADBCD098867DA851B84E834" x="33.112792969" y="0" fill="#737373" fill-rule="nonzero"/><use xlink:href="#g6D4DFDD4F715F0478A22BD43EF52FB29" x="39.735351563" y="0" fill="#737373" fill-rule="nonzero"/><use xlink:href="#g421E0A5ADBCD098867DA851B84E834" x="46.357910156" y="0" fill="#737373" fill-rule="nonzero"/><use xlink:href="#gB6CBDFB21EF63DACD0D4EF42A63EF319" x="52.98046875" y="0" fill="#737373" fill-rule="nonzero"/></g></g><path fill="none" transform="translate(255.352747601 74.278755906)" d="M 0 0h 51.887v 7.348h -51.887v -7.348Z "/><g transform="translate(255.352747538 74.27875578)"><g transform="matrix(1 0 0 -1 0 7.238)"><use xlink:href="#gB7A7981F9D6FEBAF4A3C34CF9A3FA37" x="0" y="0" fill="#000000" fill-rule="nonzero"/><use xlink:href="#gBFE09989B12480F1B7796D69E0D7287C" x="6.457" y="0" fill="#000000" fill-rule="nonzero"/><use xlink:href="#g36F90904A4043C6A677E73471A30013F" x="11.374" y="0" fill="#000000" fill-rule="nonzero"/><use xlink:href="#g5E76F8DBE7C3C7A9A461E8EC1D70F6FB" x="14.278" y="0" fill="#000000" fill-rule="nonzero"/><use xlink:href="#g3CE57ED74C3DBA63F54F2735C0855367" x="19.899" y="0" fill="#000000" fill-rule="nonzero"/><use xlink:href="#g9787446D80B11CDE2529516BF2D1ACCA" x="24.607" y="0" fill="#000000" fill-rule="nonzero"/><use xlink:href="#gB38329E71763B8BD4CF776D24C5AFFE1" x="29.634" y="0" fill="#000000" fill-rule="nonzero"/><use xlink:href="#gDD50B131DFBA2C7EA73123CA4C98C33" x="33.11" y="0" fill="#000000" fill-rule="nonzero"/><use xlink:href="#g5E76F8DBE7C3C7A9A461E8EC1D70F6FB" x="36.091" y="0" fill="#000000" fill-rule="nonzero"/><use xlink:href="#gEB245AFE22C398BE296AC5F7AF6ADF12" x="41.635" y="0" fill="#000000" fill-rule="nonzero"/><use xlink:href="#g4E5D026409004C23B788CF76C0C2AF69" x="47.597" y="0" fill="#000000" fill-rule="nonzero"/></g></g><path fill="#73b1d5" fill-rule="nonzero" transform="translate(180.442633643 87.874015748)" d="M 0 0v 8.503937008h 8.503937008v -8.503937008h -8.503937008Z "/><path fill="none" transform="translate(192.348145454 87.869392455)" d="M 0 0h 59.603027344v 8.513183594h -59.603027344v -8.513183594Z "/><g transform="translate(192.348145362 87.869392441)"><g transform="matrix(1 0 0 -1 0 8.357421875)"><use xlink:href="#g421E0A5ADBCD098867DA851B84E834" x="0" y="0" fill="#737373" fill-rule="nonzero"/><use xlink:href="#g6D4DFDD4F715F0478A22BD43EF52FB29" x="6.622558594" y="0" fill="#737373" fill-rule="nonzero"/><use xlink:href="#g421E0A5ADBCD098867DA851B84E834" x="13.245117188" y="0" fill="#737373" fill-rule="nonzero"/><use xlink:href="#g5BD1592FFDAF366D0A6AA2DE0EFAB0E1" x="19.867675781" y="0" fill="#737373" fill-rule="nonzero"/><use xlink:href="#g24C5EF3E97413E96462F170081C64B0D" x="26.490234375" y="0" fill="#737373" fill-rule="nonzero"/><use xlink:href="#g421E0A5ADBCD098867DA851B84E834" x="33.112792969" y="0" fill="#737373" fill-rule="nonzero"/><use xlink:href="#g6D4DFDD4F715F0478A22BD43EF52FB29" x="39.735351563" y="0" fill="#737373" fill-rule="nonzero"/><use xlink:href="#g421E0A5ADBCD098867DA851B84E834" x="46.357910156" y="0" fill="#737373" fill-rule="nonzero"/><use xlink:href="#gE9FF0365C6FE23E82CA3D1D6C002494D" x="52.98046875" y="0" fill="#737373" fill-rule="nonzero"/></g></g><path fill="none" transform="translate(255.352747601 87.197984252)" d="M 0 0h 85.69v 9.856h -85.69v -9.856Z "/><g transform="translate(255.352747569 87.19798422)"><g transform="matrix(1 0 0 -1 0 7.238)"><use xlink:href="#g924FA4C14A01FD00FF0ECA5EF99A5E1B" x="0" y="0" fill="#000000" fill-rule="nonzero"/><use xlink:href="#gBFE09989B12480F1B7796D69E0D7287C" x="8.03" y="0" fill="#000000" fill-rule="nonzero"/><use xlink:href="#g9787446D80B11CDE2529516BF2D1ACCA" x="12.947" y="0" fill="#000000" fill-rule="nonzero"/><use xlink:href="#g7FF42B92D9D80783DC2C1CC317042C56" x="17.974" y="0" fill="#000000" fill-rule="nonzero"/><use xlink:href="#gBFE09989B12480F1B7796D69E0D7287C" x="23.54" y="0" fill="#000000" fill-rule="nonzero"/><use xlink:href="#gD91D82170ED5F219BEA1B53E81DC19AF" x="28.457" y="0" fill="#000000" fill-rule="nonzero"/><use xlink:href="#gF9560AC257AD9BBCF737B0F29E336B2F" x="35.299" y="0" fill="#000000" fill-rule="nonzero"/><use xlink:href="#g9787446D80B11CDE2529516BF2D1ACCA" x="41.008" y="0" fill="#000000" fill-rule="nonzero"/><use xlink:href="#gD91D82170ED5F219BEA1B53E81DC19AF" x="46.035" y="0" fill="#000000" fill-rule="nonzero"/><use xlink:href="#g9787446D80B11CDE2529516BF2D1ACCA" x="50.127" y="0" fill="#000000" fill-rule="nonzero"/><use xlink:href="#gEEC20B8710F33D8A6862F31BD530D033" x="55.154" y="0" fill="#000000" fill-rule="nonzero"/><use xlink:href="#gD91D82170ED5F219BEA1B53E81DC19AF" x="60.654" y="0" fill="#000000" fill-rule="nonzero"/><use xlink:href="#g9787446D80B11CDE2529516BF2D1ACCA" x="64.746" y="0" fill="#000000" fill-rule="nonzero"/><use xlink:href="#gF9560AC257AD9BBCF737B0F29E336B2F" x="69.773" y="0" fill="#000000" fill-rule="nonzero"/><use xlink:href="#g525D29E90AD4E5DCC336104F62B1760B" x="75.482" y="0" fill="#000000" fill-rule="nonzero"/><use xlink:href="#g4E5D026409004C23B788CF76C0C2AF69" x="81.4" y="0" fill="#000000" fill-rule="nonzero"/></g></g><path fill="#e8a673" fill-rule="nonzero" transform="translate(180.442633643 102.047244094)" d="M 0 0v 8.503937008h 8.503937008v -8.503937008h -8.503937008Z "/><path fill="none" transform="translate(192.348145454 102.042620802)" d="M 0 0h 59.603027344v 8.513183594h -59.603027344v -8.513183594Z "/><g transform="translate(192.348145362 102.042620787)"><g transform="matrix(1 0 0 -1 0 8.357421875)"><use xlink:href="#g421E0A5ADBCD098867DA851B84E834" x="0" y="0" fill="#737373" fill-rule="nonzero"/><use xlink:href="#g6D4DFDD4F715F0478A22BD43EF52FB29" x="6.622558594" y="0" fill="#737373" fill-rule="nonzero"/><use xlink:href="#g5A9BA6F313E5E5834AC142DE8ADA00FB" x="13.245117188" y="0" fill="#737373" fill-rule="nonzero"/><use xlink:href="#gF4B7923054E61831FA2928FF88D480B9" x="19.867675781" y="0" fill="#737373" fill-rule="nonzero"/><use xlink:href="#g24C5EF3E97413E96462F170081C64B0D" x="26.490234375" y="0" fill="#737373" fill-rule="nonzero"/><use xlink:href="#g421E0A5ADBCD098867DA851B84E834" x="33.112792969" y="0" fill="#737373" fill-rule="nonzero"/><use xlink:href="#g6D4DFDD4F715F0478A22BD43EF52FB29" x="39.735351563" y="0" fill="#737373" fill-rule="nonzero"/><use xlink:href="#g5A9BA6F313E5E5834AC142DE8ADA00FB" x="46.357910156" y="0" fill="#737373" fill-rule="nonzero"/><use xlink:href="#g976997E6FF52821E2A324136FEF06B0E" x="52.98046875" y="0" fill="#737373" fill-rule="nonzero"/></g></g><path fill="none" transform="translate(255.352747601 101.833212598)" d="M 0 0h 67.969v 8.932h -67.969v -8.932Z "/><g transform="translate(255.352747569 101.833212472)"><g transform="matrix(1 0 0 -1 0 7.238)"><use xlink:href="#gBFE09989B12480F1B7796D69E0D7287C" x="0" y="0" fill="#000000" fill-rule="nonzero"/><use xlink:href="#gB1B577994620152C41DADBFDB791E674" x="4.917" y="0" fill="#000000" fill-rule="nonzero"/><use xlink:href="#g36F90904A4043C6A677E73471A30013F" x="10.263" y="0" fill="#000000" fill-rule="nonzero"/><use xlink:href="#gD14A2C15FA7E7E6DA17092C3143CABC8" x="13.167" y="0" fill="#000000" fill-rule="nonzero"/><use xlink:href="#g9787446D80B11CDE2529516BF2D1ACCA" x="16.577" y="0" fill="#000000" fill-rule="nonzero"/><use xlink:href="#gEB245AFE22C398BE296AC5F7AF6ADF12" x="21.604" y="0" fill="#000000" fill-rule="nonzero"/><use xlink:href="#gBFE09989B12480F1B7796D69E0D7287C" x="27.566" y="0" fill="#000000" fill-rule="nonzero"/><use xlink:href="#g162FFC49A5D51E5E20A023FB65F6BB60" x="32.406" y="0" fill="#000000" fill-rule="nonzero"/><use xlink:href="#g1A21308A8093B77381851E026859DC0C" x="43.373" y="0" fill="#000000" fill-rule="nonzero"/><use xlink:href="#gDF921A3EC3F05904B9D94C711F731EC4" x="47.091" y="0" fill="#000000" fill-rule="nonzero"/><use xlink:href="#g5D279FAE8446F75B298AD3FAD5B8DC82" x="55.891" y="0" fill="#000000" fill-rule="nonzero"/><use xlink:href="#g14CB754CE297B694D18D364D9C1BAD84" x="61.842" y="0" fill="#000000" fill-rule="nonzero"/></g></g></g><defs><symbol id="g421E0A5ADBCD098867DA851B84E834" overflow="visible"><path d="M 0 0m 2.594238281 4.028320313q 0 0.295410156 0.206787109 0.510253906q 0.206787109 0.21484375 0.496826172 0.21484375q 0.30078125 0 0.515625 -0.21484375q 0.21484375 -0.21484375 0.21484375 -0.510253906q 0 -0.30078125 -0.212158203 -0.510253906q -0.212158203 -0.209472656 -0.518310547 -0.209472656q -0.30078125 0 -0.502197266 0.204101563q -0.201416016 0.204101563 -0.201416016 0.515625Z m 0.714355469 3.276367188q -0.757324219 0 -1.130615234 -0.81640625q -0.373291016 -0.81640625 -0.373291016 -2.486816406q 0 -1.665039063 0.373291016 -2.481445313q 0.373291016 -0.81640625 1.130615234 -0.81640625q 0.762695313 0 1.135986328 0.81640625q 0.373291016 0.81640625 0.373291016 2.481445313q 0 1.670410156 -0.373291016 2.486816406q -0.373291016 0.81640625 -1.135986328 0.81640625Z m 0 0.859375q 1.283691406 0 1.941650391 -1.052734375q 0.657958984 -1.052734375 0.657958984 -3.109863281q 0 -2.051757813 -0.657958984 -3.104492188q -0.657958984 -1.052734375 -1.941650391 -1.052734375q -1.283691406 0 -1.938964844 1.052734375q -0.655273438 1.052734375 -0.655273438 3.104492188q 0 2.057128906 0.655273438 3.109863281q 0.655273438 1.052734375 1.938964844 1.052734375Z "/></symbol><symbol id="g6ED849282110A660B7843606B84CF9D9" overflow="visible"><path d="M 0 0m 3.947753906 7.030761719l -2.529785156 -4.237792969h 2.529785156v 4.237792969Z m -0.177246094 0.98828125h 1.256835938v -5.226074219h 1.068847656v -0.880859375h -1.068847656v -1.912109375h -1.079589844v 1.912109375h -3.399902344v 1.025878906l 3.22265625 5.081054688Z "/></symbol><symbol id="g743CE0ADF55C34EA4D2D3E581972D07E" overflow="visible"><path d="M 0 0m 2.341796875 0.891601563q 1.369628906 0 1.912109375 0.674072266q 0.542480469 0.674072266 0.542480469 2.435791016q 0 1.777832031 -0.539794922 2.451904297q -0.539794922 0.674072266 -1.914794922 0.674072266h -0.515625v -6.235839844h 0.515625Z m 0.021484375 7.127441406q 1.836914063 0 2.70703125 -0.977539063q 0.870117188 -0.977539063 0.870117188 -3.040039063q 0 -2.051757813 -0.870117188 -3.026611328q -0.870117188 -0.974853516 -2.70703125 -0.974853516h -1.627441406v 8.019042969h 1.627441406Z "/></symbol><symbol id="g5B0566EB683A7AF8C1D13910CECB217A" overflow="visible"><path d="M 0 0m 1.111816406 8.019042969h 4.060546875v -0.913085938h -3.072265625v -1.971191406q 0.230957031 0.0859375 0.464599609 0.126220703q 0.233642578 0.040283203 0.469970703 0.040283203q 1.24609375 0 1.9765625 -0.735839844q 0.73046875 -0.735839844 0.73046875 -1.992675781q 0 -1.267578125 -0.765380859 -1.998046875q -0.765380859 -0.73046875 -2.092041016 -0.73046875q -0.639160156 0 -1.168212891 0.0859375q -0.529052734 0.0859375 -0.947998047 0.2578125v 1.101074219q 0.494140625 -0.268554688 0.993652344 -0.400146484q 0.499511719 -0.131591797 1.020507813 -0.131591797q 0.896972656 0 1.383056641 0.47265625q 0.486083984 0.47265625 0.486083984 1.342773438q 0 0.859375 -0.502197266 1.337402344q -0.502197266 0.478027344 -1.399169922 0.478027344q -0.435058594 0 -0.848632813 -0.099365234q -0.413574219 -0.099365234 -0.789550781 -0.298095703v 4.028320313Z "/></symbol><symbol id="gDD031D65CFEF931E7F776B85663CB2DF" overflow="visible"><path d="M 0 0m 3.30859375 7.062988281l -1.144042969 -4.103515625h 2.288085938l -1.144042969 4.103515625Z m -0.655273438 0.956054688h 1.315917969l 2.454589844 -8.019042969h -1.122558594l -0.590820313 2.089355469h -2.809082031l -0.580078125 -2.089355469h -1.122558594l 2.454589844 8.019042969Z "/></symbol><symbol id="gE9FF0365C6FE23E82CA3D1D6C002494D" overflow="visible"><path d="M 0 0m 3.201171875 3.555664063q 0.692871094 0 1.087646484 0.499511719q 0.394775391 0.499511719 0.394775391 1.380371094q 0 0.880859375 -0.394775391 1.380371094q -0.394775391 0.499511719 -1.087646484 0.499511719q -0.719726563 0 -1.084960938 -0.475341797q -0.365234375 -0.475341797 -0.365234375 -1.404541016q 0 -0.934570313 0.362548828 -1.407226563q 0.362548828 -0.47265625 1.087646484 -0.47265625Z m -1.93359375 -3.389160156v 0.999023438q 0.338378906 -0.198730469 0.719726563 -0.303466797q 0.381347656 -0.104736328 0.794921875 -0.104736328q 1.03125 0 1.560302734 0.776123047q 0.529052734 0.776123047 0.529052734 2.285400391q -0.252441406 -0.537109375 -0.708984375 -0.824462891q -0.456542969 -0.287353516 -1.047363281 -0.287353516q -1.16015625 0 -1.796630859 0.714355469q -0.636474609 0.714355469 -0.636474609 2.024902344q 0 1.294433594 0.652587891 2.006103516q 0.652587891 0.711669922 1.844970703 0.711669922q 1.396484375 0 2.046386719 -1.004394531q 0.649902344 -1.004394531 0.649902344 -3.158203125q 0 -2.024902344 -0.781494141 -3.091064453q -0.781494141 -1.066162109 -2.269287109 -1.066162109q -0.392089844 0 -0.789550781 0.083251953q -0.397460938 0.083251953 -0.768066406 0.239013672Z "/></symbol><symbol id="g5A9BA6F313E5E5834AC142DE8ADA00FB" overflow="visible"><path d="M 0 0m 4.16796875 4.291503906q 0.789550781 -0.209472656 1.208496094 -0.743896484q 0.418945313 -0.534423828 0.418945313 -1.334716797q 0 -1.106445313 -0.743896484 -1.737548828q -0.743896484 -0.631103516 -2.059814453 -0.631103516q -0.553222656 0 -1.127929688 0.102050781q -0.574707031 0.102050781 -1.127929688 0.295410156v 1.079589844q 0.547851563 -0.284667969 1.079589844 -0.424316406q 0.531738281 -0.139648438 1.058105469 -0.139648438q 0.891601563 0 1.369628906 0.402832031q 0.478027344 0.402832031 0.478027344 1.16015625q 0 0.698242188 -0.478027344 1.109130859q -0.478027344 0.410888672 -1.294433594 0.410888672h -0.827148438v 0.891601563h 0.827148438q 0.746582031 0 1.165527344 0.327636719q 0.418945313 0.327636719 0.418945313 0.913085938q 0 0.617675781 -0.389404297 0.947998047q -0.389404297 0.330322266 -1.109130859 0.330322266q -0.478027344 0 -0.98828125 -0.107421875q -0.510253906 -0.107421875 -1.068847656 -0.322265625v 0.999023438q 0.649902344 0.171875 1.157470703 0.2578125q 0.507568359 0.0859375 0.899658203 0.0859375q 1.170898438 0 1.871826172 -0.588134766q 0.700927734 -0.588134766 0.700927734 -1.560302734q 0 -0.660644531 -0.367919922 -1.101074219q -0.367919922 -0.440429688 -1.071533203 -0.623046875Z "/></symbol><symbol id="g976997E6FF52821E2A324136FEF06B0E" overflow="visible"><path d="M 0 0m 1.251464844 8.019042969h 4.721191406v -0.913085938h -3.630859375v -2.36328125h 3.292480469v -0.913085938h -3.292480469v -3.829589844h -1.090332031v 8.019042969Z "/></symbol><symbol id="gDBE42591D9E1BCA79454487872914D01" overflow="visible"><path d="M 0 0m 3.770507813 8.405761719v -11h -0.923828125v 11h 0.923828125Z "/></symbol><symbol id="g99DC383FB54FDEFEE1A91040878DCF25" overflow="visible"><path d="M 0 0m 0.461914063 8.019042969h 1.450195313l 1.385742188 -4.08203125l 1.396484375 4.08203125h 1.455566406v -8.019042969h -1.004394531v 7.084472656l -1.428710938 -4.227050781h -0.821777344l -1.434082031 4.227050781v -7.084472656h -0.999023438v 8.019042969Z "/></symbol><symbol id="g36AF1DF1E7404F442B6EFD9CBDEC35A" overflow="visible"><path d="M 0 0m 0.956054688 8.019042969h 5.204589844v -0.827148438l -4.189453125 -6.278808594h 4.307617188v -0.913085938h -5.440917969v 0.827148438l 4.076660156 6.278808594h -3.958496094v 0.913085938Z "/></symbol><symbol id="g8A2D6BC07E98AE390D7977EF9FD34E6E" overflow="visible"><path d="M 0 0m 2.626464844 1.638183594h 1.353515625v -1.638183594h -1.353515625v 1.638183594Z "/></symbol><symbol id="gF161780E27A0444EF11E7889E4C09D8C" overflow="visible"><path d="M 0 0m 1.450195313 0.913085938h 1.686523438v 6.128417969l -1.815429688 -0.408203125v 0.98828125l 1.8046875 0.397460938h 1.084960938v -7.105957031h 1.665039063v -0.913085938h -4.42578125v 0.913085938Z "/></symbol><symbol id="g1A892A96C342815D1F47F594569B2B9" overflow="visible"><path d="M 0 0m 1.981933594 3.829589844v -2.937988281h 1.283691406q 0.9453125 0 1.348144531 0.330322266q 0.402832031 0.330322266 0.402832031 1.087646484q 0 0.784179688 -0.424316406 1.152099609q -0.424316406 0.367919922 -1.326660156 0.367919922h -1.283691406Z m 0 3.297851563v -2.416992188h 1.262207031q 0.784179688 0 1.135986328 0.30078125q 0.351806641 0.30078125 0.351806641 0.972167969q 0 0.606933594 -0.346435547 0.875488281q -0.346435547 0.268554688 -1.141357422 0.268554688h -1.262207031Z m -1.090332031 0.891601563h 2.374023438q 1.229980469 0 1.895996094 -0.531738281q 0.666015625 -0.531738281 0.666015625 -1.50390625q 0 -0.735839844 -0.351806641 -1.16015625q -0.351806641 -0.424316406 -1.055419922 -0.531738281q 0.789550781 -0.118164063 1.238037109 -0.674072266q 0.448486328 -0.555908203 0.448486328 -1.415283203q 0 -1.090332031 -0.714355469 -1.646240234q -0.714355469 -0.555908203 -2.126953125 -0.555908203h -2.374023438v 8.019042969Z "/></symbol><symbol id="g5BD1592FFDAF366D0A6AA2DE0EFAB0E1" overflow="visible"><path d="M 0 0m 3.30859375 3.808105469q -0.725097656 0 -1.119873047 -0.405517578q -0.394775391 -0.405517578 -0.394775391 -1.146728516q 0 -0.741210938 0.400146484 -1.152099609q 0.400146484 -0.410888672 1.114501953 -0.410888672q 0.73046875 0 1.125244141 0.405517578q 0.394775391 0.405517578 0.394775391 1.157470703q 0 0.735839844 -0.400146484 1.144042969q -0.400146484 0.408203125 -1.119873047 0.408203125Z m -0.9453125 0.451171875q -0.692871094 0.177246094 -1.082275391 0.660644531q -0.389404297 0.483398438 -0.389404297 1.165527344q 0 0.956054688 0.649902344 1.517333984q 0.649902344 0.561279297 1.767089844 0.561279297q 1.122558594 0 1.772460938 -0.561279297q 0.649902344 -0.561279297 0.649902344 -1.517333984q 0 -0.682128906 -0.389404297 -1.165527344q -0.389404297 -0.483398438 -1.082275391 -0.660644531q 0.805664063 -0.177246094 1.232666016 -0.714355469q 0.427001953 -0.537109375 0.427001953 -1.391113281q 0 -1.084960938 -0.692871094 -1.697265625q -0.692871094 -0.612304688 -1.917480469 -0.612304688q -1.224609375 0 -1.914794922 0.609619141q -0.690185547 0.609619141 -0.690185547 1.689208984q 0 0.859375 0.427001953 1.399169922q 0.427001953 0.539794922 1.232666016 0.717041016Z m -0.392089844 1.724121094q 0 -0.64453125 0.34375 -0.982910156q 0.34375 -0.338378906 0.993652344 -0.338378906q 0.655273438 0 0.999023438 0.338378906q 0.34375 0.338378906 0.34375 0.982910156q 0 0.655273438 -0.341064453 0.999023438q -0.341064453 0.34375 -1.001708984 0.34375q -0.649902344 0 -0.993652344 -0.346435547q -0.34375 -0.346435547 -0.34375 -0.996337891Z "/></symbol><symbol id="gF1D559A8812F23DF334C1B3BF3593159" overflow="visible"><path d="M 0 0m 5.575195313 2.927246094q 0 0.692871094 -0.34375 1.109130859q -0.34375 0.416259766 -0.918457031 0.416259766q -0.574707031 0 -0.921142578 -0.416259766q -0.346435547 -0.416259766 -0.346435547 -1.109130859q 0 -0.698242188 0.346435547 -1.114501953q 0.346435547 -0.416259766 0.921142578 -0.416259766q 0.574707031 0 0.918457031 0.416259766q 0.34375 0.416259766 0.34375 1.114501953Z m 0.751953125 -2.202148438h -0.7734375v 0.596191406q -0.198730469 -0.338378906 -0.550537109 -0.520996094q -0.351806641 -0.182617188 -0.792236328 -0.182617188q -0.864746094 0 -1.431396484 0.649902344q -0.566650391 0.649902344 -0.566650391 1.659667969q 0 1.009765625 0.566650391 1.659667969q 0.566650391 0.649902344 1.431396484 0.649902344q 0.4296875 0 0.789550781 -0.187988281q 0.359863281 -0.187988281 0.553222656 -0.515625v 0.338378906q 0 0.837890625 -0.47265625 1.348144531q -0.47265625 0.510253906 -1.251464844 0.510253906q -1.321289063 0 -2.102783203 -1.028564453q -0.781494141 -1.028564453 -0.781494141 -2.784912109q 0 -1.767089844 0.886230469 -2.814453125q 0.886230469 -1.047363281 2.357910156 -1.047363281q 0.290039063 0 0.580078125 0.053710938q 0.290039063 0.053710938 0.596191406 0.166503906l 0.2578125 -0.725097656q -0.338378906 -0.134277344 -0.668701172 -0.198730469q -0.330322266 -0.064453125 -0.641845703 -0.064453125q -1.917480469 0 -3.042724609 1.251464844q -1.125244141 1.251464844 -1.125244141 3.378417969q 0 2.094726563 1.009765625 3.335449219q 1.009765625 1.240722656 2.70703125 1.240722656q 1.122558594 0 1.793945313 -0.714355469q 0.671386719 -0.714355469 0.671386719 -1.917480469v -4.135742188Z "/></symbol><symbol id="g9EF032262EADC7E7D18BAD6EE644609D" overflow="visible"><path d="M 0 0m 2.003417969 0.913085938h 3.684570313v -0.913085938h -4.871582031v 0.913085938q 1.004394531 1.058105469 1.756347656 1.869140625q 0.751953125 0.811035156 1.036621094 1.144042969q 0.537109375 0.655273438 0.725097656 1.060791016q 0.187988281 0.405517578 0.187988281 0.829833984q 0 0.671386719 -0.394775391 1.052734375q -0.394775391 0.381347656 -1.082275391 0.381347656q -0.488769531 0 -1.025878906 -0.177246094q -0.537109375 -0.177246094 -1.138671875 -0.537109375v 1.095703125q 0.553222656 0.263183594 1.087646484 0.397460938q 0.534423828 0.134277344 1.055419922 0.134277344q 1.176269531 0 1.893310547 -0.625732422q 0.717041016 -0.625732422 0.717041016 -1.640869141q 0 -0.515625 -0.239013672 -1.03125q -0.239013672 -0.515625 -0.776123047 -1.138671875q -0.30078125 -0.349121094 -0.872802734 -0.966796875q -0.572021484 -0.617675781 -1.742919922 -1.84765625Z "/></symbol><symbol id="g6D4DFDD4F715F0478A22BD43EF52FB29" overflow="visible"><path d="M 0 0m 6.004882813 6.015625l -2.153808594 -2.87890625l 2.36328125 -3.13671875h -1.144042969l -1.76171875 2.411621094l -1.756347656 -2.411621094h -1.144042969l 2.36328125 3.13671875l -2.153808594 2.87890625h 1.095703125l 1.595214844 -2.175292969l 1.584472656 2.175292969h 1.111816406Z "/></symbol><symbol id="g24C5EF3E97413E96462F170081C64B0D" overflow="visible"><path d="M 0 0m 0 3.399902344h 6.622558594v -0.757324219h -6.622558594v 0.757324219Z "/></symbol><symbol id="gF697F4206A782C3B42F4E05D5EA9B2A0" overflow="visible"><path d="M 0 0m 1.628 7.095c -0.396 0 -0.979 0.011 -1.419 0.022c -0.066 -0.066 -0.066 -0.297 0 -0.363c 0.77 -0.033 0.957 -0.088 0.957 -1.001v -4.411c 0 -0.913 -0.187 -0.968 -0.957 -1.001c -0.066 -0.066 -0.066 -0.297 0 -0.363c 0.429 0.011 1.012 0.022 1.43 0.022c 0.407 0 0.869 -0.022 2.002 -0.022c 1.551 0 3.597 0.704 3.597 3.41c 0 2.046 -1.683 3.729 -3.795 3.729c -0.781 0 -1.386 -0.022 -1.815 -0.022Z m 0.473 -6.171v 5.28c 0 0.385 0.385 0.539 0.924 0.539c 2.376 0 3.157 -1.925 3.157 -3.619c 0 -2.222 -1.331 -2.772 -2.882 -2.772c -1.078 0 -1.199 0.22 -1.199 0.572Z "/></symbol><symbol id="g214031308B8AA922748E7B1D12139F87" overflow="visible"><path d="M 0 0m 7.326 3.619c 0 2.277 -1.573 3.619 -3.542 3.619c -2.134 0 -3.377 -1.694 -3.377 -3.828c 0 -2.167 1.573 -3.52 3.443 -3.52c 1.221 0 2.189 0.528 2.794 1.386c 0.44 0.627 0.682 1.419 0.682 2.343Z m -3.685 3.223c 1.452 0 2.629 -1.21 2.629 -3.432c 0 -1.969 -0.946 -3.124 -2.2 -3.124c -1.342 0 -2.607 1.199 -2.607 3.311c 0 2.31 1.089 3.245 2.178 3.245Z "/></symbol><symbol id="gD355BF4F81D64465081A1B40E1986DB4" overflow="visible"><path d="M 0 0m 4.345 6.941c -0.638 0.088 -0.616 0.297 -1.694 0.297c -1.111 0 -2.09 -0.737 -2.09 -1.903c 0 -1.155 0.957 -1.683 1.925 -2.057c 0.66 -0.253 1.474 -0.561 1.474 -1.639c 0 -0.891 -0.495 -1.353 -1.375 -1.353c -1.023 0 -1.683 0.473 -1.925 1.562c -0.143 0.044 -0.253 0.022 -0.363 -0.033c 0.044 -0.847 0.088 -1.133 0.22 -1.672c 0.693 0 1.001 -0.253 1.98 -0.253c 0.495 0 0.968 0.121 1.353 0.363c 0.638 0.396 1.034 1.067 1.034 1.771c 0 1.166 -0.88 1.683 -1.782 2.024c -0.66 0.242 -1.76 0.66 -1.76 1.584c 0 0.616 0.561 1.232 1.21 1.232c 1.067 0 1.408 -0.682 1.628 -1.408c 0.121 -0.022 0.264 -0.011 0.363 0.066c -0.044 0.528 -0.088 0.836 -0.198 1.419Z "/></symbol><symbol id="gF9510C9866DCA99AFC3FC8A8DB318BDC" overflow="visible"><path d="M 0 0m 1.87 3.938c -0.011 0.33 -0.033 0.726 -0.088 0.836c -0.022 0.055 -0.044 0.088 -0.132 0.088c -0.308 -0.121 -0.594 -0.22 -1.353 -0.319c -0.022 -0.066 0 -0.242 0.022 -0.308c 0.594 -0.055 0.715 -0.11 0.715 -0.748v -2.145c 0 -0.902 -0.143 -0.957 -0.748 -1.001c -0.066 -0.066 -0.066 -0.297 0 -0.363c 0.33 0.011 0.748 0.022 1.188 0.022c 0.44 0 0.781 -0.011 1.111 -0.022c 0.066 0.066 0.066 0.297 0 0.363c -0.561 0.055 -0.682 0.099 -0.682 1.001v 1.804c 0 0.231 0.099 0.363 0.187 0.462c 0.44 0.429 0.847 0.649 1.188 0.649c 0.418 0 0.726 -0.264 0.726 -1.001v -1.914c 0 -0.902 -0.088 -0.957 -0.682 -1.001c -0.055 -0.066 -0.055 -0.297 0 -0.363c 0.275 0.011 0.682 0.022 1.122 0.022c 0.44 0 0.803 -0.011 1.078 -0.022c 0.055 0.066 0.055 0.297 0 0.363c -0.55 0.044 -0.649 0.099 -0.649 1.001v 1.749c 0 0.154 0 0.308 -0.011 0.44c 0.528 0.583 1.023 0.726 1.452 0.726c 0.418 0 0.66 -0.242 0.66 -0.979v -1.936c 0 -0.902 -0.11 -0.957 -0.682 -1.001c -0.055 -0.066 -0.055 -0.297 0 -0.363c 0.275 0.011 0.682 0.022 1.122 0.022c 0.44 0 0.825 -0.011 1.133 -0.022c 0.055 0.066 0.055 0.297 0 0.363c -0.605 0.044 -0.704 0.099 -0.704 1.001v 1.738c 0 0.979 -0.165 1.749 -1.133 1.749c -0.561 0 -1.243 -0.209 -1.815 -0.814c -0.033 -0.033 -0.099 -0.088 -0.121 0.011c -0.099 0.451 -0.528 0.803 -1.1 0.803c -0.638 0 -1.21 -0.374 -1.672 -0.891c -0.055 -0.055 -0.121 -0.132 -0.132 0Z "/></symbol><symbol id="g9787446D80B11CDE2529516BF2D1ACCA" overflow="visible"><path d="M 0 0m 3.223 0.528c 0.066 -0.341 0.187 -0.638 0.737 -0.638c 0.418 0 0.814 0.187 1.045 0.407c -0.022 0.132 -0.066 0.231 -0.187 0.297c -0.077 -0.066 -0.264 -0.176 -0.407 -0.176c -0.319 0 -0.33 0.429 -0.33 0.935v 1.617c 0 1.562 -0.858 1.859 -1.661 1.859c -0.902 0 -1.815 -0.594 -1.815 -1.221c 0 -0.264 0.132 -0.396 0.385 -0.396c 0.319 0 0.517 0.231 0.517 0.374c 0 0.077 -0.011 0.154 -0.033 0.198c -0.011 0.033 -0.022 0.099 -0.022 0.22c 0 0.341 0.462 0.462 0.88 0.462c 0.374 0 0.891 -0.187 0.891 -1.43c 0 -0.077 -0.033 -0.121 -0.066 -0.132l -0.946 -0.231c -1.056 -0.264 -1.815 -0.847 -1.815 -1.595c 0 -0.902 0.616 -1.188 1.386 -1.188c 0.385 0 0.715 0.088 1.199 0.462l 0.22 0.176Z m 0 2.035v -1.452c 0 -0.143 -0.066 -0.22 -0.154 -0.286c -0.286 -0.231 -0.66 -0.484 -0.968 -0.484c -0.55 0 -0.792 0.44 -0.792 0.781c 0 0.495 0.231 1.001 1.045 1.21Z "/></symbol><symbol id="gEEC20B8710F33D8A6862F31BD530D033" overflow="visible"><path d="M 0 0m 4.884 4.257c 0.209 0 0.407 0.198 0.407 0.418c 0 0.231 -0.209 0.407 -0.506 0.407c -0.286 0 -0.814 -0.187 -1.1 -0.561c -0.132 0.088 -0.495 0.308 -1.144 0.308c -0.979 0 -1.881 -0.66 -1.881 -1.672c 0 -0.594 0.264 -0.935 0.572 -1.232c -0.308 -0.264 -0.484 -0.737 -0.484 -1.111c 0 -0.396 0.22 -0.704 0.506 -0.847c -0.594 -0.352 -0.902 -0.858 -0.902 -1.331c 0 -0.957 0.902 -1.254 1.749 -1.254c 1.485 0 3.091 0.715 3.091 1.903c 0 0.352 -0.165 0.627 -0.484 0.891c -0.429 0.352 -1.199 0.363 -1.606 0.363c -0.198 0 -0.473 -0.022 -0.737 -0.055c -0.165 -0.011 -0.275 -0.022 -0.33 -0.022c -0.319 0 -0.704 0.154 -0.704 0.627c 0 0.22 0.066 0.451 0.198 0.638c 0.264 -0.154 0.572 -0.231 1.001 -0.231c 0.968 0 1.859 0.605 1.859 1.683c 0 0.517 -0.154 0.814 -0.473 1.144c 0.077 0.11 0.297 0.264 0.44 0.264c 0.077 0 0.154 -0.033 0.22 -0.132c 0.044 -0.088 0.187 -0.198 0.308 -0.198Z m -3.432 -4.367c 0.121 -0.033 0.297 -0.055 0.44 -0.055c 0.341 0 0.649 0.033 0.803 0.033c 0.55 0 1.012 -0.011 1.331 -0.187c 0.429 -0.242 0.561 -0.396 0.561 -0.682c 0 -0.792 -1.166 -1.21 -2.156 -1.21c -0.396 0 -1.32 0.319 -1.32 1.067c 0 0.374 0.022 0.649 0.341 1.034Z m 2.057 3.179c 0 -1.023 -0.517 -1.232 -0.924 -1.232c -0.924 0 -1.023 0.781 -1.023 1.485c 0 0.77 0.275 1.166 0.88 1.166c 0.693 0 1.067 -0.506 1.067 -1.419Z "/></symbol><symbol id="gDD50B131DFBA2C7EA73123CA4C98C33" overflow="visible"><path d="M 0 0m 1.991 1.342v 2.189c 0 0.55 0.044 1.254 0.044 1.254c 0 0.044 -0.055 0.077 -0.143 0.077c -0.308 -0.121 -0.748 -0.22 -1.507 -0.319c -0.022 -0.066 0 -0.242 0.022 -0.308c 0.605 -0.055 0.715 -0.121 0.715 -0.748v -2.145c 0 -0.913 -0.121 -0.946 -0.792 -1.001c -0.066 -0.066 -0.066 -0.297 0 -0.363c 0.363 0.011 0.792 0.022 1.232 0.022c 0.44 0 0.858 -0.011 1.221 -0.022c 0.066 0.066 0.066 0.297 0 0.363c -0.671 0.044 -0.792 0.088 -0.792 1.001Z m -1.001 5.247c 0 -0.286 0.264 -0.572 0.528 -0.572c 0.308 0 0.572 0.297 0.572 0.528c 0 0.264 -0.231 0.572 -0.528 0.572c -0.264 0 -0.572 -0.264 -0.572 -0.528Z "/></symbol><symbol id="g3CE57ED74C3DBA63F54F2735C0855367" overflow="visible"><path d="M 0 0m 4.378 1.001c -0.044 0.099 -0.132 0.143 -0.231 0.154c -0.374 -0.484 -0.847 -0.726 -1.32 -0.726c -0.803 0 -1.474 0.814 -1.474 2.101c 0 1.21 0.528 1.936 1.254 1.936c 0.649 0 0.737 -0.385 0.781 -0.77c 0.033 -0.297 0.187 -0.396 0.418 -0.396c 0.231 0 0.539 0.143 0.539 0.484c 0 0.605 -0.627 1.045 -1.683 1.045c -1.089 0 -2.255 -0.979 -2.255 -2.541c 0 -1.419 0.792 -2.398 2.178 -2.398c 0.66 0 1.243 0.209 1.793 1.111Z "/></symbol><symbol id="gA583550D4A9AF5E4B050D091A0D6D555" overflow="visible"><path d="M 0 0m 0.484 2.772c 0 -0.495 0.044 -3.036 2.332 -5.016c 0.11 0.022 0.198 0.099 0.231 0.187c -0.363 0.418 -1.65 1.936 -1.65 4.829c 0 2.893 1.298 4.411 1.65 4.807c -0.033 0.11 -0.11 0.187 -0.231 0.198c -1.309 -1.122 -2.332 -2.959 -2.332 -5.005Z "/></symbol><symbol id="g5A92E01899F34F07E07504597D398CD0" overflow="visible"><path d="M 0 0m 7.293 1.276c 0.055 -0.891 0.011 -0.902 -0.704 -0.935c -0.066 -0.066 -0.066 -0.297 0 -0.363c 0.407 0.011 0.847 0.022 1.177 0.022c 0.33 0 0.836 -0.011 1.199 -0.022c 0.066 0.066 0.066 0.297 0 0.363c -0.748 0.033 -0.781 0.077 -0.847 0.99l -0.33 4.631c -0.044 0.594 0.011 0.748 0.759 0.792c 0.066 0.066 0.066 0.297 0 0.363l -1.441 -0.022l -2.332 -5.577c -0.044 -0.11 -0.077 -0.154 -0.099 -0.154c -0.022 0 -0.055 0.055 -0.088 0.143l -2.255 5.588l -1.595 0.022c -0.066 -0.066 -0.066 -0.297 0 -0.363c 0.759 -0.044 0.825 -0.066 0.748 -0.891l -0.44 -4.532c -0.066 -0.66 -0.198 -0.935 -0.825 -0.99c -0.066 -0.066 -0.066 -0.297 0 -0.363c 0.33 0.011 0.682 0.022 0.946 0.022c 0.264 0 0.704 -0.011 1.034 -0.022c 0.066 0.066 0.066 0.297 0 0.363c -0.726 0.055 -0.781 0.396 -0.726 1.012l 0.418 4.411h 0.022l 2.277 -5.709c 0.033 -0.077 0.099 -0.165 0.165 -0.165c 0.066 0 0.11 0.077 0.154 0.165l 2.475 5.819h 0.022Z "/></symbol><symbol id="g4DCD7B697146C21B1825FD2877805084" overflow="visible"><path d="M 0 0m 6.061 -0.022c 0.055 0.616 0.165 1.265 0.297 1.837c -0.077 0.022 -0.198 0.055 -0.341 0.055c -0.341 -0.781 -0.616 -1.386 -1.815 -1.408l -2.123 -0.044c -0.187 0 -0.275 0.055 -0.275 0.154c 0 0.055 0.033 0.121 0.088 0.22c 0.803 1.166 2.827 4.037 4.125 5.709c 0.231 0.297 0.264 0.374 0.264 0.495c 0 0.077 -0.055 0.121 -0.143 0.121c -0.132 0 -0.473 -0.022 -0.803 -0.022h -2.431c -0.517 0 -1.584 0.055 -1.991 0.088c -0.044 -0.594 -0.154 -1.221 -0.242 -1.672c 0.11 -0.033 0.209 -0.055 0.33 -0.055c 0.231 0.759 0.649 1.155 1.474 1.166l 2.321 0.044c 0.066 0 0.11 -0.033 0.11 -0.099c 0 -0.055 -0.033 -0.121 -0.088 -0.198c -1.067 -1.353 -3.157 -4.279 -4.279 -5.951c -0.066 -0.088 -0.088 -0.176 -0.088 -0.253c 0 -0.11 0.055 -0.165 0.209 -0.165h 4.004c 0.297 0 1.397 -0.022 1.397 -0.022Z "/></symbol><symbol id="gEC09E6B8EA933E4C3BF631014D088804" overflow="visible"><path d="M 0 0m 2.794 2.772c 0 0.495 -0.044 3.036 -2.332 5.016c -0.11 -0.022 -0.198 -0.099 -0.231 -0.187c 0.363 -0.418 1.65 -1.936 1.65 -4.829c 0 -2.893 -1.298 -4.411 -1.65 -4.807c 0.033 -0.11 0.11 -0.187 0.231 -0.198c 1.309 1.122 2.332 2.959 2.332 5.005Z "/></symbol><symbol id="gF110087D0967D51B93062FFC3887FC46" overflow="visible"><path d="M 0 0m 1.628 7.095c -0.396 0 -0.99 0.011 -1.419 0.022c -0.066 -0.066 -0.066 -0.297 0 -0.363c 0.77 -0.033 0.957 -0.088 0.957 -1.001v -4.411c 0 -0.913 -0.187 -0.968 -0.957 -1.001c -0.066 -0.066 -0.066 -0.297 0 -0.363c 0.429 0.011 1.023 0.022 1.43 0.022c 0.396 0 0.682 -0.022 1.606 -0.022c 2.189 0 2.772 1.1 2.772 2.046c 0 1.056 -0.737 1.661 -1.694 1.936v 0.022c 0.55 0.275 1.045 0.847 1.045 1.441c 0 0.737 -0.319 1.694 -2.365 1.694c -0.385 0 -0.979 -0.022 -1.375 -0.022Z m 0.473 -3.443h 0.759c 1.507 0 2.134 -0.847 2.134 -1.837c 0 -0.803 -0.308 -1.474 -1.98 -1.474c -0.77 0 -0.913 0.286 -0.913 0.957Z m 0 2.398c 0 0.583 0 0.693 0.957 0.693c 0.616 0 1.419 -0.33 1.419 -1.452c 0 -0.935 -0.649 -1.265 -1.562 -1.265h -0.814Z "/></symbol><symbol id="gB7E01F34AB4FF1C26BADF7D662D6A5FF" overflow="visible"><path d="M 0 0m 2.244 -1.76c 0.176 0.308 0.319 0.616 0.451 0.946c 0.88 2.123 1.375 3.256 1.947 4.488c 0.22 0.462 0.374 0.638 0.891 0.704c 0.066 0.066 0.066 0.297 0 0.363c -0.22 -0.011 -0.473 -0.022 -0.781 -0.022c -0.33 0 -0.671 0.011 -1.001 0.022c -0.066 -0.066 -0.066 -0.297 0 -0.363c 0.352 -0.033 0.704 -0.099 0.528 -0.495l -1.089 -2.519c -0.077 -0.176 -0.176 -0.209 -0.264 0.011l -0.979 2.288c -0.198 0.462 -0.253 0.671 0.363 0.715c 0.066 0.066 0.066 0.297 0 0.363c -0.407 -0.011 -0.847 -0.022 -1.243 -0.022c -0.374 0 -0.671 0.011 -0.891 0.022c -0.066 -0.066 -0.066 -0.297 0 -0.363c 0.44 -0.055 0.583 -0.154 0.869 -0.825l 1.243 -2.893c 0.099 -0.22 0.264 -0.726 0.154 -1.034c -0.132 -0.363 -0.264 -0.671 -0.429 -1.012c -0.121 -0.22 -0.275 -0.319 -0.55 -0.319c -0.154 0 -0.198 0.033 -0.319 0.033c -0.319 0 -0.484 -0.33 -0.484 -0.473c 0 -0.231 0.22 -0.407 0.517 -0.407c 0.231 0 0.671 0.088 1.067 0.792Z "/></symbol><symbol id="gB38329E71763B8BD4CF776D24C5AFFE1" overflow="visible"><path d="M 0 0m 0.473 4.719c -0.154 0 -0.198 -0.132 -0.198 -0.22v -0.143c 0 -0.055 0.011 -0.066 0.055 -0.066h 0.649v -3.311c 0 -0.781 0.341 -1.089 0.847 -1.089c 0.506 0 1.056 0.242 1.485 0.726c -0.022 0.11 -0.088 0.176 -0.198 0.187c -0.286 -0.22 -0.616 -0.308 -0.902 -0.308c -0.297 0 -0.363 0.33 -0.363 1.012v 2.783h 1.144c 0.11 0 0.264 0.044 0.264 0.143v 0.22c 0 0.044 -0.033 0.066 -0.088 0.066h -1.32v 0.429c 0 0.715 0.044 1.155 0.044 1.155c 0 0.066 -0.033 0.099 -0.088 0.099c -0.044 0 -0.143 -0.044 -0.242 -0.099c -0.121 -0.066 -0.231 -0.121 -0.374 -0.154c -0.132 -0.044 -0.242 -0.077 -0.242 -0.154c 0 -0.132 0.033 -0.055 0.033 -1.276Z "/></symbol><symbol id="gBFE09989B12480F1B7796D69E0D7287C" overflow="visible"><path d="M 0 0m 4.246 1.023c -0.407 -0.418 -0.726 -0.594 -1.364 -0.594c -0.396 0 -0.858 0.231 -1.199 0.792c -0.22 0.363 -0.352 0.869 -0.352 1.507l 2.926 -0.022c 0.132 0 0.209 0.066 0.209 0.187c 0 0.924 -0.33 1.914 -1.859 1.914c -0.957 0 -2.2 -0.913 -2.2 -2.585c 0 -0.616 0.154 -1.21 0.517 -1.628c 0.374 -0.44 0.891 -0.704 1.683 -0.704c 0.836 0 1.43 0.385 1.87 0.957c -0.033 0.11 -0.099 0.165 -0.231 0.176Z m -2.882 2.079c 0.209 1.243 0.979 1.342 1.243 1.342c 0.418 0 0.913 -0.231 0.913 -1.155c 0 -0.099 -0.044 -0.154 -0.165 -0.154Z "/></symbol><symbol id="g4E5D026409004C23B788CF76C0C2AF69" overflow="visible"><path d="M 0 0m 0.528 1.518c 0.044 -0.539 0.077 -1.056 0.077 -1.518c 0.11 0.022 0.22 0.033 0.275 0.033c 0.077 0 0.143 0 0.22 -0.022c 0.297 -0.077 0.594 -0.121 1.001 -0.121c 0.616 0 1.749 0.297 1.749 1.386c 0 0.748 -0.539 1.188 -1.287 1.463c -0.66 0.253 -1.1 0.418 -1.1 1.023c 0 0.451 0.396 0.704 0.77 0.704c 0.242 0 0.88 -0.088 1.023 -1.023c 0.066 -0.066 0.286 -0.055 0.352 0.011c 0.033 0.396 0.055 0.803 0.066 1.166c -0.341 0.055 -0.869 0.209 -1.441 0.209c -0.814 0 -1.551 -0.528 -1.551 -1.232c 0 -0.803 0.363 -1.144 1.21 -1.496c 0.913 -0.374 1.122 -0.605 1.122 -1.078c 0 -0.539 -0.528 -0.77 -0.935 -0.77c -0.429 0 -0.671 0.143 -0.781 0.264c -0.242 0.253 -0.363 0.737 -0.429 1.012c -0.066 0.066 -0.275 0.055 -0.341 -0.011Z "/></symbol><symbol id="g5E76F8DBE7C3C7A9A461E8EC1D70F6FB" overflow="visible"><path d="M 0 0m 0.451 2.255c 0 -1.122 0.748 -2.365 2.31 -2.365c 0.704 0 1.243 0.253 1.617 0.616c 0.495 0.484 0.715 1.177 0.715 1.848c 0 1.144 -0.627 2.475 -2.31 2.475c -0.726 0 -1.32 -0.297 -1.727 -0.77c -0.396 -0.473 -0.605 -1.111 -0.605 -1.804Z m 2.167 2.189c 0.946 0 1.529 -0.858 1.529 -2.442c 0 -1.386 -0.715 -1.727 -1.232 -1.727c -1.144 0 -1.518 1.386 -1.518 2.233c 0 0.957 0.231 1.936 1.221 1.936Z "/></symbol><symbol id="gEB245AFE22C398BE296AC5F7AF6ADF12" overflow="visible"><path d="M 0 0m 2.024 3.938c -0.066 -0.077 -0.132 -0.099 -0.132 0c -0.011 0.297 -0.033 0.726 -0.088 0.836c -0.022 0.055 -0.044 0.088 -0.132 0.088c -0.308 -0.121 -0.594 -0.22 -1.353 -0.319c -0.022 -0.066 0 -0.242 0.022 -0.308c 0.594 -0.055 0.715 -0.11 0.715 -0.748v -2.145c 0 -0.902 -0.11 -0.946 -0.77 -1.001c -0.066 -0.066 -0.066 -0.297 0 -0.363c 0.33 0.011 0.77 0.022 1.21 0.022c 0.44 0 0.77 -0.011 1.1 -0.022c 0.066 0.066 0.066 0.297 0 0.363c -0.561 0.055 -0.671 0.099 -0.671 1.001v 1.804c 0 0.231 0.099 0.363 0.187 0.462c 0.418 0.407 0.913 0.649 1.342 0.649c 0.22 0 0.451 -0.143 0.583 -0.396c 0.11 -0.22 0.132 -0.517 0.132 -0.847v -1.672c 0 -0.902 -0.11 -0.946 -0.682 -1.001c -0.055 -0.066 -0.055 -0.297 0 -0.363c 0.33 0.011 0.682 0.022 1.122 0.022c 0.44 0 0.836 -0.011 1.166 -0.022c 0.055 0.066 0.055 0.297 0 0.363c -0.616 0.055 -0.737 0.099 -0.737 1.001v 1.639c 0 0.605 -0.044 1.133 -0.297 1.474c -0.187 0.242 -0.528 0.374 -0.913 0.374c -0.539 0 -1.155 -0.143 -1.804 -0.891Z "/></symbol><symbol id="g36F90904A4043C6A677E73471A30013F" overflow="visible"><path d="M 0 0m 1.045 1.342c 0 -0.913 -0.121 -0.968 -0.792 -1.001c -0.066 -0.066 -0.066 -0.297 0 -0.363c 0.385 0.011 0.792 0.022 1.232 0.022c 0.44 0 0.858 -0.011 1.221 -0.022c 0.066 0.066 0.066 0.297 0 0.363c -0.671 0.033 -0.792 0.088 -0.792 1.001v 5.071c 0 0.715 0.044 1.155 0.044 1.155c 0 0.077 -0.044 0.11 -0.143 0.11c -0.275 -0.11 -1.1 -0.264 -1.54 -0.297c -0.022 -0.088 0 -0.264 0.066 -0.33c 0.638 -0.044 0.704 -0.077 0.704 -0.902Z "/></symbol><symbol id="gF9560AC257AD9BBCF737B0F29E336B2F" overflow="visible"><path d="M 0 0m 1.716 4.048c -0.011 0.33 -0.033 0.616 -0.088 0.726c -0.022 0.055 -0.044 0.088 -0.132 0.088c -0.308 -0.121 -0.594 -0.22 -1.353 -0.319c -0.022 -0.066 0 -0.242 0.022 -0.308c 0.594 -0.055 0.715 -0.11 0.715 -0.748v -4.697c 0 -0.913 -0.121 -0.968 -0.792 -1.001c -0.066 -0.066 -0.066 -0.297 0 -0.363c 0.385 0.011 0.792 0.022 1.232 0.022c 0.44 0 0.968 -0.011 1.331 -0.022c 0.066 0.066 0.066 0.297 0 0.363c -0.781 0.044 -0.902 0.088 -0.902 1.001v 1.188c 0 0.143 0.044 0.132 0.154 0.088c 0.275 -0.11 0.605 -0.176 0.957 -0.176c 0.616 0 1.166 0.187 1.617 0.616c 0.517 0.506 0.814 1.188 0.814 2.079c 0 1.166 -0.825 2.244 -1.947 2.244c -0.506 0 -1.067 -0.33 -1.507 -0.825c -0.066 -0.066 -0.11 -0.066 -0.121 0.044Z m 0.209 -0.407c 0.286 0.352 0.792 0.682 1.111 0.682c 0.704 0 1.309 -0.792 1.309 -2.035c 0 -0.902 -0.319 -2.024 -1.551 -2.024c -0.198 0 -0.583 0.055 -0.781 0.231c -0.22 0.198 -0.264 0.264 -0.264 0.66v 2.002c 0 0.231 0.044 0.33 0.176 0.484Z "/></symbol><symbol id="g5D279FAE8446F75B298AD3FAD5B8DC82" overflow="visible"><path d="M 0 0m 1.144 5.753v -4.411c 0 -0.913 -0.187 -0.968 -0.957 -1.001c -0.066 -0.066 -0.066 -0.297 0 -0.363c 0.495 0.011 1.034 0.022 1.43 0.022c 0.385 0 1.034 -0.011 1.584 -0.022c 0.066 0.066 0.066 0.297 0 0.363c -0.858 0.044 -1.122 0.088 -1.122 1.001v 1.87c 0.242 -0.077 0.506 -0.11 0.891 -0.11c 2.002 0 2.607 1.309 2.607 2.244c 0 0.649 -0.429 1.826 -2.464 1.826c -0.418 0 -1.067 -0.077 -1.507 -0.077c -0.407 0 -0.979 0.011 -1.419 0.022c -0.066 -0.066 -0.066 -0.297 0 -0.363c 0.77 -0.033 0.957 -0.088 0.957 -1.001Z m 0.935 0.341c 0 0.319 0.165 0.704 0.957 0.704c 0.759 0 1.518 -0.253 1.518 -1.65c 0 -1.188 -0.572 -1.672 -1.639 -1.672c -0.275 0 -0.715 0.022 -0.836 0.055Z "/></symbol><symbol id="gDE43A8C462B0904D776B82D943404709" overflow="visible"><path d="M 0 0m 5.17 1.342v 2.321c 0 0.429 0.044 1.133 0.044 1.133c 0 0.044 -0.066 0.066 -0.11 0.066c -0.33 -0.132 -0.649 -0.143 -1.034 -0.143h -2.167v 0.627c 0 1.045 0.374 1.958 1.122 1.958c 0.473 0 0.847 -0.121 0.935 -0.572c 0.11 -0.55 0.341 -0.715 0.682 -0.715c 0.242 0 0.473 0.22 0.473 0.451c 0 0.682 -0.935 1.21 -1.958 1.21c -0.506 0 -1.111 -0.198 -1.562 -0.726c -0.462 -0.539 -0.561 -1.21 -0.561 -2.068v -0.165h -0.539c -0.198 0 -0.253 -0.132 -0.253 -0.22v -0.143c 0 -0.055 0.011 -0.066 0.055 -0.066h 0.737v -2.948c 0 -0.913 -0.121 -0.957 -0.715 -1.001c -0.066 -0.066 -0.066 -0.297 0 -0.363c 0.374 0.011 0.77 0.022 1.155 0.022c 0.385 0 0.88 -0.011 1.243 -0.022c 0.066 0.066 0.066 0.297 0 0.363c -0.704 0.044 -0.814 0.088 -0.814 1.001v 2.948h 1.969c 0.341 0 0.429 -0.22 0.429 -0.781v -2.167c 0 -0.913 -0.132 -0.957 -0.737 -1.001c -0.066 -0.066 -0.066 -0.297 0 -0.363c 0.385 0.011 0.781 0.022 1.177 0.022c 0.385 0 0.814 -0.011 1.221 -0.022c 0.066 0.066 0.066 0.297 0 0.363c -0.671 0.044 -0.792 0.088 -0.792 1.001Z "/></symbol><symbol id="gAADD827615A87718B253F62B6667E88B" overflow="visible"><path d="M 0 0m 5.322753906 7.841796875v -0.999023438q -0.338378906 0.198730469 -0.719726563 0.303466797q -0.381347656 0.104736328 -0.794921875 0.104736328q -1.03125 0 -1.562988281 -0.776123047q -0.531738281 -0.776123047 -0.531738281 -2.285400391q 0.2578125 0.537109375 0.714355469 0.824462891q 0.456542969 0.287353516 1.047363281 0.287353516q 1.16015625 0 1.796630859 -0.711669922q 0.636474609 -0.711669922 0.636474609 -2.016845703q 0 -1.299804688 -0.655273438 -2.014160156q -0.655273438 -0.714355469 -1.842285156 -0.714355469q -1.396484375 0 -2.046386719 1.001708984q -0.649902344 1.001708984 -0.649902344 3.155517578q 0 2.030273438 0.781494141 3.096435547q 0.781494141 1.066162109 2.263916016 1.066162109q 0.397460938 0 0.794921875 -0.083251953q 0.397460938 -0.083251953 0.768066406 -0.239013672Z m -1.93359375 -3.389160156q -0.692871094 0 -1.090332031 -0.499511719q -0.397460938 -0.499511719 -0.397460938 -1.380371094q 0 -0.880859375 0.397460938 -1.380371094q 0.397460938 -0.499511719 1.090332031 -0.499511719q 0.719726563 0 1.084960938 0.475341797q 0.365234375 0.475341797 0.365234375 1.404541016q 0 0.934570313 -0.365234375 1.407226563q -0.365234375 0.47265625 -1.084960938 0.47265625Z "/></symbol><symbol id="gB6CBDFB21EF63DACD0D4EF42A63EF319" overflow="visible"><path d="M 0 0m 0.746582031 8.019042969h 5.048828125v -0.461914063l -2.868164063 -7.557128906h -1.133300781l 2.79296875 7.105957031h -3.840332031v 0.913085938Z "/></symbol><symbol id="gB7A7981F9D6FEBAF4A3C34CF9A3FA37" overflow="visible"><path d="M 0 0m 2.079 1.342v 1.859c 0.924 0 1.133 -0.165 1.287 -0.418l 1.177 -1.914c 0.319 -0.517 0.792 -0.979 1.452 -0.979c 0.165 0 0.352 0.022 0.462 0.077c 0.044 0.077 0.033 0.176 -0.011 0.264c -0.495 0 -0.77 0.374 -1.056 0.847l -1.386 2.31c 0.473 0.154 1.463 0.726 1.463 1.881c 0 0.55 -0.187 1.001 -0.583 1.375c -0.528 0.495 -1.21 0.528 -1.903 0.528c -0.517 0 -0.979 -0.077 -1.375 -0.077c -0.385 0 -0.902 0.011 -1.419 0.022c -0.066 -0.066 -0.066 -0.297 0 -0.363c 0.77 -0.033 0.957 -0.088 0.957 -1.001v -4.411c 0 -0.913 -0.187 -0.968 -0.957 -1.001c -0.066 -0.066 -0.066 -0.297 0 -0.363c 0.495 0.011 1.012 0.022 1.43 0.022c 0.418 0 0.935 -0.011 1.419 -0.022c 0.066 0.066 0.066 0.297 0 0.363c -0.77 0.033 -0.957 0.088 -0.957 1.001Z m 0.913 5.456c 0.671 0 1.463 -0.242 1.463 -1.54c 0 -1.375 -0.781 -1.683 -1.848 -1.683h -0.528v 2.519c 0 0.319 0.132 0.704 0.913 0.704Z "/></symbol><symbol id="g924FA4C14A01FD00FF0ECA5EF99A5E1B" overflow="visible"><path d="M 0 0m 6.798 1.342v 4.411c 0 0.913 0.187 0.968 0.957 1.001c 0.066 0.066 0.066 0.297 0 0.363c -0.451 -0.011 -1.012 -0.022 -1.43 -0.022c -0.407 0 -0.935 0.011 -1.419 0.022c -0.066 -0.066 -0.066 -0.297 0 -0.363c 0.77 -0.033 0.957 -0.088 0.957 -1.001v -1.76h -3.762v 1.76c 0 0.913 0.187 0.968 0.957 1.001c 0.066 0.066 0.066 0.297 0 0.363c -0.418 -0.011 -0.869 -0.022 -1.43 -0.022c -0.55 0 -1.001 0.011 -1.419 0.022c -0.066 -0.066 -0.066 -0.297 0 -0.363c 0.77 -0.033 0.957 -0.088 0.957 -1.001v -4.411c 0 -0.913 -0.187 -0.968 -0.957 -1.001c -0.066 -0.066 -0.066 -0.297 0 -0.363c 0.484 0.011 1.012 0.022 1.43 0.022c 0.396 0 0.935 -0.011 1.419 -0.022c 0.066 0.066 0.066 0.297 0 0.363c -0.77 0.033 -0.957 0.088 -0.957 1.001v 2.189h 3.762v -2.189c 0 -0.913 -0.187 -0.968 -0.957 -1.001c -0.066 -0.066 -0.066 -0.297 0 -0.363c 0.495 0.011 1.023 0.022 1.43 0.022c 0.407 0 0.935 -0.011 1.419 -0.022c 0.066 0.066 0.066 0.297 0 0.363c -0.77 0.033 -0.957 0.088 -0.957 1.001Z "/></symbol><symbol id="g7FF42B92D9D80783DC2C1CC317042C56" overflow="visible"><path d="M 0 0m 3.674 0.55c 0.055 0.044 0.154 0.066 0.165 -0.011c 0.033 -0.264 0.121 -0.649 0.121 -0.649c 0.088 -0.033 0.143 -0.022 0.209 0c 0.242 0.198 0.627 0.363 1.298 0.44c 0.066 0.066 0.066 0.231 0 0.297c -0.704 0.055 -0.803 0.264 -0.803 0.803v 4.983c 0 0.715 0.044 1.155 0.044 1.155c 0 0.077 -0.044 0.11 -0.143 0.11c -0.275 -0.11 -1.1 -0.264 -1.54 -0.297c -0.022 -0.088 0 -0.264 0.066 -0.33c 0.033 0 0.066 0 0.099 0c 0.484 -0.033 0.605 -0.033 0.605 -0.902v -1.408c 0 -0.077 -0.022 -0.099 -0.099 -0.099c -0.044 0 -0.495 0.187 -0.858 0.187c -0.726 0 -1.21 -0.242 -1.65 -0.66c -0.473 -0.473 -0.759 -1.122 -0.759 -1.936c 0 -1.353 0.682 -2.343 1.87 -2.343c 0.429 0 0.836 0.22 1.375 0.66Z m 0.121 0.814c 0 -0.209 -0.022 -0.297 -0.176 -0.429c -0.407 -0.352 -0.759 -0.528 -1.034 -0.528c -0.594 0 -1.21 0.649 -1.21 2.024c 0 0.792 0.154 1.232 0.319 1.463c 0.341 0.517 0.803 0.55 1.023 0.55c 0.396 0 0.671 -0.143 0.891 -0.396c 0.154 -0.176 0.187 -0.253 0.187 -0.594Z "/></symbol><symbol id="gD91D82170ED5F219BEA1B53E81DC19AF" overflow="visible"><path d="M 0 0m 1.936 3.938c -0.022 0.44 -0.033 0.726 -0.088 0.836c -0.022 0.055 -0.044 0.088 -0.132 0.088c -0.308 -0.121 -0.594 -0.22 -1.353 -0.319c -0.022 -0.066 0 -0.242 0.022 -0.308c 0.594 -0.055 0.715 -0.11 0.715 -0.748v -2.145c 0 -0.913 -0.132 -0.957 -0.814 -1.001c -0.066 -0.066 -0.066 -0.297 0 -0.363c 0.385 0.011 0.814 0.022 1.254 0.022c 0.44 0 0.946 -0.011 1.331 -0.022c 0.066 0.066 0.066 0.297 0 0.363c -0.77 0.055 -0.902 0.088 -0.902 1.001v 1.529c 0 0.286 0.132 0.539 0.264 0.737c 0.121 0.176 0.374 0.539 0.506 0.539c 0.099 0 0.198 -0.022 0.286 -0.143c 0.077 -0.11 0.209 -0.253 0.396 -0.253c 0.264 0 0.517 0.275 0.517 0.55c 0 0.209 -0.198 0.528 -0.66 0.528c -0.517 0 -0.968 -0.484 -1.221 -0.913c -0.066 -0.121 -0.121 -0.033 -0.121 0.022Z "/></symbol><symbol id="g525D29E90AD4E5DCC336104F62B1760B" overflow="visible"><path d="M 0 0m 1.837 3.146c 0 0.231 0.099 0.363 0.187 0.462c 0.418 0.407 0.979 0.649 1.408 0.649c 0.22 0 0.451 -0.143 0.583 -0.396c 0.11 -0.22 0.132 -0.517 0.132 -0.847v -1.672c 0 -0.902 -0.11 -0.946 -0.682 -1.001c -0.055 -0.066 -0.055 -0.297 0 -0.363c 0.308 0.011 0.682 0.022 1.122 0.022c 0.44 0 0.803 -0.011 1.166 -0.022c 0.055 0.066 0.055 0.297 0 0.363c -0.616 0.055 -0.737 0.099 -0.737 1.001v 1.639c 0 0.605 -0.044 1.144 -0.297 1.474c -0.187 0.242 -0.528 0.374 -0.913 0.374c -0.539 0 -1.199 -0.143 -1.87 -0.891c 0 -0.011 -0.011 -0.011 -0.022 -0.022c -0.033 -0.044 -0.088 -0.11 -0.088 0.022l 0.011 2.475c 0 0.715 0.044 1.155 0.044 1.155c 0 0.077 -0.044 0.11 -0.143 0.11c -0.275 -0.11 -1.1 -0.264 -1.54 -0.297c -0.022 -0.088 0 -0.264 0.066 -0.33c 0.033 0 0.066 0 0.099 0c 0.484 -0.033 0.605 -0.033 0.605 -0.902v -4.807c 0 -0.913 -0.132 -0.957 -0.77 -1.001c -0.066 -0.066 -0.066 -0.297 0 -0.363c 0.363 0.011 0.77 0.022 1.21 0.022c 0.418 0 0.781 -0.011 1.089 -0.022c 0.066 0.066 0.066 0.297 0 0.363c -0.561 0.044 -0.66 0.088 -0.66 1.001Z "/></symbol><symbol id="gF4B7923054E61831FA2928FF88D480B9" overflow="visible"><path d="M 0 0m 5.763183594 0.284667969q -0.413574219 -0.220214844 -0.848632813 -0.330322266q -0.435058594 -0.110107422 -0.923828125 -0.110107422q -1.541503906 0 -2.392822266 1.090332031q -0.851318359 1.090332031 -0.851318359 3.066894531q 0 1.965820313 0.856689453 3.064208984q 0.856689453 1.098388672 2.387451172 1.098388672q 0.488769531 0 0.923828125 -0.110107422q 0.435058594 -0.110107422 0.848632813 -0.330322266v -1.111816406q -0.397460938 0.327636719 -0.854003906 0.499511719q -0.456542969 0.171875 -0.918457031 0.171875q -1.058105469 0 -1.584472656 -0.81640625q -0.526367188 -0.81640625 -0.526367188 -2.465332031q 0 -1.643554688 0.526367188 -2.459960938q 0.526367188 -0.81640625 1.584472656 -0.81640625q 0.47265625 0 0.926513672 0.171875q 0.453857422 0.171875 0.845947266 0.499511719v -1.111816406Z "/></symbol><symbol id="gB1B577994620152C41DADBFDB791E674" overflow="visible"><path d="M 0 0m 5.236 -1.21h -5.126c -0.088 -0.088 -0.088 -0.396 0 -0.484h 5.126c 0.088 0.088 0.088 0.396 0 0.484Z "/></symbol><symbol id="gD14A2C15FA7E7E6DA17092C3143CABC8" overflow="visible"><path d="M 0 0m 1.925 1.342v 2.948h 1.023c 0.099 0 0.253 0.044 0.253 0.143v 0.22c 0 0.044 -0.033 0.066 -0.088 0.066h -1.188v 0.627c 0 1.694 0.506 1.958 0.869 1.958c 0.33 0 0.506 -0.132 0.66 -0.517c 0.088 -0.198 0.209 -0.352 0.44 -0.352c 0.187 0 0.451 0.231 0.451 0.451c 0 0.187 -0.121 0.385 -0.352 0.561c -0.286 0.198 -0.572 0.231 -0.99 0.231c -0.924 0 -1.947 -0.803 -1.947 -2.519v -0.44h -0.561c -0.198 0 -0.253 -0.132 -0.253 -0.22v -0.143c 0 -0.055 0.011 -0.066 0.055 -0.066h 0.759v -2.948c 0 -0.913 -0.176 -0.957 -0.77 -1.001c -0.066 -0.066 -0.066 -0.297 0 -0.363c 0.385 0.011 0.77 0.022 1.21 0.022c 0.44 0 0.968 -0.011 1.353 -0.022c 0.066 0.066 0.066 0.297 0 0.363c -0.858 0.044 -0.924 0.088 -0.924 1.001Z "/></symbol><symbol id="g162FFC49A5D51E5E20A023FB65F6BB60" overflow="visible"><path d="M 0 0m 2.233 4.378c 0.066 0.066 0.066 0.297 0 0.363c -0.33 -0.011 -0.715 -0.022 -1.111 -0.022c -0.418 0 -0.715 0.011 -1.001 0.022c -0.066 -0.066 -0.066 -0.297 0 -0.363c 0.517 -0.055 0.638 -0.165 0.869 -0.737l 1.441 -3.553c 0.066 -0.154 0.154 -0.22 0.264 -0.22c 0.099 0 0.187 0.066 0.264 0.242l 1.111 2.706l 1.133 -2.728c 0.066 -0.154 0.154 -0.22 0.264 -0.22c 0.099 0 0.187 0.066 0.253 0.231l 1.441 3.487c 0.176 0.451 0.363 0.759 0.924 0.792c 0.066 0.066 0.066 0.297 0 0.363c -0.22 -0.011 -0.462 -0.022 -0.792 -0.022c -0.33 0 -0.792 0.011 -1.122 0.022c -0.066 -0.066 -0.066 -0.297 0 -0.363c 0.825 -0.044 0.715 -0.363 0.561 -0.748l -0.924 -2.288c -0.11 -0.275 -0.154 -0.275 -0.242 -0.044l -0.946 2.409c -0.209 0.517 -0.187 0.627 0.396 0.671c 0.066 0.066 0.066 0.297 0 0.363c -0.33 -0.011 -0.77 -0.022 -1.1 -0.022c -0.275 0 -0.638 0.011 -0.968 0.022c -0.066 -0.066 -0.066 -0.297 0 -0.363c 0.517 -0.044 0.649 -0.363 0.847 -0.858l 0.066 -0.176l -0.77 -1.947c -0.143 -0.363 -0.165 -0.374 -0.308 -0.022l -0.88 2.266c -0.209 0.528 -0.198 0.704 0.33 0.737Z "/></symbol><symbol id="g1A21308A8093B77381851E026859DC0C" overflow="visible"><path d="M 0 0m 2.981 2.453c 0.143 0 0.297 0.308 0.297 0.44c 0 0.11 -0.044 0.22 -0.154 0.22h -2.409c -0.132 0 -0.275 -0.253 -0.275 -0.451c 0 -0.11 0.066 -0.209 0.165 -0.209Z "/></symbol><symbol id="gDF921A3EC3F05904B9D94C711F731EC4" overflow="visible"><path d="M 0 0m 4.532 2.596l -3.487 -1.265c -0.143 -0.154 -0.154 -0.484 0 -0.55l 4.29 1.551c 0.099 0.187 0.099 0.363 0 0.528l -4.29 1.562c -0.154 -0.066 -0.143 -0.396 0 -0.55Z "/></symbol><symbol id="g14CB754CE297B694D18D364D9C1BAD84" overflow="visible"><path d="M 0 0m 3.091 3.971h -1.001v 1.98c 0 0.484 0.132 0.704 0.726 0.704h 0.825c 0.825 0 1.001 -0.44 1.243 -1.199c 0.132 -0.022 0.253 0 0.363 0.055c -0.055 0.451 -0.22 1.507 -0.242 1.595c 0 0.022 -0.011 0.033 -0.044 0.033c -0.187 -0.033 -0.275 -0.044 -0.539 -0.044h -2.805c -0.33 0 -0.979 0.011 -1.419 0.022c -0.066 -0.066 -0.066 -0.297 0 -0.363c 0.77 -0.033 0.957 -0.088 0.957 -1.001v -4.411c 0 -0.913 -0.187 -0.968 -0.957 -1.001c -0.066 -0.066 -0.066 -0.297 0 -0.363c 0.407 0.011 1.067 0.022 1.43 0.022h 2.365c 0.528 0 1.408 -0.022 1.408 -0.022c 0.154 0.55 0.319 1.276 0.407 1.837c -0.11 0.066 -0.242 0.088 -0.385 0.055c -0.22 -0.792 -0.605 -1.441 -1.441 -1.441h -1.276c -0.462 0 -0.616 0.176 -0.616 0.693v 2.431h 1.001c 0.935 0 0.968 -0.253 1.001 -0.748c 0.066 -0.066 0.297 -0.066 0.363 0c -0.011 0.286 -0.022 0.594 -0.022 0.968c 0 0.308 0.011 0.682 0.022 0.946c -0.066 0.066 -0.297 0.066 -0.363 0c -0.033 -0.605 -0.066 -0.748 -1.001 -0.748Z "/></symbol></defs></svg>