<svg viewBox="0 0 254.371278297 180.386555349" width="254.371278297pt" height="180.386555349pt" xmlns="http://www.w3.org/2000/svg" xmlns:xlink="http://www.w3.org/1999/xlink" xmlns:h5="http://www.w3.org/1999/xhtml"><path fill="#ffffff" fill-rule="nonzero" d="M 0 0v 180.386555349h 254.371278297v -180.386555349Z "/><g transform="translate(8 8)"><path fill="none" stroke="#000000" stroke-width="0.6" stroke-linecap="butt" stroke-linejoin="miter" stroke-miterlimit="4" transform="translate(51.284664124 8.378031573)" d="M 0 0m 0 0v 22.677165354h 8.503937008v -22.677165354h -8.503937008Z "/><path fill="none" transform="translate(51.284664124)" d="M 0 0m 0 0h 4.214355469v 5.417480469h -4.214355469v -5.417480469Z "/><g transform="translate(51.284664063 -1.12e-7)"><g transform="matrix(1 0 0 -1 0 5.318359375)"><use xlink:href="#gBE6FB67E0386394C98AEDD139114E12F" x="0" y="0" fill="#666666" fill-rule="nonzero"/></g></g><path fill="none" transform="translate(55.574245663)" d="M 0 0m 0 0h 4.214355469v 5.417480469h -4.214355469v -5.417480469Z "/><g transform="translate(55.574245602 -1.12e-7)"><g transform="matrix(1 0 0 -1 0 5.318359375)"><use xlink:href="#gBE6FB67E0386394C98AEDD139114E12F" x="0" y="0" fill="#666666" fill-rule="nonzero"/></g></g><path fill="none" stroke="#000000" stroke-width="0.6" stroke-linecap="butt" stroke-linejoin="miter" stroke-miterlimit="4" transform="translate(63.190175935 8.378031573)" d="M 0 0m 0 0v 22.677165354h 8.503937008v -22.677165354h -8.503937008Z "/><path fill="none" transform="translate(63.190175935 0.049560547)" d="M 0 0m 0 0h 4.214355469v 5.318359375h -4.214355469v -5.318359375Z "/><g transform="translate(63.190175874 0.049560408)"><g transform="matrix(1 0 0 -1 0 5.318359375)"><use xlink:href="#g419B5BF32E4973F3C8BB651289BFDBFE" x="0" y="0" fill="#666666" fill-rule="nonzero"/></g></g><path fill="none" transform="translate(67.479757474 0.049560547)" d="M 0 0m 0 0h 4.214355469v 5.318359375h -4.214355469v -5.318359375Z "/><g transform="translate(67.479757413 0.049560408)"><g transform="matrix(1 0 0 -1 0 5.318359375)"><use xlink:href="#g419B5BF32E4973F3C8BB651289BFDBFE" x="0" y="0" fill="#666666" fill-rule="nonzero"/></g></g><path fill="none" stroke="#000000" stroke-width="0.6" stroke-linecap="butt" stroke-linejoin="miter" stroke-miterlimit="4" transform="translate(75.095687746 8.378031573)" d="M 0 0m 0 0v 22.677165354h 8.503937008v -22.677165354h -8.503937008Z "/><path fill="none" transform="translate(75.095687746 0.049560547)" d="M 0 0m 0 0h 4.214355469v 5.318359375h -4.214355469v -5.318359375Z "/><g transform="translate(75.095687685 0.049560408)"><g transform="matrix(1 0 0 -1 0 5.318359375)"><use xlink:href="#gC187E17D2E413AE96EEE4EB0AD104EC5" x="0" y="0" fill="#666666" fill-rule="nonzero"/></g></g><path fill="none" transform="translate(79.385269285 0.049560547)" d="M 0 0m 0 0h 4.214355469v 5.318359375h -4.214355469v -5.318359375Z "/><g transform="translate(79.385269224 0.049560408)"><g transform="matrix(1 0 0 -1 0 5.318359375)"><use xlink:href="#gC187E17D2E413AE96EEE4EB0AD104EC5" x="0" y="0" fill="#666666" fill-rule="nonzero"/></g></g><path fill="none" stroke="#000000" stroke-width="0.6" stroke-linecap="butt" stroke-linejoin="miter" stroke-miterlimit="4" transform="translate(87.001199557 8.378031573)" d="M 0 0m 0 0v 22.677165354h 8.503937008v -22.677165354h -8.503937008Z "/><path fill="none" transform="translate(87.001199557)" d="M 0 0m 0 0h 4.214355469v 5.417480469h -4.214355469v -5.417480469Z "/><g transform="translate(87.001199496 -1.12e-7)"><g transform="matrix(1 0 0 -1 0 5.318359375)"><use xlink:href="#g754B3FF50F736B413FF4B76FF3AEDCF9" x="0" y="0" fill="#666666" fill-rule="nonzero"/></g></g><path fill="none" transform="translate(91.290781096)" d="M 0 0m 0 0h 4.214355469v 5.417480469h -4.214355469v -5.417480469Z "/><g transform="translate(91.290781035 -1.12e-7)"><g transform="matrix(1 0 0 -1 0 5.318359375)"><use xlink:href="#g754B3FF50F736B413FF4B76FF3AEDCF9" x="0" y="0" fill="#666666" fill-rule="nonzero"/></g></g><path fill="none" stroke="#000000" stroke-width="0.6" stroke-linecap="butt" stroke-linejoin="miter" stroke-miterlimit="4" transform="translate(98.906711368 8.378031573)" d="M 0 0m 0 0v 22.677165354h 8.503937008v -22.677165354h -8.503937008Z "/><path fill="none" transform="translate(98.906711368 0.049560547)" d="M 0 0m 0 0h 4.214355469v 5.318359375h -4.214355469v -5.318359375Z "/><g transform="translate(98.906711307 0.049560408)"><g transform="matrix(1 0 0 -1 0 5.318359375)"><use xlink:href="#g5B400B781F071420A822F961911D6FAA" x="0" y="0" fill="#666666" fill-rule="nonzero"/></g></g><path fill="none" transform="translate(103.196292907 0.049560547)" d="M 0 0m 0 0h 4.214355469v 5.318359375h -4.214355469v -5.318359375Z "/><g transform="translate(103.196292846 0.049560408)"><g transform="matrix(1 0 0 -1 0 5.318359375)"><use xlink:href="#g5B400B781F071420A822F961911D6FAA" x="0" y="0" fill="#666666" fill-rule="nonzero"/></g></g><path fill="none" stroke="#000000" stroke-width="0.6" stroke-linecap="butt" stroke-linejoin="miter" stroke-miterlimit="4" transform="translate(110.812223179 8.378031573)" d="M 0 0m 0 0v 22.677165354h 8.503937008v -22.677165354h -8.503937008Z "/><path fill="none" transform="translate(110.812223179)" d="M 0 0m 0 0h 4.214355469v 5.417480469h -4.214355469v -5.417480469Z "/><g transform="translate(110.812223118 -1.12e-7)"><g transform="matrix(1 0 0 -1 0 5.318359375)"><use xlink:href="#gB3BB4BD4D0CF38AE528F820CB7B96AA8" x="0" y="0" fill="#666666" fill-rule="nonzero"/></g></g><path fill="none" transform="translate(115.101804718)" d="M 0 0m 0 0h 4.214355469v 5.417480469h -4.214355469v -5.417480469Z "/><g transform="translate(115.101804657 -1.12e-7)"><g transform="matrix(1 0 0 -1 0 5.318359375)"><use xlink:href="#gB3BB4BD4D0CF38AE528F820CB7B96AA8" x="0" y="0" fill="#666666" fill-rule="nonzero"/></g></g><path fill="none" stroke="#000000" stroke-width="0.6" stroke-linecap="butt" stroke-linejoin="miter" stroke-miterlimit="4" transform="translate(122.71773499 8.378031573)" d="M 0 0m 0 0v 22.677165354h 8.503937008v -22.677165354h -8.503937008Z "/><path fill="none" transform="translate(122.71773499)" d="M 0 0m 0 0h 4.214355469v 5.417480469h -4.214355469v -5.417480469Z "/><g transform="translate(122.717734929 -1.12e-7)"><g transform="matrix(1 0 0 -1 0 5.318359375)"><use xlink:href="#gA712E711BA6A9C5BE02D63B247BADC83" x="0" y="0" fill="#666666" fill-rule="nonzero"/></g></g><path fill="none" transform="translate(127.007316529)" d="M 0 0m 0 0h 4.214355469v 5.417480469h -4.214355469v -5.417480469Z "/><g transform="translate(127.007316468 -1.12e-7)"><g transform="matrix(1 0 0 -1 0 5.318359375)"><use xlink:href="#gA712E711BA6A9C5BE02D63B247BADC83" x="0" y="0" fill="#666666" fill-rule="nonzero"/></g></g><path fill="none" stroke="#000000" stroke-width="0.6" stroke-linecap="butt" stroke-linejoin="miter" stroke-miterlimit="4" transform="translate(134.623246801 8.378031573)" d="M 0 0m 0 0v 22.677165354h 8.503937008v -22.677165354h -8.503937008Z "/><path fill="none" transform="translate(134.623246801 0.049560547)" d="M 0 0m 0 0h 4.214355469v 5.318359375h -4.214355469v -5.318359375Z "/><g transform="translate(134.62324674 0.049560408)"><g transform="matrix(1 0 0 -1 0 5.318359375)"><use xlink:href="#g617B31A6C49FF59C61C90D7C56F9E57" x="0" y="0" fill="#666666" fill-rule="nonzero"/></g></g><path fill="none" transform="translate(138.91282834 0.049560547)" d="M 0 0m 0 0h 4.214355469v 5.318359375h -4.214355469v -5.318359375Z "/><g transform="translate(138.912828279 0.049560408)"><g transform="matrix(1 0 0 -1 0 5.318359375)"><use xlink:href="#g617B31A6C49FF59C61C90D7C56F9E57" x="0" y="0" fill="#666666" fill-rule="nonzero"/></g></g><path fill="none" stroke="#000000" stroke-width="0.6" stroke-linecap="butt" stroke-linejoin="miter" stroke-miterlimit="4" transform="translate(146.528758612 8.378031573)" d="M 0 0m 0 0v 22.677165354h 44.220472441v -22.677165354h -44.220472441Z "/><path fill="none" transform="translate(157.80208077 16.233948234)" d="M 0 0m 0 0h 21.673828125v 6.965332031h -21.673828125v -6.965332031Z "/><g transform="translate(157.802080659 16.233948171)"><g transform="matrix(1 0 0 -1 0 6.837890625)"><use xlink:href="#g48D33B098131377951D7357268703689" x="0" y="0" fill="#000000" fill-rule="nonzero"/><use xlink:href="#g2255461D10F6FA7778B03CFE4EC2A765" x="5.418457031" y="0" fill="#000000" fill-rule="nonzero"/><use xlink:href="#g58313F1A4738DE0FA7C2FB82C3A2887B" x="10.836914063" y="0" fill="#000000" fill-rule="nonzero"/><use xlink:href="#g7AB52EE3E353BBC5A51DD7867DA02542" x="16.255371094" y="0" fill="#000000" fill-rule="nonzero"/></g></g><path fill="none" transform="translate(146.528758612)" d="M 0 0m 0 0h 4.214355469v 5.417480469h -4.214355469v -5.417480469Z "/><g transform="translate(146.528758551 -1.12e-7)"><g transform="matrix(1 0 0 -1 0 5.318359375)"><use xlink:href="#g5852670AF90DC19AEB772BAC58E5FC3E" x="0" y="0" fill="#666666" fill-rule="nonzero"/></g></g><path fill="none" transform="translate(182.320520116 0.049560547)" d="M 0 0m 0 0h 8.428710938v 5.318359375h -8.428710938v -5.318359375Z "/><g transform="translate(182.320519994 0.049560408)"><g transform="matrix(1 0 0 -1 0 5.318359375)"><use xlink:href="#g419B5BF32E4973F3C8BB651289BFDBFE" x="0" y="0" fill="#666666" fill-rule="nonzero"/><use xlink:href="#g419B5BF32E4973F3C8BB651289BFDBFE" x="4.214355469" y="0" fill="#666666" fill-rule="nonzero"/></g></g><path fill="none" stroke="#000000" stroke-width="0.6" stroke-linecap="butt" stroke-linejoin="miter" stroke-miterlimit="4" transform="translate(194.150805856 8.378031573)" d="M 0 0m 0 0v 22.677165354h 44.220472441v -22.677165354h -44.220472441Z "/><path fill="none" transform="translate(194.150805856 0.049560547)" d="M 0 0m 0 0h 8.428710938v 5.318359375h -8.428710938v -5.318359375Z "/><g transform="translate(194.150805734 0.049560408)"><g transform="matrix(1 0 0 -1 0 5.318359375)"><use xlink:href="#g419B5BF32E4973F3C8BB651289BFDBFE" x="0" y="0" fill="#666666" fill-rule="nonzero"/><use xlink:href="#gC187E17D2E413AE96EEE4EB0AD104EC5" x="4.214355469" y="0" fill="#666666" fill-rule="nonzero"/></g></g><path fill="none" transform="translate(229.94256736)" d="M 0 0m 0 0h 8.428710938v 5.417480469h -8.428710938v -5.417480469Z "/><g transform="translate(229.942567238 -1.12e-7)"><g transform="matrix(1 0 0 -1 0 5.318359375)"><use xlink:href="#g419B5BF32E4973F3C8BB651289BFDBFE" x="0" y="0" fill="#666666" fill-rule="nonzero"/><use xlink:href="#gB3BB4BD4D0CF38AE528F820CB7B96AA8" x="4.214355469" y="0" fill="#666666" fill-rule="nonzero"/></g></g><path fill="none" stroke="#808080" stroke-width="0.4" stroke-linecap="butt" stroke-linejoin="miter" stroke-miterlimit="4" transform="translate(45.615372785 31.055196927)" d="M 0 0m 9.921259843 0v 15.590551181h -9.921259843"/><path fill="none" transform="translate(16.255371094 42.29076764)" d="M 0 0m 0 0h 27.092285156v 8.709960937h -27.092285156v -8.709960937Z "/><g transform="translate(16.255371026 42.290767589)"><g transform="matrix(1 0 0 -1 0 6.837890625)"><use xlink:href="#g6B2C36BEE7D499E783BDA831CA869771" x="0" y="0" fill="#000000" fill-rule="nonzero"/><use xlink:href="#g938E69ED36E731A02DE8C05C4046C388" x="5.418457031" y="0" fill="#000000" fill-rule="nonzero"/><use xlink:href="#g7477BFBAAF637CCDF9641599D764977A" x="10.836914063" y="0" fill="#000000" fill-rule="nonzero"/><use xlink:href="#g7477BFBAAF637CCDF9641599D764977A" x="16.255371094" y="0" fill="#000000" fill-rule="nonzero"/><use xlink:href="#g38B083BD239057D20AED09CAC0460095" x="21.673828125" y="0" fill="#000000" fill-rule="nonzero"/></g></g><path fill="none" stroke="#808080" stroke-width="0.4" stroke-linecap="butt" stroke-linejoin="miter" stroke-miterlimit="4" transform="translate(45.615372785 31.055196927)" d="M 0 0m 21.826771654 0v 29.763779528h -21.826771654"/><path fill="none" transform="translate(21.673828125 57.336310439)" d="M 0 0m 0 0h 21.673828125v 6.965332031h -21.673828125v -6.965332031Z "/><g transform="translate(21.673828014 57.336310376)"><g transform="matrix(1 0 0 -1 0 6.837890625)"><use xlink:href="#gD309046CB97E24C26900E7DAE3E25623" x="0" y="0" fill="#000000" fill-rule="nonzero"/><use xlink:href="#g7AB52EE3E353BBC5A51DD7867DA02542" x="5.418457031" y="0" fill="#000000" fill-rule="nonzero"/><use xlink:href="#g7477BFBAAF637CCDF9641599D764977A" x="10.836914063" y="0" fill="#000000" fill-rule="nonzero"/><use xlink:href="#g2255461D10F6FA7778B03CFE4EC2A765" x="16.255371094" y="0" fill="#000000" fill-rule="nonzero"/></g></g><path fill="none" stroke="#808080" stroke-width="0.4" stroke-linecap="butt" stroke-linejoin="miter" stroke-miterlimit="4" transform="translate(45.615372785 31.055196927)" d="M 0 0m 33.732283465 0v 43.937007874h -33.732283465"/><path fill="none" transform="translate(21.673828125 70.606462614)" d="M 0 0m 0 0h 21.673828125v 8.771484375h -21.673828125v -8.771484375Z "/><g transform="translate(21.673828014 70.606462565)"><g transform="matrix(1 0 0 -1 0 6.837890625)"><use xlink:href="#gCFBAA1FDA6E674E76337DAE5F77C9807" x="0" y="0" fill="#000000" fill-rule="nonzero"/><use xlink:href="#g4DB2D381F8A5F794812415773ECCB5AA" x="5.418457031" y="0" fill="#000000" fill-rule="nonzero"/><use xlink:href="#g8C92B79484943BC2681D03FE18AB6E07" x="10.836914063" y="0" fill="#000000" fill-rule="nonzero"/><use xlink:href="#gE7C865DDCEE76398F99503DAE9D0B8A3" x="16.255371094" y="0" fill="#000000" fill-rule="nonzero"/></g></g><path fill="none" stroke="#808080" stroke-width="0.4" stroke-linecap="butt" stroke-linejoin="miter" stroke-miterlimit="4" transform="translate(45.615372785 31.055196927)" d="M 0 0m 45.637795276 0v 58.11023622h -45.637795276"/><path fill="none" transform="translate(0 85.682767132)" d="M 0 0m 0 0h 43.34765625v 6.965332031h -43.34765625v -6.965332031Z "/><g transform="translate(-8e-8 85.682767069)"><g transform="matrix(1 0 0 -1 0 6.837890625)"><use xlink:href="#g2E9F72B38E934F09F09207566B5E7330" x="0" y="0" fill="#000000" fill-rule="nonzero"/><use xlink:href="#g415B59509A32E12277E8C470A89386EC" x="5.418457031" y="0" fill="#000000" fill-rule="nonzero"/><use xlink:href="#g7AB52EE3E353BBC5A51DD7867DA02542" x="10.836914063" y="0" fill="#000000" fill-rule="nonzero"/><use xlink:href="#g7477BFBAAF637CCDF9641599D764977A" x="16.255371094" y="0" fill="#000000" fill-rule="nonzero"/><use xlink:href="#g65BA1484017F19A104742BD9E11A7464" x="21.673828125" y="0" fill="#000000" fill-rule="nonzero"/><use xlink:href="#gDE0B01ABF649FFA81879F71019AF7369" x="27.092285156" y="0" fill="#000000" fill-rule="nonzero"/><use xlink:href="#g2255461D10F6FA7778B03CFE4EC2A765" x="32.510742188" y="0" fill="#000000" fill-rule="nonzero"/><use xlink:href="#gA8D09B1222B997C441ACCCADBC635533" x="37.929199219" y="0" fill="#000000" fill-rule="nonzero"/></g></g><path fill="none" stroke="#808080" stroke-width="0.4" stroke-linecap="butt" stroke-linejoin="miter" stroke-miterlimit="4" transform="translate(45.615372785 31.055196927)" d="M 0 0m 57.543307087 0v 72.283464567h -57.543307087"/><path fill="none" transform="translate(10.836914063 98.983681025)" d="M 0 0m 0 0h 32.510742188v 8.709960937h -32.510742188v -8.709960937Z "/><g transform="translate(10.836914038 98.983680975)"><g transform="matrix(1 0 0 -1 0 6.837890625)"><use xlink:href="#g676AB214E2079C3EA17D9A38D3B33AEE" x="0" y="0" fill="#000000" fill-rule="nonzero"/><use xlink:href="#g938E69ED36E731A02DE8C05C4046C388" x="5.418457031" y="0" fill="#000000" fill-rule="nonzero"/><use xlink:href="#g7477BFBAAF637CCDF9641599D764977A" x="10.836914063" y="0" fill="#000000" fill-rule="nonzero"/><use xlink:href="#g4DB2D381F8A5F794812415773ECCB5AA" x="16.255371094" y="0" fill="#000000" fill-rule="nonzero"/><use xlink:href="#g8F0D6193858E593CDF883C583C47BB14" x="21.673828125" y="0" fill="#000000" fill-rule="nonzero"/><use xlink:href="#g38B083BD239057D20AED09CAC0460095" x="27.092285156" y="0" fill="#000000" fill-rule="nonzero"/></g></g><path fill="none" stroke="#808080" stroke-width="0.4" stroke-linecap="butt" stroke-linejoin="miter" stroke-miterlimit="4" transform="translate(45.615372785 31.055196927)" d="M 0 0m 69.448818898 0v 86.456692913h -69.448818898"/><path fill="none" transform="translate(27.092285156 114.029223825)" d="M 0 0h 16.255371094v 6.965332031h -16.255371094v -6.965332031Z "/><g transform="translate(27.092285144 114.029223762)"><g transform="matrix(1 0 0 -1 0 6.837890625)"><use xlink:href="#gCF723F8566059D1DEF850321481B04D9" x="0" y="0" fill="#000000" fill-rule="nonzero"/><use xlink:href="#g2DA729C4CE09DA97FA9D42E76D535F32" x="5.418457031" y="0" fill="#000000" fill-rule="nonzero"/><use xlink:href="#gF569396F38F0E4D592D86AC70FB95DB5" x="10.836914063" y="0" fill="#000000" fill-rule="nonzero"/></g></g><path fill="none" stroke="#808080" stroke-width="0.4" stroke-linecap="butt" stroke-linejoin="miter" stroke-miterlimit="4" transform="translate(45.615372785 31.055196927)" d="M 0 0m 81.354330709 0v 100.62992126h -81.354330709"/><path fill="none" transform="translate(27.092285156 127.672911156)" d="M 0 0h 16.255371094v 8.024414063h -16.255371094v -8.024414063Z "/><g transform="translate(27.092285144 127.672911101)"><g transform="matrix(1 0 0 -1 0 6.837890625)"><use xlink:href="#gA64AE1A8BBEFCCE9020270D61D41DD43" x="0" y="0" fill="#000000" fill-rule="nonzero"/><use xlink:href="#g73DFC4604EA179DAF71A84E3F3D9DFE8" x="5.418457031" y="0" fill="#000000" fill-rule="nonzero"/><use xlink:href="#gAE2216B71E58B837FC18125F9E8A7AA" x="10.836914063" y="0" fill="#000000" fill-rule="nonzero"/></g></g><path fill="none" stroke="#808080" stroke-width="0.4" stroke-linecap="butt" stroke-linejoin="miter" stroke-miterlimit="4" transform="translate(45.615372785 31.055196927)" d="M 0 0m 93.25984252 0v 114.803149606h -93.25984252"/><path fill="none" transform="translate(27.092285156 141.846139502)" d="M 0 0h 16.255371094v 8.024414063h -16.255371094v -8.024414063Z "/><g transform="translate(27.092285144 141.846139447)"><g transform="matrix(1 0 0 -1 0 6.837890625)"><use xlink:href="#g53A87DE062232684A2ECF87192268201" x="0" y="0" fill="#000000" fill-rule="nonzero"/><use xlink:href="#gA64AE1A8BBEFCCE9020270D61D41DD43" x="5.418457031" y="0" fill="#000000" fill-rule="nonzero"/><use xlink:href="#gAE2216B71E58B837FC18125F9E8A7AA" x="10.836914063" y="0" fill="#000000" fill-rule="nonzero"/></g></g><path fill="none" stroke="#808080" stroke-width="0.4" stroke-linecap="butt" stroke-linejoin="miter" stroke-miterlimit="4" transform="translate(45.615372785 31.055196927)" d="M 0 0m 170.645669291 0v 128.976377953h -170.645669291"/><path fill="none" transform="translate(0 155.676594411)" d="M 0 0h 43.34765625v 8.709960937h -43.34765625v -8.709960937Z "/><g transform="translate(-8e-8 155.67659436)"><g transform="matrix(1 0 0 -1 0 6.837890625)"><use xlink:href="#g676AB214E2079C3EA17D9A38D3B33AEE" x="0" y="0" fill="#000000" fill-rule="nonzero"/><use xlink:href="#g7477BFBAAF637CCDF9641599D764977A" x="5.418457031" y="0" fill="#000000" fill-rule="nonzero"/><use xlink:href="#g4DB2D381F8A5F794812415773ECCB5AA" x="10.836914063" y="0" fill="#000000" fill-rule="nonzero"/><use xlink:href="#g2255461D10F6FA7778B03CFE4EC2A765" x="16.255371094" y="0" fill="#000000" fill-rule="nonzero"/><use xlink:href="#g7477BFBAAF637CCDF9641599D764977A" x="21.673828125" y="0" fill="#000000" fill-rule="nonzero"/><use xlink:href="#g4DB2D381F8A5F794812415773ECCB5AA" x="27.092285156" y="0" fill="#000000" fill-rule="nonzero"/><use xlink:href="#g8F0D6193858E593CDF883C583C47BB14" x="32.510742188" y="0" fill="#000000" fill-rule="nonzero"/><use xlink:href="#g38B083BD239057D20AED09CAC0460095" x="37.929199219" y="0" fill="#000000" fill-rule="nonzero"/></g></g></g><defs><symbol id="gBE6FB67E0386394C98AEDD139114E12F" overflow="visible"><path d="M 0 0m 1.650878906 2.563476563q 0 0.187988281 0.131591797 0.324707031q 0.131591797 0.13671875 0.316162109 0.13671875q 0.19140625 0 0.328125 -0.13671875q 0.13671875 -0.13671875 0.13671875 -0.324707031q 0 -0.19140625 -0.135009766 -0.324707031q -0.135009766 -0.133300781 -0.329833984 -0.133300781q -0.19140625 0 -0.319580078 0.129882813q -0.128173828 0.129882813 -0.128173828 0.328125Z m 0.454589844 2.084960938q -0.481933594 0 -0.719482422 -0.51953125q -0.237548828 -0.51953125 -0.237548828 -1.582519531q 0 -1.059570313 0.237548828 -1.579101563q 0.237548828 -0.51953125 0.719482422 -0.51953125q 0.485351563 0 0.722900391 0.51953125q 0.237548828 0.51953125 0.237548828 1.579101563q 0 1.062988281 -0.237548828 1.582519531q -0.237548828 0.51953125 -0.722900391 0.51953125Z m 0 0.546875q 0.816894531 0 1.235595703 -0.669921875q 0.418701172 -0.669921875 0.418701172 -1.979003906q 0 -1.305664063 -0.418701172 -1.975585938q -0.418701172 -0.669921875 -1.235595703 -0.669921875q -0.816894531 0 -1.233886719 0.669921875q -0.416992188 0.669921875 -0.416992188 1.975585938q 0 1.309082031 0.416992188 1.979003906q 0.416992188 0.669921875 1.233886719 0.669921875Z "/></symbol><symbol id="g419B5BF32E4973F3C8BB651289BFDBFE" overflow="visible"><path d="M 0 0m 0.922851563 0.581054688h 1.073242188v 3.899902344l -1.155273438 -0.259765625v 0.62890625l 1.1484375 0.252929688h 0.690429688v -4.521972656h 1.059570313v -0.581054688h -2.81640625v 0.581054688Z "/></symbol><symbol id="gC187E17D2E413AE96EEE4EB0AD104EC5" overflow="visible"><path d="M 0 0m 1.274902344 0.581054688h 2.344726563v -0.581054688h -3.100097656v 0.581054688q 0.639160156 0.673339844 1.117675781 1.189453125q 0.478515625 0.516113281 0.659667969 0.728027344q 0.341796875 0.416992188 0.461425781 0.675048828q 0.119628906 0.258056641 0.119628906 0.528076172q 0 0.427246094 -0.251220703 0.669921875q -0.251220703 0.242675781 -0.688720703 0.242675781q -0.311035156 0 -0.652832031 -0.112792969q -0.341796875 -0.112792969 -0.724609375 -0.341796875v 0.697265625q 0.352050781 0.167480469 0.692138672 0.252929688q 0.340087891 0.085449219 0.671630859 0.085449219q 0.748535156 0 1.204833984 -0.398193359q 0.456298828 -0.398193359 0.456298828 -1.044189453q 0 -0.328125 -0.152099609 -0.65625q -0.152099609 -0.328125 -0.493896484 -0.724609375q -0.19140625 -0.222167969 -0.555419922 -0.615234375q -0.364013672 -0.393066406 -1.109130859 -1.17578125Z "/></symbol><symbol id="g754B3FF50F736B413FF4B76FF3AEDCF9" overflow="visible"><path d="M 0 0m 2.65234375 2.730957031q 0.502441406 -0.133300781 0.769042969 -0.473388672q 0.266601563 -0.340087891 0.266601563 -0.849365234q 0 -0.704101563 -0.473388672 -1.105712891q -0.473388672 -0.401611328 -1.310791016 -0.401611328q -0.352050781 0 -0.717773438 0.064941406q -0.365722656 0.064941406 -0.717773438 0.187988281v 0.687011719q 0.348632813 -0.181152344 0.687011719 -0.270019531q 0.338378906 -0.088867188 0.673339844 -0.088867188q 0.567382813 0 0.871582031 0.256347656q 0.304199219 0.256347656 0.304199219 0.73828125q 0 0.444335938 -0.304199219 0.705810547q -0.304199219 0.261474609 -0.823730469 0.261474609h -0.526367188v 0.567382813h 0.526367188q 0.475097656 0 0.741699219 0.208496094q 0.266601563 0.208496094 0.266601563 0.581054688q 0 0.393066406 -0.247802734 0.603271484q -0.247802734 0.210205078 -0.705810547 0.210205078q -0.304199219 0 -0.62890625 -0.068359375q -0.324707031 -0.068359375 -0.680175781 -0.205078125v 0.635742188q 0.413574219 0.109375 0.736572266 0.1640625q 0.322998047 0.0546875 0.572509766 0.0546875q 0.745117188 0 1.191162109 -0.374267578q 0.446044922 -0.374267578 0.446044922 -0.992919922q 0 -0.420410156 -0.234130859 -0.700683594q -0.234130859 -0.280273438 -0.681884766 -0.396484375Z "/></symbol><symbol id="g5B400B781F071420A822F961911D6FAA" overflow="visible"><path d="M 0 0m 2.512207031 4.474121094l -1.609863281 -2.696777344h 1.609863281v 2.696777344Z m -0.112792969 0.62890625h 0.799804688v -3.325683594h 0.680175781v -0.560546875h -0.680175781v -1.216796875h -0.687011719v 1.216796875h -2.163574219v 0.652832031l 2.05078125 3.233398438Z "/></symbol><symbol id="gB3BB4BD4D0CF38AE528F820CB7B96AA8" overflow="visible"><path d="M 0 0m 0.707519531 5.103027344h 2.583984375v -0.581054688h -1.955078125v -1.254394531q 0.146972656 0.0546875 0.295654297 0.080322266q 0.148681641 0.025634766 0.299072266 0.025634766q 0.79296875 0 1.2578125 -0.468261719q 0.46484375 -0.468261719 0.46484375 -1.268066406q 0 -0.806640625 -0.487060547 -1.271484375q -0.487060547 -0.46484375 -1.331298828 -0.46484375q -0.406738281 0 -0.743408203 0.0546875q -0.336669922 0.0546875 -0.603271484 0.1640625v 0.700683594q 0.314453125 -0.170898438 0.632324219 -0.254638672q 0.317871094 -0.083740234 0.649414063 -0.083740234q 0.570800781 0 0.880126953 0.30078125q 0.309326172 0.30078125 0.309326172 0.854492188q 0 0.546875 -0.319580078 0.851074219q -0.319580078 0.304199219 -0.890380859 0.304199219q -0.276855469 0 -0.540039063 -0.063232422q -0.263183594 -0.063232422 -0.502441406 -0.189697266v 2.563476563Z "/></symbol><symbol id="gA712E711BA6A9C5BE02D63B247BADC83" overflow="visible"><path d="M 0 0m 3.387207031 4.990234375v -0.635742188q -0.215332031 0.126464844 -0.458007813 0.193115234q -0.242675781 0.066650391 -0.505859375 0.066650391q -0.65625 0 -0.994628906 -0.493896484q -0.338378906 -0.493896484 -0.338378906 -1.454345703q 0.1640625 0.341796875 0.454589844 0.524658203q 0.290527344 0.182861328 0.666503906 0.182861328q 0.73828125 0 1.143310547 -0.452880859q 0.405029297 -0.452880859 0.405029297 -1.283447266q 0 -0.827148438 -0.416992188 -1.281738281q -0.416992188 -0.454589844 -1.172363281 -0.454589844q -0.888671875 0 -1.302246094 0.637451172q -0.413574219 0.637451172 -0.413574219 2.008056641q 0 1.291992188 0.497314453 1.970458984q 0.497314453 0.678466797 1.440673828 0.678466797q 0.252929688 0 0.505859375 -0.052978516q 0.252929688 -0.052978516 0.488769531 -0.152099609Z m -1.23046875 -2.156738281q -0.440917969 0 -0.693847656 -0.317871094q -0.252929688 -0.317871094 -0.252929688 -0.878417969q 0 -0.560546875 0.252929688 -0.878417969q 0.252929688 -0.317871094 0.693847656 -0.317871094q 0.458007813 0 0.690429688 0.302490234q 0.232421875 0.302490234 0.232421875 0.893798828q 0 0.594726563 -0.232421875 0.895507813q -0.232421875 0.30078125 -0.690429688 0.30078125Z "/></symbol><symbol id="g617B31A6C49FF59C61C90D7C56F9E57" overflow="visible"><path d="M 0 0m 0.475097656 5.103027344h 3.212890625v -0.293945313l -1.825195313 -4.809082031h -0.721191406l 1.77734375 4.521972656h -2.443847656v 0.581054688Z "/></symbol><symbol id="g48D33B098131377951D7357268703689" overflow="visible"><path d="M 0 0m 0.377929688 6.561035156h 1.186523438l 1.133789063 -3.33984375l 1.142578125 3.33984375h 1.190917969v -6.561035156h -0.821777344v 5.796386719l -1.168945313 -3.458496094h -0.672363281l -1.173339844 3.458496094v -5.796386719h -0.817382813v 6.561035156Z "/></symbol><symbol id="g2255461D10F6FA7778B03CFE4EC2A765" overflow="visible"><path d="M 0 0m 2.70703125 4.354980469q -0.615234375 0 -0.931640625 -0.479003906q -0.31640625 -0.479003906 -0.31640625 -1.419433594q 0 -0.936035156 0.31640625 -1.417236328q 0.31640625 -0.481201172 0.931640625 -0.481201172q 0.619628906 0 0.936035156 0.481201172q 0.31640625 0.481201172 0.31640625 1.417236328q 0 0.940429688 -0.31640625 1.419433594q -0.31640625 0.479003906 -0.936035156 0.479003906Z m 0 0.685546875q 1.023925781 0 1.566650391 -0.663574219q 0.542724609 -0.663574219 0.542724609 -1.920410156q 0 -1.261230469 -0.540527344 -1.922607422q -0.540527344 -0.661376953 -1.568847656 -0.661376953q -1.023925781 0 -1.564453125 0.661376953q -0.540527344 0.661376953 -0.540527344 1.922607422q 0 1.256835938 0.540527344 1.920410156q 0.540527344 0.663574219 1.564453125 0.663574219Z "/></symbol><symbol id="g58313F1A4738DE0FA7C2FB82C3A2887B" overflow="visible"><path d="M 0 0m 3.770507813 4.293457031v 2.544433594h 0.80859375v -6.837890625h -0.80859375v 0.619628906q -0.202148438 -0.364746094 -0.538330078 -0.555908203q -0.336181641 -0.191162109 -0.775634766 -0.191162109q -0.892089844 0 -1.404052734 0.692138672q -0.511962891 0.692138672 -0.511962891 1.909423828q 0 1.199707031 0.514160156 1.883056641q 0.514160156 0.683349609 1.401855469 0.683349609q 0.443847656 0 0.782226563 -0.191162109q 0.338378906 -0.191162109 0.531738281 -0.555908203Z m -2.377441406 -1.836914063q 0 -0.940429688 0.298828125 -1.419433594q 0.298828125 -0.479003906 0.883300781 -0.479003906q 0.584472656 0 0.889892578 0.483398438q 0.305419922 0.483398438 0.305419922 1.415039063q 0 0.936035156 -0.305419922 1.417236328q -0.305419922 0.481201172 -0.889892578 0.481201172q -0.584472656 0 -0.883300781 -0.479003906q -0.298828125 -0.479003906 -0.298828125 -1.419433594Z "/></symbol><symbol id="g7AB52EE3E353BBC5A51DD7867DA02542" overflow="visible"><path d="M 0 0m 4.88671875 2.663085938v -0.395507813h -3.502441406v -0.026367188q 0 -0.804199219 0.419677734 -1.243652344q 0.419677734 -0.439453125 1.184326172 -0.439453125q 0.38671875 0 0.80859375 0.123046875q 0.421875 0.123046875 0.900878906 0.373535156v -0.804199219q -0.461425781 -0.188964844 -0.889892578 -0.283447266q -0.428466797 -0.094482422 -0.828369141 -0.094482422q -1.146972656 0 -1.79296875 0.687744141q -0.645996094 0.687744141 -0.645996094 1.896240234q 0 1.177734375 0.6328125 1.880859375q 0.6328125 0.703125 1.6875 0.703125q 0.940429688 0 1.483154297 -0.637207031q 0.542724609 -0.637207031 0.542724609 -1.740234375Z m -0.80859375 0.237304688q -0.017578125 0.711914063 -0.336181641 1.083251953q -0.318603516 0.371337891 -0.916259766 0.371337891q -0.584472656 0 -0.962402344 -0.38671875q -0.377929688 -0.38671875 -0.448242188 -1.072265625l 2.663085938 0.004394531Z "/></symbol><symbol id="g5852670AF90DC19AEB772BAC58E5FC3E" overflow="visible"><path d="M 0 0m 2.10546875 2.423339844q -0.461425781 0 -0.712646484 -0.258056641q -0.251220703 -0.258056641 -0.251220703 -0.729736328q 0 -0.471679688 0.254638672 -0.733154297q 0.254638672 -0.261474609 0.709228516 -0.261474609q 0.46484375 0 0.716064453 0.258056641q 0.251220703 0.258056641 0.251220703 0.736572266q 0 0.468261719 -0.254638672 0.728027344q -0.254638672 0.259765625 -0.712646484 0.259765625Z m -0.6015625 0.287109375q -0.440917969 0.112792969 -0.688720703 0.420410156q -0.247802734 0.307617188 -0.247802734 0.741699219q 0 0.608398438 0.413574219 0.965576172q 0.413574219 0.357177734 1.124511719 0.357177734q 0.714355469 0 1.127929688 -0.357177734q 0.413574219 -0.357177734 0.413574219 -0.965576172q 0 -0.434082031 -0.247802734 -0.741699219q -0.247802734 -0.307617188 -0.688720703 -0.420410156q 0.512695313 -0.112792969 0.784423828 -0.454589844q 0.271728516 -0.341796875 0.271728516 -0.885253906q 0 -0.690429688 -0.440917969 -1.080078125q -0.440917969 -0.389648438 -1.220214844 -0.389648438q -0.779296875 0 -1.218505859 0.387939453q -0.439208984 0.387939453 -0.439208984 1.074951172q 0 0.546875 0.271728516 0.890380859q 0.271728516 0.343505859 0.784423828 0.456298828Z m -0.249511719 1.097167969q 0 -0.41015625 0.21875 -0.625488281q 0.21875 -0.215332031 0.632324219 -0.215332031q 0.416992188 0 0.635742188 0.215332031q 0.21875 0.215332031 0.21875 0.625488281q 0 0.416992188 -0.217041016 0.635742188q -0.217041016 0.21875 -0.637451172 0.21875q -0.413574219 0 -0.632324219 -0.220458984q -0.21875 -0.220458984 -0.21875 -0.634033203Z "/></symbol><symbol id="g6B2C36BEE7D499E783BDA831CA869771" overflow="visible"><path d="M 0 0m 4.715332031 0.232910156q -0.338378906 -0.180175781 -0.694335938 -0.270263672q -0.355957031 -0.090087891 -0.755859375 -0.090087891q -1.261230469 0 -1.957763672 0.892089844q -0.696533203 0.892089844 -0.696533203 2.509277344q 0 1.608398438 0.700927734 2.507080078q 0.700927734 0.898681641 1.953369141 0.898681641q 0.399902344 0 0.755859375 -0.090087891q 0.355957031 -0.090087891 0.694335938 -0.270263672v -0.909667969q -0.325195313 0.268066406 -0.698730469 0.408691406q -0.373535156 0.140625 -0.751464844 0.140625q -0.865722656 0 -1.296386719 -0.66796875q -0.430664063 -0.66796875 -0.430664063 -2.017089844q 0 -1.344726563 0.430664063 -2.012695313q 0.430664063 -0.66796875 1.296386719 -0.66796875q 0.38671875 0 0.758056641 0.140625q 0.371337891 0.140625 0.692138672 0.408691406v -0.909667969Z "/></symbol><symbol id="g938E69ED36E731A02DE8C05C4046C388" overflow="visible"><path d="M 0 0m 3.084960938 2.474121094h -0.268066406q -0.707519531 0 -1.065673828 -0.248291016q -0.358154297 -0.248291016 -0.358154297 -0.740478516q 0 -0.443847656 0.268066406 -0.689941406q 0.268066406 -0.24609375 0.742675781 -0.24609375q 0.66796875 0 1.050292969 0.463623047q 0.382324219 0.463623047 0.38671875 1.281005859v 0.180175781h -0.755859375Z m 1.568847656 0.333984375v -2.808105469h -0.812988281v 0.729492188q -0.259277344 -0.439453125 -0.652587891 -0.648193359q -0.393310547 -0.208740234 -0.955810547 -0.208740234q -0.751464844 0 -1.199707031 0.424072266q -0.448242188 0.424072266 -0.448242188 1.135986328q 0 0.821777344 0.551513672 1.248046875q 0.551513672 0.426269531 1.619384766 0.426269531h 1.085449219v 0.127441406q -0.004394531 0.588867188 -0.298828125 0.854736328q -0.294433594 0.265869141 -0.940429688 0.265869141q -0.413085938 0 -0.834960938 -0.118652344q -0.421875 -0.118652344 -0.821777344 -0.347167969v 0.80859375q 0.448242188 0.171386719 0.859130859 0.257080078q 0.410888672 0.085693359 0.797607422 0.085693359q 0.610839844 0 1.043701172 -0.180175781q 0.432861328 -0.180175781 0.700927734 -0.540527344q 0.166992188 -0.219726563 0.237304688 -0.542724609q 0.0703125 -0.322998047 0.0703125 -0.968994141Z "/></symbol><symbol id="g7477BFBAAF637CCDF9641599D764977A" overflow="visible"><path d="M 0 0m 5.075683594 3.906738281q -0.259277344 0.202148438 -0.52734375 0.294433594q -0.268066406 0.092285156 -0.588867188 0.092285156q -0.755859375 0 -1.155761719 -0.474609375q -0.399902344 -0.474609375 -0.399902344 -1.37109375v -2.447753906h -0.812988281v 4.921875h 0.812988281v -0.962402344q 0.202148438 0.522949219 0.621826172 0.802001953q 0.419677734 0.279052734 0.995361328 0.279052734q 0.298828125 0 0.558105469 -0.074707031q 0.259277344 -0.074707031 0.496582031 -0.232910156v -0.826171875Z "/></symbol><symbol id="g38B083BD239057D20AED09CAC0460095" overflow="visible"><path d="M 0 0m 3.770507813 1.58203125q -0.202148438 -0.514160156 -0.514160156 -1.353515625q -0.435058594 -1.16015625 -0.584472656 -1.415039063q -0.202148438 -0.342773438 -0.505371094 -0.514160156q -0.303222656 -0.171386719 -0.707519531 -0.171386719h -0.650390625v 0.676757813h 0.479003906q 0.355957031 0 0.558105469 0.206542969q 0.202148438 0.206542969 0.514160156 1.067871094l -1.902832031 4.842773438h 0.856933594l 1.458984375 -3.849609375l 1.437011719 3.849609375h 0.856933594l -1.296386719 -3.33984375Z "/></symbol><symbol id="gD309046CB97E24C26900E7DAE3E25623" overflow="visible"><path d="M 0 0m 0.782226563 6.561035156h 4.258300781v -0.676757813l -3.427734375 -5.137207031h 3.524414063v -0.747070313h -4.451660156v 0.676757813l 3.335449219 5.137207031h -3.238769531v 0.747070313Z "/></symbol><symbol id="gCFBAA1FDA6E674E76337DAE5F77C9807" overflow="visible"><path d="M 0 0m 4.447265625 6.336914063v -0.900878906q -0.404296875 0.259277344 -0.810791016 0.391113281q -0.406494141 0.131835938 -0.819580078 0.131835938q -0.628417969 0 -0.993164063 -0.292236328q -0.364746094 -0.292236328 -0.364746094 -0.788818359q 0 -0.435058594 0.239501953 -0.663574219q 0.239501953 -0.228515625 0.894287109 -0.382324219l 0.465820313 -0.10546875q 0.922851563 -0.215332031 1.344726563 -0.676757813q 0.421875 -0.461425781 0.421875 -1.256835938q 0 -0.936035156 -0.580078125 -1.428222656q -0.580078125 -0.4921875 -1.6875 -0.4921875q -0.461425781 0 -0.927246094 0.098876953q -0.465820313 0.098876953 -0.936035156 0.296630859v 0.944824219q 0.505371094 -0.320800781 0.955810547 -0.470214844q 0.450439453 -0.149414063 0.907470703 -0.149414063q 0.672363281 0 1.045898438 0.301025391q 0.373535156 0.301025391 0.373535156 0.841552734q 0 0.4921875 -0.257080078 0.751464844q -0.257080078 0.259277344 -0.894287109 0.399902344l -0.474609375 0.109863281q -0.9140625 0.206542969 -1.327148438 0.624023438q -0.413085938 0.417480469 -0.413085938 1.120605469q 0 0.87890625 0.591064453 1.408447266q 0.591064453 0.529541016 1.571044922 0.529541016q 0.377929688 0 0.795410156 -0.085693359q 0.417480469 -0.085693359 0.87890625 -0.257080078Z "/></symbol><symbol id="g4DB2D381F8A5F794812415773ECCB5AA" overflow="visible"><path d="M 0 0m 1.125 4.921875h 2.069824219v -4.293457031h 1.604003906v -0.628417969h -4.016601563v 0.628417969h 1.604003906v 3.665039063h -1.261230469v 0.628417969Z m 1.261230469 1.916015625h 0.80859375v -1.023925781h -0.80859375v 1.023925781Z "/></symbol><symbol id="g8C92B79484943BC2681D03FE18AB6E07" overflow="visible"><path d="M 0 0m 3.770507813 2.500488281q 0 0.909667969 -0.296630859 1.382080078q -0.296630859 0.472412109 -0.863525391 0.472412109q -0.593261719 0 -0.905273438 -0.472412109q -0.312011719 -0.472412109 -0.312011719 -1.382080078q 0 -0.909667969 0.314208984 -1.386474609q 0.314208984 -0.476806641 0.911865234 -0.476806641q 0.558105469 0 0.854736328 0.479003906q 0.296630859 0.479003906 0.296630859 1.384277344Z m 0.80859375 -2.184082031q 0 -1.107421875 -0.522949219 -1.678710938q -0.522949219 -0.571289063 -1.538085938 -0.571289063q -0.333984375 0 -0.698730469 0.061523438q -0.364746094 0.061523438 -0.729492188 0.180175781v 0.799804688q 0.430664063 -0.202148438 0.782226563 -0.298828125q 0.3515625 -0.096679688 0.645996094 -0.096679688q 0.654785156 0 0.953613281 0.355957031q 0.298828125 0.355957031 0.298828125 1.129394531v 0.03515625v 0.549316406q -0.193359375 -0.413085938 -0.52734375 -0.615234375q -0.333984375 -0.202148438 -0.812988281 -0.202148438q -0.861328125 0 -1.375488281 0.689941406q -0.514160156 0.689941406 -0.514160156 1.845703125q 0 1.16015625 0.514160156 1.850097656q 0.514160156 0.689941406 1.375488281 0.689941406q 0.474609375 0 0.804199219 -0.188964844q 0.329589844 -0.188964844 0.536132813 -0.584472656v 0.637207031h 0.80859375v -4.587890625Z "/></symbol><symbol id="gE7C865DDCEE76398F99503DAE9D0B8A3" overflow="visible"><path d="M 0 0m 4.618652344 3.049804688v -3.049804688h -0.812988281v 3.049804688q 0 0.663574219 -0.232910156 0.975585938q -0.232910156 0.312011719 -0.729492188 0.312011719q -0.566894531 0 -0.872314453 -0.402099609q -0.305419922 -0.402099609 -0.305419922 -1.153564453v -2.781738281h -0.80859375v 4.921875h 0.80859375v -0.73828125q 0.215332031 0.421875 0.584472656 0.639404297q 0.369140625 0.217529297 0.874511719 0.217529297q 0.751464844 0 1.122802734 -0.494384766q 0.371337891 -0.494384766 0.371337891 -1.496337891Z "/></symbol><symbol id="g2E9F72B38E934F09F09207566B5E7330" overflow="visible"><path d="M 0 0m 3.977050781 3.273925781q 0 1.445800781 -0.296630859 2.065429688q -0.296630859 0.619628906 -0.973388672 0.619628906q -0.672363281 0 -0.968994141 -0.619628906q -0.296630859 -0.619628906 -0.296630859 -2.065429688q 0 -1.44140625 0.296630859 -2.061035156q 0.296630859 -0.619628906 0.968994141 -0.619628906q 0.676757813 0 0.973388672 0.617431641q 0.296630859 0.617431641 0.296630859 2.063232422Z m 0.927246094 0q 0 -1.713867188 -0.542724609 -2.557617188q -0.542724609 -0.84375 -1.654541016 -0.84375q -1.111816406 0 -1.65234375 0.839355469q -0.540527344 0.839355469 -0.540527344 2.562011719q 0 1.718261719 0.542724609 2.562011719q 0.542724609 0.84375 1.650146484 0.84375q 1.111816406 0 1.654541016 -0.84375q 0.542724609 -0.84375 0.542724609 -2.562011719Z "/></symbol><symbol id="g415B59509A32E12277E8C470A89386EC" overflow="visible"><path d="M 0 0m 0.439453125 4.921875h 0.839355469l 1.428222656 -4.130859375l 1.432617188 4.130859375h 0.839355469l -1.749023438 -4.921875h -1.041503906l -1.749023438 4.921875Z "/></symbol><symbol id="g65BA1484017F19A104742BD9E11A7464" overflow="visible"><path d="M 0 0m 4.671386719 6.837890625v -0.672363281h -0.918457031q -0.435058594 0 -0.604248047 -0.177978516q -0.169189453 -0.177978516 -0.169189453 -0.630615234v -0.435058594h 1.691894531v -0.628417969h -1.691894531v -4.293457031h -0.80859375v 4.293457031h -1.313964844v 0.628417969h 1.313964844v 0.342773438q 0 0.80859375 0.371337891 1.190917969q 0.371337891 0.382324219 1.157958984 0.382324219h 0.971191406Z "/></symbol><symbol id="gDE0B01ABF649FFA81879F71019AF7369" overflow="visible"><path d="M 0 0m 2.808105469 1.784179688q 0 -0.544921875 0.199951172 -0.821777344q 0.199951172 -0.276855469 0.591064453 -0.276855469h 0.944824219v -0.685546875h -1.023925781q -0.725097656 0 -1.122802734 0.465820313q -0.397705078 0.465820313 -0.397705078 1.318359375v 4.469238281h -1.296386719v 0.6328125h 2.104980469v -5.102050781Z "/></symbol><symbol id="gA8D09B1222B997C441ACCCADBC635533" overflow="visible"><path d="M 0 0m 0 4.921875h 0.799804688l 0.856933594 -3.977050781l 0.703125 2.540039063h 0.689941406l 0.711914063 -2.540039063l 0.856933594 3.977050781h 0.799804688l -1.151367188 -4.921875h -0.7734375l -0.786621094 2.698242188l -0.782226563 -2.698242188h -0.7734375l -1.151367188 4.921875Z "/></symbol><symbol id="g676AB214E2079C3EA17D9A38D3B33AEE" overflow="visible"><path d="M 0 0m 1.753417969 5.831542969v -2.465332031h 1.028320313q 0.615234375 0 0.960205078 0.325195313q 0.344970703 0.325195313 0.344970703 0.909667969q 0 0.584472656 -0.342773438 0.907470703q -0.342773438 0.322998047 -0.962402344 0.322998047h -1.028320313Z m -0.887695313 0.729492188h 1.916015625q 1.098632813 0 1.665527344 -0.498779297q 0.566894531 -0.498779297 0.566894531 -1.461181641q 0 -0.971191406 -0.564697266 -1.467773438q -0.564697266 -0.496582031 -1.667724609 -0.496582031h -1.028320313v -2.63671875h -0.887695313v 6.561035156Z "/></symbol><symbol id="g8F0D6193858E593CDF883C583C47BB14" overflow="visible"><path d="M 0 0m 2.698242188 6.319335938v -1.397460938h 1.836914063v -0.628417969h -1.836914063v -2.671875q 0 -0.544921875 0.206542969 -0.760253906q 0.206542969 -0.215332031 0.720703125 -0.215332031h 0.909667969v -0.645996094h -0.988769531q -0.909667969 0 -1.283203125 0.364746094q -0.373535156 0.364746094 -0.373535156 1.256835938v 2.671875h -1.313964844v 0.628417969h 1.313964844v 1.397460938h 0.80859375Z "/></symbol><symbol id="gCF723F8566059D1DEF850321481B04D9" overflow="visible"><path d="M 0 0m 2.70703125 5.778808594l -0.936035156 -3.357421875h 1.872070313l -0.936035156 3.357421875Z m -0.536132813 0.782226563h 1.076660156l 2.008300781 -6.561035156h -0.918457031l -0.483398438 1.709472656h -2.298339844l -0.474609375 -1.709472656h -0.918457031l 2.008300781 6.561035156Z "/></symbol><symbol id="g2DA729C4CE09DA97FA9D42E76D535F32" overflow="visible"><path d="M 0 0m 0.856933594 1.86328125v 3.049804688h 0.80859375v -3.049804688q 0 -0.663574219 0.235107422 -0.975585938q 0.235107422 -0.312011719 0.727294922 -0.312011719q 0.571289063 0 0.874511719 0.402099609q 0.303222656 0.402099609 0.303222656 1.153564453v 2.781738281h 0.812988281v -4.913085938h -0.812988281v 0.73828125q -0.215332031 -0.426269531 -0.586669922 -0.645996094q -0.371337891 -0.219726563 -0.867919922 -0.219726563q -0.755859375 0 -1.125 0.494384766q -0.369140625 0.494384766 -0.369140625 1.496337891Z "/></symbol><symbol id="gF569396F38F0E4D592D86AC70FB95DB5" overflow="visible"><path d="M 0 0m 4.913085938 4.921875l -1.762207031 -2.35546875l 1.93359375 -2.56640625h -0.936035156l -1.44140625 1.973144531l -1.437011719 -1.973144531h -0.936035156l 1.93359375 2.56640625l -1.762207031 2.35546875h 0.896484375l 1.305175781 -1.779785156l 1.296386719 1.779785156h 0.909667969Z "/></symbol><symbol id="gA64AE1A8BBEFCCE9020270D61D41DD43" overflow="visible"><path d="M 0 0m 0.883300781 6.561035156h 3.643066406v -0.747070313h -1.375488281v -5.066894531h 1.375488281v -0.747070313h -3.643066406v 0.747070313h 1.375488281v 5.066894531h -1.375488281v 0.747070313Z "/></symbol><symbol id="g73DFC4604EA179DAF71A84E3F3D9DFE8" overflow="visible"><path d="M 0 0m 3.33984375 3.098144531q 0.342773438 -0.087890625 0.584472656 -0.331787109q 0.241699219 -0.243896484 0.602050781 -0.973388672l 0.892089844 -1.79296875h -0.953613281l -0.782226563 1.656738281q -0.338378906 0.707519531 -0.608642578 0.911865234q -0.270263672 0.204345703 -0.705322266 0.204345703h -0.848144531v -2.772949219h -0.892089844v 6.561035156h 1.828125q 1.081054688 0 1.656738281 -0.487792969q 0.575683594 -0.487792969 0.575683594 -1.410644531q 0 -0.650390625 -0.353759766 -1.061279297q -0.353759766 -0.410888672 -0.995361328 -0.503173828Z m -1.819335938 2.733398438v -2.329101563h 0.971191406q 0.637207031 0 0.94921875 0.285644531q 0.312011719 0.285644531 0.312011719 0.874511719q 0 0.566894531 -0.331787109 0.867919922q -0.331787109 0.301025391 -0.964599609 0.301025391h -0.936035156Z "/></symbol><symbol id="gAE2216B71E58B837FC18125F9E8A7AA" overflow="visible"><path d="M 0 0m 2.878417969 -0.118652344q -0.030761719 0 -0.087890625 -0.004394531q -0.057128906 -0.004394531 -0.092285156 -0.004394531q -1.098632813 0 -1.641357422 0.84375q -0.542724609 0.84375 -0.542724609 2.557617188q 0 1.718261719 0.542724609 2.562011719q 0.542724609 0.84375 1.650146484 0.84375q 1.111816406 0 1.654541016 -0.84375q 0.542724609 -0.84375 0.542724609 -2.562011719q 0 -1.291992188 -0.301025391 -2.080810547q -0.301025391 -0.788818359 -0.911865234 -1.105224609l 0.87890625 -0.834960938l -0.663574219 -0.439453125l -1.028320313 1.067871094Z m 1.098632813 3.392578125q 0 1.445800781 -0.296630859 2.065429688q -0.296630859 0.619628906 -0.973388672 0.619628906q -0.672363281 0 -0.968994141 -0.619628906q -0.296630859 -0.619628906 -0.296630859 -2.065429688q 0 -1.44140625 0.296630859 -2.061035156q 0.296630859 -0.619628906 0.968994141 -0.619628906q 0.676757813 0 0.973388672 0.617431641q 0.296630859 0.617431641 0.296630859 2.063232422Z "/></symbol><symbol id="g53A87DE062232684A2ECF87192268201" overflow="visible"><path d="M 0 0m 1.023925781 6.561035156h 3.862792969v -0.747070313h -2.970703125v -1.93359375h 2.693847656v -0.747070313h -2.693847656v -3.133300781h -0.892089844v 6.561035156Z "/></symbol></defs></svg>