<svg viewBox="0 0 302.125984252 74.692913386" width="302.125984252pt" height="74.692913386pt" xmlns="http://www.w3.org/2000/svg" xmlns:xlink="http://www.w3.org/1999/xlink" xmlns:h5="http://www.w3.org/1999/xhtml"><path fill="#ffffff" fill-rule="nonzero" d="M 0 0v 74.692913386h 302.125984252v -74.692913386Z "/><g transform="translate(6 6)"><path fill="#f1ca73" fill-rule="nonzero" d="M 0 0m 0 3c 0 -1.656854249 1.343145751 -3 3 -3h 62.031496063c 1.656854249 0 3 1.343145751 3 3v 22.346456693c 0 1.656854249 -1.343145751 3 -3 3h -62.031496063c -1.656854249 0 -3 -1.343145751 -3 -3Z "/><g transform="matrix(1 0 0 -1 17.760376938 17.592173659)"><use xlink:href="#g2255461D10F6FA7778B03CFE4EC2A765" x="0" y="0" fill="#000000" fill-rule="nonzero"/><use xlink:href="#g7477BFBAAF637CCDF9641599D764977A" x="5.418457031" y="0" fill="#000000" fill-rule="nonzero"/><use xlink:href="#g938E69ED36E731A02DE8C05C4046C388" x="10.836914063" y="0" fill="#000000" fill-rule="nonzero"/><use xlink:href="#gE7C865DDCEE76398F99503DAE9D0B8A3" x="16.255371094" y="0" fill="#000000" fill-rule="nonzero"/><use xlink:href="#g8C92B79484943BC2681D03FE18AB6E07" x="21.673828125" y="0" fill="#000000" fill-rule="nonzero"/><use xlink:href="#g7AB52EE3E353BBC5A51DD7867DA02542" x="27.092285156" y="0" fill="#000000" fill-rule="nonzero"/></g></g><g transform="translate(80.031496063 6)"><path fill="#a2d6f3" fill-rule="nonzero" d="M 0 0m 0 3c 0 -1.656854249 1.343145751 -3 3 -3h 62.031496063c 1.656854249 0 3 1.343145751 3 3v 22.346456693c 0 1.656854249 -1.343145751 3 -3 3h -62.031496063c -1.656854249 0 -3 -1.343145751 -3 -3Z "/><g transform="matrix(1 0 0 -1 25.888062485 17.592173659)"><use xlink:href="#g649CCD0F16DD3D5172DC3BA285BBE4C0" x="0" y="0" fill="#000000" fill-rule="nonzero"/><use xlink:href="#g7916AE05C600469908DE87E4AAC6BF26" x="5.418457031" y="0" fill="#000000" fill-rule="nonzero"/><use xlink:href="#g38B083BD239057D20AED09CAC0460095" x="10.836914063" y="0" fill="#000000" fill-rule="nonzero"/></g></g><g transform="translate(154.062992126 6)"><path fill="#73cab2" fill-rule="nonzero" d="M 0 0m 0 3c 0 -1.656854249 1.343145751 -3 3 -3h 62.031496063c 1.656854249 0 3 1.343145751 3 3v 22.346456693c 0 1.656854249 -1.343145751 3 -3 3h -62.031496063c -1.656854249 0 -3 -1.343145751 -3 -3Z "/><g transform="matrix(1 0 0 -1 20.469605453 17.592173659)"><use xlink:href="#g8C92B79484943BC2681D03FE18AB6E07" x="0" y="0" fill="#000000" fill-rule="nonzero"/><use xlink:href="#g7477BFBAAF637CCDF9641599D764977A" x="5.418457031" y="0" fill="#000000" fill-rule="nonzero"/><use xlink:href="#g7AB52EE3E353BBC5A51DD7867DA02542" x="10.836914063" y="0" fill="#000000" fill-rule="nonzero"/><use xlink:href="#g7AB52EE3E353BBC5A51DD7867DA02542" x="16.255371094" y="0" fill="#000000" fill-rule="nonzero"/><use xlink:href="#gE7C865DDCEE76398F99503DAE9D0B8A3" x="21.673828125" y="0" fill="#000000" fill-rule="nonzero"/></g></g><g transform="translate(228.094488189 6)"><path fill="#f7f097" fill-rule="nonzero" d="M 0 0m 0 3c 0 -1.656854249 1.343145751 -3 3 -3h 62.031496063c 1.656854249 0 3 1.343145751 3 3v 22.346456693c 0 1.656854249 -1.343145751 3 -3 3h -62.031496063c -1.656854249 0 -3 -1.343145751 -3 -3Z "/><g transform="matrix(1 0 0 -1 17.760376938 17.592173659)"><use xlink:href="#g38B083BD239057D20AED09CAC0460095" x="0" y="0" fill="#000000" fill-rule="nonzero"/><use xlink:href="#g7AB52EE3E353BBC5A51DD7867DA02542" x="5.418457031" y="0" fill="#000000" fill-rule="nonzero"/><use xlink:href="#gDE0B01ABF649FFA81879F71019AF7369" x="10.836914063" y="0" fill="#000000" fill-rule="nonzero"/><use xlink:href="#gDE0B01ABF649FFA81879F71019AF7369" x="16.255371094" y="0" fill="#000000" fill-rule="nonzero"/><use xlink:href="#g2255461D10F6FA7778B03CFE4EC2A765" x="21.673828125" y="0" fill="#000000" fill-rule="nonzero"/><use xlink:href="#gA8D09B1222B997C441ACCCADBC635533" x="27.092285156" y="0" fill="#000000" fill-rule="nonzero"/></g></g><g transform="translate(6 40.346456693)"><path fill="#73b1d5" fill-rule="nonzero" d="M 0 0m 0 3c 0 -1.656854249 1.343145751 -3 3 -3h 62.031496063c 1.656854249 0 3 1.343145751 3 3v 22.346456693c 0 1.656854249 -1.343145751 3 -3 3h -62.031496063c -1.656854249 0 -3 -1.343145751 -3 -3Z "/><g transform="matrix(1 0 0 -1 23.178833969 17.592173659)"><use xlink:href="#g7FD7C007050DCEE749EDDDA32F51294A" x="0" y="0" fill="#000000" fill-rule="nonzero"/><use xlink:href="#gDE0B01ABF649FFA81879F71019AF7369" x="5.418457031" y="0" fill="#000000" fill-rule="nonzero"/><use xlink:href="#g2DA729C4CE09DA97FA9D42E76D535F32" x="10.836914063" y="0" fill="#000000" fill-rule="nonzero"/><use xlink:href="#g7AB52EE3E353BBC5A51DD7867DA02542" x="16.255371094" y="0" fill="#000000" fill-rule="nonzero"/></g></g><g transform="translate(80.031496063 40.346456693)"><path fill="#e8a673" fill-rule="nonzero" d="M 0 0m 0 3c 0 -1.656854249 1.343145751 -3 3 -3h 62.031496063c 1.656854249 0 3 1.343145751 3 3v 22.346456693c 0 1.656854249 -1.343145751 3 -3 3h -62.031496063c -1.656854249 0 -3 -1.343145751 -3 -3Z "/><g transform="matrix(1 0 0 -1 6.923462875 17.592173659)"><use xlink:href="#g415B59509A32E12277E8C470A89386EC" x="0" y="0" fill="#000000" fill-rule="nonzero"/><use xlink:href="#g7AB52EE3E353BBC5A51DD7867DA02542" x="5.418457031" y="0" fill="#000000" fill-rule="nonzero"/><use xlink:href="#g7477BFBAAF637CCDF9641599D764977A" x="10.836914063" y="0" fill="#000000" fill-rule="nonzero"/><use xlink:href="#g2248660F7487D27020870D64C7AE5EE8" x="16.255371094" y="0" fill="#000000" fill-rule="nonzero"/><use xlink:href="#g4DB2D381F8A5F794812415773ECCB5AA" x="21.673828125" y="0" fill="#000000" fill-rule="nonzero"/><use xlink:href="#gDE0B01ABF649FFA81879F71019AF7369" x="27.092285156" y="0" fill="#000000" fill-rule="nonzero"/><use xlink:href="#gDE0B01ABF649FFA81879F71019AF7369" x="32.510742188" y="0" fill="#000000" fill-rule="nonzero"/><use xlink:href="#g4DB2D381F8A5F794812415773ECCB5AA" x="37.929199219" y="0" fill="#000000" fill-rule="nonzero"/><use xlink:href="#g2255461D10F6FA7778B03CFE4EC2A765" x="43.34765625" y="0" fill="#000000" fill-rule="nonzero"/><use xlink:href="#gE7C865DDCEE76398F99503DAE9D0B8A3" x="48.766113281" y="0" fill="#000000" fill-rule="nonzero"/></g></g><g transform="translate(154.062992126 40.346456693)"><path fill="#e3b5cf" fill-rule="nonzero" d="M 0 0m 0 3c 0 -1.656854249 1.343145751 -3 3 -3h 62.031496063c 1.656854249 0 3 1.343145751 3 3v 22.346456693c 0 1.656854249 -1.343145751 3 -3 3h -62.031496063c -1.656854249 0 -3 -1.343145751 -3 -3Z "/><g transform="matrix(1 0 0 -1 17.760376938 17.592173659)"><use xlink:href="#gDEF0EC0BFF28D09A8881E7765817CC5F" x="0" y="0" fill="#000000" fill-rule="nonzero"/><use xlink:href="#g2DA729C4CE09DA97FA9D42E76D535F32" x="5.418457031" y="0" fill="#000000" fill-rule="nonzero"/><use xlink:href="#g7477BFBAAF637CCDF9641599D764977A" x="10.836914063" y="0" fill="#000000" fill-rule="nonzero"/><use xlink:href="#gDEF0EC0BFF28D09A8881E7765817CC5F" x="16.255371094" y="0" fill="#000000" fill-rule="nonzero"/><use xlink:href="#gDE0B01ABF649FFA81879F71019AF7369" x="21.673828125" y="0" fill="#000000" fill-rule="nonzero"/><use xlink:href="#g7AB52EE3E353BBC5A51DD7867DA02542" x="27.092285156" y="0" fill="#000000" fill-rule="nonzero"/></g></g><g transform="translate(228.094488189 40.346456693)"><path fill="#cccccc" fill-rule="nonzero" d="M 0 0m 0 3c 0 -1.656854249 1.343145751 -3 3 -3h 62.031496063c 1.656854249 0 3 1.343145751 3 3v 22.346456693c 0 1.656854249 -1.343145751 3 -3 3h -62.031496063c -1.656854249 0 -3 -1.343145751 -3 -3Z "/><g transform="matrix(1 0 0 -1 23.178833969 17.592173659)"><use xlink:href="#g8C92B79484943BC2681D03FE18AB6E07" x="0" y="0" fill="#000000" fill-rule="nonzero"/><use xlink:href="#g7477BFBAAF637CCDF9641599D764977A" x="5.418457031" y="0" fill="#000000" fill-rule="nonzero"/><use xlink:href="#g7AB52EE3E353BBC5A51DD7867DA02542" x="10.836914063" y="0" fill="#000000" fill-rule="nonzero"/><use xlink:href="#g38B083BD239057D20AED09CAC0460095" x="16.255371094" y="0" fill="#000000" fill-rule="nonzero"/></g></g><defs><symbol id="g2255461D10F6FA7778B03CFE4EC2A765" overflow="visible"><path d="M 0 0m 2.70703125 4.354980469q -0.615234375 0 -0.931640625 -0.479003906q -0.31640625 -0.479003906 -0.31640625 -1.419433594q 0 -0.936035156 0.31640625 -1.417236328q 0.31640625 -0.481201172 0.931640625 -0.481201172q 0.619628906 0 0.936035156 0.481201172q 0.31640625 0.481201172 0.31640625 1.417236328q 0 0.940429688 -0.31640625 1.419433594q -0.31640625 0.479003906 -0.936035156 0.479003906Z m 0 0.685546875q 1.023925781 0 1.566650391 -0.663574219q 0.542724609 -0.663574219 0.542724609 -1.920410156q 0 -1.261230469 -0.540527344 -1.922607422q -0.540527344 -0.661376953 -1.568847656 -0.661376953q -1.023925781 0 -1.564453125 0.661376953q -0.540527344 0.661376953 -0.540527344 1.922607422q 0 1.256835938 0.540527344 1.920410156q 0.540527344 0.663574219 1.564453125 0.663574219Z "/></symbol><symbol id="g7477BFBAAF637CCDF9641599D764977A" overflow="visible"><path d="M 0 0m 5.075683594 3.906738281q -0.259277344 0.202148438 -0.52734375 0.294433594q -0.268066406 0.092285156 -0.588867188 0.092285156q -0.755859375 0 -1.155761719 -0.474609375q -0.399902344 -0.474609375 -0.399902344 -1.37109375v -2.447753906h -0.812988281v 4.921875h 0.812988281v -0.962402344q 0.202148438 0.522949219 0.621826172 0.802001953q 0.419677734 0.279052734 0.995361328 0.279052734q 0.298828125 0 0.558105469 -0.074707031q 0.259277344 -0.074707031 0.496582031 -0.232910156v -0.826171875Z "/></symbol><symbol id="g938E69ED36E731A02DE8C05C4046C388" overflow="visible"><path d="M 0 0m 3.084960938 2.474121094h -0.268066406q -0.707519531 0 -1.065673828 -0.248291016q -0.358154297 -0.248291016 -0.358154297 -0.740478516q 0 -0.443847656 0.268066406 -0.689941406q 0.268066406 -0.24609375 0.742675781 -0.24609375q 0.66796875 0 1.050292969 0.463623047q 0.382324219 0.463623047 0.38671875 1.281005859v 0.180175781h -0.755859375Z m 1.568847656 0.333984375v -2.808105469h -0.812988281v 0.729492188q -0.259277344 -0.439453125 -0.652587891 -0.648193359q -0.393310547 -0.208740234 -0.955810547 -0.208740234q -0.751464844 0 -1.199707031 0.424072266q -0.448242188 0.424072266 -0.448242188 1.135986328q 0 0.821777344 0.551513672 1.248046875q 0.551513672 0.426269531 1.619384766 0.426269531h 1.085449219v 0.127441406q -0.004394531 0.588867188 -0.298828125 0.854736328q -0.294433594 0.265869141 -0.940429688 0.265869141q -0.413085938 0 -0.834960938 -0.118652344q -0.421875 -0.118652344 -0.821777344 -0.347167969v 0.80859375q 0.448242188 0.171386719 0.859130859 0.257080078q 0.410888672 0.085693359 0.797607422 0.085693359q 0.610839844 0 1.043701172 -0.180175781q 0.432861328 -0.180175781 0.700927734 -0.540527344q 0.166992188 -0.219726563 0.237304688 -0.542724609q 0.0703125 -0.322998047 0.0703125 -0.968994141Z "/></symbol><symbol id="gE7C865DDCEE76398F99503DAE9D0B8A3" overflow="visible"><path d="M 0 0m 4.618652344 3.049804688v -3.049804688h -0.812988281v 3.049804688q 0 0.663574219 -0.232910156 0.975585938q -0.232910156 0.312011719 -0.729492188 0.312011719q -0.566894531 0 -0.872314453 -0.402099609q -0.305419922 -0.402099609 -0.305419922 -1.153564453v -2.781738281h -0.80859375v 4.921875h 0.80859375v -0.73828125q 0.215332031 0.421875 0.584472656 0.639404297q 0.369140625 0.217529297 0.874511719 0.217529297q 0.751464844 0 1.122802734 -0.494384766q 0.371337891 -0.494384766 0.371337891 -1.496337891Z "/></symbol><symbol id="g8C92B79484943BC2681D03FE18AB6E07" overflow="visible"><path d="M 0 0m 3.770507813 2.500488281q 0 0.909667969 -0.296630859 1.382080078q -0.296630859 0.472412109 -0.863525391 0.472412109q -0.593261719 0 -0.905273438 -0.472412109q -0.312011719 -0.472412109 -0.312011719 -1.382080078q 0 -0.909667969 0.314208984 -1.386474609q 0.314208984 -0.476806641 0.911865234 -0.476806641q 0.558105469 0 0.854736328 0.479003906q 0.296630859 0.479003906 0.296630859 1.384277344Z m 0.80859375 -2.184082031q 0 -1.107421875 -0.522949219 -1.678710938q -0.522949219 -0.571289063 -1.538085938 -0.571289063q -0.333984375 0 -0.698730469 0.061523438q -0.364746094 0.061523438 -0.729492188 0.180175781v 0.799804688q 0.430664063 -0.202148438 0.782226563 -0.298828125q 0.3515625 -0.096679688 0.645996094 -0.096679688q 0.654785156 0 0.953613281 0.355957031q 0.298828125 0.355957031 0.298828125 1.129394531v 0.03515625v 0.549316406q -0.193359375 -0.413085938 -0.52734375 -0.615234375q -0.333984375 -0.202148438 -0.812988281 -0.202148438q -0.861328125 0 -1.375488281 0.689941406q -0.514160156 0.689941406 -0.514160156 1.845703125q 0 1.16015625 0.514160156 1.850097656q 0.514160156 0.689941406 1.375488281 0.689941406q 0.474609375 0 0.804199219 -0.188964844q 0.329589844 -0.188964844 0.536132813 -0.584472656v 0.637207031h 0.80859375v -4.587890625Z "/></symbol><symbol id="g7AB52EE3E353BBC5A51DD7867DA02542" overflow="visible"><path d="M 0 0m 4.88671875 2.663085938v -0.395507813h -3.502441406v -0.026367188q 0 -0.804199219 0.419677734 -1.243652344q 0.419677734 -0.439453125 1.184326172 -0.439453125q 0.38671875 0 0.80859375 0.123046875q 0.421875 0.123046875 0.900878906 0.373535156v -0.804199219q -0.461425781 -0.188964844 -0.889892578 -0.283447266q -0.428466797 -0.094482422 -0.828369141 -0.094482422q -1.146972656 0 -1.79296875 0.687744141q -0.645996094 0.687744141 -0.645996094 1.896240234q 0 1.177734375 0.6328125 1.880859375q 0.6328125 0.703125 1.6875 0.703125q 0.940429688 0 1.483154297 -0.637207031q 0.542724609 -0.637207031 0.542724609 -1.740234375Z m -0.80859375 0.237304688q -0.017578125 0.711914063 -0.336181641 1.083251953q -0.318603516 0.371337891 -0.916259766 0.371337891q -0.584472656 0 -0.962402344 -0.38671875q -0.377929688 -0.38671875 -0.448242188 -1.072265625l 2.663085938 0.004394531Z "/></symbol><symbol id="g649CCD0F16DD3D5172DC3BA285BBE4C0" overflow="visible"><path d="M 0 0m 4.275878906 4.750488281v -0.791015625q -0.347167969 0.202148438 -0.698730469 0.303222656q -0.3515625 0.101074219 -0.716308594 0.101074219q -0.549316406 0 -0.819580078 -0.177978516q -0.270263672 -0.177978516 -0.270263672 -0.542724609q 0 -0.329589844 0.202148438 -0.4921875q 0.202148438 -0.162597656 1.006347656 -0.31640625l 0.325195313 -0.061523438q 0.602050781 -0.114257813 0.911865234 -0.45703125q 0.309814453 -0.342773438 0.309814453 -0.892089844q 0 -0.729492188 -0.518554688 -1.140380859q -0.518554688 -0.410888672 -1.44140625 -0.410888672q -0.364746094 0 -0.764648438 0.076904297q -0.399902344 0.076904297 -0.865722656 0.230712891v 0.834960938q 0.452636719 -0.232910156 0.865722656 -0.349365234q 0.413085938 -0.116455078 0.782226563 -0.116455078q 0.536132813 0 0.830566406 0.217529297q 0.294433594 0.217529297 0.294433594 0.608642578q 0 0.5625 -1.076660156 0.777832031l -0.03515625 0.008789063l -0.303222656 0.061523438q -0.698730469 0.136230469 -1.01953125 0.459228516q -0.320800781 0.322998047 -0.320800781 0.881103516q 0 0.707519531 0.479003906 1.092041016q 0.479003906 0.384521484 1.366699219 0.384521484q 0.395507813 0 0.760253906 -0.072509766q 0.364746094 -0.072509766 0.716308594 -0.217529297Z "/></symbol><symbol id="g7916AE05C600469908DE87E4AAC6BF26" overflow="visible"><path d="M 0 0m 1.037109375 6.837890625h 0.834960938v -3.959472656l 2.122558594 2.043457031h 0.984375l -1.937988281 -1.854492188l 2.241210938 -3.067382813h -0.988769531l -1.819335938 2.540039063l -0.602050781 -0.566894531v -1.973144531h -0.834960938v 6.837890625Z "/></symbol><symbol id="g38B083BD239057D20AED09CAC0460095" overflow="visible"><path d="M 0 0m 3.770507813 1.58203125q -0.202148438 -0.514160156 -0.514160156 -1.353515625q -0.435058594 -1.16015625 -0.584472656 -1.415039063q -0.202148438 -0.342773438 -0.505371094 -0.514160156q -0.303222656 -0.171386719 -0.707519531 -0.171386719h -0.650390625v 0.676757813h 0.479003906q 0.355957031 0 0.558105469 0.206542969q 0.202148438 0.206542969 0.514160156 1.067871094l -1.902832031 4.842773438h 0.856933594l 1.458984375 -3.849609375l 1.437011719 3.849609375h 0.856933594l -1.296386719 -3.33984375Z "/></symbol><symbol id="gDE0B01ABF649FFA81879F71019AF7369" overflow="visible"><path d="M 0 0m 2.808105469 1.784179688q 0 -0.544921875 0.199951172 -0.821777344q 0.199951172 -0.276855469 0.591064453 -0.276855469h 0.944824219v -0.685546875h -1.023925781q -0.725097656 0 -1.122802734 0.465820313q -0.397705078 0.465820313 -0.397705078 1.318359375v 4.469238281h -1.296386719v 0.6328125h 2.104980469v -5.102050781Z "/></symbol><symbol id="gA8D09B1222B997C441ACCCADBC635533" overflow="visible"><path d="M 0 0m 0 4.921875h 0.799804688l 0.856933594 -3.977050781l 0.703125 2.540039063h 0.689941406l 0.711914063 -2.540039063l 0.856933594 3.977050781h 0.799804688l -1.151367188 -4.921875h -0.7734375l -0.786621094 2.698242188l -0.782226563 -2.698242188h -0.7734375l -1.151367188 4.921875Z "/></symbol><symbol id="g7FD7C007050DCEE749EDDDA32F51294A" overflow="visible"><path d="M 0 0m 4.034179688 2.456542969q 0 0.940429688 -0.298828125 1.419433594q -0.298828125 0.479003906 -0.883300781 0.479003906q -0.588867188 0 -0.892089844 -0.481201172q -0.303222656 -0.481201172 -0.303222656 -1.417236328q 0 -0.931640625 0.303222656 -1.415039063q 0.303222656 -0.483398438 0.892089844 -0.483398438q 0.584472656 0 0.883300781 0.479003906q 0.298828125 0.479003906 0.298828125 1.419433594Z m -2.377441406 1.836914063q 0.193359375 0.360351563 0.533935547 0.553710938q 0.340576172 0.193359375 0.788818359 0.193359375q 0.887695313 0 1.397460938 -0.683349609q 0.509765625 -0.683349609 0.509765625 -1.883056641q 0 -1.217285156 -0.511962891 -1.909423828q -0.511962891 -0.692138672 -1.404052734 -0.692138672q -0.439453125 0 -0.775634766 0.191162109q -0.336181641 0.191162109 -0.538330078 0.555908203v -0.619628906h -0.80859375v 6.837890625h 0.80859375v -2.544433594Z "/></symbol><symbol id="g2DA729C4CE09DA97FA9D42E76D535F32" overflow="visible"><path d="M 0 0m 0.856933594 1.86328125v 3.049804688h 0.80859375v -3.049804688q 0 -0.663574219 0.235107422 -0.975585938q 0.235107422 -0.312011719 0.727294922 -0.312011719q 0.571289063 0 0.874511719 0.402099609q 0.303222656 0.402099609 0.303222656 1.153564453v 2.781738281h 0.812988281v -4.913085938h -0.812988281v 0.73828125q -0.215332031 -0.426269531 -0.586669922 -0.645996094q -0.371337891 -0.219726563 -0.867919922 -0.219726563q -0.755859375 0 -1.125 0.494384766q -0.369140625 0.494384766 -0.369140625 1.496337891Z "/></symbol><symbol id="g415B59509A32E12277E8C470A89386EC" overflow="visible"><path d="M 0 0m 0.439453125 4.921875h 0.839355469l 1.428222656 -4.130859375l 1.432617188 4.130859375h 0.839355469l -1.749023438 -4.921875h -1.041503906l -1.749023438 4.921875Z "/></symbol><symbol id="g2248660F7487D27020870D64C7AE5EE8" overflow="visible"><path d="M 0 0m 2.970703125 4.420898438q 0.149414063 0.31640625 0.380126953 0.468017578q 0.230712891 0.151611328 0.555908203 0.151611328q 0.593261719 0 0.837158203 -0.459228516q 0.243896484 -0.459228516 0.243896484 -1.729248047v -2.852050781h -0.73828125v 2.816894531q 0 1.041503906 -0.116455078 1.294189453q -0.116455078 0.252685547 -0.424072266 0.252685547q -0.3515625 0 -0.481201172 -0.270263672q -0.129638672 -0.270263672 -0.129638672 -1.276611328v -2.816894531h -0.73828125v 2.816894531q 0 1.0546875 -0.125244141 1.30078125q -0.125244141 0.24609375 -0.450439453 0.24609375q -0.320800781 0 -0.446044922 -0.270263672q -0.125244141 -0.270263672 -0.125244141 -1.276611328v -2.816894531h -0.733886719v 4.921875h 0.733886719v -0.421875q 0.145019531 0.263671875 0.362548828 0.402099609q 0.217529297 0.138427734 0.494384766 0.138427734q 0.333984375 0 0.555908203 -0.153808594q 0.221923828 -0.153808594 0.344970703 -0.465820313Z "/></symbol><symbol id="g4DB2D381F8A5F794812415773ECCB5AA" overflow="visible"><path d="M 0 0m 1.125 4.921875h 2.069824219v -4.293457031h 1.604003906v -0.628417969h -4.016601563v 0.628417969h 1.604003906v 3.665039063h -1.261230469v 0.628417969Z m 1.261230469 1.916015625h 0.80859375v -1.023925781h -0.80859375v 1.023925781Z "/></symbol><symbol id="gDEF0EC0BFF28D09A8881E7765817CC5F" overflow="visible"><path d="M 0 0m 1.647949219 0.619628906v -2.491699219h -0.812988281v 6.793945313h 0.812988281v -0.628417969q 0.202148438 0.364746094 0.538330078 0.555908203q 0.336181641 0.191162109 0.775634766 0.191162109q 0.892089844 0 1.399658203 -0.689941406q 0.507568359 -0.689941406 0.507568359 -1.911621094q 0 -1.199707031 -0.509765625 -1.883056641q -0.509765625 -0.683349609 -1.397460938 -0.683349609q -0.448242188 0 -0.784423828 0.191162109q -0.336181641 0.191162109 -0.529541016 0.555908203Z m 2.373046875 1.836914063q 0 0.940429688 -0.296630859 1.419433594q -0.296630859 0.479003906 -0.881103516 0.479003906q -0.588867188 0 -0.892089844 -0.481201172q -0.303222656 -0.481201172 -0.303222656 -1.417236328q 0 -0.931640625 0.303222656 -1.415039063q 0.303222656 -0.483398438 0.892089844 -0.483398438q 0.584472656 0 0.881103516 0.479003906q 0.296630859 0.479003906 0.296630859 1.419433594Z "/></symbol></defs></svg>