<svg viewBox="0 0 302.125984252 74.692913386" width="302.125984252pt" height="74.692913386pt" xmlns="http://www.w3.org/2000/svg" xmlns:xlink="http://www.w3.org/1999/xlink" xmlns:h5="http://www.w3.org/1999/xhtml"><path fill="#ffffff" fill-rule="nonzero" d="M 0 0v 74.692913386h 302.125984252v -74.692913386Z "/><g transform="translate(6 6)"><path fill="#f1ca73" fill-rule="nonzero" d="M 0 0m 0 3c 0 -1.656854249 1.343145751 -3 3 -3h 62.031496063c 1.656854249 0 3 1.343145751 3 3v 22.346456693c 0 1.656854249 -1.343145751 3 -3 3h -62.031496063c -1.656854249 0 -3 -1.343145751 -3 -3Z "/><g transform="matrix(1 0 0 -1 14.14807225 18.351939284)"><use xlink:href="#g24904B995034081B773D162AAD189CC7" x="0" y="0" fill="#000000" fill-rule="nonzero"/><use xlink:href="#g78A60BD6EF44BAFE40E7FFCFA896CADB" x="6.622558594" y="0" fill="#000000" fill-rule="nonzero"/><use xlink:href="#g131C0883D3FA7F50248CDBFFF6598FA2" x="13.245117188" y="0" fill="#000000" fill-rule="nonzero"/><use xlink:href="#g725F788315FC7CBC7CED7879B69B3DF9" x="19.867675781" y="0" fill="#000000" fill-rule="nonzero"/><use xlink:href="#gDEFA3C74EC08F5968A40AB150CDF23E1" x="26.490234375" y="0" fill="#000000" fill-rule="nonzero"/><use xlink:href="#g9190F31A560ABFF5498A294FFBEA6351" x="33.112792969" y="0" fill="#000000" fill-rule="nonzero"/></g></g><g transform="translate(80.031496063 6)"><path fill="#a2d6f3" fill-rule="nonzero" d="M 0 0m 0 3c 0 -1.656854249 1.343145751 -3 3 -3h 62.031496063c 1.656854249 0 3 1.343145751 3 3v 22.346456693c 0 1.656854249 -1.343145751 3 -3 3h -62.031496063c -1.656854249 0 -3 -1.343145751 -3 -3Z "/><g transform="matrix(1 0 0 -1 24.081910141 18.351939284)"><use xlink:href="#gBB9A646D67A87CC54D8197FA4DB31E5B" x="0" y="0" fill="#000000" fill-rule="nonzero"/><use xlink:href="#gF62FABE5FEFFCB8CF39AB2DD79B3F2B1" x="6.622558594" y="0" fill="#000000" fill-rule="nonzero"/><use xlink:href="#g62912C61B5E183031E900A05FA13AC9D" x="13.245117188" y="0" fill="#000000" fill-rule="nonzero"/></g></g><g transform="translate(154.062992126 6)"><path fill="#73cab2" fill-rule="nonzero" d="M 0 0m 0 3c 0 -1.656854249 1.343145751 -3 3 -3h 62.031496063c 1.656854249 0 3 1.343145751 3 3v 22.346456693c 0 1.656854249 -1.343145751 3 -3 3h -62.031496063c -1.656854249 0 -3 -1.343145751 -3 -3Z "/><g transform="matrix(1 0 0 -1 17.459351547 18.351939284)"><use xlink:href="#gDEFA3C74EC08F5968A40AB150CDF23E1" x="0" y="0" fill="#000000" fill-rule="nonzero"/><use xlink:href="#g78A60BD6EF44BAFE40E7FFCFA896CADB" x="6.622558594" y="0" fill="#000000" fill-rule="nonzero"/><use xlink:href="#g9190F31A560ABFF5498A294FFBEA6351" x="13.245117188" y="0" fill="#000000" fill-rule="nonzero"/><use xlink:href="#g9190F31A560ABFF5498A294FFBEA6351" x="19.867675781" y="0" fill="#000000" fill-rule="nonzero"/><use xlink:href="#g725F788315FC7CBC7CED7879B69B3DF9" x="26.490234375" y="0" fill="#000000" fill-rule="nonzero"/></g></g><g transform="translate(228.094488189 6)"><path fill="#f7f097" fill-rule="nonzero" d="M 0 0m 0 3c 0 -1.656854249 1.343145751 -3 3 -3h 62.031496063c 1.656854249 0 3 1.343145751 3 3v 22.346456693c 0 1.656854249 -1.343145751 3 -3 3h -62.031496063c -1.656854249 0 -3 -1.343145751 -3 -3Z "/><g transform="matrix(1 0 0 -1 14.14807225 18.351939284)"><use xlink:href="#g62912C61B5E183031E900A05FA13AC9D" x="0" y="0" fill="#000000" fill-rule="nonzero"/><use xlink:href="#g9190F31A560ABFF5498A294FFBEA6351" x="6.622558594" y="0" fill="#000000" fill-rule="nonzero"/><use xlink:href="#g5A4509B178691361908263010861F855" x="13.245117188" y="0" fill="#000000" fill-rule="nonzero"/><use xlink:href="#g5A4509B178691361908263010861F855" x="19.867675781" y="0" fill="#000000" fill-rule="nonzero"/><use xlink:href="#g24904B995034081B773D162AAD189CC7" x="26.490234375" y="0" fill="#000000" fill-rule="nonzero"/><use xlink:href="#g4D4D43CA7D265492E4D6F40F6C657A10" x="33.112792969" y="0" fill="#000000" fill-rule="nonzero"/></g></g><g transform="translate(6 40.346456693)"><path fill="#73b1d5" fill-rule="nonzero" d="M 0 0m 0 3c 0 -1.656854249 1.343145751 -3 3 -3h 62.031496063c 1.656854249 0 3 1.343145751 3 3v 22.346456693c 0 1.656854249 -1.343145751 3 -3 3h -62.031496063c -1.656854249 0 -3 -1.343145751 -3 -3Z "/><g transform="matrix(1 0 0 -1 20.770630844 18.351939284)"><use xlink:href="#g11E9506F31F3EBA38D23AE68B669BCCB" x="0" y="0" fill="#000000" fill-rule="nonzero"/><use xlink:href="#g5A4509B178691361908263010861F855" x="6.622558594" y="0" fill="#000000" fill-rule="nonzero"/><use xlink:href="#g34AA370500D2DD254CBC444E9FB03666" x="13.245117188" y="0" fill="#000000" fill-rule="nonzero"/><use xlink:href="#g9190F31A560ABFF5498A294FFBEA6351" x="19.867675781" y="0" fill="#000000" fill-rule="nonzero"/></g></g><g transform="translate(80.031496063 40.346456693)"><path fill="#e8a673" fill-rule="nonzero" d="M 0 0m 0 3c 0 -1.656854249 1.343145751 -3 3 -3h 62.031496063c 1.656854249 0 3 1.343145751 3 3v 22.346456693c 0 1.656854249 -1.343145751 3 -3 3h -62.031496063c -1.656854249 0 -3 -1.343145751 -3 -3Z "/><g transform="matrix(1 0 0 -1 0.902955063 18.351939284)"><use xlink:href="#g336D26B957B704F1EE786453795A2FBF" x="0" y="0" fill="#000000" fill-rule="nonzero"/><use xlink:href="#g9190F31A560ABFF5498A294FFBEA6351" x="6.622558594" y="0" fill="#000000" fill-rule="nonzero"/><use xlink:href="#g78A60BD6EF44BAFE40E7FFCFA896CADB" x="13.245117188" y="0" fill="#000000" fill-rule="nonzero"/><use xlink:href="#g92336E431BCE7A746AF2EA9AF43B014D" x="19.867675781" y="0" fill="#000000" fill-rule="nonzero"/><use xlink:href="#g4149A23EFDF7788061E5811ED5F25CA5" x="26.490234375" y="0" fill="#000000" fill-rule="nonzero"/><use xlink:href="#g5A4509B178691361908263010861F855" x="33.112792969" y="0" fill="#000000" fill-rule="nonzero"/><use xlink:href="#g5A4509B178691361908263010861F855" x="39.735351563" y="0" fill="#000000" fill-rule="nonzero"/><use xlink:href="#g4149A23EFDF7788061E5811ED5F25CA5" x="46.357910156" y="0" fill="#000000" fill-rule="nonzero"/><use xlink:href="#g24904B995034081B773D162AAD189CC7" x="52.98046875" y="0" fill="#000000" fill-rule="nonzero"/><use xlink:href="#g725F788315FC7CBC7CED7879B69B3DF9" x="59.603027344" y="0" fill="#000000" fill-rule="nonzero"/></g></g><g transform="translate(154.062992126 40.346456693)"><path fill="#e3b5cf" fill-rule="nonzero" d="M 0 0m 0 3c 0 -1.656854249 1.343145751 -3 3 -3h 62.031496063c 1.656854249 0 3 1.343145751 3 3v 22.346456693c 0 1.656854249 -1.343145751 3 -3 3h -62.031496063c -1.656854249 0 -3 -1.343145751 -3 -3Z "/><g transform="matrix(1 0 0 -1 14.14807225 18.351939284)"><use xlink:href="#g9EAE34AA381CE74FBFCBCD06C933F012" x="0" y="0" fill="#000000" fill-rule="nonzero"/><use xlink:href="#g34AA370500D2DD254CBC444E9FB03666" x="6.622558594" y="0" fill="#000000" fill-rule="nonzero"/><use xlink:href="#g78A60BD6EF44BAFE40E7FFCFA896CADB" x="13.245117188" y="0" fill="#000000" fill-rule="nonzero"/><use xlink:href="#g9EAE34AA381CE74FBFCBCD06C933F012" x="19.867675781" y="0" fill="#000000" fill-rule="nonzero"/><use xlink:href="#g5A4509B178691361908263010861F855" x="26.490234375" y="0" fill="#000000" fill-rule="nonzero"/><use xlink:href="#g9190F31A560ABFF5498A294FFBEA6351" x="33.112792969" y="0" fill="#000000" fill-rule="nonzero"/></g></g><g transform="translate(228.094488189 40.346456693)"><path fill="#cccccc" fill-rule="nonzero" d="M 0 0m 0 3c 0 -1.656854249 1.343145751 -3 3 -3h 62.031496063c 1.656854249 0 3 1.343145751 3 3v 22.346456693c 0 1.656854249 -1.343145751 3 -3 3h -62.031496063c -1.656854249 0 -3 -1.343145751 -3 -3Z "/><g transform="matrix(1 0 0 -1 20.770630844 18.351939284)"><use xlink:href="#gDEFA3C74EC08F5968A40AB150CDF23E1" x="0" y="0" fill="#000000" fill-rule="nonzero"/><use xlink:href="#g78A60BD6EF44BAFE40E7FFCFA896CADB" x="6.622558594" y="0" fill="#000000" fill-rule="nonzero"/><use xlink:href="#g9190F31A560ABFF5498A294FFBEA6351" x="13.245117188" y="0" fill="#000000" fill-rule="nonzero"/><use xlink:href="#g62912C61B5E183031E900A05FA13AC9D" x="19.867675781" y="0" fill="#000000" fill-rule="nonzero"/></g></g><defs><symbol id="g24904B995034081B773D162AAD189CC7" overflow="visible"><path d="M 0 0m 3.30859375 5.322753906q -0.751953125 0 -1.138671875 -0.585449219q -0.38671875 -0.585449219 -0.38671875 -1.734863281q 0 -1.144042969 0.38671875 -1.732177734q 0.38671875 -0.588134766 1.138671875 -0.588134766q 0.757324219 0 1.144042969 0.588134766q 0.38671875 0.588134766 0.38671875 1.732177734q 0 1.149414063 -0.38671875 1.734863281q -0.38671875 0.585449219 -1.144042969 0.585449219Z m 0 0.837890625q 1.251464844 0 1.914794922 -0.811035156q 0.663330078 -0.811035156 0.663330078 -2.347167969q 0 -1.541503906 -0.660644531 -2.349853516q -0.660644531 -0.808349609 -1.917480469 -0.808349609q -1.251464844 0 -1.912109375 0.808349609q -0.660644531 0.808349609 -0.660644531 2.349853516q 0 1.536132813 0.660644531 2.347167969q 0.660644531 0.811035156 1.912109375 0.811035156Z "/></symbol><symbol id="g78A60BD6EF44BAFE40E7FFCFA896CADB" overflow="visible"><path d="M 0 0m 6.203613281 4.774902344q -0.316894531 0.247070313 -0.64453125 0.359863281q -0.327636719 0.112792969 -0.719726563 0.112792969q -0.923828125 0 -1.412597656 -0.580078125q -0.488769531 -0.580078125 -0.488769531 -1.67578125v -2.991699219h -0.993652344v 6.015625h 0.993652344v -1.176269531q 0.247070313 0.639160156 0.760009766 0.980224609q 0.512939453 0.341064453 1.216552734 0.341064453q 0.365234375 0 0.682128906 -0.091308594q 0.316894531 -0.091308594 0.606933594 -0.284667969v -1.009765625Z "/></symbol><symbol id="g131C0883D3FA7F50248CDBFFF6598FA2" overflow="visible"><path d="M 0 0m 3.770507813 3.023925781h -0.327636719q -0.864746094 0 -1.302490234 -0.303466797q -0.437744141 -0.303466797 -0.437744141 -0.905029297q 0 -0.542480469 0.327636719 -0.843261719q 0.327636719 -0.30078125 0.907714844 -0.30078125q 0.81640625 0 1.283691406 0.566650391q 0.467285156 0.566650391 0.47265625 1.565673828v 0.220214844h -0.923828125Z m 1.917480469 0.408203125v -3.432128906h -0.993652344v 0.891601563q -0.316894531 -0.537109375 -0.797607422 -0.792236328q -0.480712891 -0.255126953 -1.168212891 -0.255126953q -0.918457031 0 -1.466308594 0.518310547q -0.547851563 0.518310547 -0.547851563 1.388427734q 0 1.004394531 0.674072266 1.525390625q 0.674072266 0.520996094 1.979248047 0.520996094h 1.326660156v 0.155761719q -0.005371094 0.719726563 -0.365234375 1.044677734q -0.359863281 0.324951172 -1.149414063 0.324951172q -0.504882813 0 -1.020507813 -0.145019531q -0.515625 -0.145019531 -1.004394531 -0.424316406v 0.98828125q 0.547851563 0.209472656 1.050048828 0.314208984q 0.502197266 0.104736328 0.974853516 0.104736328q 0.746582031 0 1.275634766 -0.220214844q 0.529052734 -0.220214844 0.856689453 -0.660644531q 0.204101563 -0.268554688 0.290039063 -0.663330078q 0.0859375 -0.394775391 0.0859375 -1.184326172Z "/></symbol><symbol id="g725F788315FC7CBC7CED7879B69B3DF9" overflow="visible"><path d="M 0 0m 5.645019531 3.727539063v -3.727539063h -0.993652344v 3.727539063q 0 0.811035156 -0.284667969 1.192382813q -0.284667969 0.381347656 -0.891601563 0.381347656q -0.692871094 0 -1.066162109 -0.491455078q -0.373291016 -0.491455078 -0.373291016 -1.409912109v -3.399902344h -0.98828125v 6.015625h 0.98828125v -0.90234375q 0.263183594 0.515625 0.714355469 0.781494141q 0.451171875 0.265869141 1.068847656 0.265869141q 0.918457031 0 1.372314453 -0.604248047q 0.453857422 -0.604248047 0.453857422 -1.828857422Z "/></symbol><symbol id="gDEFA3C74EC08F5968A40AB150CDF23E1" overflow="visible"><path d="M 0 0m 4.608398438 3.056152344q 0 1.111816406 -0.362548828 1.689208984q -0.362548828 0.577392578 -1.055419922 0.577392578q -0.725097656 0 -1.106445313 -0.577392578q -0.381347656 -0.577392578 -0.381347656 -1.689208984q 0 -1.111816406 0.384033203 -1.694580078q 0.384033203 -0.582763672 1.114501953 -0.582763672q 0.682128906 0 1.044677734 0.585449219q 0.362548828 0.585449219 0.362548828 1.691894531Z m 0.98828125 -2.669433594q 0 -1.353515625 -0.639160156 -2.051757813q -0.639160156 -0.698242188 -1.879882813 -0.698242188q -0.408203125 0 -0.854003906 0.075195313q -0.445800781 0.075195313 -0.891601563 0.220214844v 0.977539063q 0.526367188 -0.247070313 0.956054688 -0.365234375q 0.4296875 -0.118164063 0.789550781 -0.118164063q 0.800292969 0 1.165527344 0.435058594q 0.365234375 0.435058594 0.365234375 1.380371094v 0.04296875v 0.671386719q -0.236328125 -0.504882813 -0.64453125 -0.751953125q -0.408203125 -0.247070313 -0.993652344 -0.247070313q -1.052734375 0 -1.681152344 0.843261719q -0.628417969 0.843261719 -0.628417969 2.255859375q 0 1.41796875 0.628417969 2.261230469q 0.628417969 0.843261719 1.681152344 0.843261719q 0.580078125 0 0.982910156 -0.230957031q 0.402832031 -0.230957031 0.655273438 -0.714355469v 0.778808594h 0.98828125v -5.607421875Z "/></symbol><symbol id="g9190F31A560ABFF5498A294FFBEA6351" overflow="visible"><path d="M 0 0m 5.97265625 3.254882813v -0.483398438h -4.280761719v -0.032226563q 0 -0.982910156 0.512939453 -1.520019531q 0.512939453 -0.537109375 1.447509766 -0.537109375q 0.47265625 0 0.98828125 0.150390625q 0.515625 0.150390625 1.101074219 0.456542969v -0.982910156q -0.563964844 -0.230957031 -1.087646484 -0.346435547q -0.523681641 -0.115478516 -1.012451172 -0.115478516q -1.401855469 0 -2.19140625 0.840576172q -0.789550781 0.840576172 -0.789550781 2.317626953q 0 1.439453125 0.7734375 2.298828125q 0.7734375 0.859375 2.0625 0.859375q 1.149414063 0 1.812744141 -0.778808594q 0.663330078 -0.778808594 0.663330078 -2.126953125Z m -0.98828125 0.290039063q -0.021484375 0.870117188 -0.410888672 1.323974609q -0.389404297 0.453857422 -1.119873047 0.453857422q -0.714355469 0 -1.176269531 -0.47265625q -0.461914063 -0.47265625 -0.547851563 -1.310546875l 3.254882813 0.005371094Z "/></symbol><symbol id="gBB9A646D67A87CC54D8197FA4DB31E5B" overflow="visible"><path d="M 0 0m 5.226074219 5.806152344v -0.966796875q -0.424316406 0.247070313 -0.854003906 0.370605469q -0.4296875 0.123535156 -0.875488281 0.123535156q -0.671386719 0 -1.001708984 -0.217529297q -0.330322266 -0.217529297 -0.330322266 -0.663330078q 0 -0.402832031 0.247070313 -0.6015625q 0.247070313 -0.198730469 1.229980469 -0.38671875l 0.397460938 -0.075195313q 0.735839844 -0.139648438 1.114501953 -0.55859375q 0.378662109 -0.418945313 0.378662109 -1.090332031q 0 -0.891601563 -0.633789063 -1.393798828q -0.633789063 -0.502197266 -1.76171875 -0.502197266q -0.445800781 0 -0.934570313 0.093994141q -0.488769531 0.093994141 -1.058105469 0.281982422v 1.020507813q 0.553222656 -0.284667969 1.058105469 -0.427001953q 0.504882813 -0.142333984 0.956054688 -0.142333984q 0.655273438 0 1.015136719 0.265869141q 0.359863281 0.265869141 0.359863281 0.743896484q 0 0.6875 -1.315917969 0.950683594l -0.04296875 0.010742188l -0.370605469 0.075195313q -0.854003906 0.166503906 -1.24609375 0.561279297q -0.392089844 0.394775391 -0.392089844 1.076904297q 0 0.864746094 0.585449219 1.334716797q 0.585449219 0.469970703 1.670410156 0.469970703q 0.483398438 0 0.929199219 -0.088623047q 0.445800781 -0.088623047 0.875488281 -0.265869141Z "/></symbol><symbol id="gF62FABE5FEFFCB8CF39AB2DD79B3F2B1" overflow="visible"><path d="M 0 0m 1.267578125 8.357421875h 1.020507813v -4.839355469l 2.594238281 2.497558594h 1.203125l -2.368652344 -2.266601563l 2.739257813 -3.749023438h -1.208496094l -2.223632813 3.104492188l -0.735839844 -0.692871094v -2.411621094h -1.020507813v 8.357421875Z "/></symbol><symbol id="g62912C61B5E183031E900A05FA13AC9D" overflow="visible"><path d="M 0 0m 4.608398438 1.93359375q -0.247070313 -0.628417969 -0.628417969 -1.654296875q -0.531738281 -1.41796875 -0.714355469 -1.729492188q -0.247070313 -0.418945313 -0.617675781 -0.628417969q -0.370605469 -0.209472656 -0.864746094 -0.209472656h -0.794921875v 0.827148438h 0.585449219q 0.435058594 0 0.682128906 0.252441406q 0.247070313 0.252441406 0.628417969 1.305175781l -2.325683594 5.918945313h 1.047363281l 1.783203125 -4.705078125l 1.756347656 4.705078125h 1.047363281l -1.584472656 -4.08203125Z "/></symbol><symbol id="g5A4509B178691361908263010861F855" overflow="visible"><path d="M 0 0m 3.432128906 2.180664063q 0 -0.666015625 0.244384766 -1.004394531q 0.244384766 -0.338378906 0.722412109 -0.338378906h 1.154785156v -0.837890625h -1.251464844q -0.886230469 0 -1.372314453 0.569335938q -0.486083984 0.569335938 -0.486083984 1.611328125v 5.462402344h -1.584472656v 0.7734375h 2.572753906v -6.235839844Z "/></symbol><symbol id="g4D4D43CA7D265492E4D6F40F6C657A10" overflow="visible"><path d="M 0 0m 0 6.015625h 0.977539063l 1.047363281 -4.860839844l 0.859375 3.104492188h 0.843261719l 0.870117188 -3.104492188l 1.047363281 4.860839844h 0.977539063l -1.407226563 -6.015625h -0.9453125l -0.961425781 3.297851563l -0.956054688 -3.297851563h -0.9453125l -1.407226563 6.015625Z "/></symbol><symbol id="g11E9506F31F3EBA38D23AE68B669BCCB" overflow="visible"><path d="M 0 0m 4.930664063 3.002441406q 0 1.149414063 -0.365234375 1.734863281q -0.365234375 0.585449219 -1.079589844 0.585449219q -0.719726563 0 -1.090332031 -0.588134766q -0.370605469 -0.588134766 -0.370605469 -1.732177734q 0 -1.138671875 0.370605469 -1.729492188q 0.370605469 -0.590820313 1.090332031 -0.590820313q 0.714355469 0 1.079589844 0.585449219q 0.365234375 0.585449219 0.365234375 1.734863281Z m -2.905761719 2.245117188q 0.236328125 0.440429688 0.652587891 0.676757813q 0.416259766 0.236328125 0.964111328 0.236328125q 1.084960938 0 1.708007813 -0.835205078q 0.623046875 -0.835205078 0.623046875 -2.301513672q 0 -1.487792969 -0.625732422 -2.333740234q -0.625732422 -0.845947266 -1.716064453 -0.845947266q -0.537109375 0 -0.947998047 0.233642578q -0.410888672 0.233642578 -0.657958984 0.679443359v -0.757324219h -0.98828125v 8.357421875h 0.98828125v -3.109863281Z "/></symbol><symbol id="g34AA370500D2DD254CBC444E9FB03666" overflow="visible"><path d="M 0 0m 1.047363281 2.27734375v 3.727539063h 0.98828125v -3.727539063q 0 -0.811035156 0.287353516 -1.192382813q 0.287353516 -0.381347656 0.888916016 -0.381347656q 0.698242188 0 1.068847656 0.491455078q 0.370605469 0.491455078 0.370605469 1.409912109v 3.399902344h 0.993652344v -6.004882813h -0.993652344v 0.90234375q -0.263183594 -0.520996094 -0.717041016 -0.789550781q -0.453857422 -0.268554688 -1.060791016 -0.268554688q -0.923828125 0 -1.375 0.604248047q -0.451171875 0.604248047 -0.451171875 1.828857422Z "/></symbol><symbol id="g336D26B957B704F1EE786453795A2FBF" overflow="visible"><path d="M 0 0m 0.537109375 6.015625h 1.025878906l 1.745605469 -5.048828125l 1.750976563 5.048828125h 1.025878906l -2.137695313 -6.015625h -1.272949219l -2.137695313 6.015625Z "/></symbol><symbol id="g92336E431BCE7A746AF2EA9AF43B014D" overflow="visible"><path d="M 0 0m 3.630859375 5.403320313q 0.182617188 0.38671875 0.464599609 0.572021484q 0.281982422 0.185302734 0.679443359 0.185302734q 0.725097656 0 1.023193359 -0.561279297q 0.298095703 -0.561279297 0.298095703 -2.113525391v -3.485839844h -0.90234375v 3.442871094q 0 1.272949219 -0.142333984 1.581787109q -0.142333984 0.308837891 -0.518310547 0.308837891q -0.4296875 0 -0.588134766 -0.330322266q -0.158447266 -0.330322266 -0.158447266 -1.560302734v -3.442871094h -0.90234375v 3.442871094q 0 1.2890625 -0.153076172 1.58984375q -0.153076172 0.30078125 -0.550537109 0.30078125q -0.392089844 0 -0.545166016 -0.330322266q -0.153076172 -0.330322266 -0.153076172 -1.560302734v -3.442871094h -0.896972656v 6.015625h 0.896972656v -0.515625q 0.177246094 0.322265625 0.443115234 0.491455078q 0.265869141 0.169189453 0.604248047 0.169189453q 0.408203125 0 0.679443359 -0.187988281q 0.271240234 -0.187988281 0.421630859 -0.569335938Z "/></symbol><symbol id="g4149A23EFDF7788061E5811ED5F25CA5" overflow="visible"><path d="M 0 0m 1.375 6.015625h 2.529785156v -5.247558594h 1.960449219v -0.768066406h -4.909179688v 0.768066406h 1.960449219v 4.479492188h -1.541503906v 0.768066406Z m 1.541503906 2.341796875h 0.98828125v -1.251464844h -0.98828125v 1.251464844Z "/></symbol><symbol id="g9EAE34AA381CE74FBFCBCD06C933F012" overflow="visible"><path d="M 0 0m 2.014160156 0.757324219v -3.045410156h -0.993652344v 8.303710938h 0.993652344v -0.768066406q 0.247070313 0.445800781 0.657958984 0.679443359q 0.410888672 0.233642578 0.947998047 0.233642578q 1.090332031 0 1.710693359 -0.843261719q 0.620361328 -0.843261719 0.620361328 -2.336425781q 0 -1.466308594 -0.623046875 -2.301513672q -0.623046875 -0.835205078 -1.708007813 -0.835205078q -0.547851563 0 -0.958740234 0.233642578q -0.410888672 0.233642578 -0.647216797 0.679443359Z m 2.900390625 2.245117188q 0 1.149414063 -0.362548828 1.734863281q -0.362548828 0.585449219 -1.076904297 0.585449219q -0.719726563 0 -1.090332031 -0.588134766q -0.370605469 -0.588134766 -0.370605469 -1.732177734q 0 -1.138671875 0.370605469 -1.729492188q 0.370605469 -0.590820313 1.090332031 -0.590820313q 0.714355469 0 1.076904297 0.585449219q 0.362548828 0.585449219 0.362548828 1.734863281Z "/></symbol></defs></svg>