<svg viewBox="0 0 389.57480315 73.669370156" width="389.57480315pt" height="73.669370156pt" xmlns="http://www.w3.org/2000/svg" xmlns:xlink="http://www.w3.org/1999/xlink" xmlns:h5="http://www.w3.org/1999/xhtml"><path fill="#ffffff" fill-rule="nonzero" d="M 0 0v 73.669370156h 389.57480315v -73.669370156Z "/><g transform="translate(6 6)"><path fill="none" stroke="#000000" stroke-width="0.6" stroke-linecap="butt" stroke-linejoin="miter" stroke-miterlimit="4" transform="translate(0 8.378031573)" d="M 0 0m 0 0v 22.677165354h 187.086614173v -22.677165354h -187.086614173Z "/><path fill="none" transform="translate(63.741793415 16.233948234)" d="M 0 0h 59.603027344v 6.965332031h -59.603027344v -6.965332031Z "/><g transform="translate(63.741793323 16.233948171)"><g transform="matrix(1 0 0 -1 0 6.837890625)"><use xlink:href="#gCFBAA1FDA6E674E76337DAE5F77C9807" x="0" y="0" fill="#000000" fill-rule="nonzero"/><use xlink:href="#g2255461D10F6FA7778B03CFE4EC2A765" x="5.418457031" y="0" fill="#000000" fill-rule="nonzero"/><use xlink:href="#g2DA729C4CE09DA97FA9D42E76D535F32" x="10.836914063" y="0" fill="#000000" fill-rule="nonzero"/><use xlink:href="#g7477BFBAAF637CCDF9641599D764977A" x="16.255371094" y="0" fill="#000000" fill-rule="nonzero"/><use xlink:href="#gD769FC6F57F0344B108EAC2C0EE6ABB5" x="21.673828125" y="0" fill="#000000" fill-rule="nonzero"/><use xlink:href="#g7AB52EE3E353BBC5A51DD7867DA02542" x="27.092285156" y="0" fill="#000000" fill-rule="nonzero"/><use xlink:href="#g676AB214E2079C3EA17D9A38D3B33AEE" x="37.929199219" y="0" fill="#000000" fill-rule="nonzero"/><use xlink:href="#g2255461D10F6FA7778B03CFE4EC2A765" x="43.34765625" y="0" fill="#000000" fill-rule="nonzero"/><use xlink:href="#g7477BFBAAF637CCDF9641599D764977A" x="48.766113281" y="0" fill="#000000" fill-rule="nonzero"/><use xlink:href="#g8F0D6193858E593CDF883C583C47BB14" x="54.184570313" y="0" fill="#000000" fill-rule="nonzero"/></g></g><path fill="none" d="M 0 0m 0 0h 4.214355469v 5.417480469h -4.214355469v -5.417480469Z "/><g transform="translate(-6.1e-8 -1.12e-7)"><g transform="matrix(1 0 0 -1 0 5.318359375)"><use xlink:href="#gBE6FB67E0386394C98AEDD139114E12F" x="0" y="0" fill="#666666" fill-rule="nonzero"/></g></g><path fill="none" transform="translate(178.657903236)" d="M 0 0m 0 0h 8.428710938v 5.417480469h -8.428710938v -5.417480469Z "/><g transform="translate(178.657903114 -1.12e-7)"><g transform="matrix(1 0 0 -1 0 5.318359375)"><use xlink:href="#g419B5BF32E4973F3C8BB651289BFDBFE" x="0" y="0" fill="#666666" fill-rule="nonzero"/><use xlink:href="#gB3BB4BD4D0CF38AE528F820CB7B96AA8" x="4.214355469" y="0" fill="#666666" fill-rule="nonzero"/></g></g><path fill="none" stroke="#000000" stroke-width="0.6" stroke-linecap="butt" stroke-linejoin="miter" stroke-miterlimit="4" transform="translate(190.488188976 8.378031573)" d="M 0 0m 0 0v 22.677165354h 187.086614173v -22.677165354h -187.086614173Z "/><path fill="none" transform="translate(240.683839813 16.233948234)" d="M 0 0h 86.6953125v 6.965332031h -86.6953125v -6.965332031Z "/><g transform="translate(240.683839795 16.233948171)"><g transform="matrix(1 0 0 -1 0 6.837890625)"><use xlink:href="#g50710CDDB0554BFBF256030B12C7A01F" x="0" y="0" fill="#000000" fill-rule="nonzero"/><use xlink:href="#g7AB52EE3E353BBC5A51DD7867DA02542" x="5.418457031" y="0" fill="#000000" fill-rule="nonzero"/><use xlink:href="#g649CCD0F16DD3D5172DC3BA285BBE4C0" x="10.836914063" y="0" fill="#000000" fill-rule="nonzero"/><use xlink:href="#g8F0D6193858E593CDF883C583C47BB14" x="16.255371094" y="0" fill="#000000" fill-rule="nonzero"/><use xlink:href="#g4DB2D381F8A5F794812415773ECCB5AA" x="21.673828125" y="0" fill="#000000" fill-rule="nonzero"/><use xlink:href="#gE7C865DDCEE76398F99503DAE9D0B8A3" x="27.092285156" y="0" fill="#000000" fill-rule="nonzero"/><use xlink:href="#g938E69ED36E731A02DE8C05C4046C388" x="32.510742188" y="0" fill="#000000" fill-rule="nonzero"/><use xlink:href="#g8F0D6193858E593CDF883C583C47BB14" x="37.929199219" y="0" fill="#000000" fill-rule="nonzero"/><use xlink:href="#g4DB2D381F8A5F794812415773ECCB5AA" x="43.34765625" y="0" fill="#000000" fill-rule="nonzero"/><use xlink:href="#g2255461D10F6FA7778B03CFE4EC2A765" x="48.766113281" y="0" fill="#000000" fill-rule="nonzero"/><use xlink:href="#gE7C865DDCEE76398F99503DAE9D0B8A3" x="54.184570313" y="0" fill="#000000" fill-rule="nonzero"/><use xlink:href="#g676AB214E2079C3EA17D9A38D3B33AEE" x="65.021484375" y="0" fill="#000000" fill-rule="nonzero"/><use xlink:href="#g2255461D10F6FA7778B03CFE4EC2A765" x="70.439941406" y="0" fill="#000000" fill-rule="nonzero"/><use xlink:href="#g7477BFBAAF637CCDF9641599D764977A" x="75.858398438" y="0" fill="#000000" fill-rule="nonzero"/><use xlink:href="#g8F0D6193858E593CDF883C583C47BB14" x="81.276855469" y="0" fill="#000000" fill-rule="nonzero"/></g></g><path fill="none" transform="translate(190.488188976)" d="M 0 0m 0 0h 8.428710938v 5.417480469h -8.428710938v -5.417480469Z "/><g transform="translate(190.488188855 -1.12e-7)"><g transform="matrix(1 0 0 -1 0 5.318359375)"><use xlink:href="#g419B5BF32E4973F3C8BB651289BFDBFE" x="0" y="0" fill="#666666" fill-rule="nonzero"/><use xlink:href="#gA712E711BA6A9C5BE02D63B247BADC83" x="4.214355469" y="0" fill="#666666" fill-rule="nonzero"/></g></g><path fill="none" transform="translate(369.146092212)" d="M 0 0m 0 0h 8.428710937v 5.417480469h -8.428710937v -5.417480469Z "/><g transform="translate(369.14609209 -1.12e-7)"><g transform="matrix(1 0 0 -1 0 5.318359375)"><use xlink:href="#g754B3FF50F736B413FF4B76FF3AEDCF9" x="0" y="0" fill="#666666" fill-rule="nonzero"/><use xlink:href="#g419B5BF32E4973F3C8BB651289BFDBFE" x="4.214355469" y="0" fill="#666666" fill-rule="nonzero"/></g></g><path fill="none" stroke="#000000" stroke-width="0.6" stroke-linecap="butt" stroke-linejoin="miter" stroke-miterlimit="4" transform="translate(0 38.992204801)" d="M 0 0v 22.677165354h 187.086614173v -22.677165354h -187.086614173Z "/><path fill="none" transform="translate(77.287935993 45.945045291)" d="M 0 0h 32.510742188v 8.771484375h -32.510742188v -8.771484375Z "/><g transform="translate(77.287935969 45.945045242)"><g transform="matrix(1 0 0 -1 0 6.837890625)"><use xlink:href="#g78838F1071D4ED0AF043152BE3BE6C0C" x="0" y="0" fill="#000000" fill-rule="nonzero"/><use xlink:href="#g7AB52EE3E353BBC5A51DD7867DA02542" x="5.418457031" y="0" fill="#000000" fill-rule="nonzero"/><use xlink:href="#gE7C865DDCEE76398F99503DAE9D0B8A3" x="10.836914063" y="0" fill="#000000" fill-rule="nonzero"/><use xlink:href="#g8C92B79484943BC2681D03FE18AB6E07" x="16.255371094" y="0" fill="#000000" fill-rule="nonzero"/><use xlink:href="#g8F0D6193858E593CDF883C583C47BB14" x="21.673828125" y="0" fill="#000000" fill-rule="nonzero"/><use xlink:href="#gDD23D44D0EBE043546BD9439EE14403C" x="27.092285156" y="0" fill="#000000" fill-rule="nonzero"/></g></g><path fill="none" stroke="#000000" stroke-width="0.6" stroke-linecap="butt" stroke-linejoin="miter" stroke-miterlimit="4" transform="translate(190.488188976 38.992204801)" d="M 0 0v 22.677165354h 187.086614173v -22.677165354h -187.086614173Z "/><path fill="none" transform="translate(262.357667938 46.848121463)" d="M 0 0h 43.34765625v 6.965332031h -43.34765625v -6.965332031Z "/><g transform="translate(262.357667858 46.8481214)"><g transform="matrix(1 0 0 -1 0 6.837890625)"><use xlink:href="#g6B2C36BEE7D499E783BDA831CA869771" x="0" y="0" fill="#000000" fill-rule="nonzero"/><use xlink:href="#gDD23D44D0EBE043546BD9439EE14403C" x="5.418457031" y="0" fill="#000000" fill-rule="nonzero"/><use xlink:href="#g7AB52EE3E353BBC5A51DD7867DA02542" x="10.836914063" y="0" fill="#000000" fill-rule="nonzero"/><use xlink:href="#gD769FC6F57F0344B108EAC2C0EE6ABB5" x="16.255371094" y="0" fill="#000000" fill-rule="nonzero"/><use xlink:href="#g7916AE05C600469908DE87E4AAC6BF26" x="21.673828125" y="0" fill="#000000" fill-rule="nonzero"/><use xlink:href="#g649CCD0F16DD3D5172DC3BA285BBE4C0" x="27.092285156" y="0" fill="#000000" fill-rule="nonzero"/><use xlink:href="#g2DA729C4CE09DA97FA9D42E76D535F32" x="32.510742188" y="0" fill="#000000" fill-rule="nonzero"/><use xlink:href="#g2248660F7487D27020870D64C7AE5EE8" x="37.929199219" y="0" fill="#000000" fill-rule="nonzero"/></g></g></g><defs><symbol id="gCFBAA1FDA6E674E76337DAE5F77C9807" overflow="visible"><path d="M 0 0m 4.447265625 6.336914063v -0.900878906q -0.404296875 0.259277344 -0.810791016 0.391113281q -0.406494141 0.131835938 -0.819580078 0.131835938q -0.628417969 0 -0.993164063 -0.292236328q -0.364746094 -0.292236328 -0.364746094 -0.788818359q 0 -0.435058594 0.239501953 -0.663574219q 0.239501953 -0.228515625 0.894287109 -0.382324219l 0.465820313 -0.10546875q 0.922851563 -0.215332031 1.344726563 -0.676757813q 0.421875 -0.461425781 0.421875 -1.256835938q 0 -0.936035156 -0.580078125 -1.428222656q -0.580078125 -0.4921875 -1.6875 -0.4921875q -0.461425781 0 -0.927246094 0.098876953q -0.465820313 0.098876953 -0.936035156 0.296630859v 0.944824219q 0.505371094 -0.320800781 0.955810547 -0.470214844q 0.450439453 -0.149414063 0.907470703 -0.149414063q 0.672363281 0 1.045898438 0.301025391q 0.373535156 0.301025391 0.373535156 0.841552734q 0 0.4921875 -0.257080078 0.751464844q -0.257080078 0.259277344 -0.894287109 0.399902344l -0.474609375 0.109863281q -0.9140625 0.206542969 -1.327148438 0.624023438q -0.413085938 0.417480469 -0.413085938 1.120605469q 0 0.87890625 0.591064453 1.408447266q 0.591064453 0.529541016 1.571044922 0.529541016q 0.377929688 0 0.795410156 -0.085693359q 0.417480469 -0.085693359 0.87890625 -0.257080078Z "/></symbol><symbol id="g2255461D10F6FA7778B03CFE4EC2A765" overflow="visible"><path d="M 0 0m 2.70703125 4.354980469q -0.615234375 0 -0.931640625 -0.479003906q -0.31640625 -0.479003906 -0.31640625 -1.419433594q 0 -0.936035156 0.31640625 -1.417236328q 0.31640625 -0.481201172 0.931640625 -0.481201172q 0.619628906 0 0.936035156 0.481201172q 0.31640625 0.481201172 0.31640625 1.417236328q 0 0.940429688 -0.31640625 1.419433594q -0.31640625 0.479003906 -0.936035156 0.479003906Z m 0 0.685546875q 1.023925781 0 1.566650391 -0.663574219q 0.542724609 -0.663574219 0.542724609 -1.920410156q 0 -1.261230469 -0.540527344 -1.922607422q -0.540527344 -0.661376953 -1.568847656 -0.661376953q -1.023925781 0 -1.564453125 0.661376953q -0.540527344 0.661376953 -0.540527344 1.922607422q 0 1.256835938 0.540527344 1.920410156q 0.540527344 0.663574219 1.564453125 0.663574219Z "/></symbol><symbol id="g2DA729C4CE09DA97FA9D42E76D535F32" overflow="visible"><path d="M 0 0m 0.856933594 1.86328125v 3.049804688h 0.80859375v -3.049804688q 0 -0.663574219 0.235107422 -0.975585938q 0.235107422 -0.312011719 0.727294922 -0.312011719q 0.571289063 0 0.874511719 0.402099609q 0.303222656 0.402099609 0.303222656 1.153564453v 2.781738281h 0.812988281v -4.913085938h -0.812988281v 0.73828125q -0.215332031 -0.426269531 -0.586669922 -0.645996094q -0.371337891 -0.219726563 -0.867919922 -0.219726563q -0.755859375 0 -1.125 0.494384766q -0.369140625 0.494384766 -0.369140625 1.496337891Z "/></symbol><symbol id="g7477BFBAAF637CCDF9641599D764977A" overflow="visible"><path d="M 0 0m 5.075683594 3.906738281q -0.259277344 0.202148438 -0.52734375 0.294433594q -0.268066406 0.092285156 -0.588867188 0.092285156q -0.755859375 0 -1.155761719 -0.474609375q -0.399902344 -0.474609375 -0.399902344 -1.37109375v -2.447753906h -0.812988281v 4.921875h 0.812988281v -0.962402344q 0.202148438 0.522949219 0.621826172 0.802001953q 0.419677734 0.279052734 0.995361328 0.279052734q 0.298828125 0 0.558105469 -0.074707031q 0.259277344 -0.074707031 0.496582031 -0.232910156v -0.826171875Z "/></symbol><symbol id="gD769FC6F57F0344B108EAC2C0EE6ABB5" overflow="visible"><path d="M 0 0m 4.662597656 0.250488281q -0.325195313 -0.188964844 -0.670166016 -0.283447266q -0.344970703 -0.094482422 -0.705322266 -0.094482422q -1.142578125 0 -1.786376953 0.685546875q -0.643798828 0.685546875 -0.643798828 1.8984375q 0 1.212890625 0.643798828 1.8984375q 0.643798828 0.685546875 1.786376953 0.685546875q 0.355957031 0 0.694335938 -0.092285156q 0.338378906 -0.092285156 0.681152344 -0.285644531v -0.848144531q -0.320800781 0.285644531 -0.643798828 0.413085938q -0.322998047 0.127441406 -0.731689453 0.127441406q -0.760253906 0 -1.168945313 -0.4921875q -0.408691406 -0.4921875 -0.408691406 -1.40625q 0 -0.909667969 0.410888672 -1.404052734q 0.410888672 -0.494384766 1.166748047 -0.494384766q 0.421875 0 0.755859375 0.129638672q 0.333984375 0.129638672 0.619628906 0.402099609v -0.839355469Z "/></symbol><symbol id="g7AB52EE3E353BBC5A51DD7867DA02542" overflow="visible"><path d="M 0 0m 4.88671875 2.663085938v -0.395507813h -3.502441406v -0.026367188q 0 -0.804199219 0.419677734 -1.243652344q 0.419677734 -0.439453125 1.184326172 -0.439453125q 0.38671875 0 0.80859375 0.123046875q 0.421875 0.123046875 0.900878906 0.373535156v -0.804199219q -0.461425781 -0.188964844 -0.889892578 -0.283447266q -0.428466797 -0.094482422 -0.828369141 -0.094482422q -1.146972656 0 -1.79296875 0.687744141q -0.645996094 0.687744141 -0.645996094 1.896240234q 0 1.177734375 0.6328125 1.880859375q 0.6328125 0.703125 1.6875 0.703125q 0.940429688 0 1.483154297 -0.637207031q 0.542724609 -0.637207031 0.542724609 -1.740234375Z m -0.80859375 0.237304688q -0.017578125 0.711914063 -0.336181641 1.083251953q -0.318603516 0.371337891 -0.916259766 0.371337891q -0.584472656 0 -0.962402344 -0.38671875q -0.377929688 -0.38671875 -0.448242188 -1.072265625l 2.663085938 0.004394531Z "/></symbol><symbol id="g676AB214E2079C3EA17D9A38D3B33AEE" overflow="visible"><path d="M 0 0m 1.753417969 5.831542969v -2.465332031h 1.028320313q 0.615234375 0 0.960205078 0.325195313q 0.344970703 0.325195313 0.344970703 0.909667969q 0 0.584472656 -0.342773438 0.907470703q -0.342773438 0.322998047 -0.962402344 0.322998047h -1.028320313Z m -0.887695313 0.729492188h 1.916015625q 1.098632813 0 1.665527344 -0.498779297q 0.566894531 -0.498779297 0.566894531 -1.461181641q 0 -0.971191406 -0.564697266 -1.467773438q -0.564697266 -0.496582031 -1.667724609 -0.496582031h -1.028320313v -2.63671875h -0.887695313v 6.561035156Z "/></symbol><symbol id="g8F0D6193858E593CDF883C583C47BB14" overflow="visible"><path d="M 0 0m 2.698242188 6.319335938v -1.397460938h 1.836914063v -0.628417969h -1.836914063v -2.671875q 0 -0.544921875 0.206542969 -0.760253906q 0.206542969 -0.215332031 0.720703125 -0.215332031h 0.909667969v -0.645996094h -0.988769531q -0.909667969 0 -1.283203125 0.364746094q -0.373535156 0.364746094 -0.373535156 1.256835938v 2.671875h -1.313964844v 0.628417969h 1.313964844v 1.397460938h 0.80859375Z "/></symbol><symbol id="gBE6FB67E0386394C98AEDD139114E12F" overflow="visible"><path d="M 0 0m 1.650878906 2.563476563q 0 0.187988281 0.131591797 0.324707031q 0.131591797 0.13671875 0.316162109 0.13671875q 0.19140625 0 0.328125 -0.13671875q 0.13671875 -0.13671875 0.13671875 -0.324707031q 0 -0.19140625 -0.135009766 -0.324707031q -0.135009766 -0.133300781 -0.329833984 -0.133300781q -0.19140625 0 -0.319580078 0.129882813q -0.128173828 0.129882813 -0.128173828 0.328125Z m 0.454589844 2.084960938q -0.481933594 0 -0.719482422 -0.51953125q -0.237548828 -0.51953125 -0.237548828 -1.582519531q 0 -1.059570313 0.237548828 -1.579101563q 0.237548828 -0.51953125 0.719482422 -0.51953125q 0.485351563 0 0.722900391 0.51953125q 0.237548828 0.51953125 0.237548828 1.579101563q 0 1.062988281 -0.237548828 1.582519531q -0.237548828 0.51953125 -0.722900391 0.51953125Z m 0 0.546875q 0.816894531 0 1.235595703 -0.669921875q 0.418701172 -0.669921875 0.418701172 -1.979003906q 0 -1.305664063 -0.418701172 -1.975585938q -0.418701172 -0.669921875 -1.235595703 -0.669921875q -0.816894531 0 -1.233886719 0.669921875q -0.416992188 0.669921875 -0.416992188 1.975585938q 0 1.309082031 0.416992188 1.979003906q 0.416992188 0.669921875 1.233886719 0.669921875Z "/></symbol><symbol id="g419B5BF32E4973F3C8BB651289BFDBFE" overflow="visible"><path d="M 0 0m 0.922851563 0.581054688h 1.073242188v 3.899902344l -1.155273438 -0.259765625v 0.62890625l 1.1484375 0.252929688h 0.690429688v -4.521972656h 1.059570313v -0.581054688h -2.81640625v 0.581054688Z "/></symbol><symbol id="gB3BB4BD4D0CF38AE528F820CB7B96AA8" overflow="visible"><path d="M 0 0m 0.707519531 5.103027344h 2.583984375v -0.581054688h -1.955078125v -1.254394531q 0.146972656 0.0546875 0.295654297 0.080322266q 0.148681641 0.025634766 0.299072266 0.025634766q 0.79296875 0 1.2578125 -0.468261719q 0.46484375 -0.468261719 0.46484375 -1.268066406q 0 -0.806640625 -0.487060547 -1.271484375q -0.487060547 -0.46484375 -1.331298828 -0.46484375q -0.406738281 0 -0.743408203 0.0546875q -0.336669922 0.0546875 -0.603271484 0.1640625v 0.700683594q 0.314453125 -0.170898438 0.632324219 -0.254638672q 0.317871094 -0.083740234 0.649414063 -0.083740234q 0.570800781 0 0.880126953 0.30078125q 0.309326172 0.30078125 0.309326172 0.854492188q 0 0.546875 -0.319580078 0.851074219q -0.319580078 0.304199219 -0.890380859 0.304199219q -0.276855469 0 -0.540039063 -0.063232422q -0.263183594 -0.063232422 -0.502441406 -0.189697266v 2.563476563Z "/></symbol><symbol id="g50710CDDB0554BFBF256030B12C7A01F" overflow="visible"><path d="M 0 0m 1.916015625 0.729492188q 1.120605469 0 1.564453125 0.551513672q 0.443847656 0.551513672 0.443847656 1.992919922q 0 1.454589844 -0.441650391 2.006103516q -0.441650391 0.551513672 -1.566650391 0.551513672h -0.421875v -5.102050781h 0.421875Z m 0.017578125 5.831542969q 1.502929688 0 2.21484375 -0.799804688q 0.711914063 -0.799804688 0.711914063 -2.487304688q 0 -1.678710938 -0.711914063 -2.476318359q -0.711914063 -0.797607422 -2.21484375 -0.797607422h -1.331542969v 6.561035156h 1.331542969Z "/></symbol><symbol id="g649CCD0F16DD3D5172DC3BA285BBE4C0" overflow="visible"><path d="M 0 0m 4.275878906 4.750488281v -0.791015625q -0.347167969 0.202148438 -0.698730469 0.303222656q -0.3515625 0.101074219 -0.716308594 0.101074219q -0.549316406 0 -0.819580078 -0.177978516q -0.270263672 -0.177978516 -0.270263672 -0.542724609q 0 -0.329589844 0.202148438 -0.4921875q 0.202148438 -0.162597656 1.006347656 -0.31640625l 0.325195313 -0.061523438q 0.602050781 -0.114257813 0.911865234 -0.45703125q 0.309814453 -0.342773438 0.309814453 -0.892089844q 0 -0.729492188 -0.518554688 -1.140380859q -0.518554688 -0.410888672 -1.44140625 -0.410888672q -0.364746094 0 -0.764648438 0.076904297q -0.399902344 0.076904297 -0.865722656 0.230712891v 0.834960938q 0.452636719 -0.232910156 0.865722656 -0.349365234q 0.413085938 -0.116455078 0.782226563 -0.116455078q 0.536132813 0 0.830566406 0.217529297q 0.294433594 0.217529297 0.294433594 0.608642578q 0 0.5625 -1.076660156 0.777832031l -0.03515625 0.008789063l -0.303222656 0.061523438q -0.698730469 0.136230469 -1.01953125 0.459228516q -0.320800781 0.322998047 -0.320800781 0.881103516q 0 0.707519531 0.479003906 1.092041016q 0.479003906 0.384521484 1.366699219 0.384521484q 0.395507813 0 0.760253906 -0.072509766q 0.364746094 -0.072509766 0.716308594 -0.217529297Z "/></symbol><symbol id="g4DB2D381F8A5F794812415773ECCB5AA" overflow="visible"><path d="M 0 0m 1.125 4.921875h 2.069824219v -4.293457031h 1.604003906v -0.628417969h -4.016601563v 0.628417969h 1.604003906v 3.665039063h -1.261230469v 0.628417969Z m 1.261230469 1.916015625h 0.80859375v -1.023925781h -0.80859375v 1.023925781Z "/></symbol><symbol id="gE7C865DDCEE76398F99503DAE9D0B8A3" overflow="visible"><path d="M 0 0m 4.618652344 3.049804688v -3.049804688h -0.812988281v 3.049804688q 0 0.663574219 -0.232910156 0.975585938q -0.232910156 0.312011719 -0.729492188 0.312011719q -0.566894531 0 -0.872314453 -0.402099609q -0.305419922 -0.402099609 -0.305419922 -1.153564453v -2.781738281h -0.80859375v 4.921875h 0.80859375v -0.73828125q 0.215332031 0.421875 0.584472656 0.639404297q 0.369140625 0.217529297 0.874511719 0.217529297q 0.751464844 0 1.122802734 -0.494384766q 0.371337891 -0.494384766 0.371337891 -1.496337891Z "/></symbol><symbol id="g938E69ED36E731A02DE8C05C4046C388" overflow="visible"><path d="M 0 0m 3.084960938 2.474121094h -0.268066406q -0.707519531 0 -1.065673828 -0.248291016q -0.358154297 -0.248291016 -0.358154297 -0.740478516q 0 -0.443847656 0.268066406 -0.689941406q 0.268066406 -0.24609375 0.742675781 -0.24609375q 0.66796875 0 1.050292969 0.463623047q 0.382324219 0.463623047 0.38671875 1.281005859v 0.180175781h -0.755859375Z m 1.568847656 0.333984375v -2.808105469h -0.812988281v 0.729492188q -0.259277344 -0.439453125 -0.652587891 -0.648193359q -0.393310547 -0.208740234 -0.955810547 -0.208740234q -0.751464844 0 -1.199707031 0.424072266q -0.448242188 0.424072266 -0.448242188 1.135986328q 0 0.821777344 0.551513672 1.248046875q 0.551513672 0.426269531 1.619384766 0.426269531h 1.085449219v 0.127441406q -0.004394531 0.588867188 -0.298828125 0.854736328q -0.294433594 0.265869141 -0.940429688 0.265869141q -0.413085938 0 -0.834960938 -0.118652344q -0.421875 -0.118652344 -0.821777344 -0.347167969v 0.80859375q 0.448242188 0.171386719 0.859130859 0.257080078q 0.410888672 0.085693359 0.797607422 0.085693359q 0.610839844 0 1.043701172 -0.180175781q 0.432861328 -0.180175781 0.700927734 -0.540527344q 0.166992188 -0.219726563 0.237304688 -0.542724609q 0.0703125 -0.322998047 0.0703125 -0.968994141Z "/></symbol><symbol id="gA712E711BA6A9C5BE02D63B247BADC83" overflow="visible"><path d="M 0 0m 3.387207031 4.990234375v -0.635742188q -0.215332031 0.126464844 -0.458007813 0.193115234q -0.242675781 0.066650391 -0.505859375 0.066650391q -0.65625 0 -0.994628906 -0.493896484q -0.338378906 -0.493896484 -0.338378906 -1.454345703q 0.1640625 0.341796875 0.454589844 0.524658203q 0.290527344 0.182861328 0.666503906 0.182861328q 0.73828125 0 1.143310547 -0.452880859q 0.405029297 -0.452880859 0.405029297 -1.283447266q 0 -0.827148438 -0.416992188 -1.281738281q -0.416992188 -0.454589844 -1.172363281 -0.454589844q -0.888671875 0 -1.302246094 0.637451172q -0.413574219 0.637451172 -0.413574219 2.008056641q 0 1.291992188 0.497314453 1.970458984q 0.497314453 0.678466797 1.440673828 0.678466797q 0.252929688 0 0.505859375 -0.052978516q 0.252929688 -0.052978516 0.488769531 -0.152099609Z m -1.23046875 -2.156738281q -0.440917969 0 -0.693847656 -0.317871094q -0.252929688 -0.317871094 -0.252929688 -0.878417969q 0 -0.560546875 0.252929688 -0.878417969q 0.252929688 -0.317871094 0.693847656 -0.317871094q 0.458007813 0 0.690429688 0.302490234q 0.232421875 0.302490234 0.232421875 0.893798828q 0 0.594726563 -0.232421875 0.895507813q -0.232421875 0.30078125 -0.690429688 0.30078125Z "/></symbol><symbol id="g754B3FF50F736B413FF4B76FF3AEDCF9" overflow="visible"><path d="M 0 0m 2.65234375 2.730957031q 0.502441406 -0.133300781 0.769042969 -0.473388672q 0.266601563 -0.340087891 0.266601563 -0.849365234q 0 -0.704101563 -0.473388672 -1.105712891q -0.473388672 -0.401611328 -1.310791016 -0.401611328q -0.352050781 0 -0.717773438 0.064941406q -0.365722656 0.064941406 -0.717773438 0.187988281v 0.687011719q 0.348632813 -0.181152344 0.687011719 -0.270019531q 0.338378906 -0.088867188 0.673339844 -0.088867188q 0.567382813 0 0.871582031 0.256347656q 0.304199219 0.256347656 0.304199219 0.73828125q 0 0.444335938 -0.304199219 0.705810547q -0.304199219 0.261474609 -0.823730469 0.261474609h -0.526367188v 0.567382813h 0.526367188q 0.475097656 0 0.741699219 0.208496094q 0.266601563 0.208496094 0.266601563 0.581054688q 0 0.393066406 -0.247802734 0.603271484q -0.247802734 0.210205078 -0.705810547 0.210205078q -0.304199219 0 -0.62890625 -0.068359375q -0.324707031 -0.068359375 -0.680175781 -0.205078125v 0.635742188q 0.413574219 0.109375 0.736572266 0.1640625q 0.322998047 0.0546875 0.572509766 0.0546875q 0.745117188 0 1.191162109 -0.374267578q 0.446044922 -0.374267578 0.446044922 -0.992919922q 0 -0.420410156 -0.234130859 -0.700683594q -0.234130859 -0.280273438 -0.681884766 -0.396484375Z "/></symbol><symbol id="g78838F1071D4ED0AF043152BE3BE6C0C" overflow="visible"><path d="M 0 0m 0.944824219 6.561035156h 0.892089844v -5.813964844h 3.168457031v -0.747070313h -4.060546875v 6.561035156Z "/></symbol><symbol id="g8C92B79484943BC2681D03FE18AB6E07" overflow="visible"><path d="M 0 0m 3.770507813 2.500488281q 0 0.909667969 -0.296630859 1.382080078q -0.296630859 0.472412109 -0.863525391 0.472412109q -0.593261719 0 -0.905273438 -0.472412109q -0.312011719 -0.472412109 -0.312011719 -1.382080078q 0 -0.909667969 0.314208984 -1.386474609q 0.314208984 -0.476806641 0.911865234 -0.476806641q 0.558105469 0 0.854736328 0.479003906q 0.296630859 0.479003906 0.296630859 1.384277344Z m 0.80859375 -2.184082031q 0 -1.107421875 -0.522949219 -1.678710938q -0.522949219 -0.571289063 -1.538085938 -0.571289063q -0.333984375 0 -0.698730469 0.061523438q -0.364746094 0.061523438 -0.729492188 0.180175781v 0.799804688q 0.430664063 -0.202148438 0.782226563 -0.298828125q 0.3515625 -0.096679688 0.645996094 -0.096679688q 0.654785156 0 0.953613281 0.355957031q 0.298828125 0.355957031 0.298828125 1.129394531v 0.03515625v 0.549316406q -0.193359375 -0.413085938 -0.52734375 -0.615234375q -0.333984375 -0.202148438 -0.812988281 -0.202148438q -0.861328125 0 -1.375488281 0.689941406q -0.514160156 0.689941406 -0.514160156 1.845703125q 0 1.16015625 0.514160156 1.850097656q 0.514160156 0.689941406 1.375488281 0.689941406q 0.474609375 0 0.804199219 -0.188964844q 0.329589844 -0.188964844 0.536132813 -0.584472656v 0.637207031h 0.80859375v -4.587890625Z "/></symbol><symbol id="gDD23D44D0EBE043546BD9439EE14403C" overflow="visible"><path d="M 0 0m 4.618652344 3.049804688v -3.049804688h -0.812988281v 3.049804688q 0 0.663574219 -0.232910156 0.975585938q -0.232910156 0.312011719 -0.729492188 0.312011719q -0.566894531 0 -0.872314453 -0.402099609q -0.305419922 -0.402099609 -0.305419922 -1.153564453v -2.781738281h -0.80859375v 6.837890625h 0.80859375v -2.654296875q 0.215332031 0.421875 0.584472656 0.639404297q 0.369140625 0.217529297 0.874511719 0.217529297q 0.751464844 0 1.122802734 -0.494384766q 0.371337891 -0.494384766 0.371337891 -1.496337891Z "/></symbol><symbol id="g6B2C36BEE7D499E783BDA831CA869771" overflow="visible"><path d="M 0 0m 4.715332031 0.232910156q -0.338378906 -0.180175781 -0.694335938 -0.270263672q -0.355957031 -0.090087891 -0.755859375 -0.090087891q -1.261230469 0 -1.957763672 0.892089844q -0.696533203 0.892089844 -0.696533203 2.509277344q 0 1.608398438 0.700927734 2.507080078q 0.700927734 0.898681641 1.953369141 0.898681641q 0.399902344 0 0.755859375 -0.090087891q 0.355957031 -0.090087891 0.694335938 -0.270263672v -0.909667969q -0.325195313 0.268066406 -0.698730469 0.408691406q -0.373535156 0.140625 -0.751464844 0.140625q -0.865722656 0 -1.296386719 -0.66796875q -0.430664063 -0.66796875 -0.430664063 -2.017089844q 0 -1.344726563 0.430664063 -2.012695313q 0.430664063 -0.66796875 1.296386719 -0.66796875q 0.38671875 0 0.758056641 0.140625q 0.371337891 0.140625 0.692138672 0.408691406v -0.909667969Z "/></symbol><symbol id="g7916AE05C600469908DE87E4AAC6BF26" overflow="visible"><path d="M 0 0m 1.037109375 6.837890625h 0.834960938v -3.959472656l 2.122558594 2.043457031h 0.984375l -1.937988281 -1.854492188l 2.241210938 -3.067382813h -0.988769531l -1.819335938 2.540039063l -0.602050781 -0.566894531v -1.973144531h -0.834960938v 6.837890625Z "/></symbol><symbol id="g2248660F7487D27020870D64C7AE5EE8" overflow="visible"><path d="M 0 0m 2.970703125 4.420898438q 0.149414063 0.31640625 0.380126953 0.468017578q 0.230712891 0.151611328 0.555908203 0.151611328q 0.593261719 0 0.837158203 -0.459228516q 0.243896484 -0.459228516 0.243896484 -1.729248047v -2.852050781h -0.73828125v 2.816894531q 0 1.041503906 -0.116455078 1.294189453q -0.116455078 0.252685547 -0.424072266 0.252685547q -0.3515625 0 -0.481201172 -0.270263672q -0.129638672 -0.270263672 -0.129638672 -1.276611328v -2.816894531h -0.73828125v 2.816894531q 0 1.0546875 -0.125244141 1.30078125q -0.125244141 0.24609375 -0.450439453 0.24609375q -0.320800781 0 -0.446044922 -0.270263672q -0.125244141 -0.270263672 -0.125244141 -1.276611328v -2.816894531h -0.733886719v 4.921875h 0.733886719v -0.421875q 0.145019531 0.263671875 0.362548828 0.402099609q 0.217529297 0.138427734 0.494384766 0.138427734q 0.333984375 0 0.555908203 -0.153808594q 0.221923828 -0.153808594 0.344970703 -0.465820313Z "/></symbol></defs></svg>